<svg xmlns="http://www.w3.org/2000/svg" xmlns:xlink="http://www.w3.org/1999/xlink" width="615" height="293" viewBox="0 0 615 293">
  <defs>
    <clipPath id="clip-path">
      <path id="Rectangle_3138" data-name="Rectangle 3138" d="M0,293V0H615V293Z" transform="translate(210.02)" fill="#fff"/>
    </clipPath>
  </defs>
  <g id="Mask_Group_206" data-name="Mask Group 206" transform="translate(-210.02)">
    <path id="Rectangle_3138-2" data-name="Rectangle 3138" d="M0,293V0H615V293Z" transform="translate(210.02)" fill="#fff"/>
    <g id="Mask_Group_206-2" data-name="Mask Group 206" clip-path="url(#clip-path)">
      <g id="Frame" transform="translate(237.385 519.306) rotate(-120)" opacity="0.24">
        <path id="Path_86895" data-name="Path 86895" d="M60.756,140.476h0L60.2,140.2l.2-.4.258.15.377-.218.252.434h0l-.252-.434.2-.114,59.077-34.165.153-.088.226.451.014-.007L61.292,140.166h0l-.535.309Zm-.723-.364h0L.572,105.727,0,105.395V35.035l.634-.319.095-.048L.683,34.7l.249.431-.072.041h0l-.225-.45.226.451-.421.244v69.321h0v.386l.364.21.21.122,59.076,34.165.173.1-.228.394Zm.806-1.181v0l-.06-.105.4-.7-.045-.026.095.048-.391.782Zm-.308-.08h0l-.387-.669.2-.114.322.557-.131.226Zm.235-.048v0l-.1-.177.346-.6.114.066-.356.71Zm-.426-.736h0l-.252-.435.119-.069.5.291-.369.213Zm.825-.477h0l-.5-.291,57.929-33.5v.583L61.166,137.589Zm-.958-.028L2.733,104.324v.134H2.3v-.388l.438.253V103.8l57.929,33.5-.455.263Zm60.531-31.77v0l.015-.009-.253-.437.072-.042.08.159-.079-.159.315-.182V35.411l-.305-.177.28-.485-.281.484h0l-.266-.155L61.237.914,61.122.848,61.4.365,120.862,34.75l.572.331V105.44l-.633.319h0Zm-.272-.428h0l-.286-.572.32.553-.033.019Zm-119.04-.629H1.147l.159-.274h0l.416-.719.21.121-.346.6h0l-.159.274h0Zm118.473,0h-.759v-.274h-.547v-.079l.547-.316v.395h.6l-.322-.557.186-.107.384.664v0h0l-.247,0,.158.273Zm-117.6,0H1.428l.159-.274H2.3v.273Zm117.855-.274h-.136l-.349-.7.109-.055.376.75ZM2.3,104.07h0l-.361-.209.229-.4.134.078v.528Zm116.844-.008v-.583l-.546.316h0V36.734h0L60.663,3.233l.557-.322,57.372,33.177v.645h0l.547.316V103.48l.026-.015.253.437-.277.16ZM2.733,103.8h0l-.436-.252V36.988l-.134.078-.249-.431.383-.222v.575l.438-.253Zm116.432-66.73h0l-.025-.015v-.645l.306.176-.28.484Zm-117.5-.3h0l-.348-.695-.165-.33h.137l.166.33.321.64-.321-.64-.165-.33.195.33.046.079-.046-.079-.191-.33H1.4l.191.33-.19-.33h.9v.33h.438v.087l-.438.253v-.34H1.587l.325.562-.08.046h0L1.8,36.7l-.031.015-.109.054Zm118.052-.032h0l-.267-.154.294-.508h-.6v-.33h.791l-.191.33.191-.33h.356l-.189.33-.383.662Zm-116.98,0v0h0V36.16L60.168,2.947l.495.286Zm116.406-.33h0l-.546-.316v-.015h.547V36.4ZM.965,35.106h0l-.223-.444-.014.007L60.143.31,60.678,0l.553.278-.246.491L60.662.581l-.271.157-.3.176L1.012,35.079l-.045.027Zm59.2-32.16L60.088,2.9l.279-.482h0l-.08-.047.027.013.289-.577.026.044L60.6,1.805l.187-.373.074.126-.2.349v0h0l-.293.509.358.207-.557.322ZM61.22,2.91l-.495-.286.264-.152.248.429Zm-.232-.438h0l-.325-.564.2-.35.427.739-.3.175Zm-.722-.112L60.2,2.329l.325-.65.056.1-.333.575.014.008Z" transform="translate(119.089 309.907)" fill="#dedede"/>
        <path id="Path_86896" data-name="Path 86896" d="M61.31,37.943h0l-.993-.574L.993,3.038l.274-.475L60.59,36.894l.274-.475-.547.949h0l.573-.994.993.573-.572.994Zm.572-.995h0l-.992-.574.274-.475.993.573-.993-.574.228-.4.071-.122L2.138,1.05,2.4.6l-.261.453-.3.518L.847,1l.992.574-.274.475h0l-.251.437-.047.082-.273.474h0L0,2.464.572,1.47l.011.006L.572,1.47.846.995,1.419,0l.993.575h0l59.324,34.33.994.573-.572.994-.274.474Zm-.42-1.569-.041.075.315-.55-.273.473Zm-.573,1h0L59.9,35.8l.275-.476.992.574-.274.476ZM2.559,2.62h0l-.993-.575.274-.475.992.574-.272.475Z" transform="translate(118.793 344.007)" fill="#dedede"/>
        <path id="Path_86897" data-name="Path 86897" d="M1.42,37.972h0l-.573-.994h0L.572,36.5,0,35.508l.993-.575L60.3.576,61.3,0l.572.995-.991.574-.228-.394-.071-.124L1.267,35.408h0l.3.518L.573,36.5l.992-.575.081.141-.081-.141.993-.576.274.477-.993.574-.194-.335.193.335-.974.564L1.84,36.4l.3.519-.3-.519.3.518L61.449,2.563l.032.055-.032-.056-.181-.314-.118-.2.992-.575-.992.575h0l-.991.575h0l-.274-.475.993-.575.037.064-.036-.064.991-.575.275.475.573.994-.992.576h0L2.413,37.4l-.992.576Z" transform="translate(178.102 344.049)" fill="#dedede"/>
        <path id="Path_86898" data-name="Path 86898" d="M2.844,70.954H0V0H2.844V70.953ZM1.7,69.807h.6V1.148H1.7V2.3h-.55V1.148H.55V69.807h.6V68.659H1.7Z" transform="translate(178.385 378.998)" fill="#dedede"/>
        <path id="Path_86899" data-name="Path 86899" d="M60.756,140.475h0L60.2,140.2l.212-.424.3.173.336-.194.237.409h0l-.237-.409.238-.137,59.077-34.166.11-.063.213.425.036-.018-59.436,34.37-.535.309Zm-.723-.365L.573,105.726,0,105.394V35.034l.634-.317.048-.024.263.456-.073.042h0l-.237-.473.238.474-.378.219v69.321h0v.388l.322.187-.242.418.242-.418.25.145,59.078,34.166.132.076-.241.416Zm.525-1.212v0l-.414-.718.238-.137.336.582-.158.273Zm.306-.02v0l-.059-.1.377-.651-.033-.019.083.042-.366.731Zm.185-.831h0l-.339-.2.482-.279.1.058-.241.417Zm-.669-.006h0l-.237-.411.092-.053L2.788,104.356v-.56l57.929,33.5-.482.279h0l.475.274-.328.19Zm.811-.469h0l-.474-.274,57.93-33.5v.551L61.192,137.572Zm59.561-31.79h0l-.239-.415.072-.042.356-.206V36.073H120.1l.191-.329h-.3l.384-.664L61.292.913l-.155-.09L61.1.805l.237-.473.031.015L61.4.364,120.862,34.75h0l.573.331v70.36l-.633.317-.049.024Zm-.275-.395h0l-.288-.576.324.557-.035.02Zm-119-.654-.333,0,.159-.274h0l.415-.718.251.145-.332.573H2.3v.274H1.481Zm118.665,0h-1.005v-.274h-.493v-.111l.493-.285v.4h.653l-.335-.581.145-.084.384.664h0l.158.273Zm0-.274h-.138l-.349-.7.111-.055.376.75Zm-117.363,0H2.3v-.387l.493.285v.1Zm116.353-.4v-.551l-.492.284h0V36.735h0L60.718,3.233l.529-.306,57.4,33.192v.615h0l.493.285V103.51l.079-.046.239.413-.316.183ZM2.788,103.8h0L2.3,103.51V37.021l-.079.046-.263-.454.342-.2v.607l.493-.285ZM119.22,37.066h0l-.078-.045v-.615l.346.2-.266.461Zm-117.559-.3h0l-.348-.695-.165-.329h.137l.165.329.021.042-.021-.042-.165-.329.194.329.1.169-.1-.169-.19-.329H2.3v.329h.493v.056L60.2,2.931l.522.3L2.788,36.735h0v0l0-.606-.493.285v-.341H1.641l.312.539-.121.07h0L1.8,36.7l-.03.014h0l-.107.054Zm118.052-.033h0l-.225-.13.307-.532h-.653v-.329h.844l-.19.329h.3l-.383.662Zm-.572-.33h0l-.492-.285v-.046h.493V36.4ZM.978,35.13h0l-.234-.467-.05.025L60.143.31,60.679,0l.554.277L61,.744,60.718.581,60.4.762l-.262.151L1.066,35.079l-.087.05ZM60.2,2.931l-.052-.03.265-.459-.142-.082.047.023.315-.63.161-.322.1.174.4.692-.262.151h0l-.311-.541-.309.535.316.183-.529.306Zm1.051,0-.522-.3.306-.177.262.453Zm-1-.574L60.2,2.328l.352-.7.162-.322.071.121-.175.3-.361.624Z" transform="translate(0.279 172.587)" fill="#dedede"/>
        <path id="Path_86900" data-name="Path 86900" d="M61.311,37.944h0l-.993-.575.344-.6.031-.053.005-.009.017-.03.176-.305.993.575-.572.995Zm-.993-.576L.994,3.038h0L0,2.463.573,1.47l.011.006L.573,1.47.847.994,1.42,0l.993.575h0L61.736,34.9l.994.575-.572.994-.274.474h0l-.992-.574.244-.424-.244.424L59.9,35.8l.275-.475.992.574-.03.051.03-.051h0l.156-.273.141-.245h0L2.139,1.05,2.4.594l-.263.456-.194.337-.105.181L.848.994l.992.574-.274.476h0l-.3.518,59.323,34.33.07-.122ZM2.56,2.62h0l-.992-.575.274-.476.993.575-.273.475Z" transform="translate(0 206.709)" fill="#dedede"/>
        <path id="Path_86901" data-name="Path 86901" d="M1.42,37.971h0l-.572-.993h0L.573,36.5,0,35.508l.993-.575L60.3.575,61.3,0l.572.994.275.476.574.994-.993.575L2.414,37.4l-.993.575ZM1.84,36.4l.573.993h0l-.274-.475L61.449,2.563l.274.474-.573-.993.992-.575-.992.575-.274-.475.991-.575-.991.575-.118-.2L60.3.576l.274.475L1.267,35.407h0l.3.519L.574,36.5l.992-.574.274.475-.983.57Zm0,0h0l-.273-.475.992-.574.275.474-.992.575ZM60.158,2.62h0l-.274-.474.992-.575.275.475-.991.575Z" transform="translate(59.338 206.724)" fill="#dedede"/>
        <path id="Path_86902" data-name="Path 86902" d="M2.844,70.954H0V0H2.844V70.953ZM1.7,69.807h.6V1.148H1.7V2.3h-.55V1.148H.55V69.807h.6V68.659H1.7Z" transform="translate(59.574 241.678)" fill="#dedede"/>
        <path id="Path_86903" data-name="Path 86903" d="M60.756,140.475h0L60.2,140.2l.246-.492.323.187.271-.157.249.43-.535.308Zm.536-.309v0h0l-.248-.428.3-.175L120.423,105.4l.047-.027.223.444.032-.016Zm-1.259-.056L.572,105.726,0,105.394V35.034l.634-.317.093-.048L.683,34.7l.276.477-.075.043h0l-.249-.5.25.5-.336.195v69.321h0v.333l.305.176-.28.484.28-.483.269.155L60.2,139.561l.115.066-.279.482Zm.537-1.192h0l-.426-.738.3-.175.326.564-.2.348Zm.5-.861h0l-.356-.206.557-.322.079.046-.278.482ZM60.445,138h0l-.247-.428.018-.01.495.286-.264.152Zm-.23-.439L2.842,104.388v-.646l57.929,33.5-.556.322h0Zm1.051-.036h0l-.494-.286,57.929-33.5v.574L61.266,137.529Zm59.486-31.746h0l-.249-.432.072-.042.079.158-.079-.158.42-.243V34.925h-.236l.1-.176.572.331V105.44l-.633.318h0l-.046.024Zm-.284-.413h0l-.291-.581.325.563-.034.019ZM1.5,104.734H1.147l.19-.329.383-.663.269.155L1.7,104.4h.6v.328h-.79l.19-.329h0l-.19.329h0Zm118.535,0h-.9V104.4H118.7v-.087l.438-.253v.339h.709l.19.328ZM2.842,104.4H2.3v-.331l.547.316v.014Zm116.3-.34v-.574l-.437.253h0V36.766h0L60.717,3.233l.529-.306L118.7,36.151v.613h0l.438.253v66.469l.135-.078.249.43-.382.221Zm-116.3-.321h0l-.545-.315V37.051l-.025.015-.277-.478.3-.175v.638l.547-.317ZM119.848,37.219h-.363l-.266-.154h0l-.079-.046v-.613l.346.2-.263.455.263-.454.227.13.081-.14.055-.095v.717ZM1.661,36.769h0l-.348-.695-.165-.329h.136l.2.33.095.164-.094-.164-.191-.33H1.5l.191.33-.191-.33H2.3v.33h.547V36.1L60.194,2.931l.523.3L2.842,36.734h0l0,0h0V36.1l-.547.316v-.34h-.6l.3.515-.162.093h0L1.8,36.7l-.031.015-.108.054ZM119.848,36.5v-.523l.136-.236h-.136v-.817h.254L61.292.914,61.135.824,61.1.806l.237-.474.03.015.03.017L120.862,34.75l-.1.175H120.1l.266.154-.384.663h.3l-.189.33-.246.425Zm-.709-.1h0l-.437-.253v-.078h.438v.332Zm.654-.332h-.654v-.33h.654v.329ZM.989,35.155h0l-.246-.492-.016.008L60.142.31,60.678,0l.553.277L61,.744,60.717.581,60.4.762,60.143.31,60.4.763l-.262.152L1.12,35.079l-.129.075Zm59.2-32.224-.052-.03.266-.459.316.183-.53.306Zm1.053,0-.523-.3.306-.177.262.453Zm-.218-.479h0l-.311-.54.175-.3.4.691-.262.152Zm-.621-.005h0l-.126-.074.032.016.315-.628.089.151-.088-.152.162-.323.1.173-.175.3-.309.535Zm-.146-.084L60.2,2.329l.351-.7.059.1-.361.624.01,0Z" transform="translate(415.625 0.938)" fill="#dedede"/>
        <path id="Path_86904" data-name="Path 86904" d="M61.31,37.943h0l-.993-.574L.993,3.038l0,0v0h0L0,2.464.572,1.47.847.995,1.419,0l.994.575-.274.475-.253.438L1.936,1.4l-.083.148-.014.023L.848,1l.992.574-.274.475h0l-.037.066-.009.015-.253.438,59.324,34.33-.274.475h0l.274-.476.127-.221.171-.3.993.575-.572.993Zm.572-.994h0l-.992-.575.274-.475.993.574-.992-.574.3-.518L2.139,1.051,2.412.576,61.736,34.9l.993.574-.572.994-.274.475Zm-.994-.574h0L59.9,35.8l.275-.476.993.574-.274.476ZM2.559,2.619h0l-.992-.574.274-.475.993.575-.274.474Z" transform="translate(474.691 69.374)" fill="#dedede"/>
        <path id="Path_86905" data-name="Path 86905" d="M1.42,37.971h0l-.573-.993h0L.572,36.5,0,35.508l.993-.575L60.3.575,61.3,0l.573.994-.993.575-.046-.08.046.08-.147-.253-.152-.265L60.3.576l.274.475L1.267,35.408h0l.3.518L.573,36.5l.992-.574.274.475h0l-.273-.474.993-.576.274.476-.993.575h0l-.978.566L1.84,36.4l.046.08L1.84,36.4l.047.079.2.353.05.086L61.449,2.563l.036.062-.035-.062-.3-.519.993-.575-.993.575h0l-.991.574h0l-.273-.474.993-.576.258.447h0l-.258-.447.992-.575.275.476.572.994-.993.575h0L2.413,37.4l-.992.575Z" transform="translate(415.326 69.402)" fill="#dedede"/>
        <path id="Path_86906" data-name="Path 86906" d="M60.756,140.475h0L60.2,140.2l.222-.442.237.137.353-.2.277.477-.535.308Zm.536-.309v0h0l-.276-.475.221-.128L120.314,105.4l.131-.076.247.492.032-.016Zm-1.258-.056L.572,105.726,0,105.394V35.034l.634-.317.093-.048L.683,34.7l.249.43-.072.042h0l-.225-.449.225.45-.421.243v69.321h0v.333l.387.224-.252.436.252-.436.185.107,59.078,34.165.2.114-.251.434Zm.821-1.211v0l-.059-.1.388-.671-.025-.014.074.037-.376.752Zm-.339-.076h0l-.372-.643.221-.128.3.517-.147.254Zm.265-.052v0l-.117-.2.323-.558.172.1-.036-.018-.34.678Zm-.417-.721h0l-.275-.475.072-.042.549.318-.345.2Zm.848-.49v0h0l-.549-.316,57.929-33.5v.638Zm-1.051-.027L2.733,104.325v-.582l57.929,33.5-.5.29h0Zm60.592-31.75h0l-.276-.479.075-.043.088.174-.087-.174.335-.194V35.41l-.3-.176.28-.484-.28.483h0l-.267-.154L61.237.914,61.122.848,61.4.365,120.862,34.75l.572.331V105.44l-.633.318h0l-.046.024Zm-.308-.462h0l-.266-.533.3.515-.031.018ZM1.393,104.734H1.147l.19-.329.383-.663.186.107-.321.555h0l-.19.329h0Zm118.536,0h-.789V104.4h-.549v-.023l.549-.317v.339h.6l.189.328Zm-117.634,0H1.4l.191-.329H2.3v.328Zm.438-.329H2.3v-.331l.438.253v.077Zm-.438-.331h0l-.387-.224.253-.437.136.079v.583Zm116.845-.009v-.638l-.548.317h0V36.734h0L60.663,3.233l.557-.322,57.372,33.176v.645h0l.549.317v66.374l.025-.015.276.478-.3.173Zm-116.407-.32h0l-.436-.252v-66.5l-.136.079-.249-.43.385-.222v.574l.438-.253ZM119.165,37.066h0l-.024-.014v-.645l.305.175-.28.484Zm-117.5-.3h0l-.348-.695-.165-.329h.136l.2.33.352.608L1.8,36.7l-.031.015-.108.054Zm118.052-.032h0l-.267-.154.294-.508.191-.33h.356l-.189.33-.383.662Zm-116.98,0v0h0V36.16L60.167,2.946l.5.287Zm-.9-.052h0l-.351-.608-.191-.33h.105l.191.33.325.563-.078.045Zm.463-.268v-.339H1.586l-.191-.33h.9v.33h.438v.087Zm116.845-.008h0l-.547-.317v-.014h.549v.332Zm.6-.332h-.6v-.33h.79l-.191.33ZM.965,35.106h0l-.222-.443-.016.008L60.142.31,60.678,0l.553.277.11.055-.25.5L60.985.769,60.663.582l-.271.157L60.143.31l.248.429-.3.175L1.011,35.079l-.045.026Zm59.2-32.16L60.088,2.9l.279-.482h0l-.087-.051.033.017.29-.578.06.1-.3.511.356.206-.557.322Zm1.052-.035-.5-.286.265-.153.248.429Zm-.232-.439h0l-.325-.563.2-.35.427.738-.3.175Zm-.729-.115L60.2,2.329l.326-.651.056.1-.334.577.008,0Zm.568-1h0L61.091.83l-.262.522.044-.079Z" transform="translate(297.144 0.938)" fill="#dedede"/>
        <path id="Path_86907" data-name="Path 86907" d="M2.843,70.955H0V0H2.843V70.954ZM1.7,69.808h.6V1.148H1.7V2.3H1.148V1.148h-.6v68.66h.6V68.66H1.7Z" transform="translate(356.437 70.028)" fill="#dedede"/>
        <path id="Path_86908" data-name="Path 86908" d="M61.31,37.943h0l-.994-.574L.993,3.038l0,0v0h0L0,2.464.572,1.47.847.995h0L1.419,0l.993.575L61.736,34.9l.993.575-.573.994-.273.475h0l-.992-.575.273-.475.992.573-.992-.574.3-.518.274-.476-.274.475h0L2.138,1.05l0,.007-.3.511L.859,1l.981.568-.274.475h0l-.3.518L60.59,36.893l-.274.475h0l.574-.994.993.575-.572.993Zm-.422-1.568h0L59.9,35.8l.275-.476.992.574-.274.476ZM2.559,2.619h0l-.992-.574.274-.476.993.575-.274.474Z" transform="translate(356.159 69.38)" fill="#dedede"/>
        <path id="Path_86909" data-name="Path 86909" d="M1.42,37.971h0l-.572-.993h0L.573,36.5,0,35.508l.994-.575L60.3.575,61.3,0l.574.994.274.476.573.994-.993.575L2.414,37.4l-.993.575Zm.42-1.569.573.993h0l-.273-.474L61.449,2.563l.274.474-.573-.993.992-.575-.993.575L60.893,1.6l-.016-.028.992-.575-.992.574-.16-.275.061.1L60.6,1.089l-.022-.039L1.268,35.408h0l.3.518L.574,36.5l.993-.575.258.447-.258-.447.992-.575.275.476-.991.574-.017-.028.016.029ZM60.158,2.62h0l-.274-.474.993-.576.016.028.258.447-.992.575Z" transform="translate(296.793 69.413)" fill="#dedede"/>
        <path id="Path_86910" data-name="Path 86910" d="M60.756,140.476h0L60.2,140.2l.213-.424.3.175.335-.194.238.41h0l-.238-.41.238-.138,59.077-34.165.11-.063.214.426.025-.013L61.292,140.166h0l-.535.309Zm-.723-.364h0L.573,105.727,0,105.395V35.035l.634-.319.083-.042-.035.02.263.454-.072.042h0l-.238-.474.238.475-.378.22v69.321h0v.386l.323.187.249.145,59.078,34.165.132.077-.241.417Zm.525-1.213v0l-.414-.717.238-.138.336.581-.158.274Zm.306-.021v0l-.058-.1.376-.651-.045-.026.095.048-.366.73Zm.185-.83h0l-.339-.2.483-.279.1.057-.241.418Zm-.668-.006h0l-.238-.411.091-.053.475.275-.328.189Zm-.147-.465L2.788,104.356V103.8l57.929,33.5-.482.279h0Zm.958,0v0h0l-.475-.273,57.93-33.5v.551Zm59.552-31.785v0l.009-.005-.239-.413.072-.041.357-.207V36.073H120.1l.191-.33h-.3l.384-.663L61.292.914l-.155-.09L61.4.365l59.46,34.385-.574.993.574-.993.573.331V105.44l-.633.319Zm-.268-.4h0l-.289-.579.326.559-.035.02Zm-119-.654H1.147l.159-.274h0l.416-.719.251.145-.332.573h0l-.159.274h0Zm118.473,0h-.812v-.274h-.493v-.111l.493-.285v.4h.654l-.336-.581.145-.084.384.664v0h0l-.192,0,.158.273Zm-117.658,0H1.482l.159-.274H2.3v.273Zm117.856-.274h-.138l-.349-.7.111-.055.376.75Zm-117.363,0H2.3v-.388l.493.285v.1Zm116.353-.4v-.551l-.492.284h0V36.735h0L60.718,3.233l.53-.306,57.4,33.194v.613h0l.493.285v66.491l.079-.046.239.413-.316.183ZM2.788,103.8h0l-.491-.284V37.02l-.079.046-.263-.454.342-.2v.607l.493-.285ZM119.22,37.066h0l-.078-.045v-.613l.346.2-.266.46Zm-117.559-.3h0l-.348-.695-.165-.33h.137l.165.33.321.641-.321-.641-.165-.33.195.33.1.169-.1-.169-.191-.33H1.45l.191.33-.191-.33H2.3v.33h.493v.055l-.493.285v-.34H1.641l.312.538-.121.07h0L1.8,36.7l-.03.016-.109.054Zm118.052-.032h0l-.226-.131.308-.532h-.653v-.33h.844l-.191.33h.3l-.383.662Zm-116.925,0v0h0v-.6L60.2,2.931l-.052-.03.266-.459h0l-.119-.07.025.013.315-.628.089.152-.309.534.316.183-.53.306.522.3Zm116.353-.329h0l-.492-.285v-.047h.493v.333ZM.978,35.13h0l-.234-.467-.027.013L60.143.31,60.679,0l.554.278L61,.744,60.718.581l-.312.181-.262.152L1.066,35.079l-.087.05Zm60.27-32.2-.522-.3.3-.176.262.453Zm-.218-.478h0l-.311-.54.174-.3.4.69-.262.151Zm-.762-.087L60.2,2.329l.352-.7.059.1-.361.623.016.009Z" transform="translate(0.279 309.907)" fill="#dedede"/>
        <path id="Path_86911" data-name="Path 86911" d="M.138,71.015h0l0-1.146L0,1.153H0L0,.005,1.148,0H1.7l0,1.146-.549,0h0l-.489,0H.551L.683,69.867h.6l0,1.147Zm1.147,0h0l0-1.146h.547l0,1.146,0-1.145.784,0H2.429L2.3,1.149h.548l-1.146,0V0L2.845,0V1.148l.131,68.716,0,1.147H1.285Zm0-1.147h0l0-1.148h.548l0,1.148ZM1.153,2.3h0l0-1.147H1.7V2.3Z" transform="translate(59.614 310.389)" fill="#dedede"/>
        <path id="Path_86912" data-name="Path 86912" d="M61.167,37.862h0l-.993-.575.574-.994.993.575-.573.994Zm-.994-.575L.993,3.039h0L0,2.464l.572-.994L.847.995,1.419,0l.993.575h0L61.594,34.823l.992.575-.572.994h0l-.271.473h0l-.992-.575.273-.475.187.108-.187-.109.3-.518.274-.476-.274.475h0L2.138,1.051l-.3.518L2.4.591l-.564.979L.848.995l.992.575-.274.476h0l-.127.222.02-.038-.183.321-.007.012,59.18,34.248-.274.475h0Zm.573-.994h0l-.992-.575.275-.475.992.575-.274.475ZM2.559,2.62h0l-.992-.574.274-.476.993.575-.274.474Z" transform="translate(59.456 378.421)" fill="#dedede"/>
        <path id="Path_86913" data-name="Path 86913" d="M1.414,37.84h0l-.57-1h0L.57,36.367l-.57-1L.994,34.8,60.44.572,61.434,0l.571,1-.994.572-.3-.519L60.441.573l.272.476L1.267,35.276h0l.3.519-.994.572.994-.571.271.472-.271-.472.994-.573.273.477-.993.572h0l-.991.57.991-.57.021.037.277.482L61.582,2.563l0,.008,0-.008,0-.006-.293-.512.994-.572-.993.571h0l-.272-.475L62.006,1l.273.476.571.994-.994.572h0L2.408,37.266l-.994.573ZM60.289,2.617h0l-.272-.475.994-.572.274.476-.994.572Z" transform="translate(0.035 378.495)" fill="#dedede"/>
        <path id="Path_86914" data-name="Path 86914" d="M60.756,140.476h0L60.2,140.2l.213-.424.3.175.335-.194.238.41h0l-.238-.41.238-.138,59.077-34.165.11-.064.214.426.028-.014L61.292,140.166h0l-.535.309Zm-.723-.364h0L.572,105.727,0,105.395V35.035l.634-.318.048-.024.264.456-.073.042h0l-.237-.473.238.474-.378.219v69.321h0v.387l.322.187.25.145,59.078,34.165.132.077-.241.417Zm.525-1.213v0l-.414-.717.238-.138.336.581-.158.274Zm.306-.02v0l-.058-.1.376-.651-.045-.026.095.048-.366.73Zm.185-.83h0l-.339-.2.483-.279.1.057-.241.418Zm-.668-.006h0l-.238-.411.091-.053.475.275-.328.189Zm-.147-.465L2.788,104.356v.1H2.3v-.388l.493.285V103.8l57.929,33.5-.482.279h0Zm.958,0v0h0l-.475-.273,57.93-33.5v.551Zm59.559-31.789h0l-.239-.415.071-.041.358-.207V35.411l-.347-.2.266-.461-.267.461h0l-.225-.132L61.292.914l-.156-.09L61.4.365,120.862,34.75l.572.332v70.359l-.634.318-.048.024Zm-.274-.4h0l-.3-.593.332.574-.034.02Zm-119-.653H1.147l.159-.274h0l.416-.719.25.145-.332.574h0l-.159.274h0Zm118.671,0h-.2l-.159-.274h0l-.336-.581.145-.084.03-.017.031-.015.349.7h0l.137.274Zm-.2,0h-.814v-.274h-.491v-.111l.491-.284v.395h.655l.158.273Zm-117.658,0H1.482l.159-.274H2.3v.273Zm117.854-.274h-.136l-.349-.7.109-.055.376.75Zm-1.01-.4v-.551l-.49.283h0V36.735h0L60.718,3.233l.528-.306,57.4,33.193v.613h0l.491.284v66.493l.081-.047.239.413-.318.184ZM2.788,103.8h0l-.491-.284V37.02l-.079.046-.263-.454.342-.2v.607l.493-.285ZM119.22,37.066h0l-.08-.046v-.613l.347.2-.266.46Zm-117.559-.3h0l-.348-.695-.165-.329h.136l.166.33.321.641-.321-.641-.165-.33.2.33.033.057-.033-.057-.191-.33H1.45l.191.33-.191-.33H2.3v.33h.493v.055l-.493.285v-.34H1.641l.312.538-.121.07h0L1.8,36.7l-.031.016-.109.054Zm118.052-.032h0l-.226-.131.308-.532h-.655v-.33h.846l-.191.33.192-.33h.3l-.189.33-.383.662Zm-116.925,0v0h0v-.6L60.2,2.931l-.052-.03.265-.458h0l-.141-.082.047.023.315-.628.089.152-.309.535.316.183-.528.306.522.3Zm116.351-.33h0l-.49-.284v-.047h.491V36.4ZM.977,35.13h0l-.234-.466L.7,34.686,60.143.31,60.678,0l.553.278L61,.744l-.28-.163-.312.181-.262.152L1.066,35.079l-.087.051Zm60.269-32.2-.522-.3.306-.177.262.453-.046.026Zm-.217-.479h0l-.311-.54.174-.3.4.69-.262.151Zm-.778-.1L60.2,2.329l.352-.7.059.1-.361.625Z" transform="translate(178.277 206.917)" fill="#dedede"/>
        <path id="Path_86915" data-name="Path 86915" d="M1.284,71.014H.138l0-1.147h0L0,1.152,0,0,1.148,0l0,1.146-.6,0,.015,0L0,1.152H.551L.683,69.866h.6l0,1.147Zm0,0h0l0-1.146h0l0-1.147h.548l0,1.147h0l0,1.146,0-1.145.6,0h0L2.3,1.148H1.7v0h0V2.3H1.152l0-1.147h0L1.148,0H1.7L2.844,0l0,1.148.131,68.714,0,1.147-1.148,0Z" transform="translate(237.558 207.4)" fill="#dedede"/>
        <path id="Path_86916" data-name="Path 86916" d="M61.167,37.861h0l-.991-.575L.993,3.038l.274-.475L60.448,36.81l-.272.475h0l.572-.994.993.573-.573.995Zm.573-1h0l-.992-.573.274-.475.992.574-.992-.574.3-.519.274-.476-.274.475h0L2.139,1.05,2.412.576,61.594,34.822l.992.574-.572,1-.273.473Zm-.994-.573h0l-.992-.574.274-.476.993.575-.273.475ZM.993,3.038h0L0,2.463.572,1.47.846.994l.992.574L.848.994,1.419,0l.994.575-.274.475-.253.438.02-.039-.061.11-.005.008-.258.448-.016.028h0l-.3.519-.273.474ZM2.559,2.62h0l-.992-.574.016-.029.258-.448.993.575-.274.476Z" transform="translate(237.446 275.417)" fill="#dedede"/>
        <path id="Path_86917" data-name="Path 86917" d="M1.414,37.84h0l-.57-1h0l-.272-.475-.571-1L.995,34.8,60.44.572,61.434,0l.571,1,.274.476-1,.572-.273-.476-.3-.518L1.267,35.275h0l.3.52-.994.572.993-.572.273.476.51.891-.213-.372L61.582,2.564h0l-.164-.287-.132-.232.995-.572.571,1-1,.572h0L2.408,37.268l-.994.572Zm.424-1.569h0L1.565,35.8l.993-.572.274.476-.994.572ZM60.289,2.617h0l-.272-.475.994-.572.274.476-.994.572Z" transform="translate(178.019 275.492)" fill="#dedede"/>
        <path id="Path_86918" data-name="Path 86918" d="M60.756,140.531h0l-.553-.278.222-.442.237.138.354-.2.275.474h0l-.275-.474.221-.127,59.077-34.166.131-.075.247.493.043-.022L61.292,140.22l-.535.31Zm-.723-.365L.572,105.781,0,105.449V35.089l.634-.318.08-.04-.033.019.25.431-.071.041h0l-.225-.449.226.45-.421.244v69.321h0v.333l.387.223-.252.436.253-.436.185.107,59.078,34.166.2.114-.251.434Zm.82-1.211v0l-.059-.1.388-.671-.043-.025.093.048-.377.752Zm-.339-.077h0l-.371-.642.222-.128.3.517-.147.253Zm.266-.05v0l-.117-.2.323-.558.138.08-.341.681Zm-.417-.721h0l-.275-.476.072-.042L2.733,104.379V103.8l57.929,33.5-.5.29h0l.55.318-.346.2Zm.848-.49h0l-.549-.318,57.929-33.5v.638L61.213,137.616Zm59.54-31.778h0l-.276-.48.075-.043.251.5-.25-.5.336-.193V35.465l-.3-.176h0l-.267-.155L61.237.969,61.1.89l.3-.523L120.863,34.8l.572.331V105.5l-.634.318-.049.024Zm.681-1.052h0Zm-.989.589h0l-.266-.532.3.515-.031.018ZM1.393,104.788H1.147l.19-.329.384-.664.187.108-.322.556h0l-.191.329h0Zm118.537,0h-.79v-.329h-.548v-.024l.548-.317v.34h.6l.189.328Zm-117.635,0h-.9l.191-.329H2.3v.328Zm.438-.329H2.3v-.332l.438.253v.078Zm-.438-.332h0l-.386-.223.253-.437.134.078v.584Zm116.845-.009v-.638l-.547.316h0V36.789h0L60.663,3.288l.574-.332-.03-.051,57.385,33.237v.647h0l.548.317v66.373l.025-.015.276.478-.3.174ZM2.733,103.8h0l-.436-.252v-66.5l-.134.078-.249-.43.383-.222v.575l.438-.253ZM119.165,37.12h0l-.024-.014V36.46l.306.176-.28.484Zm-117.5-.3h0l-.348-.7L1.147,35.8h.136l.2.329.353.609-.031.017-.031.015-.108.054Zm118.051-.033h0l-.266-.154.294-.509.19-.329h.357l-.191.329-.384.662Zm-116.979,0v0h0v-.572L60.121,2.974l.542.313Zm-.9-.053h0l-.353-.608L1.288,35.8h.106l.191.329.326.563-.078.045Zm.463-.268v-.34H1.586L1.395,35.8h.9v.329h.438v.087Zm116.845-.009h0l-.547-.317v-.014h.548v.332Zm.6-.332h-.6V35.8h.79l-.19.329ZM.965,35.161h0l-.222-.443-.029.014L60.143.311,60.678,0l.554.277-.268.534-.3-.174L60.415.78,60.143.311l.272.469-.326.189L1.011,35.134l-.045.026ZM60.121,2.974l-.032-.019.3-.524.333.193-.6.35Zm.843-.489h0l-.3-.522.218-.377.411.71-.327.189Zm-.573-.053h0l-.108-.064.032.016.274-.548.032.055-.032-.057.2-.4.09.153-.218.376v0h0l-.269.469Zm-.129-.074L60.2,2.329l.311-.621.055.094-.318.549.012.006Z" transform="translate(356.276 103.873)" fill="#dedede"/>
        <path id="Path_86919" data-name="Path 86919" d="M.138,71.015h0l0-1.146L0,1.153,0,.005,1.148,0,1.7,0,2.844,0l0,1.147.131,68.715,0,1.147-1.148,0H1.284l0-1.146,0,1.147Zm1.691-1.151,0,1.146,0-1.145.822,0H2.43L2.3,1.149h.548l-1.146,0L1.7,0l0,1.147H1.15L1.148,0l0,1.147-.565,0H.551L.683,69.867H1.829Zm-.547,0h0l0-1.147h.549l0,1.148ZM1.7,2.3H1.153l0-1.147H1.7L1.7,2.3Z" transform="translate(415.556 104.354)" fill="#dedede"/>
        <path id="Path_86920" data-name="Path 86920" d="M61.167,37.861h0l-.992-.575h0L.993,3.039,0,2.464.572,1.47.847.995,1.419,0l.993.575h0L61.593,34.823l.993.574-.572.995-.273.475h0l-.573.993Zm-.42-1.569.979.567-.979-.567.274-.476.992.574-.992-.575.3-.517L2.138,1.051,2.4.6l-.261.453-.3.518L.848,1l.991.574-.228.4-.046.079h0l-.3.518.3-.518-.3.519L60.448,36.811l.027-.047.015-.025.153-.265Zm0,0h0l-.991-.575.274-.476.993.575-.274.476ZM2.559,2.619h0l-.992-.574.046-.079.228-.4.994.575-.274.474Z" transform="translate(415.397 172.411)" fill="#dedede"/>
        <path id="Path_86921" data-name="Path 86921" d="M1.414,37.832h0l-.57-.995h0l-.272-.475-.571-1,.995-.572L60.448.572l0,0,0,0L61.442,0l.571,1,.273.477.571,1-.995.572h0L2.408,37.26l-.994.572Zm.424-1.568.3.52.268.469-.268-.469L61.589,2.564l.014.024-.014-.024-.3-.519.993-.572-.994.571h0l-.993.572h0l-.272-.476.993-.572.263.459-.262-.459L62.012,1l-.993.572-.3-.519L1.268,35.268h0l.3.519-.993.573.994-.572.273.476-.992.572Zm0,0h0l-.272-.476.994-.573.274.476-.994.572Z" transform="translate(355.938 172.439)" fill="#dedede"/>
        <path id="Path_86922" data-name="Path 86922" d="M60.756,140.531h0l-.552-.277.221-.442.237.138.354-.205.276.477-.535.309Zm.536-.31v0h0l-.276-.475.221-.128,59.077-34.165.131-.076.248.494.014-.007Zm-1.258-.055L.572,105.781,0,105.449V35.089l.634-.317.047-.024.251.433-.071.041h0l-.225-.449.226.45-.421.243v69.321h0v.331l.387.224-.253.437.253-.437.187.108,59.076,34.165.2.114-.251.435Zm.82-1.211v0l-.059-.1.388-.671-.045-.026.095.048-.377.752Zm-.339-.078h0l-.371-.642.221-.128.3.517-.147.253Zm.266-.05v0l-.117-.2.322-.557.138.08-.341.68Zm-.417-.721h0l-.275-.476.071-.041.55.318-.345.2Zm.848-.491v0h0l-.549-.316,57.929-33.5v.638Zm-1.053-.027L2.733,104.379V103.8l57.929,33.5-.5.291Zm60.578-31.743v0l.015-.009-.276-.478.074-.043.087.173-.086-.173.336-.195V35.465l-.329-.19.3-.525-.3.525h0l-.243-.141L61.237.969,61.1.889l.3-.524L120.862,34.75l.572.331V105.5l-.633.319h0Zm-.294-.47h0l-.264-.529.3.512-.03.018Zm-119.05-.586-.247,0,.191-.329h0l.385-.664.186.107-.322.557H2.3v.328H1.4l.19-.329h0l-.19.329h0Zm118.536,0h-.791v-.329h-.547v-.024l.547-.316v.34h.6l.189.328Zm-117.2-.329H2.3v-.333h0l-.385-.223.253-.437.134.078v.583l.438.253v.079Zm116.406-.341v-.638l-.546.316h0V36.789h0L60.663,3.288l.574-.332-.03-.052,57.454,33.224h-.069v.66h0l.547.316V103.48l.026-.015.276.478-.3.174ZM2.733,103.8h0l-.436-.252v-66.5l-.134.078-.249-.43.383-.222v.575l.438-.253ZM119.165,37.12h0l-.025-.015v-.7l.33.19-.3.525Zm-117.5-.3h0l-.348-.695L1.148,35.8h.137l.166.329.02.039-.02-.039L1.285,35.8l.195.329.035.06-.034-.06L1.289,35.8H1.4l.19.329L1.4,35.8h.9v.329h.438v.087l-.438.254v-.34H1.587l.325.562-.079.046h0l-.03.017-.031.015h0l-.107.054Zm1.072-.034v0h0v-.572L60.121,2.974l.542.313Zm116.98-.053h0l-.243-.141.27-.467h-.6v-.384h.822l-.222.384.222-.384h.324l-.22.384-.351.608Zm-.574-.331h0l-.476-.276h.478V36.4ZM.966,35.161h0l-.222-.443L.7,34.74,60.142.311,60.678,0l.553.277.11.055L61.07.873,60.964.812l-.3-.174L60.415.78,60.143.311l.272.469-.326.189L1.012,35.134l-.045.026ZM60.121,2.974l-.032-.019.3-.524.333.193-.6.35Zm.843-.489h0l-.3-.522.218-.377.411.71-.327.189Zm-.573-.053h0l-.115-.067.038.019.274-.548.074.125-.073-.127.2-.4.09.153-.218.376-.271.471Zm-.134-.077L60.2,2.329l.311-.62.055.094-.318.549.005,0Z" transform="translate(119.089 103.927)" fill="#dedede"/>
        <path id="Path_86923" data-name="Path 86923" d="M.138,71.015h0l0-1.146L0,1.153,0,.005,1.148,0,1.7,0,2.844,0l0,1.147h0l.132,68.715,0,1.147-1.148,0H1.284l0-1.146,0,1.147Zm1.691-1.151,0,1.146,0-1.145.822,0H2.43L2.3,1.149h.544l-1.142,0h-.55l-.564,0H.551L.682,69.867H1.829Zm-.547,0h0l0-1.147h.549l0,1.148ZM1.7,2.3H1.153l0-1.147H1.7L1.7,2.3Z" transform="translate(178.372 104.464)" fill="#dedede"/>
        <path id="Path_86924" data-name="Path 86924" d="M.138,71.015h0l0-1.146L0,1.153,0,.005,1.148,0,1.7,0,2.844,0l0,1.147h0l.132,68.715,0,1.147-1.148,0H1.284l0-1.146,0,1.147Zm1.691-1.151,0,1.146,0-1.145.822,0H2.43L2.3,1.149h.544l-1.142,0h-.55l-.564,0H.551L.682,69.867H1.829Zm-.547,0h0l0-1.147h.549l0,1.148ZM1.7,2.3H1.153l0-1.147H1.7L1.7,2.3Z" transform="translate(118.794 0.953)" fill="#dedede"/>
        <path id="Path_86925" data-name="Path 86925" d="M.138,71.015h0l0-1.146L0,1.153,0,.005,1.148,0,1.7,0,2.844,0l0,1.147h0l.132,68.715,0,1.147-1.148,0H1.284l0-1.146,0,1.147Zm1.691-1.151,0,1.146,0-1.145.822,0H2.43L2.3,1.149h.544l-1.142,0h-.55l-.564,0H.551L.682,69.867H1.829Zm-.547,0h0l0-1.147h.549l0,1.148ZM1.7,2.3H1.153l0-1.147H1.7L1.7,2.3Z" transform="translate(238.639)" fill="#dedede"/>
        <path id="Path_86926" data-name="Path 86926" d="M61.167,37.86h0l-.991-.574L.994,3.038l.273-.475L60.448,36.811h0l.138-.239.161-.279.975.564-.975-.564.274-.476.991.573-.991-.573.126-.22.172-.3L2.139,1.051,2.412.576,61.594,34.823l.992.574-.572.994-.273.475h0l-.573.993Zm-.42-1.567h0l-.992-.575.274-.476.994.575-.274.476ZM.994,3.038h0L0,2.464.572,1.47.847.995,1.419,0l.994.575-.274.475-.278.483-.02.035L.848,1l.992.574-.274.475h0l-.3.519-.272.474Zm1.565-.419h0l-.992-.574.274-.476.993.575-.274.474Z" transform="translate(178.246 172.513)" fill="#dedede"/>
        <path id="Path_86927" data-name="Path 86927" d="M61.167,37.86h0l-.991-.574L.994,3.038l.273-.475L60.448,36.811h0l.138-.239.161-.279.975.564-.975-.564.274-.476.991.573-.991-.573.126-.22.172-.3L2.139,1.051,2.412.576,61.594,34.823l.992.574-.572.994-.273.475h0l-.573.993Zm-.42-1.567h0l-.992-.575.274-.476.994.575-.274.476ZM.994,3.038h0L0,2.464.572,1.47.847.995,1.419,0l.994.575-.274.475-.278.483-.02.035L.848,1l.992.574-.274.475h0l-.3.519-.272.474Zm1.565-.419h0l-.992-.574.274-.476.993.575-.274.474Z" transform="translate(118.992 275.305)" fill="#dedede"/>
        <path id="Path_86928" data-name="Path 86928" d="M1.415,37.839h0l-.571-.994h0l-.272-.476-.571-1L.995,34.8,60.44.572l1-.572.57,1,.274.476-.994.572-.273-.476L62,1l-.992.571-.139-.241.138.241-.242-.421-.055-.1L60.441.573l.273.475L1.268,35.276h0l.3.518-.993.573.994-.572.272.474-.272-.474.994-.572.274.476-.994.572h0l-.87.5.87-.5.269.468.025.044,0,.006h0L61.582,2.563l.273.476L2.408,37.266l-.993.572Zm60.441-34.8h0l-.571-.994.021.036-.021-.036.994-.573.57,1-.992.572Zm-1.565-.422h0l-.273-.476.994-.572.273.477-.993.572Z" transform="translate(118.81 172.51)" fill="#dedede"/>
        <path id="Path_86929" data-name="Path 86929" d="M60.756,140.53h0l-.553-.276.234-.467.28.162.312-.18.262.45h0l-.262-.45.262-.151,59.077-34.165.088-.051.235.468.032-.016L61.292,140.22h0l-.535.309Zm-.723-.365h0L.572,105.781,0,105.449V35.089l.634-.317.047-.024.264.456-.072.042h0l-.237-.473.238.474-.378.219v69.321h0v.333l.346.2-.266.46.266-.46.227.131,59.077,34.165.156.09-.265.458Zm.509-1.24h0l-.4-.69.262-.151.313.541-.174.3Zm.484-.837h0l-.316-.183.53-.306.052.03-.265.458Zm-.622-.006h0l-.261-.452.045-.026-57.4-33.192V103.8l57.929,33.5-.529.306h0l.522.3-.3.176Zm.835-.483v0h0l-.522-.3,57.929-33.5v.607Zm59.513-31.762h0l-.262-.456.073-.042.083.165-.082-.165.378-.218V35.465l-.369-.214.29-.5-.29.5h0l-.2-.117L61.292.969l-.18-.1L61.082.848,61.34.332l.031.015.03.017L120.862,34.75l.572.331V105.5l-.633.318h0l-.046.024Zm-.3-.437h0l-.279-.557.312.539-.032.019Zm-.47-.611,0,0-.19-.329h.161l.19.329h-.161Zm-118.538,0h-.3l.19-.329h0l.383-.663.227.131-.307.532h0l-.19.329h0Zm118.536,0h-.844v-.329h-.494V104.4l.494-.286v.339h.654l.189.328Zm-117.689,0H1.45l.191-.329H2.3v.328Zm.493-.329H2.3v-.331h0l-.346-.2.266-.461.081.047v.615l.493.285v.045Zm116.352-.34v-.607l-.493.285h0V36.788h0L60.717,3.288l.575-.332,0,0,57.37,33.175h-.014v.66h0l.494.286V103.51l.08-.046.263.455-.341.2ZM2.788,103.8h0l-.491-.284V37.074l-.081.047-.262-.454.343-.2v.606l.493-.285ZM119.22,37.12h0l-.079-.046v-.668l.37.213-.29.5Zm-117.559-.3h0l-.349-.7L1.148,35.8h.136l.165.329.021.042-.021-.042L1.284,35.8l.195.329.345.6-.345-.6L1.288,35.8h.161l.19.329.312.54-.119.069h0l-.03.017-.031.015h0l-.106.054Zm1.127-.035v0h0v-.6L60.148,2.959l.569.329Zm116.925-.052h0l-.2-.117.284-.492.222-.384h.269l-.22.384-.352.608ZM2.295,36.468v-.34H1.641L1.45,35.8H2.3v.329h.493v.055Zm116.845-.062h0l-.479-.277h.48v-.384h.876l-.222.384h-.654v.278ZM.977,35.185h0l-.234-.467-.041.02L60.142.311,60.678,0l.553.277-.255.509-.259-.15L60.429.8,60.143.311,60.428.8l-.286.165L1.066,35.134l-.088.051ZM60.148,2.959l-.005,0,.29-.5h0l-.153-.09.036.018.3-.6.1.177-.285.493.292.169-.577.334Zm.857-.5h0l-.287-.5.19-.329.384.662-.286.166Zm-.746-.105L60.2,2.329l.337-.673.057.1-.345.6.007,0Z" transform="translate(178.387 0.992)" fill="#dedede"/>
        <path id="Path_86930" data-name="Path 86930" d="M61.167,37.861h0l-.993-.575L.993,3.038,0,2.464.572,1.47.847.995h0L1.419,0l.993.575,59.18,34.247.994.575-.572.995-.273.474h0l-.573.994Zm-59.9-35.3L60.447,36.811l-.258.447.258-.447.126-.219.173-.3.989.571-.989-.572.274-.475.992.574-.992-.574.074-.131.225-.388.273-.476-.273.475h0L2.138,1.05l0,.007-.3.511L.859,1l.98.567-.274.475h0l-.3.518Zm59.48,33.73h0l-.991-.575.274-.475.993.574-.274.475ZM2.559,2.619h0l-.992-.574.274-.476.993.575-.274.474Z" transform="translate(237.6 69.552)" fill="#dedede"/>
        <path id="Path_86931" data-name="Path 86931" d="M1.414,37.839h0l-.57-.995h0l-.272-.475-.571-1L.994,34.8,60.44.572,61.434,0l.571,1,.272.476-.993.572-.021-.036-.252-.44-.3-.519L1.267,35.275h0l.3.52-.993.572.993-.572.272.474-.272-.474.994-.573.273.476-.993.572h0l-.808.465.808-.465.57.993-.272-.474L61.581,2.563l.273.477L2.408,37.266l-.994.572Zm60.44-34.8h0l-.272-.475-.3-.519.993-.572.571,1-.994.572Zm-1.565-.422h0l-.272-.476.995-.572.252.44.021.036-.994.573Z" transform="translate(178.122 69.559)" fill="#dedede"/>
        <path id="Path_86932" data-name="Path 86932" d="M60.756,140.476h0L60.2,140.2l.213-.425.3.174.335-.194.238.41h0l-.238-.41.238-.138,59.078-34.165.11-.064.214.426.026-.013L61.291,140.166l-.534.309Zm-.723-.365L.572,105.726,0,105.395V35.034l.634-.318.079-.039-.03.018.263.454-.073.042h0l-.237-.474.238.475-.378.219v69.321h0v.388l.322.186-.242.419.242-.419.25.145,59.077,34.165.132.076-.241.417Zm.524-1.212v0l-.414-.718.238-.138.336.582-.158.274Zm.492-.851h0l-.339-.2.482-.279.1.058-.241.417Zm-.669-.006h0l-.237-.411.093-.053.475.274-.328.19Zm-.145-.465L2.788,104.357V103.8l57.929,33.5-.481.278Zm.956,0h0l-.474-.274,57.929-33.5v.551L61.191,137.572Zm59.559-31.789v0l0,0-.239-.413.071-.041.075.149-.074-.15.356-.206V36.073H120.1l.191-.33.574-.993-.575.992h-.3l.384-.663L61.291.914l-.156-.09L61.4.365,120.862,34.75l.572.331V105.44l-.633.318h0Zm-.272-.4h0l-.3-.6.335.58-.034.02Zm-119-.654H1.147l.159-.275h0l.415-.718.251.145-.331.572h0l-.159.274h0Zm118.472,0h-.813v-.275h-.493v-.11l.493-.285v.394h.655l-.335-.58.145-.084.383.663v0h-.194l.157.273Zm-117.657,0H1.482l.159-.275H2.3v.274Zm117.854-.275h-.137l-.349-.7.11-.055.376.749Zm-117.361,0H2.3v-.386l.493.285v.1Zm116.351-.395v-.551l-.492.284h0V36.734h0L60.717,3.233l.53-.307,57.4,33.193v.613h0l.493.285v66.493l.081-.047.239.413-.318.184ZM2.788,103.8h0l-.491-.284V37.019l-.08.046-.263-.454.343-.2v.606l.493-.285ZM119.22,37.066h0l-.08-.046v-.613l.347.2-.266.46Zm-117.559-.3h0l-.348-.695-.165-.33h.136l.166.33.321.64-.321-.64-.165-.33.2.33.352.608L1.8,36.7l-.031.015-.108.054Zm118.052-.032h0l-.226-.131.308-.532h-.655v-.33h.846l-.191.33h.3l-.383.662Zm-116.925,0v0h0v-.6L60.194,2.93l.523.3Zm-.957-.053h0l-.352-.608-.191-.33h.161l.191.33.312.539-.12.069Zm.463-.268v-.339H1.641l-.191-.33H2.3v.33h.493v.055ZM119.139,36.4h0l-.492-.285v-.046h.493V36.4ZM.977,35.131h0l-.234-.467-.03.015L60.142.31,60.678,0l.553.277L61,.744l-.28-.163-.312.181L60.143.31,60.4.763l-.262.152L1.066,35.079l-.088.051ZM60.194,2.93l-.051-.03.266-.46h0l-.1-.056.316-.63.089.152-.308.533.316.183-.53.307Zm1.053,0-.523-.3.3-.176.262.453Zm-.219-.478h0l-.311-.54.175-.3.4.689-.262.152Zm-.757-.085L60.2,2.329l.352-.7.058.1-.36.623.019.011Z" transform="translate(59.631 0.938)" fill="#dedede"/>
        <path id="Path_86933" data-name="Path 86933" d="M61.168,37.861h0l-.992-.575h0L.994,3.038h0L0,2.464.572,1.47.847.995,1.419,0l.994.575-.274.475-.278.483-.02.035L.848,1l.992.574-.274.475h0l-.3.519-.272.474h0l.273-.475L60.449,36.811l.027-.047.015-.025.154-.266.1-.18.975.564-.975-.564.274-.475.991.574-.991-.575.3-.517L2.139,1.051,2.412.576,61.594,34.823l.993.574-.573.995-.273.474h0l-.572.994Zm-.421-1.568h0l-.992-.575.275-.475.993.575-.274.475ZM2.559,2.619h0l-.992-.574.274-.476.993.575-.274.474Z" transform="translate(118.774 69.479)" fill="#dedede"/>
        <path id="Path_86934" data-name="Path 86934" d="M1.414,37.832h0l-.57-.995h0L.571,36.36l-.571-1,.995-.572L60.448.572,61.442,0l.571,1,.274.476.57,1-.995.572L2.408,37.26l-.994.572Zm.151-2.044.273.476-.991.571.991-.57L2,36.548l.126.221.007.012v0L61.588,2.563l-.3-.519.57,1-.57-1,1-.573-1,.572-.272-.476L62.012,1l-.993.572-.186-.322-.112-.2L60.448.573l.272.476L1.268,35.269h0l.3.518-.993.572Zm.273.476h0l-.272-.475.994-.572.272.476-.993.572ZM60.3,2.616h0l-.271-.475.993-.572.273.476-.993.572Z" transform="translate(59.345 69.486)" fill="#dedede"/>
        <path id="Path_86935" data-name="Path 86935" d="M60.756,140.531h0l-.553-.278.222-.442.237.138.354-.2.275.474h0l-.275-.474.221-.127,59.077-34.166.131-.075.247.493.043-.022L61.292,140.22l-.535.31Zm-.723-.365L.572,105.781,0,105.449V35.089l.634-.318.072-.036-.025.014.25.431-.071.041h0l-.225-.449.226.45-.421.244v69.321h0v.333l.387.223-.252.436.253-.436.185.107,59.078,34.166.2.114-.251.434Zm.82-1.211v0l-.059-.1.388-.671-.043-.025.093.048-.377.752Zm-.339-.077h0l-.371-.642.222-.128.3.517-.147.253Zm.266-.05v0l-.117-.2.323-.558.138.08-.341.681Zm-.417-.721h0l-.275-.476.072-.042L2.733,104.379V103.8l57.929,33.5-.5.29h0l.55.318-.346.2Zm.848-.49h0l-.549-.318,57.929-33.5v.638L61.213,137.616Zm59.54-31.778h0l-.276-.48.075-.043.251.5-.25-.5.336-.193V35.465l-.3-.176.281-.484-.28.484h0l-.267-.155L61.237.969,61.1.89l.3-.523L120.863,34.8l.572.332V105.5l-.634.318-.049.024Zm.681-1.052h0Zm-.989.589h0l-.266-.532.3.515-.031.018ZM1.393,104.788H1.147l.19-.329.384-.664.187.108-.322.556h0l-.191.329h0Zm118.537,0h-.79v-.329h-.548v-.024l.548-.317v.34h.6l.189.328Zm-117.635,0h-.9l.191-.329H2.3v.328Zm.438-.329H2.3v-.332l.438.253v.078Zm-.438-.332h0l-.386-.223.253-.437.134.078v.584Zm116.845-.009v-.638l-.547.316h0V36.789h0L60.663,3.288l.574-.332-.03-.051,57.385,33.238v.646h0l.548.317v66.373l.025-.015.276.478-.3.174ZM2.733,103.8h0l-.436-.252v-66.5l-.134.078-.249-.43.383-.222v.575l.438-.253ZM119.165,37.12h0l-.024-.014v-.645l.305.176-.279.483Zm-117.5-.3h0l-.348-.7L1.147,35.8h.136l.165.329.021.042-.021-.042L1.284,35.8l.2.329.353.609-.031.017-.031.015h0l-.106.054Zm118.051-.032h0l-.266-.154.295-.509.19-.329h.356l-.189.329-.384.663Zm-116.979,0v0h0v-.572L60.121,2.974l.542.313Zm-.9-.053h0l-.353-.608L1.288,35.8h.106l.191.329.326.563-.078.045Zm.463-.268v-.34H1.586L1.395,35.8h.9v.329h.438v.087ZM119.14,36.46h0l-.547-.317v-.015h.548v.333Zm.6-.333h-.6V35.8h.79l-.19.329ZM.965,35.161h0l-.222-.442-.037.018L60.143.311,60.678,0l.554.277-.268.534-.3-.174L60.415.78,60.143.311l.272.469-.326.189L1.011,35.134l-.045.026ZM60.121,2.974l-.032-.019.3-.524.333.193-.6.35Zm.843-.489h0l-.3-.522.218-.377.411.71-.327.189Zm-.573-.053h0l-.108-.064.032.016.274-.548.032.055-.032-.057.2-.4.09.153-.218.376v0h0l-.269.469Zm-.129-.074L60.2,2.329l.311-.621.055.094-.318.549.012.006Z" transform="translate(356.275 103.873)" fill="#dedede"/>
      </g>
    </g>
  </g>
</svg>
