<svg xmlns="http://www.w3.org/2000/svg" width="24.975" height="24.977" viewBox="0 0 24.975 24.977">
  <g id="Group_87320" data-name="Group 87320" transform="translate(0.005 0)">
    <g id="telephone">
      <g id="Group_87172" data-name="Group 87172">
        <path id="Path_6935" data-name="Path 6935" d="M21,15.625a1.936,1.936,0,0,0-2.926,0c-.684.678-1.368,1.357-2.041,2.047a.4.4,0,0,1-.563.1c-.443-.241-.914-.437-1.34-.7a21.225,21.225,0,0,1-5.117-4.657A12.123,12.123,0,0,1,7.179,9.479a.421.421,0,0,1,.1-.54C7.966,8.277,8.633,7.6,9.306,6.92a1.943,1.943,0,0,0-.006-3c-.535-.54-1.069-1.069-1.6-1.61C7.144,1.763,6.6,1.205,6.04.659A1.948,1.948,0,0,0,3.114.665c-.69.678-1.351,1.374-2.052,2.041A3.332,3.332,0,0,0,.015,4.954a9.525,9.525,0,0,0,.736,4.1,24.91,24.91,0,0,0,4.421,7.365,27.36,27.36,0,0,0,9.061,7.089,13.1,13.1,0,0,0,5.019,1.46,3.678,3.678,0,0,0,3.156-1.2c.586-.655,1.248-1.253,1.869-1.88a1.956,1.956,0,0,0,.012-2.978Q22.65,17.261,21,15.625Z" fill="#ffc20e"/>
      </g>
    </g>
  </g>
</svg>
