<svg xmlns="http://www.w3.org/2000/svg" xmlns:xlink="http://www.w3.org/1999/xlink" width="241" height="252" viewBox="0 0 241 252">
  <defs>
    <clipPath id="clip-path">
      <rect id="Rectangle_3142" data-name="Rectangle 3142" width="241" height="252" transform="translate(24 1508)" fill="#fff" stroke="#707070" stroke-width="1"/>
    </clipPath>
  </defs>
  <g id="Mask_Group_209" data-name="Mask Group 209" transform="translate(-24 -1508)" clip-path="url(#clip-path)">
    <g id="Frame" transform="translate(67.288 1828.372) rotate(-120)" opacity="0.207">
      <path id="Path_86698" data-name="Path 86698" d="M283.083,207.457l.239-.476-.257-.129-.248.144Zm.051.026.266-.461-.014-.008-.014-.007Zm27.606,15.964h.533v-.307l-.266-.153Zm0,32.031.239.476.294-.148v-.329Zm-.051.026-.239-.476-.014.007-.014.008Zm-27.607,15.964-.239.476.257.129.249-.144Zm-.051-.026-.267.461.014.008.014.007Zm-27.607-15.964h-.533v.307l.266.154Zm0-32.031-.239-.476-.294.148v.329Zm.051-.026.239.476.014-.007.014-.008Zm55.009.179h.533v-.307l-.266-.154Zm-27.429-15.862.267-.461-.267-.154-.266.154ZM255.629,223.6l-.266-.461-.266.154v.307Zm0,31.75H255.1v.307l.266.154Zm27.428,15.862-.266.461.266.155.267-.155Zm27.429-15.862.266.461.266-.154v-.307Zm-27.642-47.417.051.026.477-.952-.051-.026Zm.023.01,27.607,15.964.533-.922L283.4,207.021Zm27.34,15.5v32.031h1.065V223.447ZM310.5,255l-.051.026.477.953.051-.026Zm-.079.041-27.606,15.964.533.922,27.606-15.964Zm-27.1,15.949-.051-.026-.477.952.051.026Zm-.023-.01-27.606-15.964-.534.923L282.765,271.9Zm-27.34-15.5V223.447h-1.065v32.031Zm-.294-31.554.051-.026-.478-.953-.051.026Zm.079-.04,27.607-15.964-.533-.923L255.21,222.96Zm55.009-.744-27.428-15.862-.533.922,27.428,15.862Zm-27.961-15.862-27.428,15.862.533.922L283.324,208.2ZM255.1,223.6v31.75h1.065V223.6Zm.266,32.211,27.428,15.862.533-.922L255.9,254.889Zm27.961,15.862,27.428-15.862-.533-.922-27.428,15.862Zm27.694-16.323V223.6h-1.065v31.75Z" transform="translate(-199.602 -63.403)" fill="#0054a6"/>
      <path id="Path_86699" data-name="Path 86699" d="M334.712,253.238l.461.267.266-.462-.461-.266Zm-.127.221-.266.461.461.267.266-.462ZM307.042,237.52l-.461-.267-.266.462.461.266Zm.127-.221.266-.461-.461-.267-.266.462Zm27.082,15.672-.127.221.922.533.127-.221Zm.6.026-27.543-15.939-.532.923,27.543,15.939ZM307.5,237.787l.127-.221-.922-.533-.127.221Zm-.6-.026L334.446,253.7l.532-.923-27.543-15.939Z" transform="translate(-251.162 -77.291)" fill="#0054a6"/>
      <path id="Path_86700" data-name="Path 86700" d="M283.028,237.557l.266.462.461-.267-.266-.461Zm-27.536,15.952-.461.267.266.462.461-.267Zm-.127-.221-.266-.461-.461.267.266.462ZM282.9,237.337l.461-.267-.266-.462-.461.267Zm-.139-.241-27.537,15.952.532.923,27.537-15.951Zm-26.81,16.146-.127-.221-.922.534.127.221Zm-.322.508L283.167,237.8l-.532-.923L255.1,252.827ZM282.44,237.6l.127.221.922-.534-.127-.221Z" transform="translate(-171.948 -77.308)" fill="#0054a6"/>
      <path id="Path_86701" data-name="Path 86701" d="M307.358,299.477v.533h.533v-.533Zm-.255,0h-.533v.533h.533Zm0-31.877v-.533h-.533v.533Zm.255,0h.533v-.533h-.533Zm0,31.345H307.1v1.065h.255Zm.278.533V267.6H306.57v31.877Zm-.533-31.345h.255v-1.065H307.1Zm-.278-.533v31.877h1.065V267.6Z" transform="translate(-223.749 -91.541)" fill="#0054a6"/>
      <path id="Path_86702" data-name="Path 86702" d="M386.629,87.779l.239-.476-.257-.129-.249.144Zm.051.026.267-.461-.014-.008-.014-.007Zm27.607,15.964h.533v-.307l-.266-.154Zm0,32.03.239.476.294-.147V135.8Zm-.051.026-.239-.476-.014.007-.014.007Zm-27.607,15.965-.238.476.256.128.249-.144Zm-.051-.026-.267.461.014.009.014.007ZM358.972,135.8h-.533v.307l.266.154Zm0-32.03-.239-.476-.294.147v.329Zm.051-.026.239.476.014-.007.014-.008Zm27.606-15.684.267-.461-.267-.154-.266.154ZM359.2,103.921l-.267-.461-.266.154v.307Zm0,31.75h-.533v.307l.266.154Zm27.428,15.862-.266.461.266.154.267-.154Zm27.429-15.862.266.461.266-.154v-.307ZM386.39,88.255l.051.026.477-.952-.051-.026Zm.023.01,27.607,15.964.533-.922L386.947,87.343Zm27.341,15.5V135.8h1.065v-32.03Zm.294,31.554-.051.026.477.953.051-.026Zm-.079.04-27.606,15.965.533.922L414.5,136.286Zm-27.1,15.95-.051-.026-.477.953.051.026Zm-.023-.011-27.606-15.964-.533.922,27.606,15.964ZM359.5,135.8v-32.03h-1.065V135.8Zm-.294-31.554.051-.026-.477-.953-.051.026Zm.079-.04L386.9,88.24l-.533-.922-27.607,15.964Zm55.035-.744L386.9,87.6l-.533.922,27.428,15.862ZM386.362,87.6,358.934,103.46l.534.923L386.9,88.52Zm-27.694,16.323v31.75h1.065v-31.75Zm.266,32.211,27.429,15.862.533-.923L359.468,135.21ZM386.9,151.995l27.428-15.862-.533-.923-27.428,15.862Zm27.694-16.324v-31.75h-1.065v31.75Z" transform="translate(-358.309 -7.48)" fill="#0054a6"/>
      <path id="Path_86703" data-name="Path 86703" d="M438.243,133.579l.461.267.266-.462-.461-.267Zm-.127.221-.266.462.461.267.266-.462Zm-27.543-15.938-.461-.267-.266.461.461.267Zm.127-.221.266-.461-.461-.267-.266.461Zm27.082,15.672-.127.221.922.534.127-.221Zm.6.026L410.839,117.4l-.532.923,27.543,15.939Zm-27.347-15.21.127-.221-.922-.534-.127.221Zm-.6-.026,27.543,15.938.532-.923-27.543-15.938Z" transform="translate(-409.846 -21.376)" fill="#0054a6"/>
      <path id="Path_86704" data-name="Path 86704" d="M386.534,117.874l.266.461.461-.267-.266-.461ZM359,133.826l-.461.267.266.461.461-.267Zm-.127-.221-.266-.461-.461.267.266.461Zm27.536-15.951.461-.267-.266-.461-.461.267Zm-.139-.241-27.537,15.951.533.923L386.8,118.336Zm-26.81,16.146-.127-.221-.922.534.127.221Zm-.322.508,27.536-15.951-.532-.923L358.6,133.144Zm26.809-16.146.127.221.922-.534-.127-.221Z" transform="translate(-330.593 -21.382)" fill="#0054a6"/>
      <path id="Path_86705" data-name="Path 86705" d="M410.9,179.8v.533h.533V179.8Zm-.255,0h-.533v.533h.533Zm0-31.877v-.533h-.533v.533Zm.255,0h.533v-.533H410.9Zm0,31.345h-.255v1.065h.255Zm.278.533V147.921h-1.065V179.8Zm-.533-31.345h.255v-1.065h-.255Zm-.278-.533V179.8h1.065V147.921Z" transform="translate(-382.458 -35.617)" fill="#0054a6"/>
      <path id="Path_86706" data-name="Path 86706" d="M24.643-61.82l.239-.476-.257-.129-.249.144Zm.051.026.267-.461-.014-.008-.014-.007ZM52.3-45.83h.533v-.307l-.266-.154Zm0,32.031.239.476.294-.147V-13.8Zm-.051.026-.239-.476L52-14.243l-.014.008ZM24.643,2.19l-.239.476.257.129.249-.144Zm-.051-.026-.267.461.014.008.014.007ZM-3.014-13.8h-.533v.307l.266.154Zm0-32.031-.239-.476-.294.147v.329Zm.051-.025.239.476.014-.007.014-.008Zm55.035.179-.267.461.124.072h.143ZM24.643-61.539,24.91-62l-.267-.154L24.376-62ZM-2.76-45.677l-.267-.461-.266.154v.307Zm0,31.724h-.533v.307l.266.154ZM24.668,1.91l-.267.461.267.154.267-.154ZM52.1-13.952l.267.461.266-.154v-.307Zm0-31.724h.533v-.533H52.1ZM24.4-61.343l.051.026.478-.952-.051-.026Zm.023.01L52.033-45.369l.533-.922L24.96-62.255Zm27.34,15.5V-13.8h1.065V-45.83Zm.294,31.554-.051.026.477.952.051-.026Zm-.079.041L24.376,1.729l.533.922L52.516-13.313ZM24.881,1.714l-.051-.025-.477.953.051.026Zm-.023-.01L-2.748-14.261l-.533.922L24.325,2.626ZM-2.481-13.8V-45.83H-3.547V-13.8Zm-.294-31.554.051-.025-.477-.953-.051.026Zm.079-.041L24.91-61.358l-.533-.922L-3.23-46.317Zm55.034-.744L24.91-62l-.533.922L51.8-45.216ZM24.376-62l-27.4,15.862.534.922,27.4-15.862ZM-3.293-45.677v31.724h1.066V-45.677Zm.266,32.186L24.4,2.371l.533-.922L-2.493-14.414ZM24.935,2.371,52.363-13.491l-.533-.922L24.4,1.449ZM52.629-13.952V-45.677H51.564v31.724ZM52.1-46.21h-.025v1.065H52.1Z" transform="translate(196.514 62.425)" fill="#0054a6"/>
      <path id="Path_86707" data-name="Path 86707" d="M24.536,13.887l.461.267.266-.462-.461-.267Zm-.127.221-.266.462.461.267.266-.462ZM-3.134-1.831-3.595-2.1l-.266.462.461.267Zm.127-.221.266-.462L-3.2-2.78l-.266.462ZM24.075,13.62l-.127.221.922.534L25,14.154Zm.6.026L-2.868-2.293l-.532.923L24.143,14.569ZM-2.673-1.564l.127-.221-.922-.534-.127.221Zm-.6-.026L24.27,14.348l.532-.923L-2.741-2.514Z" transform="translate(224.25 34.554)" fill="#0054a6"/>
      <path id="Path_86708" data-name="Path 86708" d="M76.28-1.806l.266.461.461-.267-.266-.461ZM48.744,14.145l-.461.267.266.461.461-.267Zm-.127-.221-.266-.461-.461.267.266.461ZM76.153-2.027l.461-.267-.266-.461-.461.267Zm-.139-.241L48.477,13.684l.532.923L76.546-1.345ZM49.2,13.878l-.127-.221-.922.534.127.221Zm-.322.508L76.419-1.565l-.532-.923L48.35,13.463ZM75.692-1.76l.127.221.922-.534-.127-.221Z" transform="translate(144.939 34.542)" fill="#0054a6"/>
      <path id="Path_86709" data-name="Path 86709" d="M127.9-61.82l.239-.476-.257-.129-.249.144Zm.051.026.267-.461-.014-.008-.014-.007ZM155.56-45.83h.533v-.307l-.266-.154Zm0,32.031.239.476.294-.147V-13.8Zm-.051.026-.239-.476-.014.007-.014.008ZM127.9,2.19l-.239.476.257.129.249-.144Zm-.051-.026-.266.461.014.008.014.007ZM100.246-13.8h-.533v.307l.266.154Zm0-32.031-.239-.476-.294.147v.329Zm.051-.025.239.476.014-.007.014-.008Zm55.009.179h.533v-.307l-.266-.154ZM127.877-61.539l.267-.461-.267-.154-.266.154ZM100.449-45.677l-.267-.461-.266.154v.307Zm0,31.724h-.533v.307l.266.154ZM127.877,1.91l-.266.461.266.154.267-.154Zm27.428-15.862.267.461.266-.154v-.307ZM127.664-61.343l.051.026.478-.952-.051-.026Zm.023.01,27.607,15.964.533-.922L128.22-62.255Zm27.34,15.5V-13.8h1.065V-45.83Zm.294,31.554-.051.026.478.952.051-.025Zm-.079.041L127.636,1.729l.534.922,27.606-15.964Zm-27.1,15.949-.051-.025-.477.953.051.026Zm-.023-.01L100.512-14.261l-.533.922L127.585,2.626Zm-27.34-15.5V-45.83H99.713V-13.8Zm-.294-31.554.051-.025-.477-.953-.051.026Zm.079-.041L128.17-61.358l-.534-.922L100.03-46.317Zm55.009-.744L128.144-62l-.533.922,27.428,15.862ZM127.611-62,100.182-46.138l.533.922,27.429-15.862ZM99.916-45.677v31.724h1.065V-45.677Zm.266,32.186L127.611,2.371l.533-.922L100.716-14.414ZM128.144,2.371l27.428-15.862-.533-.922L127.611,1.449Zm27.694-16.323V-45.677h-1.065v31.724Z" transform="translate(38.245 62.425)" fill="#0054a6"/>
      <path id="Path_86710" data-name="Path 86710" d="M152.18,30.2v.533h.533V30.2Zm-.255,0h-.533v.533h.533Zm0-31.877V-2.21h-.533v.533Zm.255,0h.533V-2.21h-.533Zm0,31.345h-.255v1.065h.255Zm.278.533V-1.678h-1.065V30.2Zm-.533-31.345h.255V-2.21h-.255Zm-.278-.533V30.2h1.065V-1.678Z" transform="translate(14.094 34.288)" fill="#0054a6"/>
      <path id="Path_86711" data-name="Path 86711" d="M127.84,13.892l.461.267.266-.462-.461-.267Zm-.127.221-.266.462.461.267.266-.462ZM100.171-1.826l-.461-.267-.266.462.461.267Zm.127-.221.266-.462-.461-.267-.266.462ZM127.38,13.626l-.127.221.922.534.127-.221Zm.6.026L100.437-2.287l-.532.923,27.543,15.939ZM100.632-1.559l.127-.221-.922-.534-.127.221Zm-.6-.026,27.543,15.939.532-.923L100.564-2.508Z" transform="translate(65.914 34.551)" fill="#0054a6"/>
      <path id="Path_86712" data-name="Path 86712" d="M179.585-1.8l.266.461.461-.267-.266-.461ZM152.049,14.155l-.461.267.266.461.461-.267Zm-.127-.221-.266-.461-.461.267.266.461ZM179.457-2.018l.461-.267-.266-.461-.461.267Zm-.139-.241L151.783,13.693l.532.923L179.851-1.335Zm-26.81,16.146-.127-.221-.922.534.127.221Zm-.322.508L179.724-1.556l-.532-.923L151.655,13.472ZM179-1.751l.127.221.922-.534-.127-.221Z" transform="translate(-13.399 34.538)" fill="#0054a6"/>
      <path id="Path_86713" data-name="Path 86713" d="M386.629,207.457l.239-.476-.257-.129-.249.144Zm.051.026.267-.461-.014-.008-.014-.007Zm27.607,15.964h.533v-.307l-.266-.153Zm0,32.031.239.476.294-.148v-.329Zm-.051.026-.239-.476-.014.007-.014.008Zm-27.607,15.964-.239.476.257.129.249-.144Zm-.051-.026-.267.461.014.008.014.007Zm-27.607-15.964h-.533v.307l.266.154Zm0-32.031-.239-.476-.294.148v.329Zm.051-.026.239.477.014-.007.014-.008Zm27.606-15.683.267-.461-.267-.154-.266.154ZM359.2,223.6l-.267-.461-.266.154v.307Zm0,31.75h-.533v.307l.266.154Zm27.428,15.862-.266.461.266.155.267-.155Zm27.429-15.862.266.461.266-.154v-.307ZM386.39,207.933l.051.026.477-.952-.051-.026Zm.023.01,27.607,15.964.533-.922-27.606-15.965Zm27.341,15.5v32.031h1.065V223.447ZM414.048,255l-.051.026.477.953.051-.026Zm-.079.041-27.606,15.964.533.922L414.5,255.964Zm-27.1,15.949-.051-.026-.477.952.051.026Zm-.023-.01-27.606-15.964-.533.923L386.311,271.9Zm-27.34-15.5V223.447h-1.065v32.031Zm-.294-31.554.051-.025-.477-.953-.051.026Zm.079-.04L386.9,207.919l-.533-.923L358.756,222.96Zm55.035-.744L386.9,207.277l-.533.922,27.428,15.862Zm-27.961-15.862-27.429,15.862.534.922L386.9,208.2ZM358.668,223.6v31.75h1.065V223.6Zm.266,32.211,27.429,15.862.533-.922-27.428-15.862ZM386.9,271.673l27.428-15.862-.533-.922-27.428,15.862ZM414.59,255.35V223.6h-1.065v31.75Z" transform="translate(-358.309 -63.403)" fill="#0054a6"/>
      <path id="Path_86714" data-name="Path 86714" d="M410.815,239.709v.533h.533v-.533Zm-.255,0h-.533v.533h.533Zm-.061-31.9v-.533h-.533v.533Zm.255,0h.533v-.533h-.533Zm.06,31.37h-.255l0,1.065h.255Zm.279.532-.061-31.9-1.065,0,.061,31.9Zm-.593-31.369h.255l0-1.065H410.5Zm-.279-.532.061,31.9,1.065,0-.061-31.9Z" transform="translate(-382.288 -63.6)" fill="#0054a6"/>
      <path id="Path_86715" data-name="Path 86715" d="M386.484,283.193l.461.267.266-.462-.461-.267Zm-.127.221-.266.462.461.267.266-.462Zm-27.477-15.9-.461-.266-.266.461.461.267Zm.127-.221.266-.462-.461-.267-.266.462Zm27.016,15.634-.127.221.922.534.127-.221Zm.6.026-27.477-15.9-.532.923,27.477,15.9ZM359.341,267.78l.127-.221-.922-.534-.127.221Zm-.6-.026,27.477,15.9.532-.923-27.477-15.9Z" transform="translate(-330.549 -91.306)" fill="#0054a6"/>
      <path id="Path_86716" data-name="Path 86716" d="M438.165,267.578l.265.462.462-.266-.265-.462Zm-27.6,15.89-.462.266.265.462.462-.266Zm-.127-.221-.265-.462-.461.266.265.462Zm27.6-15.89.462-.266-.265-.462-.461.266Zm-.138-.241-27.6,15.891.53.924,27.6-15.891ZM411.027,283.2l-.127-.221-.923.532.127.221Zm-.323.507,27.6-15.891-.53-.924-27.6,15.891Zm26.873-16.087.127.221.923-.532-.126-.221Z" transform="translate(-409.696 -91.336)" fill="#0054a6"/>
      <path id="Path_86717" data-name="Path 86717" d="M231.5,117.7l.239-.476-.257-.129-.248.144Zm.051.026.266-.461-.013-.008-.014-.007Zm27.606,15.964h.533v-.307l-.266-.154Zm0,32.031.239.476.294-.148v-.329Zm-.051.026-.239-.476-.014.007-.014.008ZM231.5,181.708l-.239.476.257.129.249-.144Zm-.051-.026-.267.461.014.008.014.007Zm-27.607-15.964h-.533v.307l.266.154Zm0-32.031-.239-.476-.294.148v.329Zm.051-.025.239.476.014-.007.014-.008Zm55.035.178h.533v-.307l-.266-.154ZM231.5,117.979l.267-.461-.267-.154-.266.154Zm-27.428,15.862-.267-.461-.266.154v.307Zm0,31.75h-.533v.307l.266.154ZM231.5,181.453l-.266.461.266.154.267-.154Zm27.429-15.862.266.461.266-.154v-.307ZM231.26,118.174l.051.026.477-.952-.051-.026Zm.023.011,27.607,15.964.533-.922-27.607-15.964Zm27.34,15.5v32.031h1.065V133.688Zm.294,31.554-.051.026.477.953.051-.026Zm-.079.04-27.606,15.964.533.922,27.606-15.964Zm-27.1,15.949-.051-.026-.477.953.051.025Zm-.023-.01-27.606-15.965-.534.923,27.607,15.964Zm-27.34-15.5V133.688h-1.065v32.031Zm-.294-31.554.051-.025-.477-.952-.051.025Zm.079-.04,27.607-15.964-.533-.923L203.626,133.2Zm55.035-.744-27.428-15.862-.533.922L258.661,134.3Zm-27.961-15.862L203.8,133.38l.534.922,27.428-15.862Zm-27.694,16.324v31.75H204.6v-31.75Zm.266,32.211,27.429,15.862.533-.922L204.338,165.13Zm27.962,15.862,27.428-15.862-.533-.922-27.428,15.862Zm27.694-16.323v-31.75h-1.065v31.75Z" transform="translate(-120.538 -21.461)" fill="#0054a6"/>
      <path id="Path_86718" data-name="Path 86718" d="M255.731,149.951v.533h.533v-.533Zm-.255,0h-.533v.533h.533Zm-.061-31.9v-.533h-.533v.533Zm.255,0h.533v-.533h-.533Zm.06,31.37h-.255l0,1.065h.255Zm.279.532-.061-31.9-1.065,0,.061,31.9Zm-.593-31.37h.255l0-1.065h-.255Zm-.279-.532.061,31.9,1.065,0-.061-31.9Z" transform="translate(-144.587 -21.657)" fill="#0054a6"/>
      <path id="Path_86719" data-name="Path 86719" d="M231.36,193.422l.461.267.266-.462-.461-.267Zm-.127.221-.266.461.461.267.266-.462Zm-27.477-15.9-.461-.267-.266.461.461.267Zm.127-.221.266-.461-.461-.267-.266.461ZM230.9,193.155l-.127.221.922.533.127-.221Zm.6.026-27.477-15.9-.532.923,27.477,15.9Zm-27.282-15.172.127-.221-.922-.534-.127.221Zm-.6-.026,27.477,15.9.532-.923-27.477-15.9Z" transform="translate(-92.789 -49.357)" fill="#0054a6"/>
      <path id="Path_86720" data-name="Path 86720" d="M283.046,177.807l.265.462.462-.266-.265-.462Zm-27.6,15.891-.462.266.265.462.462-.266Zm-.127-.221-.265-.462-.462.266.265.462Zm27.6-15.891.462-.266-.265-.462-.461.266Zm-.138-.241-27.6,15.89.53.925,27.6-15.891Zm-26.873,16.087-.127-.221-.923.532.127.221Zm-.323.507,27.6-15.89-.53-.925-27.6,15.891Zm26.873-16.087.127.221.924-.532-.127-.221Z" transform="translate(-171.942 -49.388)" fill="#0054a6"/>
      <path id="Path_86721" data-name="Path 86721" d="M76.368,27.892l.239-.476-.257-.129-.249.144Zm.051.025.267-.461-.014-.008-.014-.007Zm27.606,15.99h.533V43.6l-.266-.154Zm0,32.03.239.476.294-.148v-.329Zm-.051.026-.239-.476-.014.007-.014.008ZM76.368,91.927l-.239.476.257.129.249-.144Zm-.051-.026-.267.461.014.008.014.007ZM48.71,75.937h-.533v.307l.266.154Zm0-32.03-.239-.476-.294.147v.329Zm.051-.026.239.476.014-.007.014-.008Zm55.009.179h.533v-.307l-.266-.154ZM76.342,28.2l.267-.461-.267-.154-.266.154ZM48.914,44.06l-.267-.461-.266.154v.307Zm0,31.725h-.533v.307l.266.153ZM76.342,91.647l-.266.461.266.154.267-.154ZM103.77,75.784l.267.461.266-.153v-.307ZM76.129,28.368l.051.026.477-.953-.051-.026Zm.022.01,27.607,15.99.534-.922L76.686,27.456Zm27.341,15.529v32.03h1.065V43.907Zm.294,31.554-.051.026.477.953.051-.026Zm-.079.04L76.1,91.466l.534.922,27.606-15.964Zm-27.1,15.949-.051-.026-.477.953.051.025Zm-.023-.01L48.977,75.476l-.533.923L76.05,92.363Zm-27.34-15.5V43.907H48.178v32.03Zm-.294-31.554L49,44.358l-.477-.953-.051.025Zm.079-.041,27.606-15.99-.534-.922L48.494,43.42Zm55.009-.744L76.609,27.736l-.533.922L103.5,44.521ZM76.076,27.736,48.647,43.6l.534.922L76.609,28.659ZM48.381,44.06V75.784h1.065V44.06Zm.266,32.185L76.076,92.107l.533-.922L49.181,75.323ZM76.609,92.107l27.428-15.862-.533-.922L76.076,91.185ZM104.3,75.784V44.06h-1.065V75.784Z" transform="translate(117.234 20.504)" fill="#0054a6"/>
      <path id="Path_86722" data-name="Path 86722" d="M100.6,60.143v.533h.533v-.533Zm-.255,0h-.533v.533h.533Zm-.061-31.9v-.533H99.75v.533Zm.255,0h.533v-.533h-.533Zm.06,31.37h-.255l0,1.065h.255Zm.279.532-.061-31.9-1.065,0,.061,31.9Zm-.593-31.369h.255l0-1.065h-.255Zm-.279-.532.061,31.9,1.065,0-.061-31.9Z" transform="translate(93.185 20.308)" fill="#0054a6"/>
      <path id="Path_86723" data-name="Path 86723" d="M76.271,103.649l.461.267.266-.461-.461-.267Zm-.127.221-.266.461.461.267.266-.461Zm-27.477-15.9-.461-.267-.266.462.461.267Zm.127-.221.266-.462L48.6,87.02l-.266.462ZM75.81,103.382l-.127.221.922.534.127-.221Zm.6.026-27.477-15.9-.532.923,27.477,15.9ZM49.128,88.236l.127-.221-.922-.534-.127.221Zm-.6-.026L76,104.111l.532-.923L49.06,87.287Z" transform="translate(144.921 -7.408)" fill="#0054a6"/>
      <path id="Path_86724" data-name="Path 86724" d="M127.981,87.994l.265.462.462-.266-.265-.462Zm-27.6,15.888-.462.266.265.462.462-.266Zm-.127-.221-.265-.462-.462.266.265.462Zm27.6-15.888.462-.266-.265-.462-.462.266Zm-.138-.241-27.6,15.887.53.925,27.6-15.888ZM100.84,103.616l-.127-.221-.924.532.127.221Zm-.324.507,27.6-15.888-.53-.924L99.987,103.2Zm26.877-16.084.127.221.923-.531-.127-.221Z" transform="translate(65.73 -7.42)" fill="#0054a6"/>
      <path id="Path_86725" data-name="Path 86725" d="M283.083,27.939l.239-.476-.257-.129-.249.144Zm.051.026.266-.461-.013-.008-.014-.007ZM310.74,43.929h.533v-.307l-.266-.154Zm0,32.056.239.476.294-.148v-.329Zm-.051.026-.239-.476-.014.007-.014.008ZM283.083,91.975l-.239.476.257.129.249-.144Zm-.051-.026-.267.461.014.008.014.007ZM255.426,75.985h-.533v.307l.266.153Zm0-32.031-.239-.476-.294.147v.329Zm.051-.026.239.476.014-.007.014-.008Zm55.009.179h.533V43.8l-.266-.154ZM283.057,28.245l.267-.461-.267-.154-.266.154ZM255.629,44.107l-.266-.461-.266.154v.307Zm0,31.725H255.1v.307l.266.154Zm27.428,15.862-.266.461.266.154.267-.154Zm27.429-15.862.266.461.266-.154v-.307ZM282.844,28.415l.051.026.477-.953-.051-.026Zm.023.01L310.474,44.39l.533-.922L283.4,27.5Zm27.34,15.5V75.985h1.065V43.929Zm.294,31.58-.051.026.477.952.051-.026Zm-.079.04L282.816,91.513l.533.923,27.606-15.965ZM283.322,91.5l-.051-.026-.478.952.051.026Zm-.023-.01L255.693,75.524l-.534.922L282.765,92.41Zm-27.34-15.5V43.954h-1.065V75.985Zm-.294-31.554.051-.026-.477-.952-.051.025Zm.079-.041L283.35,28.4l-.534-.922-27.606,15.99Zm55.008-.744L283.324,27.784l-.533.922,27.428,15.862ZM282.791,27.784,255.363,43.646l.533.922,27.428-15.862ZM255.1,44.107V75.832h1.065V44.107Zm.266,32.186,27.428,15.862.533-.922L255.9,75.371Zm27.961,15.862,27.428-15.862-.533-.922L282.791,91.233Zm27.694-16.323V44.107h-1.065V75.832Z" transform="translate(-199.602 20.482)" fill="#0054a6"/>
      <path id="Path_86726" data-name="Path 86726" d="M307.313,60.239v.533h.533v-.533Zm-.255,0h-.533v.533h.533ZM307,28.336V27.8h-.533v.533Zm.255,0h.533V27.8h-.533Zm.06,31.37h-.255l0,1.065h.255Zm.279.532-.061-31.9-1.065,0,.061,31.9ZM307,28.869h.255l0-1.065H307Zm-.279-.532.061,31.9,1.065,0-.061-31.9Z" transform="translate(-223.648 20.263)" fill="#0054a6"/>
      <path id="Path_86727" data-name="Path 86727" d="M282.955,103.738l.461.267.266-.461-.461-.267Zm-.127.221-.266.461.461.267.266-.461Zm-27.477-15.9-.461-.267-.266.462.461.267Zm.127-.221.266-.462-.461-.267-.266.462Zm27.015,15.633-.127.221.922.534.127-.221Zm.6.026L255.617,87.6l-.532.923,27.477,15.9ZM255.812,88.325l.127-.221-.922-.534-.127.221Zm-.6-.026,27.477,15.9.532-.923-27.477-15.9Z" transform="translate(-171.868 -7.45)" fill="#0054a6"/>
      <path id="Path_86728" data-name="Path 86728" d="M334.648,88.055l.265.462.461-.266-.265-.462Zm-27.6,15.891-.462.266.265.462.461-.266Zm-.127-.222-.265-.462-.462.266.265.462Zm27.6-15.891.461-.266-.265-.462-.462.266Zm-.138-.241-27.6,15.891.53.924,27.6-15.891ZM307.51,103.68l-.127-.221-.924.531.127.222Zm-.324.507,27.6-15.891-.53-.924-27.6,15.891ZM334.06,88.1l.127.221.923-.532-.127-.221Z" transform="translate(-251.034 -7.448)" fill="#0054a6"/>
      <path id="Path_86729" data-name="Path 86729" d="M231.4-61.772l.239-.476-.257-.129-.249.144Zm.051.025.267-.461-.014-.008-.014-.007ZM259.06-45.782h.533v-.307l-.266-.154Zm0,32.056.239.476.294-.147v-.329Zm-.051.026-.239-.476-.014.007-.014.008ZM231.4,2.264l-.239.476.257.129.249-.144Zm-.051-.025-.266.461.014.008.014.007ZM203.746-13.726h-.533v.307l.266.154Zm0-32.03-.239-.476-.294.147v.329Zm.051-.026.239.476.014-.007.014-.008Zm55.035.179h.533v-.307l-.266-.154ZM231.4-61.466l.267-.461-.267-.154-.267.154ZM203.975-45.6l-.267-.461-.266.154v.307Zm0,31.724h-.533v.307l.266.154ZM231.4,1.983l-.267.461.267.154.267-.154Zm27.428-15.862.267.461.266-.154v-.307ZM231.164-61.3l.051.026.477-.953-.051-.026Zm.023.01,27.607,15.964.533-.922L231.72-62.207Zm27.34,15.5v32.056h1.065V-45.782Zm.294,31.58-.051.025.478.952.051-.026Zm-.079.041L231.136,1.8l.534.922,27.606-15.964Zm-27.1,15.949-.051-.025-.477.953.051.026Zm-.023-.01L204.012-14.187l-.533.922L231.085,2.7Zm-27.34-15.5v-32.03h-1.065v32.03Zm-.294-31.554.051-.026-.477-.952-.051.026Zm.079-.041,27.607-15.99-.534-.922-27.607,15.99Zm55.035-.744L231.67-61.927l-.534.922,27.429,15.862ZM231.136-61.927,203.708-46.065l.533.922L231.67-61ZM203.442-45.6v31.724h1.065V-45.6Zm.266,32.186L231.136,2.444l.534-.922L204.241-14.34ZM231.67,2.444,259.1-13.418l-.533-.922L231.136,1.522Zm27.694-16.323V-45.6H258.3v31.724Z" transform="translate(-120.391 62.402)" fill="#0054a6"/>
      <path id="Path_86730" data-name="Path 86730" d="M231.225,14l.461.267.266-.462-.461-.267Zm-.127.221-.266.462.461.267.266-.462Zm-27.477-15.9-.461-.267-.266.462.461.267Zm.127-.221.266-.462-.461-.267-.266.462Zm27.016,15.634-.127.221.922.534.127-.221Zm.6.026-27.477-15.9-.532.923,27.477,15.9ZM204.083-1.409l.127-.221-.922-.534-.127.221Zm-.6-.026,27.477,15.9.532-.923-27.477-15.9Z" transform="translate(-92.582 34.481)" fill="#0054a6"/>
      <path id="Path_86731" data-name="Path 86731" d="M282.956-1.67l.265.462.462-.266-.265-.462Zm-27.6,15.891-.461.266.265.462.462-.266ZM255.23,14l-.265-.462-.461.266.265.462Zm27.6-15.891.462-.266-.265-.462-.461.266Zm-.138-.241-27.6,15.891.53.924,27.6-15.891ZM255.818,13.955l-.127-.221-.923.532.127.221Zm-.323.507,27.6-15.891-.53-.924-27.6,15.891ZM282.367-1.625l.127.221.923-.532-.126-.221Z" transform="translate(-171.804 34.479)" fill="#0054a6"/>
      <path id="Path_86732" data-name="Path 86732" d="M334.9-61.82l.239-.476-.257-.129-.249.144Zm.051.026.267-.461-.014-.008-.014-.007ZM362.56-45.83h.533v-.307l-.266-.154Zm0,32.031.239.476.294-.147V-13.8Zm-.051.026-.239-.476-.014.007-.014.008ZM334.9,2.19l-.239.476.257.129.248-.144Zm-.051-.026-.266.461.014.008.014.007ZM307.246-13.8h-.533v.307l.266.154Zm0-32.031-.239-.476-.294.147v.329Zm.051-.025.239.476.014-.007.014-.008ZM334.9-61.539l.266-.461-.266-.154-.267.154ZM307.475-45.677l-.267-.461-.266.154v.307Zm0,31.75h-.533v.307l.266.154ZM334.9,1.935l-.267.461.267.154.266-.154Zm27.428-15.862.267.461.266-.154v-.307ZM334.664-61.343l.051.026.478-.952-.051-.026Zm.023.01,27.607,15.964.533-.922L335.22-62.255Zm27.34,15.5V-13.8h1.065V-45.83Zm.294,31.554-.051.026.478.952.051-.025Zm-.079.041L334.636,1.729l.533.922,27.607-15.964Zm-27.1,15.949-.051-.026-.477.953.051.025Zm-.023-.01L307.512-14.261l-.533.922L334.585,2.626Zm-27.34-15.5V-45.83h-1.065V-13.8Zm-.294-31.554.051-.026-.477-.952-.051.025Zm.079-.041,27.606-15.964-.533-.922L307.03-46.317Zm55.035-.744L335.169-62l-.533.922,27.429,15.862ZM334.636-62,307.208-46.138l.533.922,27.428-15.862ZM306.942-45.677v31.75h1.065v-31.75Zm.266,32.211L334.636,2.4l.533-.922L307.741-14.388ZM335.169,2.4,362.6-13.466l-.533-.922L334.636,1.474Zm27.694-16.323v-31.75H361.8v31.75Z" transform="translate(-279.028 62.425)" fill="#0054a6"/>
      <path id="Path_86733" data-name="Path 86733" d="M334.787,13.94l.461.267.266-.462-.461-.267Zm-.127.221-.266.462.461.267.266-.462ZM307.183-1.74l-.461-.267-.266.462.461.267Zm.127-.221.266-.462-.461-.267-.266.462Zm27.015,15.634-.127.221.922.534.127-.221Zm.6.026L307.449-2.2l-.532.923,27.477,15.9ZM307.644-1.473l.127-.221-.922-.534-.127.221Zm-.6-.026,27.477,15.9.532-.923-27.477-15.9Z" transform="translate(-251.312 34.511)" fill="#0054a6"/>
      <path id="Path_86734" data-name="Path 86734" d="M386.471-1.733l.265.462.462-.266L386.933-2Zm-27.6,15.888-.462.266.265.462.462-.266Zm-.127-.221-.265-.462-.462.266.265.462Zm27.6-15.888.462-.266-.265-.462-.462.266Zm-.138-.241L358.6,13.692l.53.924,27.6-15.888ZM359.33,13.889l-.126-.221-.924.531.127.221Zm-.323.507,27.6-15.888-.53-.924-27.6,15.888ZM385.883-1.689l.126.221L386.933-2l-.127-.221Z" transform="translate(-330.462 34.508)" fill="#0054a6"/>
      <path id="Path_86735" data-name="Path 86735" d="M76.368,27.892l.239-.476-.257-.129-.249.144Zm.051.025.267-.461-.014-.008-.014-.007Zm27.606,15.99h.533V43.6l-.266-.154Zm0,32.03.239.476.294-.148v-.329Zm-.051.026-.239-.476-.014.007-.014.008ZM76.368,91.927l-.239.476.257.129.249-.144Zm-.051-.026-.267.461.014.008.014.007ZM48.71,75.937h-.533v.307l.266.154Zm0-32.03-.239-.476-.294.147v.329Zm.051-.026.239.476.014-.007.014-.008Zm55.009.179h.533v-.307l-.266-.154ZM76.342,28.2l.267-.461-.267-.154-.266.154ZM48.914,44.06l-.267-.461-.266.154v.307Zm0,31.725h-.533v.307l.266.153ZM76.342,91.647l-.266.461.266.154.267-.154ZM103.77,75.784l.267.461.266-.153v-.307ZM76.129,28.368l.051.026.477-.953-.051-.026Zm.022.01,27.607,15.99.534-.922L76.686,27.456Zm27.341,15.529v32.03h1.065V43.907Zm.294,31.554-.051.026.477.953.051-.026Zm-.079.04L76.1,91.466l.534.922,27.606-15.964Zm-27.1,15.949-.051-.026-.477.953.051.025Zm-.023-.01L48.977,75.476l-.533.923L76.05,92.363Zm-27.34-15.5V43.907H48.178v32.03Zm-.294-31.554L49,44.358l-.477-.953-.051.025Zm.079-.041,27.606-15.99-.534-.922L48.494,43.42Zm55.009-.744L76.609,27.736l-.533.922L103.5,44.521ZM76.076,27.736,48.647,43.6l.534.922L76.609,28.659ZM48.381,44.06V75.784h1.065V44.06Zm.266,32.185L76.076,92.107l.533-.922L49.181,75.323ZM76.609,92.107l27.428-15.862-.533-.922L76.076,91.185ZM104.3,75.784V44.06h-1.065V75.784Z" transform="translate(117.234 20.504)" fill="#0054a6"/>
    </g>
  </g>
</svg>
