<svg xmlns="http://www.w3.org/2000/svg" width="17.658" height="12.585" viewBox="0 0 17.658 12.585">
  <g id="email" transform="translate(0.001 0.001)" style="&#10;    fill: #0054A6;&#10;">
    <path id="Path_16243" data-name="Path 16243" d="M5.374.055c0-.02.014-.04.013-.06L0,5.192l5.382,5.031c0-.036-.007-.072-.007-.109Z" transform="translate(12.27 1.206)" fill="#ab9969" style="&#10;    fill: #0054A6;&#10;"/>
    <path id="Path_16244" data-name="Path 16244" d="M10.6,0,8.4,2.115a.575.575,0,0,1-.791.006L5.419.075,0,5.3a1.247,1.247,0,0,0,.421.084H15.583a1.246,1.246,0,0,0,.605-.167Z" transform="translate(0.845 7.198)" fill="#ab9969" style="&#10;    fill: #0054A6;&#10;"/>
    <path id="Path_16245" data-name="Path 16245" d="M8.369,8.1,16.592.184A1.246,1.246,0,0,0,15.957,0H.794A1.25,1.25,0,0,0,0,.3Z" transform="translate(0.47)" fill="#ab9969" style="&#10;    fill: #0054A6;&#10;"/>
    <path id="Path_16246" data-name="Path 16246" d="M0,0V9.86a1.251,1.251,0,0,0,.054.327L5.408,5.032Z" transform="translate(0 1.459)" fill="#ab9969" style="&#10;    fill: #0054A6;&#10;"/>
  </g>
</svg>