<svg xmlns="http://www.w3.org/2000/svg" xmlns:xlink="http://www.w3.org/1999/xlink" width="481" height="419" viewBox="0 0 481 419">
  <defs>
    <clipPath id="clip-path">
      <path id="Rectangle_3057" data-name="Rectangle 3057" d="M10,419A10,10,0,0,1,0,409V10A10,10,0,0,1,10,0H471a10,10,0,0,1,10,10V409a10,10,0,0,1-10,10Z" transform="translate(26.719)" fill="#f9f9f9"/>
    </clipPath>
  </defs>
  <g id="Mask_Group_193" data-name="Mask Group 193" transform="translate(507.718 419.002) rotate(-180)" opacity="0.19">
    <path id="Rectangle_3057-2" data-name="Rectangle 3057" d="M10,419A10,10,0,0,1,0,409V10A10,10,0,0,1,10,0H471a10,10,0,0,1,10,10V409a10,10,0,0,1-10,10Z" transform="translate(26.719)" fill="#f9f9f9"/>
    <g id="Mask_Group_193-2" data-name="Mask Group 193" clip-path="url(#clip-path)">
      <g id="Frame" transform="translate(175.354 600.361) rotate(-120)" opacity="0.3">
        <path id="Path_86819" data-name="Path 86819" d="M44.88,103.767h0l-.408-.2.148-.295.191.11.279-.162.145-.084L88.874,77.9l.113-.065.167.333.017-.008-43.9,25.384-.395.228Zm-.535-.269L.423,78.1,0,77.854V25.88l.468-.234.167.333-.311.179V77.364h0v.285l.269.156.155.09,43.638,25.237.127.074-.167.291Zm.368-.932h0l-.285-.493.145-.084.238.411-.1.166Zm.468-.931h0l-.371-.215L87.6,76.672V77.1L45.182,101.635Zm-.707-.021L2.019,77.062v-.388L44.811,101.42l-.336.194ZM89.233,78.123h0l-.167-.338.233-.135V26.158l-.226-.13.207-.358-.207.357h0l-.2-.115L45.235.676,45.15.627,45.356.27l43.923,25.4.423.244V77.888l-.468.235Zm-.666-.758h-.56v-.2h.443l.116.2Zm-86.871,0H1.055l.117-.2H1.7v.2Zm.323-.692h0L1.7,76.486V27.322l-.1.058-.184-.318L1.7,26.9v.424l.323-.187Zm85.585,0V27.136h0L44.811,2.388l.412-.238-.366-.211.194-.112h0l-.24-.416.15-.259.315.546-.224.129h0l.183.317-.013.007L87.6,26.658v.477h0l.4.234V76.438l-.4.233ZM1.228,27.16h0L.97,26.647.848,26.4h.1l.123.245.237.472-.236-.472L.949,26.4l.144.245.088.151-.087-.151L.952,26.4h.078l.141.245L1.031,26.4H1.7v.245h.323v.064L44.445,2.177l-.059-.034.206-.357.264.153-.412.238.366.211L2.02,27.134h0v-.424L1.7,26.9v-.251H1.172l.24.415-.059.034h0l-.021.013-.022.011-.08.04Zm87.2-.023h0l-.2-.114.217-.375h-.442V26.4h.583l-.142.245.142-.245h.263l-.14.245-.282.489ZM.713,25.933h0L.548,25.6l-.005,0L44.428.229l.183.317-.225.13L.748,25.913l-.034.02Zm43.8-24.192-.041-.02.24-.479.042.07-.246.425.006,0ZM45.048.569h0L44.81.43l-.2.116L44.428.229,44.823,0l.408.205-.182.363Z" transform="translate(87.97 228.925)" fill="#dedede"/>
        <path id="Path_86820" data-name="Path 86820" d="M45.289,28.029h0l-.734-.424h0L.734,2.245,0,1.821l.423-.735.006,0-.006,0,.2-.351L1.049,0l.734.425h0L45.6,25.784l.734.424-.423.734-.2.35h0l-.732-.423.2-.351.733.424-.733-.424.221-.383.2-.351-.2.35h0L1.58.776l.2-.345-.2.345L1.512.893l0-.008-.126.223-.03.051L.625.735l.733.424-.2.351h0l-.22.383L44.757,27.253l.1-.179.118-.2.733.424-.422.734Zm-.311-1.159h0l-.733-.425.2-.351.734.424-.2.351ZM1.89,1.935h0L1.157,1.51l.2-.351.733.424-.2.351Z" transform="translate(87.751 254.114)" fill="#dedede"/>
        <path id="Path_86821" data-name="Path 86821" d="M1.049,28.049h0l-.423-.734h0l-.2-.35L0,26.229.733,25.8,44.545.426,45.278,0,45.7.735l.2.35h0l.424.734-.734.426L1.782,27.625l-.732.424Zm.107-1.511.2.351-.728.422.728-.421.221.383-.22-.383.221.383L45.391,1.894h0l-.142-.249-.077-.135.7-.4-.7.4-.086-.148-.117-.2L45.7.736l-.732.423L44.815.894l.153.266L44.756.791,44.748.777l-.2-.35.2.35L.936,26.156,1,26.263l.006.01.153.266-.732.425Zm.2.351h0l-.2-.351.733-.425.2.352-.733.424ZM44.438,1.936h0l-.2-.351.733-.425.117.2.085.148-.732.425Z" transform="translate(131.562 254.145)" fill="#dedede"/>
        <path id="Path_86822" data-name="Path 86822" d="M2.1,52.413H0V0H2.1V52.412Zm-.848-.848h.441V.848H1.254v.847H.848V.848H.406V51.565H.848v-.848h.406Z" transform="translate(131.771 279.961)" fill="#dedede"/>
        <path id="Path_86823" data-name="Path 86823" d="M44.88,103.767h0l-.407-.2.157-.313.222.129.248-.144.175.3h0l-.175-.3.176-.1L88.915,77.9,89,77.849l.158.314.026-.013-43.9,25.389-.395.228Zm-.535-.27L.424,78.1h0L0,77.854V25.88l.468-.234L.643,26l-.279.162V77.363h0v.287l.238.138L.426,78.1.6,77.789l.185.107,43.64,25.237.1.056-.178.308Zm.388-.895v0l-.306-.53.176-.1.248.43-.117.2Zm-.239-.976L2.059,77.087v-.413L44.852,101.42l-.356.206Zm.707,0h0l-.35-.2L87.644,76.673v.406L45.2,101.623Zm44-23.483h0l-.176-.306.053-.031.263-.152v-51h-.624l.14-.243h-.224l.284-.491L45.275.675,45.161.609l.2-.339,43.922,25.4-.424.734.424-.734.424.245V77.888l-.468.234-.035.018Zm-.591-.776h-.6v-.2h.482l.116.2Zm-86.913,0H1.1l.117-.2h.482v-.285l.365.211v.074H1.695v.2Zm-.483-.2H.965l.306-.53.185.107-.244.423Zm86.432-.489V27.136h0L44.852,2.388l.391-.226,42.4,24.519v.454h0l.365.211V76.462l-.363.21Zm-85.585,0h0l-.362-.21V27.347l-.059.034-.194-.336.253-.146v.448l.365-.211ZM1.228,27.161h0L.97,26.646.848,26.4h.1l.122.243.014.027-.014-.027L.949,26.4l.143.243.26.449h0l-.26-.449L.952,26.4h.119l.14.243.23.4-.088.051h0l-.023.013-.022.011h0l-.078.041Zm.832-.025v-.448l-.365.211v-.251H1.212L1.072,26.4h.623v.243h.365v.041L44.466,2.165l-.038-.022.2-.339.233.135-.391.226.386.223L2.061,27.135Zm86.372,0h0l-.166-.1.227-.393h-.482V26.4h.623l-.14.243h.224l-.282.489ZM.722,25.95h0l-.173-.344-.034.017L44.428.229l.1.167-.1-.166L44.823,0l.409.205-.173.344-.207-.12-.23.133h0l-.193.112L.788,25.912l-.065.038ZM45.243,2.162l-.386-.223.225-.13h0l-.229-.4.129-.223.295.511-.193.112h0l.193.335-.033.019Z" transform="translate(0.206 127.488)" fill="#dedede"/>
        <path id="Path_86824" data-name="Path 86824" d="M45.289,28.029h0l-.733-.424h0L.734,2.245,0,1.82l.424-.734.011.007L.424,1.085l.2-.351L1.049,0l.734.425h0L45.6,25.783l.734.425-.423.734-.2.35h0l-.732-.424.2-.351.733.424-.733-.424.138-.242.082-.141-.036.066.239-.418-.2.351h0L1.58.776l.2-.345-.2.345-.144.25-.077.132L.626.735l.733.424-.2.351h0l-.22.383L44.758,27.252l.1-.171.123-.212.733.424-.422.734Zm-.31-1.16h0l-.733-.424.2-.351.733.424-.2.35ZM1.891,1.935h0L1.158,1.51l.2-.351.733.424-.2.351Z" transform="translate(0 152.694)" fill="#dedede"/>
        <path id="Path_86825" data-name="Path 86825" d="M1.049,28.049h0l-.422-.733h0l-.2-.351L0,26.229.733,25.8,44.545.425,45.278,0,45.7.734l.2.351-.732.424-.2-.351L45.7.735l-.731.424-.051-.086-.058-.1.031.05L44.756.792,44.748.777.936,26.155v0h0l-.2-.348.423.734-.732.424.732-.424.2.351-.718.417.718-.416.221.382.2.35h0l-.2-.35L45.392,1.894l.008.014-.008-.014-.221-.384.732-.425.424.734-.733.425h0L1.783,27.624l-.733.424Zm.31-1.159h0l-.2-.35.733-.425.2.351-.732.425ZM44.438,1.935h0l-.2-.35.733-.425.2.35-.733.425Z" transform="translate(43.832 152.705)" fill="#dedede"/>
        <path id="Path_86826" data-name="Path 86826" d="M2.1,52.413H0V0H2.1V52.412Zm-.848-.848h.441V.848H1.254v.847H.848V.848H.406V51.565H.848v-.848h.406Z" transform="translate(44.007 178.524)" fill="#dedede"/>
        <path id="Path_86827" data-name="Path 86827" d="M44.879,103.767h0l-.407-.2.182-.363.238.138.2-.116.183.315h0l-.183-.315.224-.129L88.955,77.854l.033-.019.165.328.026-.013-43.9,25.389-.4.228Zm-.534-.269L.423,78.1,0,77.854V25.88l.468-.234.185.368L.4,26.158V77.364h0v.245l.226.131L.424,78.1.63,77.74l.2.114,43.639,25.238.084.049-.2.356Zm.4-.882h0l-.315-.544.223-.129.241.417-.149.256Zm-.262-1L2.1,77.109v-.476L44.892,101.38l-.41.237Zm.775-.026h0l-.364-.211L87.683,76.632v.425L45.257,101.591ZM89.233,78.122h0l-.164-.332.311-.18V25.8H89.2l.07-.121-.07.121h-.487l.2.114-.283.489h.222l-.139.244-.181.313,0,0v.531h-.268l-.2-.114.2-.34.168.1.06-.1.041-.07v-.316H88.49l-.482,0V26.4h.483v.243l.041-.07h0l.1-.173h-.1v-.6h.186L45.275.675,45.16.608l.2-.338,43.923,25.4h0l.423.245V77.888l-.468.234ZM1.11,77.366H.847l.141-.244.284-.491.2.115-.217.376H1.7v-.245l.4.234v.011H1.7v.243H1.111l.141-.244h0l-.141.244h0Zm87.562,0h-.664v-.244h.523l.14.242Zm-.988-.733V27.159h0L44.85,2.388l.391-.226L87.683,26.7v.453h0l.324.187v49.1l-.323.187Zm-85.584,0h0L1.7,76.4V27.369l-.019.011-.2-.353L1.7,26.9v.471l.4-.234ZM1.228,27.16h0L.97,26.646.848,26.4h.1l.144.244.022.038-.022-.038L.952,26.4H1.7v.244h.4v.018l42.365-24.5-.038-.022.2-.339.234.135-.391.226.385.223L2.1,27.134h0v-.471l-.4.234v-.252H1.252l.221.381-.12.069h0l-.021.012-.023.011-.079.04Zm-.5-1.192h0L.548,25.6l-.02.01L44.427.229l.4-.229.408.205-.173.344-.207-.12L44.62.563,44.427.229l.193.334-.193.112L.827,25.913l-.1.055ZM45.242,2.161l-.385-.223.225-.13h0l-.23-.4.129-.223.3.511-.193.112.193.334-.034.019Zm-.733-.423-.038-.019L44.73,1.2l.044.074-.266.461Z" transform="translate(307.017 0.693)" fill="#dedede"/>
        <path id="Path_86828" data-name="Path 86828" d="M45.289,28.029h0l-.733-.424L.734,2.245,0,1.82l.423-.734.006,0-.006,0,.2-.351.733.425-.2.351h0l-.22.383L44.758,27.252l-.2.351h0l.423-.734.2-.351.733.424-.732-.424.184-.322.035-.061.2-.352-.2.351h0L1.58.776l-.221.383L.626.735,1.049,0l.734.425L45.6,25.783l.734.425-.423.734-.2.351h0l-.733-.424.734.425-.422.734Zm-.311-1.158h0l-.732-.425.2-.351.733.424-.2.351ZM1.89,1.935h0L1.157,1.51l.2-.351.734.424-.2.351Z" transform="translate(350.648 51.246)" fill="#dedede"/>
        <path id="Path_86829" data-name="Path 86829" d="M1.049,28.049h0l-.423-.734h0l-.2-.351L0,26.23.733,25.8,44.545.425h0L45.278,0,45.7.734l.2.351.423.734-.734.425L1.783,27.625h0l-.2-.351L45.391,1.894l-.221-.383.423.733-.422-.734-.2-.351L44.551.436l.2.34L.936,26.156l.176.306.044.076.185.322-.185-.322.733-.425.2.352-.732.424h0l-.728.422.729-.421.141.243.08.139.2.352-.732.424ZM44.438,1.935h0l-.2-.35.733-.425.2.351-.732.424Z" transform="translate(306.796 51.267)" fill="#dedede"/>
        <path id="Path_86830" data-name="Path 86830" d="M44.88,103.767h0l-.408-.2.164-.326.175.1.261-.151.2.352v0h0l-.2-.35.163-.094L88.874,77.854l.1-.056.183.365.017-.008-43.9,25.384-.395.228Zm-.535-.269L.423,78.1h0L0,77.854V25.88l.468-.234.167.332-.311.18V77.364h0v.245l.286.165L.424,78.1l.186-.322.137.079,43.64,25.238.145.084-.186.321Zm.356-.952h0l-.274-.474.163-.094.221.382-.108.186Zm.514-.932h0l-.4-.234L87.6,76.632V77.1L45.216,101.614Zm-.775-.02L2.019,77.062v-.429L44.811,101.38l-.37.214ZM89.233,78.123h0l-.183-.37.248-.143V26.158l-.225-.13.207-.358-.207.358h0l-.2-.114L45.235.675,45.15.626,45.356.27l43.923,25.4.423.245V77.888l-.468.235Zm-.643-.758h-.583v-.244h.442l.14.242Zm-86.895,0H1.031l.141-.244H1.7v.243Zm.323-.732h0L1.7,76.446V27.322l-.1.058-.183-.317L1.7,26.9v.424l.323-.187Zm85.584,0v-49.5h0L44.811,2.388l.411-.238-.366-.211.194-.112h0l-.239-.417.149-.258.315.546-.224.129h0l.183.317-.013.007L87.6,26.657v.477h0l.4.234V76.4l-.4.233ZM1.228,27.16h0L.97,26.646.848,26.4h.1l.144.244.26.45h0l-.26-.449L.952,26.4H1.03l.141.244.24.416-.058.033h0l-.022.013-.023.011-.079.04Zm87.2-.023h0l-.2-.114.217-.376.141-.244h.263l-.139.244-.283.49Zm-86.413,0v-.424L1.7,26.9v-.251H1.172L1.031,26.4H1.7v.244h.323v.065L44.445,2.177l-.058-.034.206-.357.264.152-.411.238.366.212L2.02,27.134Zm86.431-.488h-.442V26.4h.583l-.141.243ZM.713,25.933h0L.548,25.6l-.02.01L44.427.229l.183.317-.223.129L.747,25.913l-.033.019Zm43.794-24.2-.035-.018.24-.479.042.07-.246.426ZM45.049.569h0L44.81.43l-.2.115L44.427.229l.4-.229.409.205-.182.363Z" transform="translate(219.497 0.693)" fill="#dedede"/>
        <path id="Path_86831" data-name="Path 86831" d="M2.1,52.413H0V0H2.1V52.412Zm-.848-.848h.442V.848H1.253v.847h-.4V.848H.405V51.565H.848v-.847h.4Z" transform="translate(263.296 51.729)" fill="#dedede"/>
        <path id="Path_86832" data-name="Path 86832" d="M45.289,28.029h0l-.734-.424h0L.734,2.245,0,1.82l.423-.734.006,0-.006,0,.2-.351.733.425-.2.351h0l-.22.383L44.757,27.253l.117-.2.1-.18.733.424-.422.734Zm.422-.734h0l-.732-.424.2-.351.732.423-.732-.424.125-.218.1-.165-.046.083.249-.434-.2.35h0L1.58.776l-.221.383L.626.735,1.049,0l.734.425L45.6,25.784l.734.424-.424.734-.2.351Zm-.734-.424h0l-.732-.425.2-.351.734.424-.2.352ZM1.89,1.935h0L1.157,1.51l.2-.351.734.424-.2.351Z" transform="translate(263.09 51.25)" fill="#dedede"/>
        <path id="Path_86833" data-name="Path 86833" d="M1.049,28.049h0l-.422-.734h0l-.2-.351L0,26.23.734,25.8,44.545.425,45.278,0,45.7.734l.2.351.423.734-.733.425L1.783,27.624l-.733.425Zm.31-1.159.153.265.068.117.2.35h0l-.2-.35L45.391,1.894l-.221-.383.424.733-.423-.734-.2-.351L44.748.776.937,26.156h0l.22.382-.732.424.732-.424.086.148-.086-.149.733-.425.2.352-.732.424-.118-.2.117.2-.722.418ZM44.438,1.935h0l-.2-.35.733-.425.2.351-.732.424Z" transform="translate(219.237 51.275)" fill="#dedede"/>
        <path id="Path_86834" data-name="Path 86834" d="M44.88,103.767h0l-.408-.2.157-.314.223.129.248-.144.176-.1L88.915,77.9,89,77.849l.158.315.022-.011-43.9,25.387-.395.228Zm-.535-.269L.424,78.1,0,77.854V25.88l.468-.234L.644,26l-.279.162V77.364h0v.285l.239.139.184.107,43.64,25.237.1.056-.178.309Zm.388-.9v0l-.305-.53.176-.1.248.429-.117.2Zm-.239-.976L2.059,77.086v-.412l42.792,24.747-.356.206Zm.707,0h0l-.35-.2L87.644,76.673v.407L45.2,101.624Zm44-23.483h0l-.176-.306.053-.031.264-.153v-51h-.624l.141-.245.423-.733-.424.732h-.224l.283-.49L45.275.676,45.161.609l.2-.339,43.922,25.4.424.244V77.888l-.468.235-.035.018Zm-.444-.774h-.146l-.117-.2h0l-.248-.429.106-.061.022-.013.022-.012.258.515h0l.1.2Zm-.147,0h-.6v-.2h.483l.116.2Zm-86.913,0H1.1l.117-.2h.482v-.287l.365.211v.076H1.695v.2Zm-.483-.2H.965l.307-.532.185.107-.245.424Zm86.432-.49V27.135h0L44.852,2.388l.391-.226,42.4,24.519v.453h0l.365.211V76.462l-.363.21Zm-85.585,0h0l-.362-.21V27.346l-.059.034-.194-.335.252-.146v.447l.363-.21v0l0-.447-.365.211v-.251H1.212l.23.4-.09.052h0l-.022.012-.022.012-.08.039h0L.97,26.647.848,26.4h.1l.123.245.237.472-.237-.472L.949,26.4l.144.245.088.151-.087-.151L.952,26.4h.119l.142.245L1.071,26.4h.624v.245h.365v.041L44.466,2.165l-.038-.022.2-.339.233.135-.391.226.386.223L2.059,27.135ZM88.431,27.137h0l-.167-.1.227-.392h-.482V26.4h.623l-.141.245h.224l-.282.489ZM.722,25.95h0L.549,25.6l-.012.006L44.428.229l.193.335-.193.112L.788,25.913l-.064.037ZM45.243,2.162l-.386-.223.225-.13h0l-.229-.4-.228.395-.072-.041.234-.467.119-.238.075.128.295.51-.193.112h0l.193.335-.033.019Zm-.73-.421-.041-.02.26-.519.119-.238.053.089-.129.223-.267.461.006,0ZM45.136.6h0L45.058.55,44.852.43l-.23.134L44.428.229,44.823,0l.409.205.081.041L45.137.6Z" transform="translate(0.206 228.925)" fill="#dedede"/>
        <path id="Path_86835" data-name="Path 86835" d="M.1,52.458h0l0-.847h0L0,.851H0L0,0,.848,0h.406L2.1,0V.848l.1,50.759,0,.848H.949l0-.847,0,.848ZM.407.85.5,51.61H.948l0-.848H1.35l0,.848h.443L1.7.849H1.255v0h0l0,.847h-.4l0-.847h0L.848,0V.85H.407Z" transform="translate(44.036 229.281)" fill="#dedede"/>
        <path id="Path_86836" data-name="Path 86836" d="M45.184,27.968h0l-.734-.424L.734,2.246l.2-.352,43.716,25.3-.2.351h0l.424-.734.734.424-.422.734Zm.423-.735h0l-.733-.424.2-.35.733.423-.732-.424.148-.259.072-.124.2-.352-.2.351h0L1.58.777l-.221.383L.626.736,1.049,0l.733.425L45.5,25.723l.734.425-.423.734-.2.35Zm-.734-.424h0l-.732-.424.2-.351.733.424-.2.351ZM.734,2.245h0L0,1.821l.423-.734.006,0-.006,0,.2-.351.733.424-.2.351h0l-.219.383.037-.068-.239.418Zm1.156-.31h0l-.732-.424.2-.351.734.424-.2.35Z" transform="translate(43.92 279.535)" fill="#dedede"/>
        <path id="Path_86837" data-name="Path 86837" d="M1.044,27.951h0l-.421-.734h0l-.2-.351L0,26.129l.734-.423L44.647.423,45.381,0,45.8.735h0l.2.351.422.735-.734.423L1.779,27.528l-.734.423Zm.314-1.158.177.307.043.076.156.273-.156-.273L45.49,1.894l-.22-.384h0l-.734.423h0l-.2-.351.735-.423,0,.008,0-.008L45.8.737l-.73.42L44.852.78l0-.005L.936,26.058h0l.22.383-.734.423.734-.422.2.341-.2-.341.734-.423.2.352-.733.422h0l-.733.422Z" transform="translate(0.025 279.59)" fill="#dedede"/>
        <path id="Path_86838" data-name="Path 86838" d="M44.88,103.768h0l-.408-.2.157-.314.223.129.248-.144.176-.1L88.915,77.9,89,77.849l.158.315.029-.015-43.908,25.39-.395.229Zm-.535-.27L.423,78.1,0,77.854V25.88l.468-.234L.644,26l-.279.162V77.364h0v.285l.238.138.185.107,43.64,25.237.1.056-.178.309Zm.388-.9v0l-.305-.53.176-.1.248.429-.117.2Zm-.239-.976L2.059,77.085v-.412l42.792,24.747-.356.206Zm.707,0h0l-.35-.2L87.644,76.673v.407L45.2,101.624Zm44.031-23.5h0l-.158-.319.264-.153V26.158l-.256-.148.2-.34-.2.34h0l-.166-.1L45.275.676,45.16.609l.2-.338,43.923,25.4.423.245V77.888l-.468.235Zm-.625-.758h-.6v-.2h.484l.116.2Zm-86.912,0H1.1l.117-.2H1.7v-.287l.364.21v.076H1.7v.2Zm-.484-.2H.965l.308-.532.185.107-.245.425Zm86.432-.49V27.135h0L44.852,2.388l.39-.226,42.4,24.519v.453h0l.364.21V76.462l-.362.209Zm-85.585,0h0L1.7,76.462V27.345l-.059.034-.194-.335L1.7,26.9v.447l.362-.209v-.448L1.7,26.9v-.251H1.212l.23.4-.09.052h0l-.021.012-.022.012-.08.039h0L.97,26.647.848,26.4h.1l.144.245.05.086-.05-.086L.952,26.4h.119l.142.245L1.071,26.4H1.7v.245h.364v.041L44.466,2.165l-.038-.022.2-.338.233.135-.39.226.386.223L2.059,27.135ZM88.431,27.137h0l-.167-.1.227-.392h-.483V26.4h.624l-.141.245.142-.245h.222l-.14.245-.282.489ZM.722,25.951h0l-.173-.345-.022.011L44.428.229l.193.335-.193.112L.788,25.913l-.064.037ZM45.242,2.162l-.386-.223.225-.13h0l-.229-.4-.228.4-.1-.06.034.017.233-.465.119-.238.075.128.295.51-.193.112h0l.193.335-.034.019Zm-.734-.424h0l-.035-.017.26-.519.119-.238.053.089-.129.223-.267.461ZM45.137.6h0L45.059.55l-.207-.12-.231.134L44.428.229,44.823,0l.409.205.081.041L45.137.6Z" transform="translate(131.691 152.847)" fill="#dedede"/>
        <path id="Path_86839" data-name="Path 86839" d="M.949,52.458H.1l0-.848L0,.851,0,0,.848,0h.406L2.1,0V.848l.1,50.758,0,.848-.848,0H.949l0-.847H1.8L1.7.849H1.255v0h0l0,.846h-.4L.85.85H.407L.5,51.609H.947l0,.848Zm0-.849h0v-.846H1.35l0,.847Z" transform="translate(175.481 153.204)" fill="#dedede"/>
        <path id="Path_86840" data-name="Path 86840" d="M45.184,27.967h0l-.733-.424L.734,2.245,0,1.82l.423-.734.006,0-.006,0,.2-.351L1.049,0l.733.425h0L45.5,25.722l.734.425-.423.735-.2.349h0l-.733-.423.2-.351.733.424-.732-.424.131-.229.089-.155.2-.352-.2.351h0L1.58.776l.2-.345-.2.345L1.512.893l0-.008-.126.223-.03.051L.626.735l.733.424-.2.351h0l-.22.383,43.716,25.3-.2.351h0l.423-.733.734.423-.422.734Zm-.312-1.158h0l-.732-.424.2-.352.733.424-.2.351ZM1.89,1.935h0L1.157,1.51l.2-.351.733.424-.2.351Z" transform="translate(175.398 203.447)" fill="#dedede"/>
        <path id="Path_86841" data-name="Path 86841" d="M1.044,27.952h0l-.421-.734h0l-.2-.351L0,26.129l.735-.423L44.647.423,45.381,0,45.8.735l.2.352.421.736-.734.423L1.779,27.529l-.734.423Zm.314-1.158.418.729-.2-.346L45.49,1.895l-.009-.013-.028-.049-.106-.187L45.27,1.51,46,1.087l-.735.423-.2-.352L45.8.736l-.733.422L44.85.775.937,26.057h0l.22.384-.734.423.734-.422.2.351-.733.422Zm0,0h0l-.2-.351.733-.422.2.352-.733.422ZM44.535,1.933h0l-.2-.351.735-.423.2.352-.734.422Z" transform="translate(131.5 203.502)" fill="#dedede"/>
        <path id="Path_86842" data-name="Path 86842" d="M44.88,103.808h0l-.408-.2.163-.326.175.1.261-.151.2.352-.395.228Zm.4-.229v0h0l-.2-.35.163-.094L88.874,77.9l.1-.056.183.365.015-.008Zm-.93-.041L.423,78.139,0,77.894V25.92l.468-.234.167.332-.311.18V77.4h0v.246l.286.165-.186.322.186-.322.137.079,43.64,25.238.145.084-.186.321Zm.356-.951h0l-.274-.474.164-.095.22.381-.108.187Zm.516-.933v0h0l-.406-.233L87.6,76.673v.471Zm-.778-.02L2.019,77.1v-.429L44.811,101.42l-.371.214ZM89.2,78.182h0l-.2-.355.056-.032.248-.143V26.2l-.225-.13.207-.358-.207.358h0l-.2-.115L45.235.716l-.1-.059.224-.386L89.28,25.71l.422.245V77.928l-.467.235-.036.018Zm-.607-.776h-.583v-.244h.442l.14.242Zm-86.9,0H1.03l.141-.244H.988l.284-.49.137.079-.238.411h.523V77.4ZM87.6,76.673v-49.5h0L44.811,2.429l.424-.245-.021-.037L87.6,26.7v.478h0l.4.234V76.438l-.4.233Zm-85.584,0h0l-.322-.186V27.363l-.1.057L1.412,27.1l.283-.164v.425l.324-.187ZM1.228,27.2h0L.97,26.687l-.122-.243h.1l.122.243.015.029-.015-.029-.122-.243.144.243.024.042-.024-.042-.141-.243H1.03l.14.243-.14-.243h.664v.243h.324v.064L44.41,2.2l.4.232L2.02,27.175h0v-.425l-.324.188v-.252H1.171l.24.415-.058.034h0l-.023.014-.023.011h0l-.077.041Zm87.2-.025h0l-.2-.114.217-.375h-.442v-.243h.583l-.141.243.141-.243h.264l-.141.243-.283.489ZM.712,25.973h0l-.164-.327-.024.012L44.427.23l.2.347-.24.139L.747,25.953l-.034.019ZM44.41,2.2l-.023-.013L44.61,1.8l.245.142L44.41,2.2Zm.623-.361h0l-.222-.386.161-.278.3.525-.241.14ZM44.61,1.8h0l-.09-.053.034.017.2-.4.054.093-.2.348ZM45.033.6h0L44.81.471l-.182.105-.2-.346.4-.23.408.205-.2.394Z" transform="translate(263.176 76.73)" fill="#dedede"/>
        <path id="Path_86843" data-name="Path 86843" d="M.1,52.458h0l0-.847L0,.851H0L0,0H1.253L2.1,0l0,.848.1,50.758,0,.848-.848,0H.949l0-.847,0,.848ZM.407.851.5,51.61H.1l.847,0h.848L1.7.849H.849L.482.85h.772l0,.847h-.4l0-.847v0H.407Zm.54,50.758h0v-.847H1.35l0,.846Z" transform="translate(306.966 77.085)" fill="#dedede"/>
        <path id="Path_86844" data-name="Path 86844" d="M45.184,27.968h0l-.733-.424L.734,2.245h0L0,1.821l.423-.735.006,0-.006,0,.2-.351.733.424-.2.351h0l-.219.381v0l43.716,25.3-.2.35h0l.423-.733.734.424-.422.734Zm.423-.734h0l-.733-.424.2-.351.733.424-.733-.424.052-.092.06-.1.108-.188h0L1.58.776l-.221.382L.626.735,1.049,0l.733.425L45.5,25.723l.734.425-.423.734-.2.35Zm-.734-.424h0l-.732-.424.2-.352.734.425-.2.351ZM1.89,1.935h0L1.157,1.51l.2-.351.734.424-.2.351Z" transform="translate(306.849 127.358)" fill="#dedede"/>
        <path id="Path_86845" data-name="Path 86845" d="M1.044,27.947h0l-.421-.735h0l-.2-.351L0,26.123.734,25.7,44.652.423,45.387,0l.421.735.2.352-.735.423-.2-.351.734-.423-.734.422-.22-.383L44.9.851,44.652.424l.2.351L.937,26.052v0h0l-.2-.35.422.736-.734.422.734-.422.2.35-.2-.35.734-.422.2.351-.734.423h0l-.732.422.733-.421.22.384-.22-.384.22.384.145.253-.145-.253L45.495,1.894l.018.031-.018-.031-.22-.383.735-.423.421.735-.734.423h0L1.779,27.524l-.734.423Zm43.5-26.014h0l-.2-.351.734-.423.2.351-.733.423Z" transform="translate(262.927 127.379)" fill="#dedede"/>
        <path id="Path_86846" data-name="Path 86846" d="M44.88,103.808h0l-.408-.2.164-.326.175.1.262-.151.2.35h0l-.2-.35.163-.094L88.874,77.9l.1-.056.183.365.017-.008-43.9,25.384h0l-.395.228Zm-.535-.269L.423,78.139,0,77.894V25.92l.468-.234.167.333L.324,26.2V77.4h0v.245l.286.165-.187.323.187-.323.138.079,43.638,25.238.146.084-.185.321Zm.356-.952h0l-.274-.474.162-.094.221.382-.108.186Zm.514-.931v0h0l-.405-.233L87.6,76.672v.472Zm-.777-.02L2.019,77.1v-.429L44.811,101.42l-.371.214ZM89.233,78.164h0l-.183-.369.249-.144V26.2l-.243-.141.224-.389-.225.389h0l-.179-.1L45.235.716l-.1-.059L45.356.27l43.923,25.4.423.245V77.928l-.468.235Zm-.642-.758h-.583v-.243h.443l.14.242Zm-86.9,0H1.031l.141-.243H1.7V77.4Zm.323-.733h0L1.7,76.486V27.363l-.1.058L1.412,27.1l.283-.164v.424l.323-.187Zm85.585,0v-49.5h0L44.811,2.429l.424-.245-.023-.039L87.653,26.687H87.6v.488h0l.4.234V76.438l-.4.233ZM1.228,27.2h0L.97,26.687l-.122-.243h.1l.144.243.05.086-.05-.086-.141-.243H1.7v.243h.323v.065L44.411,2.2l.4.231L2.02,27.175h0v-.424l-.323.187v-.252H1.172l.24.416-.059.034h0l-.022.012-.022.012-.08.04Zm87.2-.065h0l-.18-.1.2-.345h-.442V26.4h.606l-.164.284.164-.284h.239l-.162.284-.259.449ZM.713,25.973h0l-.164-.327L.52,25.66,44.427.23l.2.347-.241.139L.748,25.953l-.034.019ZM44.41,2.2l-.024-.014L44.61,1.8h0l-.057-.034.2-.406.054.092-.2.347.247.143L44.41,2.2Zm.623-.361h0l-.222-.386.161-.278.3.525-.241.14Zm-.521-.1-.041-.02.229-.458.041.069-.234.405.006,0ZM45.033.6h0L44.81.471l-.182.105-.2-.345.4-.23.408.205-.2.394Z" transform="translate(87.97 76.77)" fill="#dedede"/>
        <path id="Path_86847" data-name="Path 86847" d="M.1,52.458h0l0-.847L0,.851H0L0,0H1.254L2.1,0V.848l.1,50.758,0,.848-.848,0H.949l0-.847,0,.848ZM.407.851.5,51.61H.1l.847,0h.848L1.7.849H1.255v0h0l0,.847h-.4l0-.847v0H.407Zm.54,50.758h0v-.847H1.35l0,.846Z" transform="translate(131.762 77.166)" fill="#dedede"/>
        <path id="Path_86848" data-name="Path 86848" d="M.1,52.458h0l0-.847L0,.851H0L0,0H1.254L2.1,0V.848l.1,50.758,0,.848-.848,0H.949l0-.847,0,.848ZM.407.851.5,51.61H.1l.847,0h.848L1.7.849H1.255v0h0l0,.847h-.4l0-.847v0H.407Zm.54,50.758h0v-.847H1.35l0,.846Z" transform="translate(87.752 0.704)" fill="#dedede"/>
        <path id="Path_86849" data-name="Path 86849" d="M.1,52.458h0l0-.847L0,.851H0L0,0H1.254L2.1,0V.848l.1,50.758,0,.848-.848,0H.949l0-.847,0,.848ZM.407.851.5,51.61H.1l.847,0h.848L1.7.849H1.255v0h0l0,.847h-.4l0-.847v0H.407Zm.54,50.758h0v-.847H1.35l0,.846Z" transform="translate(176.28)" fill="#dedede"/>
        <path id="Path_86850" data-name="Path 86850" d="M45.184,27.968h0l-.733-.424.2-.351-.2.35h0L.734,2.245l.2-.351,43.716,25.3.221-.383-.734-.424.2-.352.733.424-.2.351h0l.2-.351.732.424-.732-.424.184-.32.036-.062h0L1.58.776l.2-.347-.2.347-.221.383L.626.735l.733.424-.09.157-.112.195h0l-.118.208L1,1.78l.013-.027-.069.124-.01.017-.2.35h0L0,1.82l.423-.734.006,0-.006,0,.2-.351L1.049,0l.733.425h0L45.5,25.723l.734.425-.423.733-.2.351h0l-.435-.252.436.253-.422.734ZM1.89,1.935h0L1.157,1.51l.112-.195.09-.157.733.424-.2.351Z" transform="translate(131.668 127.434)" fill="#dedede"/>
        <path id="Path_86851" data-name="Path 86851" d="M45.184,27.968h0l-.733-.424.2-.351-.2.35h0L.734,2.245l.2-.351,43.716,25.3.221-.383-.734-.424.2-.352.733.424-.2.351h0l.2-.351.732.424-.732-.424.184-.32.036-.062h0L1.58.776l.2-.347-.2.347-.221.383L.626.735l.733.424-.09.157-.112.195h0l-.118.208L1,1.78l.013-.027-.069.124-.01.017-.2.35h0L0,1.82l.423-.734.006,0-.006,0,.2-.351L1.049,0l.733.425h0L45.5,25.723l.734.425-.423.733-.2.351h0l-.435-.252.436.253-.422.734ZM1.89,1.935h0L1.157,1.51l.112-.195.09-.157.733.424-.2.351Z" transform="translate(87.898 203.364)" fill="#dedede"/>
        <path id="Path_86852" data-name="Path 86852" d="M1.045,27.951h0l-.422-.734h0l-.2-.351L0,26.129l.734-.423L44.647.423,45.382,0,45.8.735l.2.352-.734.423-.2-.351L45.8.736l-.732.422-.22-.383L.937,26.058h0l.22.383-.734.422.734-.422.2.352-.2-.352.734-.422.2.352-.734.422.22.383.189.331-.189-.331L45.49,1.894l.019.032-.018-.032-.22-.384L46,1.087l.421.735-.734.423h0L1.779,27.528l-.734.423Zm.313-1.158-.733.422.733-.422h0ZM44.536,1.933h0l-.2-.351.735-.423.2.352-.734.423Z" transform="translate(87.764 127.431)" fill="#dedede"/>
        <path id="Path_86853" data-name="Path 86853" d="M44.88,103.808h0l-.408-.2.173-.345.207.12.23-.133.193.332h0l-.193-.332.193-.112L88.915,77.9l.065-.038.174.347.017-.008-43.9,25.384-.395.228Zm-.535-.269L.423,78.139,0,77.894V25.92l.468-.234.176.351L.364,26.2V77.4h0v.245L.62,77.8l-.2.34.2-.34.167.1,43.639,25.238.115.067-.2.338Zm.376-.916v0l-.294-.51L44.62,102l.231.4-.128.222Zm-.261-.976-42.4-24.52v-.453L44.851,101.42l-.39.226Zm.776,0v0h0l-.385-.221L87.643,76.673v.448Zm44-23.48h0l-.174-.351.279-.162V26.2l-.273-.158.214-.371-.215.371h0l-.148-.087L45.275.716,45.143.639,45.356.27l43.923,25.4.423.245V77.928l-.468.235ZM1.069,77.407H.847l.141-.244h.224l-.141.244h0Zm87.681,0h-.743v-.244h.6l.14.242Zm-87.056,0H1.071l.141-.244h.482v-.246l.364.211v.034H1.695V77.4Zm85.948-.732v-49.5h0L44.851,2.429l.424-.245,0,0,42.38,24.507h-.01v.487h0l.364.211V76.462l-.363.21Zm-85.584,0h0l-.362-.21V27.386l-.059.034-.194-.336.253-.146v.449l.365-.211ZM1.228,27.2h0L.97,26.687l-.122-.243h.1l.122.243.237.472-.237-.473-.122-.243.144.243.26.449h0l-.26-.448-.141-.243h.119l.141.243.23.4-.088.051h0l-.022.014-.023.011-.079.04Zm.832-.025v-.449l-.365.211v-.25H1.212l-.141-.243h.623v.243h.364v.04L44.43,2.185l.421.244L2.061,27.175Zm86.372-.039h0l-.15-.086.21-.363h-.483V26.4h.648l-.164.284.164-.284h.2l-.163.284-.259.449ZM.722,25.991h0l-.173-.345-.024.012L44.427.23l.211.364-.211.122L.788,25.953l-.065.038ZM45.063,1.818h0l-.212-.368.14-.242.284.489-.211.122Zm-.423,0h0l-.087-.051.222-.444.077.131-.211.364Zm-.132-.076-.037-.019.249-.5.042.073-.255.441ZM44.638.594h0L44.427.23l.4-.23.408.205-.188.376-.191-.11-.213.123Z" transform="translate(131.773 0.733)" fill="#dedede"/>
        <path id="Path_86854" data-name="Path 86854" d="M45.184,27.968h0l-.734-.424.2-.351L44.761,27l-.008.017.1-.177.02-.034.734.425-.422.734Zm-.734-.425L.734,2.245,0,1.82l.423-.734.006,0-.006,0,.2-.351.733.425-.2.351h0l-.22.383,43.715,25.3-.2.35h0Zm1.157-.31h0l-.733-.424.2-.351.733.424-.733-.425.221-.383.2-.351-.2.35h0L1.58.776l-.221.383L.626.735,1.049,0l.733.425L45.5,25.723l.734.425-.423.734-.2.35Zm-.734-.425h0l-.732-.424.2-.352.733.424-.2.351ZM1.89,1.935h0L1.157,1.51l.2-.351.734.424-.2.351Z" transform="translate(175.513 51.377)" fill="#dedede"/>
        <path id="Path_86855" data-name="Path 86855" d="M1.044,27.951h0l-.421-.734-.2-.352L0,26.129l.734-.423L44.647.423,45.381,0,45.8.735h0l.2.351.422.735-.734.423L1.779,27.528l-.734.423Zm.112-1.51.2.351.22.384L45.49,1.894l-.22-.384h0l-.734.423h0l-.2-.351.735-.423,0,.008,0-.008L45.8.737l-.73.42L44.852.78l0-.005L.936,26.058h0l.22.383-.734.423Zm.2.351h0l-.2-.351.734-.423.2.352-.733.422Z" transform="translate(131.577 51.382)" fill="#dedede"/>
        <path id="Path_86856" data-name="Path 86856" d="M44.88,103.767h0l-.408-.2.157-.313.223.129.247-.143.177.3v0h0l-.176-.3.176-.1L88.915,77.9,89,77.848l.158.315.017-.008-43.9,25.384-.395.228Zm-.535-.269L.423,78.1h0L0,77.854V25.88l.468-.234L.644,26l-.279.162V77.364h0v.285l.238.138L.424,78.1.6,77.788l.185.107,43.639,25.238.1.056-.178.308Zm.388-.9v0l-.306-.53.176-.1.249.43-.117.2Zm-.238-.976L2.059,77.086v-.412L44.851,101.42l-.355.205Zm.705,0h0l-.35-.2L87.643,76.673v.406L45.2,101.623Zm44.032-23.5h0l-.158-.32.264-.153v-51h-.623l.141-.244.424-.733-.425.733h-.223l.283-.49L45.275.675,45.16.608l.2-.339,43.923,25.4.423.245V77.888l-.468.235Zm-.483-.758h-.743v-.2h.626l.117.2Zm-87.056,0h-.6l.118-.2h.482v-.286l.364.211v.075H1.695v.2Zm-.483-.2H.965l.307-.531.185.107-.245.423Zm86.431-.488V27.135h0L44.851,2.388l.391-.226,42.4,24.519v.453h0l.365.211V76.462l-.363.21Zm-85.584,0h0l-.363-.21V27.346l-.059.034-.194-.335.252-.146v.447l.364-.211ZM1.228,27.16h0L.97,26.646.848,26.4h.1l.144.244.26.449h0l-.26-.449L.952,26.4h.119l.141.244.23.4-.089.051h0l-.023.013-.022.011-.079.04Zm87.2-.023h0l-.167-.1.227-.393h-.483V26.4h.624l-.141.244h.224l-.283.49Zm-86.372,0v-.447l-.364.211v-.251H1.212L1.071,26.4h.624v.244h.364v.041L44.465,2.165l-.038-.022.2-.339.234.135-.391.226.386.223L2.061,27.134ZM.722,25.951h0L.548,25.6l-.02.01L44.427.229l.1.167-.1-.167.4-.229.409.205L45.058.55,44.852.43l-.23.133h0l-.194.112L.788,25.913l-.065.037ZM45.243,2.162l-.386-.223.225-.13h0l-.23-.4.129-.222.3.51-.193.112.193.335-.033.019Zm-.736-.424-.035-.018.26-.518.043.074-.267.461Z" transform="translate(44.049 0.693)" fill="#dedede"/>
        <path id="Path_86857" data-name="Path 86857" d="M45.184,27.968h0l-.733-.424.2-.351-.2.35h0L.734,2.245l.2-.351,43.716,25.3.221-.383-.734-.424.2-.352.733.425-.2.351h0l.2-.351.22-.382L1.58.776l.2-.351L45.5,25.723l.734.425-.423.734-.2.35h0l-.488-.282.489.283-.422.734ZM.734,2.245h0L0,1.82l.423-.734.2-.351L1.049,0l.734.425-.2.351-.178.31-.043.073L.626.735l.733.424-.2.351L.98,1.818,1.1,1.6l-.158.274-.009.015-.2.35Zm1.156-.31h0L1.157,1.51l.2-.351.733.424-.2.351Z" transform="translate(87.737 51.323)" fill="#dedede"/>
        <path id="Path_86858" data-name="Path 86858" d="M1.044,27.946h0l-.421-.734h0l-.2-.351L0,26.123.735,25.7,44.652.423,45.387,0l.421.735h0l.2.351.421.735-.734.423L1.779,27.524h0l-.734.421Zm.314-1.157.184.321.036.063.2.347-.2-.347L45.494,1.894l-.219-.383.735-.423-.735.423h0l-.734.422h0l-.2-.351.734-.423.161.282-.161-.282.733-.422-.733.422-.047-.079-.173-.3L.937,26.052v0h0l-.2-.35.421.736-.734.422.734-.422.2.349-.2-.35.734-.422.2.352-.733.422h0l-.734.422h0Z" transform="translate(43.837 51.328)" fill="#dedede"/>
        <path id="Path_86859" data-name="Path 86859" d="M44.88,103.808h0l-.408-.2.163-.326.175.1.261-.151.2.352-.395.228Zm.4-.229v0h0l-.2-.35.163-.094L88.874,77.9l.1-.056.183.365.015-.008Zm-.93-.041L.423,78.139,0,77.894V25.92l.468-.234.167.332-.311.18V77.4h0v.246l.286.165-.186.322.186-.322.137.079,43.64,25.238.145.084-.186.321Zm.356-.951h0l-.274-.474.164-.095.22.381-.108.187Zm.516-.933v0h0l-.406-.233L87.6,76.673v.471Zm-.778-.02L2.019,77.1v-.429L44.811,101.42l-.371.214ZM89.2,78.182h0l-.2-.355.056-.032.248-.143V26.2l-.225-.13.207-.358-.207.358h0l-.2-.115L45.235.716l-.1-.059.224-.386L89.28,25.71l.422.245V77.928l-.467.235-.036.018Zm-.607-.776h-.583v-.244h.442l.14.242Zm-86.9,0H1.03l.141-.244H.988l.284-.49.137.079-.238.411h.523V77.4ZM87.6,76.673v-49.5h0L44.811,2.429l.424-.245-.021-.037L87.6,26.7v.478h0l.4.234V76.438l-.4.233Zm-85.584,0h0l-.322-.186V27.363l-.1.057L1.412,27.1l.283-.164v.425l.324-.187ZM1.228,27.2h0L.97,26.687l-.122-.243h.1l.122.243.015.029-.015-.029-.122-.243.144.243.024.042-.024-.042-.141-.243H1.03l.14.243-.14-.243h.664v.243h.324v.064L44.41,2.2l.4.232L2.02,27.175h0v-.425l-.324.188v-.252H1.171l.24.415-.058.034h0l-.023.014-.023.011h0l-.077.041Zm87.2-.025h0l-.2-.114.217-.375h-.442v-.243h.583l-.141.243.141-.243h.264l-.141.243-.283.489ZM.712,25.973h0l-.164-.327-.024.012L44.427.23l.2.347-.24.139L.747,25.953l-.034.019ZM44.41,2.2l-.023-.013L44.61,1.8l.245.142L44.41,2.2Zm.623-.361h0l-.222-.386.161-.278.3.525-.241.14ZM44.61,1.8h0l-.09-.053.034.017.2-.4.054.092-.2.348ZM45.033.6h0L44.81.471l-.182.105-.2-.346.4-.23.408.205-.2.394Z" transform="translate(263.176 76.73)" fill="#dedede"/>
      </g>
    </g>
  </g>
</svg>
