<svg xmlns="http://www.w3.org/2000/svg" xmlns:xlink="http://www.w3.org/1999/xlink" width="40.165" height="40.165" viewBox="0 0 40.165 40.165">
  <defs>
    <linearGradient id="linear-gradient" x1="0.5" x2="0.5" y2="0.656" gradientUnits="objectBoundingBox">
      <stop offset="0" stop-color="#ffe28b"/>
      <stop offset="1" stop-color="#ffc20e"/>
    </linearGradient>
  </defs>
  <g id="Group_87424" data-name="Group 87424" transform="translate(0 0)">
    <path id="Path_86746" data-name="Path 86746" d="M.454,19.52l9.5-5.488L7.042,0,1.269,9.5,0,10.577v9.175Z" transform="translate(19.964 19.716)" fill="#0054a6"/>
    <path id="Path_86745" data-name="Path 86745" d="M0,0,2.244,1.161l4.595,2.52,5.485,14.888L2.536,13.213,0,1.437Z" transform="translate(27.19 20.666)" fill="#014384"/>
    <path id="Path_86744" data-name="Path 86744" d="M9.678,9.943,8.719,9,2.95,0,0,13.84l9.675,5.368Z" transform="translate(10.366 20.339)" fill="#014384"/>
    <path id="Path_86651" data-name="Path 86651" d="M10.665,28.915c-.718,0-1.715-.846-2.965-2.515a44.857,44.857,0,0,1-3.522-5.763C1.835,16.19,0,11.541,0,10.053A11,11,0,0,1,2.457,3.889,9.8,9.8,0,0,1,10.351,0c.1,0,.208,0,.314,0a10.312,10.312,0,0,1,8.1,4.24,11.68,11.68,0,0,1,2.49,6.394c0,1.477-1.818,6-4.139,10.292C14.409,25.93,12,28.915,10.665,28.915Zm0-22.263a3.986,3.986,0,1,0,3.986,3.986A3.991,3.991,0,0,0,10.665,6.652Z" transform="translate(9.418 0.574)" fill="url(#linear-gradient)"/>
    <path id="Path_86649" data-name="Path 86649" d="M.588,40.165a.588.588,0,0,1-.55-.8l5.883-15.5a.588.588,0,0,1,.261-.3l6.268-3.531-1.83-2.9a11.178,11.178,0,1,1,18.924,0l-1.83,2.9,6.268,3.531a.593.593,0,0,1,.261.3l5.883,15.5a.589.589,0,0,1-.839.722L29.83,34.761,20.371,40.09a.59.59,0,0,1-.578,0l-9.458-5.329L.878,40.09A.591.591,0,0,1,.588,40.165ZM26.614,21.782h0l-.1.154c-1.478,2.343-4.917,7.8-4.942,7.835a1.767,1.767,0,0,1-.9.724V38.57l8.493-4.785-2.551-12Zm-15.6,12.013h0l8.477,4.775V30.494a1.776,1.776,0,0,1-.9-.722l-5.038-7.989L11.017,33.794,11,33.785l1.137-5.347a.589.589,0,0,0-.453-.7.592.592,0,0,0-.124-.013.585.585,0,0,0-.542.361L12.432,21.4l-5.486,3.09L1.715,38.267l8.1-4.564,1.171-5.51a.594.594,0,0,1,.033-.1L9.835,33.7a.591.591,0,0,0,.454.7.642.642,0,0,0,.122.013.591.591,0,0,0,.575-.466l.031-.145ZM27.734,21.4,30.351,33.7l8.1,4.564L33.219,24.486ZM20.083,1.176a10,10,0,0,0-8.466,15.33l0,0,7.966,12.632a.587.587,0,0,0,1,0l0-.005c.137-.215,7.889-12.509,7.966-12.631a10,10,0,0,0-8.467-15.33Z" fill="#0054a6"/>
    <path id="Path_86743" data-name="Path 86743" d="M5.866,3.8,12.627,0,9.49,14.128,0,18.99Z" transform="translate(0.596 20.421)" fill="#0054a6"/>
  </g>
</svg>
