<svg xmlns="http://www.w3.org/2000/svg" width="16.299" height="16.299" viewBox="0 0 16.299 16.299"><path d="M11.546,16.3H4.756A4.76,4.76,0,0,1,0,11.546V4.756A4.76,4.76,0,0,1,4.753,0h6.79A4.76,4.76,0,0,1,16.3,4.753v6.79A4.76,4.76,0,0,1,11.546,16.3ZM8.149,4.074a4.075,4.075,0,1,0,4.074,4.075A4.08,4.08,0,0,0,8.149,4.074ZM12.9,2.716a.68.68,0,1,0,.679.68A.68.68,0,0,0,12.9,2.716ZM8.149,10.866a2.716,2.716,0,1,1,2.716-2.716A2.719,2.719,0,0,1,8.149,10.866Z" transform="translate(0 0)" fill="#ab9969" style="&#10;    fill: #0054A6;&#10;"/></svg>