<svg xmlns="http://www.w3.org/2000/svg" width="25.097" height="30.551" viewBox="0 0 25.097 30.551">
  <g id="Group_87388" data-name="Group 87388" transform="translate(-0.001 0.001)">
    <path id="Path_86893" data-name="Path 86893" d="M12.55,0A12.627,12.627,0,0,1,25.1,12.7C25.1,19.72,12.55,30.55,12.55,30.55S0,19.72,0,12.7A12.627,12.627,0,0,1,12.55,0Z" fill="#ffc20e"/>
    <path id="Ellipse_2584" data-name="Ellipse 2584" d="M0,5A5.268,5.268,0,0,1,5.5,0,5.268,5.268,0,0,1,11,5a5.268,5.268,0,0,1-5.5,5A5.268,5.268,0,0,1,0,5Z" transform="translate(7.061 6.332)" fill="#fff"/>
  </g>
</svg>
