<svg xmlns="http://www.w3.org/2000/svg" width="24" height="27.499" viewBox="0 0 24 27.499">
  <g id="Group_87296" data-name="Group 87296" transform="translate(0 0)">
    <g id="Ellipse_2515" data-name="Ellipse 2515" fill="#fff" stroke-miterlimit="10">
      <path d="M 12 23.00037002563477 C 9.061790466308594 23.00037002563477 6.299449920654297 21.85617065429688 4.221819877624512 19.77854919433594 C 2.144200086593628 17.70092010498047 1 14.93857955932617 1 12.00037002563477 C 1 9.062160491943359 2.144200086593628 6.299819946289062 4.221819877624512 4.222189903259277 C 6.299449920654297 2.144570112228394 9.061790466308594 1.000370025634766 12 1.000370025634766 C 14.93820953369141 1.000370025634766 17.7005500793457 2.144570112228394 19.77817916870117 4.222189903259277 C 21.85580062866211 6.299819946289062 23 9.062160491943359 23 12.00037002563477 C 23 14.93857955932617 21.85580062866211 17.70092010498047 19.77817916870117 19.77854919433594 C 17.7005500793457 21.85617065429688 14.93820953369141 23.00037002563477 12 23.00037002563477 Z" stroke="none"/>
      <path d="M 12 2.000370025634766 C 6.485979080200195 2.000370025634766 2 6.486349105834961 2 12.00037002563477 C 2 17.51438903808594 6.485979080200195 22.00037002563477 12 22.00037002563477 C 17.51401901245117 22.00037002563477 22 17.51438903808594 22 12.00037002563477 C 22 6.486349105834961 17.51401901245117 2.000370025634766 12 2.000370025634766 M 12 0.000370025634765625 C 18.62742042541504 0.000370025634765625 24 5.372949600219727 24 12.00037002563477 C 24 18.6277904510498 18.62742042541504 24.00037002563477 12 24.00037002563477 C 5.372579574584961 24.00037002563477 0 18.6277904510498 0 12.00037002563477 C 0 5.372949600219727 5.372579574584961 0.000370025634765625 12 0.000370025634765625 Z" stroke="none" fill="#24343f"/>
    </g>
    <text id="i" transform="translate(12 22.5)" fill="#24343f" font-size="20" font-family="SegoeUI, Segoe UI"><tspan x="-2.422" y="0">i</tspan></text>
  </g>
</svg>
