<svg xmlns="http://www.w3.org/2000/svg" width="48" height="55.231" viewBox="0 0 48 55.231">
  <g id="Group_87422" data-name="Group 87422" transform="translate(-696.943 -542)">
    <path id="Polygon_30" data-name="Polygon 30" d="M41.423,0,55.231,24,41.423,48H13.808L0,24,13.808,0Z" transform="translate(696.943 597.23) rotate(-90)" fill="#fff"/>
    <g id="Group_87421" data-name="Group 87421" transform="translate(703 552)">
      <g id="Group_87293" data-name="Group 87293">
        <g id="Group_87292" data-name="Group 87292" transform="translate(12.863 11)">
          <g id="Path_86808" data-name="Path 86808" transform="translate(-0.002 -1)" fill="#fff">
            <path d="M 5.13720703125 7.729978084564209 C 4.694029331207275 7.508695602416992 3.835067510604858 7.050636768341064 2.989557027816772 6.43617582321167 C 1.96787703037262 5.693686008453369 0.7499970197677612 4.568535804748535 0.7499970197677612 3.424805879592896 L 0.7499970197677612 0.7499958872795105 L 9.524416923522949 0.7499958872795105 L 9.524416923522949 3.424805879592896 C 9.524416923522949 4.568535804748535 8.306536674499512 5.693686008453369 7.284856796264648 6.43617582321167 C 6.439346313476562 7.050636768341064 5.580384731292725 7.508695602416992 5.13720703125 7.729978084564209 Z" stroke="none"/>
            <path d="M 1.499997138977051 1.499995708465576 L 1.499997138977051 3.424805641174316 C 1.499997138977051 4.048455715179443 2.214877128601074 4.942445755004883 3.412307262420654 5.816235542297363 C 4.043243885040283 6.276647567749023 4.685801982879639 6.646377563476562 5.137186527252197 6.886277675628662 C 5.588837623596191 6.646251678466797 6.231239795684814 6.276597023010254 6.862107276916504 5.816235542297363 C 8.059536933898926 4.942445755004883 8.774416923522949 4.048455715179443 8.774416923522949 3.424805641174316 L 8.774416923522949 1.499995708465576 L 1.499997138977051 1.499995708465576 M -2.86102294921875e-06 -3.814697265625e-06 L 10.27441692352295 -3.814697265625e-06 L 10.27441692352295 3.424805641174316 C 10.27441692352295 6.262005805969238 5.13720703125 8.562015533447266 5.13720703125 8.562015533447266 C 5.13720703125 8.562015533447266 -2.86102294921875e-06 6.262005805969238 -2.86102294921875e-06 3.424805641174316 L -2.86102294921875e-06 -3.814697265625e-06 Z" stroke="none" fill="#7d7d7d"/>
          </g>
          <g id="Path_86809" data-name="Path 86809" transform="translate(10.273 14.414) rotate(180)" fill="#fff">
            <path d="M 5.13720703125 7.729978084564209 C 4.694029331207275 7.508695602416992 3.835067510604858 7.050636768341064 2.989557027816772 6.43617582321167 C 1.96787703037262 5.693686008453369 0.7499970197677612 4.568535804748535 0.7499970197677612 3.424805879592896 L 0.7499970197677612 0.7499958872795105 L 9.524416923522949 0.7499958872795105 L 9.524416923522949 3.424805879592896 C 9.524416923522949 4.568535804748535 8.306536674499512 5.693686008453369 7.284856796264648 6.43617582321167 C 6.439346313476562 7.050636768341064 5.580384731292725 7.508695602416992 5.13720703125 7.729978084564209 Z" stroke="none"/>
            <path d="M 1.499997138977051 1.499995708465576 L 1.499997138977051 3.424805641174316 C 1.499997138977051 4.048455715179443 2.214877128601074 4.942445755004883 3.412307262420654 5.816235542297363 C 4.043243885040283 6.276647567749023 4.685801982879639 6.646377563476562 5.137186527252197 6.886277675628662 C 5.588837623596191 6.646251678466797 6.231239795684814 6.276597023010254 6.862107276916504 5.816235542297363 C 8.059536933898926 4.942445755004883 8.774416923522949 4.048455715179443 8.774416923522949 3.424805641174316 L 8.774416923522949 1.499995708465576 L 1.499997138977051 1.499995708465576 M -2.86102294921875e-06 -3.814697265625e-06 L 10.27441692352295 -3.814697265625e-06 L 10.27441692352295 3.424805641174316 C 10.27441692352295 6.262005805969238 5.13720703125 8.562015533447266 5.13720703125 8.562015533447266 C 5.13720703125 8.562015533447266 -2.86102294921875e-06 6.262005805969238 -2.86102294921875e-06 3.424805641174316 L -2.86102294921875e-06 -3.814697265625e-06 Z" stroke="none" fill="#7d7d7d"/>
          </g>
          <path id="Path_86810" data-name="Path 86810" d="M2.1,1.777c1.1-.081,1.3-.56,2.3-.687a2.918,2.918,0,0,1,1.747.325C6.147,3,3.073,4.281,3.073,4.281S0,3,0,1.414A4.9,4.9,0,0,0,2.1,1.777Z" transform="translate(2.062 0.848)" fill="#d9d9d9"/>
        </g>
      </g>
    </g>
  </g>
</svg>
