<svg id="Component_49_1" data-name="Component 49 – 1" xmlns="http://www.w3.org/2000/svg" width="17" height="17" viewBox="0 0 17 17">
  <g id="Rectangle_3051" data-name="Rectangle 3051" fill="#0054a6" stroke-miterlimit="10">
    <path d="M 15 16.5 L 2 16.5 C 1.172899961471558 16.5 0.5 15.82709980010986 0.5 15 L 0.5 2 C 0.5 1.172899961471558 1.172899961471558 0.5 2 0.5 L 15 0.5 C 15.82709980010986 0.5 16.5 1.172899961471558 16.5 2 L 16.5 15 C 16.5 15.82709980010986 15.82709980010986 16.5 15 16.5 Z" stroke="none"/>
    <path d="M 15 16 C 15.55140018463135 16 16 15.55140018463135 16 15 L 16 2 C 16 1.448600053787231 15.55140018463135 1 15 1 L 2 1 C 1.448600053787231 1 1 1.448600053787231 1 2 L 1 15 C 1 15.55140018463135 1.448600053787231 16 2 16 L 15 16 M 15 17 L 2 17 C 0.8954300284385681 17 0 16.10457038879395 0 15 L 0 2 C 0 0.8954300284385681 0.8954300284385681 0 2 0 L 15 0 C 16.10457038879395 0 17 0.8954300284385681 17 2 L 17 15 C 17 16.10457038879395 16.10457038879395 17 15 17 Z" stroke="none" fill="#24343f"/>
  </g>
  <path id="Path_86811" data-name="Path 86811" d="M0,5.4,2.519,7.921,10.439,0" transform="translate(3.28 4.541)" fill="none" stroke="#fff" stroke-miterlimit="10" stroke-width="2"/>
  <path id="Rectangle_3053" data-name="Rectangle 3053" d="M1,15a1,1,0,0,1-1-1V1A1,1,0,0,1,1,0H14a1,1,0,0,1,1,1V14a1,1,0,0,1-1,1Z" transform="translate(1 1)" fill="#ffc20e"/>
</svg>
