<svg xmlns="http://www.w3.org/2000/svg" width="657.621" height="483.8" viewBox="0 0 657.621 483.8">
  <g id="Frame" transform="translate(268.095 535.693) rotate(-120)" opacity="0.236">
    <path id="Path_86895" data-name="Path 86895" d="M315.61,208.155l.514-1.026-.553-.278-.535.31Zm.11.055.574-.994-.03-.017-.03-.015Zm59.46,34.384h1.147v-.662l-.573-.33Zm0,68.99.514,1.026.633-.318v-.708Zm-.109.055-.514-1.026-.031.015-.03.017ZM315.61,346.024l-.514,1.026.553.278.536-.31Zm-.109-.055-.575.994.03.017.031.015ZM256.04,311.585h-1.147v.662l.573.332Zm0-68.99-.514-1.026-.633.318v.708Zm.11-.055.514,1.026.03-.015.03-.017Zm118.482.386h1.147v-.662l-.574-.332ZM315.555,208.76l.575-.994-.575-.333-.574.333Zm-59.076,34.165-.574-.994-.574.332v.662Zm0,68.385h-1.148v.661l.574.332Zm59.076,34.165-.574.993.574.333.575-.333Zm59.078-34.165.574.993.574-.332v-.661ZM315.1,209.181l.11.055,1.028-2.052-.11-.055Zm.049.022,59.461,34.385,1.149-1.986-59.461-34.385Zm58.887,33.392v68.99h2.295v-68.99Zm.633,67.964-.109.055,1.028,2.052.109-.055Zm-.17.087-59.46,34.385,1.149,1.986,59.46-34.385ZM316.124,345l-.109-.055-1.028,2.052.109.055Zm-.049-.022-59.46-34.385-1.15,1.987,59.461,34.384Zm-58.887-33.392v-68.99h-2.295v68.99Zm-.633-67.964.11-.055-1.029-2.052-.109.055Zm.17-.087,59.461-34.384-1.149-1.987-59.461,34.385Zm118.482-1.6L316.13,207.766l-1.149,1.986,59.077,34.165Zm-60.225-34.165-59.076,34.165,1.149,1.986,59.076-34.165Zm-59.65,35.159v68.385h2.295V242.925Zm.574,69.378,59.076,34.165,1.149-1.986-59.076-34.165Zm60.225,34.165L375.207,312.3l-1.148-1.986-59.077,34.165Zm59.65-35.158V242.925h-2.295v68.385Z" transform="translate(-135.804 102.62)" fill="#dedede"/>
    <path id="Path_86896" data-name="Path 86896" d="M367.478,272.47l.994.575.572-.995-.994-.574Zm-.273.476-.574.994.994.575.572-.995Zm-59.324-34.33-.992-.575-.573.995.993.574Zm.274-.476.573-.994-.993-.575-.574.995Zm58.331,33.755-.274.476,1.986,1.149.274-.475Zm1.292.056-59.324-34.33-1.145,1.988,59.323,34.33Zm-58.9-32.761.273-.476-1.986-1.149-.273.475Zm-1.292-.056,59.323,34.33,1.145-1.988-59.323-34.33Z" transform="translate(-187.522 107.001)" fill="#dedede"/>
    <path id="Path_86897" data-name="Path 86897" d="M315.787,238.653l.574.995.992-.576-.574-.994Zm-59.31,34.358-.994.575.574.995.993-.576Zm-.274-.476-.574-.994-.992.575.572.995Zm59.309-34.357.993-.575-.573-.995-.993.576Zm-.3-.519L255.9,272.017,257.05,274l59.311-34.357ZM257.47,272.436l-.274-.476-1.986,1.151.274.475Zm-.694,1.094,59.311-34.358-1.146-1.987-59.311,34.357Zm57.744-34.777.274.476,1.985-1.151-.274-.475Z" transform="translate(-76.535 107.006)" fill="#dedede"/>
    <path id="Path_86898" data-name="Path 86898" d="M308.267,336.874v1.147h1.147v-1.147Zm-.55,0H306.57v1.147h1.147Zm0-68.66v-1.147H306.57v1.147Zm.55,0h1.147v-1.147h-1.147Zm0,67.512h-.55v2.295h.55Zm.6,1.147v-68.66H306.57v68.66Zm-1.147-67.512h.55v-2.295h-.55Zm-.6-1.147v68.66h2.295v-68.66Z" transform="translate(-128.185 111.496)" fill="#dedede"/>
    <path id="Path_86899" data-name="Path 86899" d="M419.156,88.477l.515-1.026-.553-.277-.536.31Zm.11.055.575-.993-.03-.017-.031-.015Zm59.461,34.385h1.147v-.662l-.574-.332Zm0,68.989.514,1.026.633-.317v-.709Zm-.11.055-.514-1.026-.031.016-.03.016Zm-59.461,34.385-.513,1.026.552.277.536-.31Zm-.109-.055-.575.993.03.018.031.015Zm-59.461-34.385h-1.147v.662l.574.332Zm0-68.989-.514-1.026-.633.317v.709Zm.11-.055.514,1.026.03-.015.03-.017Zm59.46-33.781.575-.993-.575-.332-.574.332ZM360.08,123.246l-.575-.994-.572.332v.662Zm0,68.385h-1.147v.662l.572.332ZM419.156,225.8l-.574.994.574.332.575-.332Zm59.078-34.165.574.994.574-.332v-.662ZM418.642,89.5l.11.055,1.028-2.051-.109-.055Zm.049.023,59.461,34.384,1.149-1.986-59.46-34.385Zm58.888,33.392v68.989h2.295V122.917Zm.633,67.963-.11.055,1.028,2.052.11-.055Zm-.171.087-59.46,34.385,1.148,1.986,59.461-34.384ZM419.67,225.321l-.109-.055-1.028,2.052.11.055Zm-.049-.023-59.46-34.384-1.148,1.986,59.46,34.384Zm-58.887-33.392V122.917h-2.295v68.989Zm-.634-67.963.11-.055-1.028-2.052-.11.055Zm.17-.087L419.731,89.47l-1.148-1.987-59.461,34.385Zm118.538-1.6L419.731,88.088l-1.148,1.987,59.076,34.166ZM418.582,88.088,359.5,122.253l1.15,1.987,59.077-34.166Zm-59.65,35.159v68.385h2.295V123.246Zm.572,69.379,59.078,34.165,1.148-1.987-59.077-34.165Zm60.226,34.165,59.077-34.165-1.149-1.987L418.582,224.8Zm59.65-35.159V123.246h-2.295v68.385Z" transform="translate(-358.16 84.978)" fill="#dedede"/>
    <path id="Path_86900" data-name="Path 86900" d="M471.01,152.811l.994.575.573-.995-.994-.575Zm-.274.475-.573.995.994.575.573-.995Zm-59.323-34.329-.992-.575-.574.994.994.575Zm.274-.476.573-.994-.992-.575-.574.994Zm58.331,33.756-.274.475,1.986,1.15.274-.475Zm1.291.056-59.323-34.33-1.145,1.989,59.323,34.33Zm-58.9-32.761.273-.476-1.986-1.15-.273.476Zm-1.292-.056L470.437,153.8l1.145-1.988-59.323-34.329Z" transform="translate(-409.846 89.362)" fill="#dedede"/>
    <path id="Path_86901" data-name="Path 86901" d="M419.293,118.97l.574.994.992-.575-.574-.994Zm-59.31,34.358-.992.575.573.994.994-.575Zm-.274-.476-.574-.994-.993.575.574.994Zm59.31-34.357.992-.576-.573-.994-.992.575Zm-.3-.519L359.41,152.333l1.147,1.988,59.31-34.358Zm-57.744,34.776-.274-.475-1.985,1.15.274.476Zm-.693,1.093,59.31-34.357-1.146-1.988-59.311,34.358Zm57.743-34.776.274.475,1.985-1.15-.274-.476Z" transform="translate(-298.805 89.364)" fill="#dedede"/>
    <path id="Path_86902" data-name="Path 86902" d="M411.814,217.2v1.147h1.147V217.2Zm-.55,0h-1.147v1.147h1.147Zm0-68.66v-1.147h-1.147v1.147Zm.55,0h1.147v-1.147h-1.147Zm0,67.512h-.55v2.295h.55Zm.6,1.147v-68.66h-2.295V217.2Zm-1.147-67.512h.55v-2.295h-.55Zm-.6-1.147V217.2h2.295v-68.66Z" transform="translate(-350.543 93.854)" fill="#dedede"/>
    <path id="Path_86903" data-name="Path 86903" d="M57.17-61.122l.514-1.026-.553-.277-.536.31Zm.11.055.574-.993-.03-.017-.031-.015Zm59.46,34.385h1.147v-.662l-.573-.331Zm0,68.99.514,1.026.633-.317v-.708Zm-.11.055-.514-1.026-.031.015-.03.017ZM57.17,76.748l-.514,1.026.553.277.535-.31Zm-.11-.055-.574.993.03.017.031.015ZM-2.4,42.308H-3.547v.662l.573.331Zm0-68.99-.514-1.026-.633.317v.708Zm.109-.055.514,1.026.031-.015.03-.017Zm118.537.385-.574.993.267.154h.308ZM57.17-60.517l.575-.993-.575-.332-.575.333ZM-1.852-26.352l-.575-.993L-3-27.014v.662Zm0,68.33H-3v.662l.574.331ZM57.225,76.143l-.574.993.574.332.574-.332ZM116.3,41.978l.574.993.573-.331v-.662Zm0-68.33h1.147V-27.5H116.3ZM56.656-60.1l.11.055,1.029-2.051-.11-.055Zm.05.022,59.46,34.385,1.149-1.987L57.854-62.06Zm58.887,33.392v68.99h2.295v-68.99Zm.633,67.964-.11.055,1.028,2.051.11-.055Zm-.17.087L56.6,75.754l1.149,1.987,59.461-34.385ZM57.684,75.722l-.11-.055-1.028,2.052.11.055Zm-.049-.022L-1.826,41.315-2.974,43.3l59.46,34.385ZM-1.252,42.308v-68.99H-3.547v68.99Zm-.633-67.964.109-.055L-2.8-27.763l-.109.055Zm.17-.087,59.46-34.385L56.6-62.115-2.864-27.73Zm118.537-1.6L57.745-61.511,56.6-59.524l59.077,34.165ZM56.6-61.51-2.427-27.345l1.15,1.986L57.745-59.524ZM-3-26.352v68.33H-.7v-68.33Zm.574,69.324L56.651,77.137,57.8,75.15-1.277,40.985ZM57.8,77.137l59.077-34.165-1.149-1.986L56.651,75.15Zm59.65-35.158v-68.33h-2.295v68.33ZM116.3-27.5h-.055V-25.2h.055Z" transform="translate(419.172 62.927)" fill="#dedede"/>
    <path id="Path_86904" data-name="Path 86904" d="M57.3,33.118l.993.575.573-.994-.993-.575Zm-.274.476-.573.994.993.575.573-.994ZM-2.295-.736l-.993-.575-.573.994.993.575Zm.274-.476.573-.994-.993-.575-.573.994Zm58.33,33.755-.274.476,1.986,1.149.274-.476ZM57.6,32.6-1.722-1.73-2.868.258l59.324,34.33ZM-1.3-.161l.274-.476L-3.014-1.786l-.274.476ZM-2.594-.217,56.73,34.113l1.145-1.988L-1.448-2.206Z" transform="translate(478.551 71.719)" fill="#dedede"/>
    <path id="Path_86905" data-name="Path 86905" d="M109.039-.711l.573.994.993-.575-.573-.994ZM49.73,33.647l-.994.575.574.994.992-.575Zm-.274-.476-.574-.994-.992.575.573.994Zm59.31-34.358.993-.575-.573-.994-.993.575Zm-.3-.518L49.156,32.653,50.3,34.641,109.612.283ZM50.722,33.072l-.274-.476-1.986,1.15.274.475Zm-.694,1.094L109.338-.192,108.192-2.18,48.882,32.177ZM107.772-.611l.274.476,1.986-1.15-.274-.476Z" transform="translate(367.437 71.722)" fill="#dedede"/>
    <path id="Path_86906" data-name="Path 86906" d="M160.43-61.122l.514-1.026-.553-.277-.536.31Zm.109.055.575-.993-.03-.017-.03-.015ZM220-26.682h1.148v-.662l-.573-.331Zm0,68.99.514,1.026.633-.317v-.708Zm-.109.055-.515-1.026-.03.015-.03.017ZM160.43,76.748l-.514,1.026.553.277.536-.31Zm-.11-.055-.574.993.03.017.03.015ZM100.86,42.308H99.713v.662l.573.331Zm0-68.99-.514-1.026-.633.317v.708Zm.109-.055.514,1.026.031-.015.03-.017Zm118.482.385H220.6v-.662l-.573-.331ZM160.375-60.517l.575-.993-.575-.332-.574.332ZM101.3-26.352l-.575-.993-.573.331v.662Zm0,68.33h-1.147v.662l.573.331Zm59.077,34.165-.574.993.574.332.575-.332Zm59.076-34.165.575.993.573-.331v-.662ZM159.916-60.1l.109.055,1.029-2.051-.11-.055Zm.049.022,59.461,34.385,1.149-1.987L161.114-62.06Zm58.887,33.392v68.99h2.295v-68.99Zm.633,67.964-.11.055,1.029,2.051.109-.055Zm-.17.087L159.855,75.754l1.15,1.987,59.46-34.385ZM160.944,75.722l-.11-.055-1.028,2.052.11.055Zm-.049-.022L101.434,41.315,100.285,43.3l59.461,34.385ZM102.008,42.308v-68.99H99.713v68.99Zm-.633-67.964.109-.055-1.028-2.052-.109.055Zm.17-.087,59.461-34.385-1.15-1.986L100.4-27.73Zm118.482-1.6L160.95-61.511,159.8-59.524l59.077,34.165ZM159.8-61.511,100.724-27.345l1.149,1.986L160.95-59.524Zm-59.65,35.158v68.33h2.295v-68.33Zm.573,69.324L159.8,77.137l1.149-1.987L101.872,40.985ZM160.95,77.137l59.077-34.165-1.149-1.986L159.8,75.15ZM220.6,41.978v-68.33H218.3v68.33Z" transform="translate(197.431 62.927)" fill="#dedede"/>
    <path id="Path_86907" data-name="Path 86907" d="M153.089,67.6v1.147h1.147V67.6Zm-.548,0h-1.147v1.147h1.147Zm0-68.66V-2.21h-1.147v1.147Zm.548,0h1.147V-2.21h-1.147Zm0,67.513h-.548v2.295h.548Zm.6,1.147V-1.063h-2.295V67.6ZM152.54.084h.548V-2.21h-.548Zm-.6-1.147V67.6h2.295V-1.063Z" transform="translate(205.044 71.803)" fill="#dedede"/>
    <path id="Path_86908" data-name="Path 86908" d="M160.606,33.124l.993.575.573-.994-.993-.575Zm-.273.476-.574.994.994.575.573-.994ZM101.009-.73l-.993-.575-.573.994.993.575Zm.274-.476.573-.994-.993-.575-.573.994Zm58.331,33.755-.274.476,1.986,1.149.274-.476Zm1.292.056L101.583-1.724,100.436.264l59.323,34.33ZM102-.156l.274-.476-1.986-1.149-.274.476Zm-1.292-.056,59.323,34.33,1.146-1.988L101.856-2.2Z" transform="translate(256.715 71.72)" fill="#dedede"/>
    <path id="Path_86909" data-name="Path 86909" d="M212.344-.7l.574.994.993-.575-.573-.994ZM153.034,33.656l-.992.575.573.994.994-.575Zm-.274-.476-.573-.994-.994.575.574.994ZM212.07-1.177l.994-.575-.574-.994-.992.575Zm-.3-.518L152.462,32.662l1.146,1.988L212.918.293ZM154.027,33.081l-.274-.476-1.985,1.15.274.476Zm-.693,1.093L212.643-.183,211.5-2.171l-59.31,34.357ZM211.077-.6l.274.476,1.986-1.15-.274-.476Z" transform="translate(145.599 71.724)" fill="#dedede"/>
    <path id="Path_86910" data-name="Path 86910" d="M419.156,208.155l.515-1.026-.553-.278-.536.31Zm.11.055.575-.994-.03-.017-.031-.015Zm59.461,34.384h1.147v-.662l-.574-.33Zm0,68.99.514,1.026.633-.318v-.708Zm-.11.055-.514-1.026-.031.015-.03.017Zm-59.461,34.384-.514,1.026.553.278.536-.31Zm-.109-.055-.575.994.03.017.031.015Zm-59.461-34.384h-1.147v.662l.574.332Zm0-68.99-.514-1.026-.633.318v.708Zm.11-.055.514,1.027.03-.016.03-.017Zm59.46-33.78.575-.994-.575-.333-.574.333ZM360.08,242.925l-.575-.994-.572.332v.662Zm0,68.385h-1.147v.661l.572.332Zm59.077,34.165-.574.993.574.333.575-.333Zm59.078-34.165.574.993.574-.332v-.661ZM418.642,209.181l.11.055,1.028-2.052-.109-.055Zm.049.022,59.461,34.385L479.3,241.6l-59.46-34.385Zm58.888,33.392v68.99h2.295v-68.99Zm.633,67.964-.11.055,1.028,2.052.11-.055Zm-.171.087-59.46,34.385,1.148,1.986,59.461-34.385ZM419.67,345l-.109-.055-1.028,2.052.109.055Zm-.049-.022-59.46-34.385-1.148,1.987,59.46,34.384Zm-58.887-33.392v-68.99h-2.295v68.99Zm-.634-67.964.11-.054-1.028-2.053-.11.055Zm.17-.087,59.461-34.384-1.148-1.987-59.461,34.385Zm118.538-1.6-59.077-34.165-1.148,1.986,59.076,34.165Zm-60.225-34.165L359.5,241.932l1.15,1.986,59.077-34.165Zm-59.65,35.159v68.385h2.295V242.925ZM359.5,312.3l59.078,34.165,1.148-1.986-59.077-34.165Zm60.226,34.165L478.807,312.3l-1.149-1.986-59.076,34.165Zm59.65-35.158V242.925h-2.295v68.385Z" transform="translate(-358.16 102.62)" fill="#dedede"/>
    <path id="Path_86911" data-name="Path 86911" d="M411.8,277.136l0,1.147h1.147l0-1.148Zm-.548,0-1.147,0,0,1.147,1.147,0Zm-.132-68.715,0-1.147-1.147,0,0,1.147Zm.548,0,1.147,0v-1.147l-1.147,0Zm.13,67.567h-.548l0,2.295h.549Zm.6,1.146-.132-68.715-2.295,0,.132,68.715Zm-1.277-67.565h.549l0-2.295h-.55Zm-.6-1.146.132,68.715,2.295,0-.132-68.716Z" transform="translate(-350.351 102.682)" fill="#dedede"/>
    <path id="Path_86912" data-name="Path 86912" d="M419.173,302.381l.994.575.572-.995-.992-.575Zm-.273.475-.574.995.994.575.573-.995Zm-59.182-34.248-.993-.574-.573.994.993.575Zm.274-.475.573-.995-.993-.575-.573.995Zm58.188,33.673-.274.475,1.986,1.15.274-.475Zm1.292.056-59.181-34.248-1.146,1.988,59.181,34.248Zm-58.761-32.679.274-.475L359,267.559l-.274.476Zm-1.292-.056L418.6,303.375l1.146-1.989-59.182-34.248Z" transform="translate(-298.697 111.422)" fill="#dedede"/>
    <path id="Path_86913" data-name="Path 86913" d="M471,268.674l.57.995.995-.573-.571-.995ZM411.55,302.9l-.995.573.57,1,.995-.573Zm-.273-.476-.571-.995-.994.572.57.995ZM470.723,268.2l.995-.573-.571-1-.994.573Zm-.3-.52L410.979,301.9l1.142,1.991,59.446-34.227Zm-57.882,34.649-.273-.476L410.282,303l.273.476Zm-.7,1.092,59.446-34.227-1.141-1.991-59.447,34.227Zm57.881-34.649.273.476,1.988-1.145-.272-.476Z" transform="translate(-409.677 111.431)" fill="#dedede"/>
    <path id="Path_86914" data-name="Path 86914" d="M264.026,118.4l.514-1.026-.553-.278-.535.31Zm.11.055.574-.994-.029-.017-.031-.015Zm59.46,34.384h1.147v-.661l-.573-.332Zm0,68.99.514,1.026.633-.318v-.708Zm-.109.055-.514-1.026-.031.015-.03.017Zm-59.461,34.384-.514,1.026.553.278.536-.31Zm-.109-.055-.575.994.03.017.031.016Zm-59.461-34.384h-1.147v.662l.573.332Zm0-68.99-.514-1.026-.633.318v.708Zm.11-.054.514,1.026.03-.016.03-.017Zm118.537.384h1.147V152.5l-.574-.332ZM264.026,119l.575-.994-.575-.333-.574.333ZM204.95,153.166l-.575-.994-.573.332v.662Zm0,68.385H203.8v.661l.573.332Zm59.076,34.165-.574.992.574.333.575-.333ZM323.1,221.552l.574.992.574-.332v-.661ZM263.512,119.422l.11.055,1.028-2.052-.11-.055Zm.049.023,59.461,34.384,1.148-1.986L264.71,117.458Zm58.887,33.391v68.99h2.295v-68.99Zm.633,67.964-.109.055L324,222.907l.109-.055Zm-.17.087-59.46,34.385,1.149,1.986,59.46-34.384ZM264.54,255.24l-.109-.055-1.028,2.053.109.054Zm-.049-.022-59.46-34.385-1.15,1.987L263.342,257.2ZM205.6,221.826v-68.99h-2.295v68.99Zm-.633-67.964.11-.054-1.028-2.052-.11.054Zm.17-.087L264.6,119.39l-1.149-1.987-59.461,34.385Zm118.537-1.6L264.6,118.007l-1.149,1.986,59.077,34.165Zm-60.225-34.165-59.078,34.165,1.15,1.986L264.6,119.994ZM203.8,153.166v68.385H206.1V153.166Zm.573,69.378,59.078,34.165,1.149-1.986-59.077-34.165ZM264.6,256.709l59.077-34.165-1.149-1.986-59.077,34.165Zm59.65-35.158V153.166h-2.295v68.385Z" transform="translate(-25.032 89.389)" fill="#dedede"/>
    <path id="Path_86915" data-name="Path 86915" d="M256.711,187.378l0,1.147,1.147,0,0-1.147Zm-.548,0h-1.147l0,1.147h1.147Zm-.132-68.716,0-1.147-1.147,0,0,1.147Zm.548,0,1.147,0v-1.147l-1.147,0Zm.13,67.567h-.548l0,2.295h.548Zm.6,1.146-.132-68.715-2.295,0,.132,68.715Zm-1.277-67.566h.548l0-2.295h-.55Zm-.6-1.146.132,68.716,2.295,0-.132-68.715Z" transform="translate(-17.323 89.451)" fill="#dedede"/>
    <path id="Path_86916" data-name="Path 86916" d="M264.05,212.609l.994.575.573-.995-.993-.575Zm-.273.476-.573.994.992.575.573-.995ZM204.6,178.838l-.994-.575-.572.994.992.575Zm.273-.476.574-.994-.994-.575-.573.994Zm58.188,33.673-.274.476,1.986,1.149.274-.475Zm1.292.056-59.181-34.248-1.146,1.988L263.2,214.079Zm-58.761-32.678.274-.476-1.986-1.15-.274.476Zm-1.292-.056L263.478,213.6l1.146-1.988-59.181-34.247Z" transform="translate(34.416 98.189)" fill="#dedede"/>
    <path id="Path_86917" data-name="Path 86917" d="M315.877,178.9l.57,1,.995-.573-.57-1ZM256.431,213.13l-.995.573.57,1,.995-.573Zm-.273-.476-.57-1-.995.573.57,1ZM315.6,178.427l.995-.573-.571-1-.994.573Zm-.3-.519L255.86,212.134,257,214.126,316.447,179.9Zm-57.882,34.649-.273-.476-1.988,1.145.273.476Zm-.7,1.091,59.446-34.226-1.141-1.992-59.446,34.227ZM314.609,179l.273.476,1.99-1.145-.273-.476Z" transform="translate(-76.574 98.198)" fill="#dedede"/>
    <path id="Path_86918" data-name="Path 86918" d="M108.895,28.59l.514-1.026-.553-.277-.536.31Zm.11.055.575-.993-.03-.017-.031-.016Zm59.46,34.44h1.147v-.661l-.572-.331Zm0,68.989.514,1.026.633-.318v-.708Zm-.11.055-.514-1.026-.031.015-.03.017Zm-59.461,34.384-.514,1.026.553.278.536-.31Zm-.109-.055-.575.994.03.017.031.016ZM49.325,132.074H48.178v.662l.573.332Zm0-68.989-.514-1.026-.633.317v.709Zm.109-.055.514,1.026.031-.016.031-.017Zm118.483.385h1.147v-.662l-.573-.331ZM108.84,29.249l.575-.993-.575-.332-.574.332ZM49.763,63.414l-.575-.993-.573.331v.662Zm0,68.331H48.616v.662l.573.33ZM108.84,165.91l-.574.993.574.333.575-.333Zm59.077-34.165.575.993.573-.33v-.662ZM108.381,29.616l.11.055,1.028-2.052-.11-.055Zm.048.022,59.461,34.44,1.15-1.986-59.46-34.44Zm58.889,33.447v68.989h2.295V63.084Zm.633,67.964-.11.055,1.028,2.052.11-.055Zm-.17.087L108.32,165.521l1.15,1.986,59.46-34.384Zm-58.372,34.352-.109-.055-1.028,2.053.109.054Zm-.049-.022L49.9,131.08l-1.149,1.987,59.461,34.384ZM50.473,132.074V63.084H48.178v68.989ZM49.839,64.11l.109-.055L48.92,62l-.109.055Zm.171-.088,59.46-34.44L108.32,27.6,48.859,62.037Zm118.482-1.6L109.415,28.256l-1.149,1.987,59.077,34.165ZM108.266,28.256,49.189,62.421l1.15,1.987,59.076-34.165ZM48.616,63.414v68.331h2.295V63.414Zm.573,69.323L108.266,166.9l1.149-1.986L50.338,130.751ZM109.415,166.9l59.077-34.165-1.149-1.986-59.077,34.165Zm59.65-35.158V63.414H166.77v68.331Z" transform="translate(308.098 76.151)" fill="#dedede"/>
    <path id="Path_86919" data-name="Path 86919" d="M101.58,97.571l0,1.147,1.147,0,0-1.147Zm-.548,0-1.147,0,0,1.147,1.147,0ZM100.9,28.857l0-1.147-1.147,0,0,1.147Zm.548,0,1.148,0,0-1.147-1.148,0Zm.13,67.567h-.548l0,2.295h.548Zm.6,1.146-.132-68.715-2.295,0,.132,68.715ZM100.9,30h.548l0-2.295H100.9Zm-.6-1.146.132,68.715,2.295,0L102.6,28.854Z" transform="translate(315.806 76.213)" fill="#dedede"/>
    <path id="Path_86920" data-name="Path 86920" d="M108.961,122.836l.993.575.573-.994-.993-.575Zm-.274.476-.573.994.993.575.573-.994ZM49.505,89.065l-.993-.575-.573.994.992.575Zm.274-.476.573-.994-.992-.575-.573.994Zm58.188,33.672-.274.476,1.986,1.15.274-.476Zm1.292.056L50.078,88.07l-1.145,1.988,59.181,34.247ZM50.5,89.639l.274-.476-1.986-1.149-.274.476Zm-1.292-.056,59.181,34.248,1.145-1.988L50.352,87.595Z" transform="translate(367.457 84.956)" fill="#dedede"/>
    <path id="Path_86921" data-name="Path 86921" d="M160.816,89.089l.57,1,.995-.572-.571-1Zm-59.453,34.22-.995.573.57,1,.995-.573Zm-.273-.476-.57-1-.995.573.57,1Zm59.453-34.22.995-.572-.57-1-.995.572Zm-.3-.519-59.453,34.219,1.141,1.992,59.453-34.22Zm-57.888,34.643-.273-.476-1.99,1.145.273.476Zm-.7,1.092,59.454-34.22-1.142-1.991-59.453,34.22Zm57.889-34.644.273.476,1.988-1.145-.273-.476Z" transform="translate(256.413 84.959)" fill="#dedede"/>
    <path id="Path_86922" data-name="Path 86922" d="M315.61,28.637l.514-1.026-.553-.277-.536.31Zm.11.055.574-.993-.029-.017-.031-.015Zm59.46,34.385h1.147v-.662l-.573-.331Zm0,69.045.514,1.026.633-.318v-.708Zm-.109.055-.514-1.026-.031.015-.03.017ZM315.61,166.561l-.514,1.026.553.278.536-.31Zm-.109-.055-.575.994.03.017.03.015ZM256.04,132.122h-1.147v.662l.573.33Zm0-68.99-.514-1.026-.633.317v.708Zm.11-.055.514,1.026.031-.015.03-.017Zm118.482.384h1.147V62.8l-.574-.331ZM315.555,29.3l.575-.993-.575-.332-.574.332ZM256.479,63.462l-.574-.993-.574.331v.662Zm0,68.331h-1.148v.661l.574.332Zm59.076,34.165-.574.993.574.333.575-.333Zm59.078-34.165.574.993.574-.332v-.661ZM315.1,29.663l.11.055,1.028-2.052-.11-.055Zm.049.022,59.461,34.385,1.149-1.987L316.294,27.7Zm58.887,33.392v69.045h2.295V63.077Zm.633,68.019-.109.055,1.028,2.052.109-.055Zm-.17.087-59.46,34.384,1.149,1.987,59.46-34.385Zm-58.372,34.352-.109-.055-1.029,2.052.11.055Zm-.049-.022-59.46-34.385-1.15,1.986L314.926,167.5Zm-58.887-33.392V63.132h-2.295v68.99Zm-.633-67.964.11-.055-1.028-2.052-.11.055Zm.171-.088,59.46-34.44-1.15-1.986-59.461,34.44Zm118.481-1.6L316.13,28.3l-1.149,1.987,59.077,34.165ZM314.981,28.3,255.905,62.468l1.149,1.987L316.13,30.29Zm-59.65,35.158v68.331h2.295V63.462Zm.574,69.323,59.076,34.165,1.149-1.986L257.054,130.8ZM316.13,166.95l59.076-34.165-1.148-1.986-59.077,34.165Zm59.65-35.158V63.462h-2.295v68.331Z" transform="translate(-135.804 76.158)" fill="#dedede"/>
    <path id="Path_86923" data-name="Path 86923" d="M308.293,97.667l0,1.147,1.147,0,0-1.147Zm-.549,0-1.147,0,0,1.147,1.147,0Zm-.132-68.715,0-1.147-1.147,0,0,1.147Zm.548,0,1.147,0V27.8l-1.147,0Zm.13,67.567h-.548l0,2.295h.548Zm.6,1.146-.132-68.715-2.295,0L306.6,97.67ZM307.615,30.1h.548l0-2.295h-.55Zm-.6-1.146.132,68.715,2.295,0-.132-68.715Z" transform="translate(-128.091 76.227)" fill="#dedede"/>
    <path id="Path_86924" data-name="Path 86924" d="M308.293,97.667l0,1.147,1.147,0,0-1.147Zm-.549,0-1.147,0,0,1.147,1.147,0Zm-.132-68.715,0-1.147-1.147,0,0,1.147Zm.548,0,1.147,0V27.8l-1.147,0Zm.13,67.567h-.548l0,2.295h.548Zm.6,1.146-.132-68.715-2.295,0L306.6,97.67ZM307.615,30.1h.548l0-2.295h-.55Zm-.6-1.146.132,68.715,2.295,0-.132-68.715Z" transform="translate(-187.669 -27.284)" fill="#dedede"/>
    <path id="Path_86925" data-name="Path 86925" d="M308.293,97.667l0,1.147,1.147,0,0-1.147Zm-.549,0-1.147,0,0,1.147,1.147,0Zm-.132-68.715,0-1.147-1.147,0,0,1.147Zm.548,0,1.147,0V27.8l-1.147,0Zm.13,67.567h-.548l0,2.295h.548Zm.6,1.146-.132-68.715-2.295,0L306.6,97.67ZM307.615,30.1h.548l0-2.295h-.55Zm-.6-1.146.132,68.715,2.295,0-.132-68.715Z" transform="translate(-67.824 -28.237)" fill="#dedede"/>
    <path id="Path_86926" data-name="Path 86926" d="M315.645,122.925l.993.575.573-.994-.993-.575Zm-.274.476-.573.994.993.575.572-.994ZM256.19,89.154l-.994-.575-.573.994.994.575Zm.274-.476.573-.994-.994-.575-.573.994Zm58.187,33.672-.274.476,1.986,1.15.274-.476Zm1.292.056L256.763,88.16l-1.145,1.988L314.8,124.4ZM257.183,89.729l.274-.476L255.471,88.1l-.274.476Zm-1.292-.056,59.182,34.248,1.145-1.988L257.037,87.684Z" transform="translate(-76.378 84.969)" fill="#dedede"/>
    <path id="Path_86927" data-name="Path 86927" d="M315.645,122.925l.993.575.573-.994-.993-.575Zm-.274.476-.573.994.993.575.572-.994ZM256.19,89.154l-.994-.575-.573.994.994.575Zm.274-.476.573-.994-.994-.575-.573.994Zm58.187,33.672-.274.476,1.986,1.15.274-.476Zm1.292.056L256.763,88.16l-1.145,1.988L314.8,124.4ZM257.183,89.729l.274-.476L255.471,88.1l-.274.476Zm-1.292-.056,59.182,34.248,1.145-1.988L257.037,87.684Z" transform="translate(-135.632 187.76)" fill="#dedede"/>
    <path id="Path_86928" data-name="Path 86928" d="M367.479,89.15l.571,1,.994-.573-.57-1Zm-59.446,34.227-.995.573.571.995.994-.573Zm-.273-.477-.57-.995-.995.573.57.995Zm59.447-34.226.994-.573-.57-1-.995.572Zm-.3-.519-59.446,34.227,1.141,1.991,59.447-34.227Zm-57.881,34.65-.273-.476-1.99,1.144.273.477Zm-.7,1.091,59.447-34.227-1.142-1.991L307.19,121.906Zm57.882-34.65.273.476,1.988-1.145L368.2,88.1Z" transform="translate(-187.385 84.969)" fill="#dedede"/>
    <path id="Path_86929" data-name="Path 86929" d="M263.93-61.074l.514-1.026-.553-.277-.536.31Zm.109.055.575-.993-.03-.017-.031-.015ZM323.5-26.634h1.147V-27.3l-.573-.331Zm0,69.044.514,1.026.633-.317v-.708Zm-.109.055-.515-1.026-.03.015-.03.017ZM263.93,76.85l-.514,1.026.553.277.536-.31Zm-.11-.055-.574.993.03.017.03.015ZM204.36,42.411h-1.147v.662l.573.331Zm0-68.989-.514-1.026-.633.317v.708Zm.109-.055.514,1.026.031-.015.03-.017Zm118.537.384h1.147v-.662l-.573-.331ZM263.93-60.415l.575-.993-.575-.332-.575.332ZM204.854-26.249l-.575-.993-.572.331v.662Zm0,68.33h-1.147v.662l.572.331ZM263.93,76.246l-.575.993.575.332.575-.332Zm59.077-34.165.575.993.573-.331v-.662ZM263.416-60.048l.11.055,1.027-2.052-.109-.055Zm.049.022,59.461,34.385,1.148-1.987L264.614-62.012Zm58.887,33.392V42.411h2.295V-26.634Zm.633,68.019-.11.055,1.029,2.052.109-.055Zm-.17.087L263.355,75.857l1.15,1.987,59.46-34.385ZM264.444,75.825l-.11-.055-1.028,2.052.11.055Zm-.049-.022L204.934,41.417,203.786,43.4l59.461,34.385ZM205.508,42.411V-26.579h-2.295V42.411Zm-.633-67.964.109-.055-1.028-2.051-.109.055Zm.17-.088,59.461-34.44-1.15-1.986-59.461,34.44Zm118.537-1.6L264.505-61.408l-1.15,1.987,59.078,34.165ZM263.355-61.408,204.279-27.243l1.149,1.987,59.078-34.165ZM203.706-26.249v68.33H206v-68.33Zm.572,69.324,59.077,34.165,1.15-1.986L205.427,41.088Zm60.226,34.165,59.077-34.165-1.149-1.987L263.355,75.253Zm59.649-35.158v-68.33h-2.295v68.33Z" transform="translate(-24.826 62.934)" fill="#dedede"/>
    <path id="Path_86930" data-name="Path 86930" d="M263.915,33.192l.994.575.573-.994-.994-.575Zm-.274.476-.573.994.994.575.573-.994ZM204.46-.58l-.993-.575-.573.994.993.575Zm.274-.476.573-.994-.993-.575-.573.994Zm58.188,33.673-.274.476,1.986,1.149.274-.476Zm1.292.056L205.034-1.575,203.888.414l59.181,34.248ZM205.454-.006l.274-.476-1.986-1.149-.274.476Zm-1.292-.056,59.181,34.248,1.145-1.988L205.307-2.05Z" transform="translate(34.705 71.742)" fill="#dedede"/>
    <path id="Path_86931" data-name="Path 86931" d="M315.787-.575l.57,1,.995-.573-.571-1ZM256.34,33.652l-.994.573.57,1,.995-.573Zm-.272-.476-.571-1-.994.572.57,1ZM315.514-1.051l.995-.573-.571-1-.994.573Zm-.3-.519L255.77,32.657l1.142,1.991L316.357.421ZM257.335,33.08l-.273-.476-1.988,1.145.273.476Zm-.7,1.092L316.084-.056l-1.141-1.991L255.5,32.18ZM314.519-.479l.273.476,1.988-1.145-.272-.476Z" transform="translate(-76.381 71.743)" fill="#dedede"/>
    <path id="Path_86932" data-name="Path 86932" d="M367.43-61.122l.514-1.026-.553-.277-.536.31Zm.109.055.575-.993-.03-.017-.03-.015ZM427-26.682h1.147v-.662l-.573-.331Zm0,68.99.514,1.026.633-.317v-.708Zm-.109.055-.515-1.026-.03.015-.03.017ZM367.43,76.748l-.514,1.026.553.277.535-.31Zm-.11-.055-.574.993.03.017.03.015ZM307.86,42.308h-1.147v.662l.573.331Zm0-68.99-.514-1.026-.633.317v.708Zm.109-.055.514,1.026.031-.015.03-.017ZM367.43-60.517l.574-.993-.574-.332-.575.332ZM308.354-26.352l-.575-.993-.573.331v.662Zm0,68.385h-1.147V42.7l.573.331ZM367.43,76.2l-.575.993.575.332.574-.332Zm59.077-34.165.575.993.573-.331v-.662ZM366.916-60.1l.109.055,1.029-2.051-.11-.055Zm.049.022,59.461,34.385,1.149-1.986L368.114-62.06Zm58.887,33.392v68.99h2.295v-68.99Zm.633,67.964-.11.055,1.029,2.051.109-.055Zm-.17.087L366.855,75.754,368,77.741l59.461-34.385ZM367.944,75.722l-.11-.055-1.028,2.052.11.055ZM367.9,75.7,308.434,41.315,307.286,43.3l59.461,34.385ZM309.008,42.308v-68.99h-2.295v68.99Zm-.633-67.964.109-.055-1.028-2.052-.109.055Zm.17-.087L368-60.128l-1.149-1.987L307.4-27.73Zm118.537-1.6L368-61.511l-1.149,1.987,59.078,34.165ZM366.855-61.511,307.779-27.345l1.149,1.987L368-59.524ZM307.206-26.352V42.033H309.5V-26.352Zm.573,69.379,59.077,34.165L368,75.205,308.928,41.04ZM368,77.192l59.078-34.165-1.148-1.986L366.855,75.205Zm59.65-35.159V-26.352h-2.295V42.033Z" transform="translate(-247.082 62.927)" fill="#dedede"/>
    <path id="Path_86933" data-name="Path 86933" d="M367.477,33.128l.992.575.573-.994-.993-.575Zm-.274.476-.573.994.993.575.573-.994ZM308.022-.644l-.994-.575-.573.994.994.575Zm.274-.476.573-.994-.994-.575-.572.994Zm58.187,33.673-.274.476,1.986,1.149.274-.476Zm1.292.056L308.595-1.639,307.45.35,366.631,34.6ZM309.015-.07l.274-.476L307.3-1.695l-.274.476Zm-1.292-.056L366.9,34.122l1.145-1.988L308.869-2.114Z" transform="translate(-187.682 71.732)" fill="#dedede"/>
    <path id="Path_86934" data-name="Path 86934" d="M419.306-.638l.57,1,.995-.572-.57-1Zm-59.453,34.22-.995.572.57,1,.995-.572Zm-.273-.476-.57-1-.995.572.57,1Zm59.453-34.22.995-.572-.57-1-.995.572Zm-.3-.519-59.453,34.22,1.141,1.991L419.876.357ZM360.847,33.009l-.272-.476-1.99,1.145.273.476Zm-.7,1.092L419.6-.119l-1.14-1.991L359.01,32.11ZM418.039-.542l.272.476,1.99-1.145-.273-.476Z" transform="translate(-298.67 71.733)" fill="#dedede"/>
    <path id="Path_86935" data-name="Path 86935" d="M108.895,28.59l.514-1.026-.553-.277-.536.31Zm.11.055.575-.993-.03-.017-.031-.016Zm59.46,34.44h1.147v-.661l-.572-.331Zm0,68.989.514,1.026.633-.318v-.708Zm-.11.055-.514-1.026-.031.015-.03.017Zm-59.461,34.384-.514,1.026.553.278.536-.31Zm-.109-.055-.575.994.03.017.031.016ZM49.325,132.074H48.178v.662l.573.332Zm0-68.989-.514-1.026-.633.317v.709Zm.109-.055.514,1.026.031-.016.031-.017Zm118.483.385h1.147v-.662l-.573-.331ZM108.84,29.249l.575-.993-.575-.332-.574.332ZM49.763,63.414l-.575-.993-.573.331v.662Zm0,68.331H48.616v.662l.573.33ZM108.84,165.91l-.574.993.574.333.575-.333Zm59.077-34.165.575.993.573-.33v-.662ZM108.381,29.616l.11.055,1.028-2.052-.11-.055Zm.048.022,59.461,34.44,1.15-1.986-59.46-34.44Zm58.889,33.447v68.989h2.295V63.084Zm.633,67.964-.11.055,1.028,2.052.11-.055Zm-.17.087L108.32,165.521l1.15,1.986,59.46-34.384Zm-58.372,34.352-.109-.055-1.028,2.053.109.054Zm-.049-.022L49.9,131.08l-1.149,1.987,59.461,34.384ZM50.473,132.074V63.084H48.178v68.989ZM49.839,64.11l.109-.055L48.92,62l-.109.055Zm.171-.088,59.46-34.44L108.32,27.6,48.859,62.037Zm118.482-1.6L109.415,28.256l-1.149,1.987,59.077,34.165ZM108.266,28.256,49.189,62.421l1.15,1.987,59.076-34.165ZM48.616,63.414v68.331h2.295V63.414Zm.573,69.323L108.266,166.9l1.149-1.986L50.338,130.751ZM109.415,166.9l59.077-34.165-1.149-1.986-59.077,34.165Zm59.65-35.158V63.414H166.77v68.331Z" transform="translate(308.097 76.151)" fill="#dedede"/>
  </g>
</svg>
