<svg xmlns="http://www.w3.org/2000/svg" width="16.448" height="16.448" viewBox="0 0 16.448 16.448"><path d="M14.686,16.448H1.762A1.764,1.764,0,0,1,0,14.686V1.762A1.764,1.764,0,0,1,1.762,0H14.686a1.764,1.764,0,0,1,1.762,1.762V14.686A1.764,1.764,0,0,1,14.686,16.448ZM2.351,11.914h0a6.838,6.838,0,0,0,3.7,1.079A6.785,6.785,0,0,0,12.9,6.143c0-.1,0-.209-.007-.312A5.02,5.02,0,0,0,14.1,4.582a4.77,4.77,0,0,1-1.388.374,2.4,2.4,0,0,0,1.057-1.325,4.739,4.739,0,0,1-1.527.58,2.416,2.416,0,0,0-3.631.13,2.43,2.43,0,0,0-.477,2.069A6.85,6.85,0,0,1,3.169,3.892a2.366,2.366,0,0,0-.327,1.216,2.4,2.4,0,0,0,1.072,2,2.4,2.4,0,0,1-1.087-.305v.03A2.419,2.419,0,0,0,4.755,9.2a2.46,2.46,0,0,1-.626.081,3.135,3.135,0,0,1-.462-.037,2.41,2.41,0,0,0,2.251,1.67A4.807,4.807,0,0,1,2.93,11.944,4.9,4.9,0,0,1,2.351,11.914Z" transform="translate(0 0)" fill="#ab9969" style="&#10;    fill: #0054A6;&#10;"/></svg>