<svg xmlns="http://www.w3.org/2000/svg" width="23.389" height="22.239" viewBox="0 0 23.389 22.239">
  <g id="Path_86866" data-name="Path 86866" transform="translate(0.003 -0.001)" fill="none" stroke-miterlimit="10">
    <path d="M8.078,7.321,0,8.495l5.847,5.7-1.38,8.046,7.227-3.8,7.228,3.8-1.381-8.046,5.848-5.7L15.305,7.321,11.691,0Z" stroke="none"/>
    <path d="M 11.69139194488525 2.259521484375 L 8.741740226745605 8.234749794006348 L 2.146331787109375 9.193157196044922 L 6.918720245361328 13.84414958953857 L 5.792245864868164 20.41152763366699 L 11.69132995605469 17.31084060668945 L 17.59073066711426 20.41152763366699 L 16.46392059326172 13.84414958953857 L 21.23666572570801 9.193144798278809 L 14.64136981964111 8.234759330749512 L 11.69139194488525 2.259521484375 M 11.69134998321533 0.000499725341796875 L 15.30534934997559 7.32073974609375 L 23.38595962524414 8.494959831237793 L 17.5384407043457 14.19332981109619 L 18.91896057128906 22.23933982849121 L 11.69133949279785 18.44055938720703 L 4.464118957519531 22.23933982849121 L 5.844219207763672 14.19332981109619 L -0.002880096435546875 8.494959831237793 L 8.077730178833008 7.32073974609375 L 11.69134998321533 0.000499725341796875 Z" stroke="none" fill="#24343f"/>
  </g>
</svg>
