<svg xmlns="http://www.w3.org/2000/svg" width="50.193" height="47.243" viewBox="0 0 50.193 47.243">
  <g id="Group_87423" data-name="Group 87423" transform="translate(0 1.252)">
    <path id="Path_86644" data-name="Path 86644" d="M19.909,45.991a.584.584,0,0,1-.271-.068L.352,35.843A.682.682,0,0,1,0,35.236V10.754a.684.684,0,0,1,.352-.607L19.638.067a.581.581,0,0,1,.541,0L39.465,10.148a.684.684,0,0,1,.352.607V35.236a.682.682,0,0,1-.352.607L20.179,45.923A.582.582,0,0,1,19.909,45.991ZM26.191,16.91l.734.384.009.012v.4c-1.192.741-3.287,1.9-6.4,3.548V44.243l18.041-9.429V11.828l-5.738,3v8.129a.685.685,0,0,1-.351.607L27.827,26a.578.578,0,0,1-.6-.036.684.684,0,0,1-.292-.571V17.71c1.438-.894,1.484-1.119,1.394-1.32a.23.23,0,0,0-.251-.151A6.407,6.407,0,0,0,26.191,16.91ZM1.245,11.828V34.813l18.041,9.43V21.258L17.648,20.4c.177.088,1.906.856,1.99.856a.624.624,0,0,0,.561-.381.708.708,0,0,0-.2-.84c2.878-1.52,4.9-2.542,6.189-3.128L8.235,7.523,2.054,10.754l17.855,9.223a.621.621,0,0,1,.094.06l-.073.038-.021.011-1.725-.9a.578.578,0,0,0-.27-.067.624.624,0,0,0-.561.381.7.7,0,0,0,.29.9ZM19.909,1.422l-5.161,2.7,17.734,9.269a.615.615,0,0,1,.106.072l5.175-2.705Z" transform="translate(0 0)" fill="#0054a6"/>
    <path id="Path_86647" data-name="Path 86647" d="M0,0H9.809" transform="translate(39.134 4.905)" fill="none" stroke="#ffc20e" stroke-linecap="round" stroke-miterlimit="10" stroke-width="2.5"/>
    <path id="Path_86648" data-name="Path 86648" d="M0,0H9.809" transform="translate(44.039 0) rotate(90)" fill="none" stroke="#ffc20e" stroke-linecap="round" stroke-miterlimit="10" stroke-width="2.5"/>
  </g>
</svg>
