<svg xmlns="http://www.w3.org/2000/svg" width="48" height="55.232" viewBox="0 0 48 55.232">
  <g id="Group_87422" data-name="Group 87422" transform="translate(0.005 -0.001)">
    <path id="Polygon_30" data-name="Polygon 30" d="M41.422,0,55.23,24,41.422,48H13.806L0,24,13.806,0Z" transform="translate(0 55.231) rotate(-90)" fill="#fff"/>
    <g id="Group_87421" data-name="Group 87421" transform="translate(18.918 20)">
      <g id="Group_87293" data-name="Group 87293">
        <g id="Group_87292" data-name="Group 87292">
          <g id="Path_86808" data-name="Path 86808" fill="#fff" stroke-miterlimit="10">
            <path d="M 5.135740756988525 7.731854438781738 C 4.692716598510742 7.510459899902344 3.83450722694397 7.052396297454834 2.989700794219971 6.437970161437988 C 1.968560814857483 5.695300102233887 0.7513207793235779 4.569809913635254 0.7513207793235779 3.425600051879883 L 0.7513285875320435 0.7500000596046448 L 9.520160675048828 0.7500000596046448 L 9.520160675048828 3.425600051879883 C 9.520160675048828 4.569809913635254 8.302920341491699 5.695300102233887 7.28178071975708 6.437970161437988 C 6.43697452545166 7.052396297454834 5.578764915466309 7.510459899902344 5.135740756988525 7.731854438781738 Z" stroke="none"/>
            <path d="M 1.501326560974121 1.5 L 1.501320838928223 3.425600051879883 C 1.501320838928223 4.049720287322998 2.215840339660645 4.944140434265137 3.412670612335205 5.818180084228516 C 4.042872905731201 6.278419494628906 4.684650421142578 6.648042678833008 5.135719299316406 6.887993335723877 C 5.587055683135986 6.647916793823242 6.228678226470947 6.278368949890137 6.858810424804688 5.818180084228516 C 8.055641174316406 4.944140434265137 8.770160675048828 4.049720287322998 8.770160675048828 3.425600051879883 L 8.770160675048828 1.5 L 1.501326560974121 1.5 M 0.001330375671386719 0 L 10.27016067504883 0 L 10.27016067504883 3.425600051879883 C 10.27016067504883 6.26347017288208 5.135740756988525 8.564020156860352 5.135740756988525 8.564020156860352 C 5.135740756988525 8.564020156860352 0.001320838928222656 6.26347017288208 0.001320838928222656 3.425600051879883 L 0.001330375671386719 0 Z" stroke="none" fill="#7d7d7d"/>
          </g>
          <g id="Path_86809" data-name="Path 86809" transform="translate(10.275 15.414) rotate(-180)" fill="#fff" stroke-miterlimit="10">
            <path d="M 5.136710166931152 7.733904838562012 C 4.693686008453369 7.512510299682617 3.835476636886597 7.054446697235107 2.990670204162598 6.440020561218262 C 1.96953022480011 5.69735050201416 0.7522901892662048 4.571860313415527 0.7522901892662048 3.427650451660156 L 0.7522979974746704 0.7520504593849182 L 9.521130561828613 0.7520504593849182 L 9.521130561828613 3.427650451660156 C 9.521130561828613 4.571860313415527 8.303890228271484 5.69735050201416 7.282750129699707 6.440020561218262 C 6.437943935394287 7.054446697235107 5.579734325408936 7.512510299682617 5.136710166931152 7.733904838562012 Z" stroke="none"/>
            <path d="M 1.50229549407959 1.502050399780273 L 1.502289772033691 3.427650451660156 C 1.502289772033691 4.051770687103271 2.21681022644043 4.94619083404541 3.413640022277832 5.820230484008789 C 4.043842315673828 6.28046989440918 4.685619831085205 6.650093078613281 5.136688709259033 6.89004373550415 C 5.588025093078613 6.649967193603516 6.229647636413574 6.28041934967041 6.859780311584473 5.820230484008789 C 8.056610107421875 4.94619083404541 8.771130561828613 4.051770687103271 8.771130561828613 3.427650451660156 L 8.771130561828613 1.502050399780273 L 1.50229549407959 1.502050399780273 M 0.002300262451171875 0.002050399780273438 L 10.27113056182861 0.002050399780273438 L 10.27113056182861 3.427650451660156 C 10.27113056182861 6.265520572662354 5.136710166931152 8.566070556640625 5.136710166931152 8.566070556640625 C 5.136710166931152 8.566070556640625 0.002289772033691406 6.265520572662354 0.002289772033691406 3.427650451660156 L 0.002300262451171875 0.002050399780273438 Z" stroke="none" fill="#7d7d7d"/>
          </g>
          <path id="Path_86810" data-name="Path 86810" d="M2.1.713C3.2.632,3.4.154,4.4.027A2.919,2.919,0,0,1,6.148.351c0,1.58-3.072,2.861-3.072,2.861S0,1.931,0,.351A4.9,4.9,0,0,0,2.1.713Z" transform="translate(2.063 2.914)" fill="#d9d9d9"/>
        </g>
      </g>
    </g>
  </g>
</svg>
