<svg xmlns="http://www.w3.org/2000/svg" width="72.112" height="79.544" viewBox="0 0 72.112 79.544">
  <path id="Path_86798" data-name="Path 86798" d="M263.39,238.714V201l26.193-11.756v36.676Zm21.074-54.384L260.1,195.265,235.738,184.33l24.365-9.781Zm11.689-.2a.172.172,0,0,0,0-.031c0-.075-.013-.144-.021-.217s-.009-.163-.023-.245-.034-.153-.054-.234-.033-.159-.058-.236a2.146,2.146,0,0,0-.086-.219c-.031-.077-.058-.155-.092-.228s-.079-.136-.117-.2a2.343,2.343,0,0,0-.123-.209,2.112,2.112,0,0,0-.151-.19,2.256,2.256,0,0,0-.148-.184,2.347,2.347,0,0,0-.186-.178c-.054-.048-.1-.1-.163-.151-.077-.061-.161-.113-.245-.171-.052-.035-.1-.073-.152-.1a3.173,3.173,0,0,0-.443-.219l-32.765-13.154a3.307,3.307,0,0,0-2.453,0L226.109,181.11a3.274,3.274,0,0,0-.443.219c-.063.036-.121.084-.182.127s-.148.094-.215.148-.119.111-.178.167-.117.1-.171.161-.106.129-.157.194-.1.117-.142.18-.082.142-.125.215-.08.129-.115.2-.061.151-.094.23-.061.142-.084.217a2.012,2.012,0,0,0-.058.236c-.019.081-.042.157-.054.234s-.017.167-.025.245-.019.142-.019.217v.031l0,.035V201.6a3.287,3.287,0,0,0,6.574,0V189.239L256.814,201v37.719l-5.376-2.627a3.287,3.287,0,0,0-2.886,5.907l10.109,4.936c.01.008.025.008.038.015.037.017.069.036.105.052s.059.021.088.033c.138.052.28.1.424.136.029.006.057.015.088.023s.073.012.109.017a3.053,3.053,0,0,0,.577.057h.019a3.058,3.058,0,0,0,.579-.057c.035-.006.073-.01.109-.017s.058-.017.088-.023c.144-.038.284-.084.422-.136.031-.011.059-.019.09-.033s.069-.034.105-.052c.014-.008.027-.008.04-.015l32.767-16.008a3.29,3.29,0,0,0,1.845-2.953V184.161l0-.035" transform="translate(-224.045 -167.72)" fill="#aaa" opacity="0.144"/>
</svg>
