<svg xmlns="http://www.w3.org/2000/svg" xmlns:xlink="http://www.w3.org/1999/xlink" width="305.321" height="224.619" viewBox="0 0 305.321 224.619">
  <defs>
    <clipPath id="clip-path"/>
  </defs>
  <g id="Mask_Group_209" data-name="Mask Group 209" transform="translate(14.083 -71.777)" clip-path="url(#clip-path)">
    <g id="Frame" transform="translate(110.59 320.372) rotate(-120)" opacity="0.21">
      <path id="Path_86698" data-name="Path 86698" d="M28.208,65.22h0l-.256-.128.093-.186.12.069.175-.1.117.2-.249.144Zm.249-.144h0l-.116-.2.091-.052L55.859,48.959l.071-.041.1.209.014-.007L28.458,65.076Zm-.585-.025h0L.266,49.087.372,48.9l.1.056L27.9,64.821l.08.047-.106.182ZM28.4,63.88v0h0l-.232-.133L55.06,48.19v.271Zm-.444-.013h0L1.269,48.436v-.245l26.9,15.554-.211.122ZM56.062,49.113h0l-.116-.2.034-.02.146-.085V16.441l-.142-.082.13-.225.265.153V48.624h0v.329l-.294.148-.022.011Zm-55.8-.026h0L0,48.933V16.266l.294-.148.1.209-.2.114V48.624h0v.18l.169.1-.106.183Zm.8-.462h-.4L.736,48.5h.329v.126Zm.2-.434h0l-.2-.117v-30.9L1,17.209l-.116-.2.178-.1v.267l.2-.118h0v0l0-.266-.2.118v-.158H.737l.151.261-.037.022h0l-.014.008-.013.006h0l-.048.026h0L.61,16.748.533,16.6H.6l.077.153.016.032-.016-.032L.6,16.6l.089.152.044.077-.044-.077L.6,16.6H.648l.088.153L.648,16.6h.417v.153h.2v.041L27.936,1.368,27.9,1.346l.129-.224.166.1.122-.071h0l-.15-.262-.137.237L28,1.108l.135-.27.087-.173.035.058.2.343-.141.081.115.2-.008,0,26.638,15.4v.3h0L28.165,1.5l.258-.149-.229-.132-.258.149.229.132L1.269,17.055V48.191Zm53.791,0V17.057l.254.146V48.043l-.252.146Zm.52-31.134h0l-.124-.072.136-.236h0l.089-.153h.164l-.087.153-.178.307Zm.4-.7h0l-.123-.073L28.431.425,28.378.394,28.507.17,56.114,16.134l-.13.224ZM.448,16.3h0l-.1-.205L.334,16.1,27.923.144l.115.2L27.9.425.47,16.286.449,16.3ZM27.973,1.093l-.022-.011.152-.3L28.19.6l.033.057-.094.162-.155.268Zm.34-.735h0L28.165.27l-.126.073-.115-.2L28.172,0l.257.129-.114.228Z" transform="translate(55.291 143.448)" fill="#0054a6"/>
      <path id="Path_86699" data-name="Path 86699" d="M28.465,17.617h0L28,17.349l.266-.461.461.266-.265.461ZM28,17.349h0L.461,1.41l.127-.22L28.13,17.129l-.126.22Zm.727-.194h0l-.461-.266.127-.221.266-.462-.126.22h0L.993.488l.126-.22L28.662,16.205l.462.266-.266.463-.126.22Zm-.462-.266h0l-.46-.267.128-.221.46.267-.127.221ZM.461,1.41h0L0,1.144.266.682l0,0,0,0L.392.462.659,0,1.12.267.854.728.393.462l.46.266L.727.949h0l-.114.2L.588,1.19l-.126.22Zm.727-.194h0L.727.949.854.729,1.315,1l-.126.22Z" transform="translate(55.153 159.28)" fill="#0054a6"/>
      <path id="Path_86700" data-name="Path 86700" d="M.66,17.63h0l-.266-.462h0l-.127-.22L0,16.485l.461-.266L28,.267l.127.221L.589,16.439h0l-.127-.219.127.22.139.241-.46.266.46-.266.461-.267.127.221-.46.266-.127-.218.126.218L.4,17.165.854,16.9l.017.03.121.21.128.221h0l-.127-.22L28.529,1.19l.011.019-.011-.02L28.391.949h0l-.46.267h0L27.8,1l.46-.266.03.05-.029-.05.46-.267-.46.266L28.125.488,28,.268,28.458,0l.266.462.127.22.266.462-.461.267h0L1.121,17.361h0l-.46.268Z" transform="translate(82.689 159.3)" fill="#0054a6"/>
      <path id="Path_86701" data-name="Path 86701" d="M1.32,32.943H0V0H1.32V32.409h0v.532ZM.787,32.41h.278V.533H.788v.533H.533V.533H.255V32.409H.533v-.533H.787Z" transform="translate(82.821 175.526)" fill="#0054a6"/>
      <path id="Path_86702" data-name="Path 86702" d="M28.208,65.219h0l-.256-.128.1-.2.14.081.157-.09.111.191-.249.143Zm.249-.143h0l-.11-.19.111-.064L55.885,48.959l.051-.03.1.2.02-.01-27.6,15.959Zm-.585-.026h0L.266,49.086,0,48.932V16.266l.294-.147.11.22-.176.1V48.624h0v.18l.15.087.116.067L27.923,64.822l.061.035-.112.193Zm.093-1.176L1.294,48.451v-.259l26.9,15.553-.224.13Zm.446,0v0h0l-.22-.126,26.9-15.553v.256ZM56.062,49.113h0l-.11-.192.034-.02.165-.1V16.748h-.393l.089-.153h0l.267-.462.266.154V48.624h0v.329l-.294.147-.023.011ZM1.294,48.191h0l-.227-.132V17.188l-.037.021L.907,17l.159-.092v.281l.229-.132V48.191Zm53.791,0V17.056l.229.132v30.87l-.228.132ZM.771,17.071h0l-.161-.322L.533,16.6H.6l.077.153.149.3-.05.025Zm54.314-.016h0L28.19,1.5l.245-.142-.242-.14-.245.142.242.14L1.3,17.054h0v-.281l-.229.132v-.158h-.3L.907,17l-.056.033h0l-.014.008-.013.006h0l-.148-.3L.6,16.6l.089.152.044.077-.044-.077L.6,16.6H.673l.088.153L.674,16.6h.392v.153h.229v.026L27.948,1.361l-.025-.014.123-.213.147.085.142-.082.121.21-.021.012L55.085,16.77v.286Zm.533-.307h-.3V16.6h.391l.178-.309L28.457.424,28.385.382,28.507.17,56.114,16.133l-.267.462h-.141ZM.454,16.31h0l-.108-.216-.02.01L27.923.144h0L28.173,0l.257.129L28.32.345,28.19.27l-.145.084h0l-.121.07L.5,16.286l-.04.023Z" transform="translate(0.129 79.694)" fill="#0054a6"/>
      <path id="Path_86703" data-name="Path 86703" d="M28.465,17.617h0L28,17.349h0L.462,1.41h0L0,1.144.266.682l.01.006L.266.682.393.462.66,0l.461.267h0L28.663,16.205l.461.266-.266.463-.127.22h0l-.46-.267.127-.22.461.266-.46-.267.03-.055.086-.148.021-.037h0L.993.488,1.119.27.993.488.919.616.928.6.872.7.854.728.394.462l.46.266L.727.949h0L.6,1.167.589,1.19l-.126.22h0l.127-.22L28.131,17.129l-.126.22h0l.157-.274-.031.053.091-.16.047-.08.461.267-.265.461Zm-.2-.729h0l-.46-.266.127-.22.461.267-.127.22ZM1.189,1.216h0L.727.949.854.729,1.315,1l-.125.22Z" transform="translate(0 95.536)" fill="#0054a6"/>
      <path id="Path_86704" data-name="Path 86704" d="M.66,17.629h0l-.265-.461h0l-.127-.22L0,16.485l.461-.266L28,.267h0L28.458,0l.266.462h0l.128.22.266.462-.461.266h0L1.121,17.361h0l-.46.267ZM.854,16.9l.266.461h0l-.127-.219L28.53,1.19l.016.028L28.53,1.19,28.391.949l.46-.267-.46.267h0l-.458.268h0L27.8,1l.46-.266.069.119L28.264.729,28.72.464l-.456.264h0l-.137-.24L28,.269l.126.219L.589,16.439h0l-.127-.219.127.22.139.241-.459.266.459-.266.128.22h0l-.127-.22.461-.267.127.22-.46.267h0l-.45.261Z" transform="translate(27.55 95.543)" fill="#0054a6"/>
      <path id="Path_86705" data-name="Path 86705" d="M1.32,32.943H0V0H1.32V32.409h0v.532ZM.787,32.41h.278V.533H.788v.533H.533V.533H.256V32.409H.533v-.533H.787Z" transform="translate(27.659 111.771)" fill="#0054a6"/>
      <path id="Path_86706" data-name="Path 86706" d="M28.208,65.22h0l-.256-.128.114-.228.149.086.125-.072.116.2h0l-.115-.2.14-.081L55.91,48.933l.022-.012.1.206.022-.011-27.6,15.96h0l-.248.144Zm-.336-.17h0L.266,49.086l.13-.225.124.072L27.949,64.8l.053.031-.129.223Zm.084-1.182L1.319,48.465v-.3l26.9,15.553-.259.15Zm.489-.017v0h0l-.23-.131,26.9-15.553v.266ZM56.062,49.113h0l-.115-.2.034-.019.2-.113V16.215h-.11l.047-.082.266.154V48.624h0v.329l-.294.148-.022.011Zm-55.8-.027h0L0,48.932V16.266l.294-.148.116.232-.156.09V48.624h0v.154l.142.082-.13.224Zm1.054-.92h0l-.252-.146V17.2l-.012.007-.128-.222.14-.081v.3l.254-.147v31.11Zm53.791,0V17.071l.2.116v30.86l-.2.117ZM.771,17.071h0L.61,16.748.533,16.6H.6l.091.153.016.027-.016-.027L.6,16.6H.7l.088.153L.7,16.6h.367v.153h.254v.012l26.628-15.4-.024-.014.123-.213.147.085-.245.142.242.14.245-.142-.242-.14.142-.082.121.21-.021.012L55.111,16.784v.286h0L28.19,1.5,1.321,17.054h0v-.3l-.254.147v-.158H.787l.138.239-.075.043h0l-.014.008-.014.006-.049.026Zm54.846-.322h-.3V16.6h.3v.152l.025-.044v.045h-.026ZM.459,16.322h0l-.114-.228L.334,16.1,27.923.144l.121.21-.122.071L.52,16.286l-.06.035Zm55.607-.106h-.3L28.456.425,28.384.383,28.507.17,56.113,16.133l-.047.081ZM28.334,1.137h0L28.19.886,28.148.814l.075-.149.048.08.185.321-.121.07Zm.035-.762h0L28.32.345,28.19.27l-.144.084L27.924.145,28.172,0l.257.129.051.025-.111.22Z" transform="translate(192.967)" fill="#0054a6"/>
      <path id="Path_86707" data-name="Path 86707" d="M28.465,17.617h0L28,17.349h0L.461,1.411h0L0,1.144.266.682l0,0,0,0L.393.462.659,0l.462.266L.993.488.962.542.872.7.854.728.394.462l.46.266L.727.949h0l-.082.145L.62,1.136l-.027.047,0,.007L28.131,17.129l-.127.22h0l.127-.221.139-.24.461.267-.265.461Zm.265-.462h0l-.46-.267.127-.22.46.266-.46-.267.028-.05.037-.063.073-.127h0L.993.488,1.12.267,28.663,16.205l.461.267-.266.462-.126.22Zm-.462-.266h0l-.46-.267.128-.22.461.267-.127.221ZM1.188,1.216h0L.727.949.854.729,1.315,1l-.126.22Z" transform="translate(220.39 31.774)" fill="#0054a6"/>
      <path id="Path_86708" data-name="Path 86708" d="M.66,17.629h0l-.266-.461h0l-.127-.22L0,16.485l.461-.266L28,.267h0L28.458,0l.266.462.127.22.266.462-.461.267L1.121,17.362h0l-.46.266ZM.854,16.9l.065.113.074.128.128.221h0l-.127-.221L28.529,1.19l-.037-.063-.037-.065-.021-.037L28.391.949l.46-.267-.461.267h0l-.459.266h0L27.8,1l.46-.267.052.091L28.264.729l.46-.266-.46.266-.05-.086.05.087L28.171.57,28.125.488,28,.269l.127.219L.589,16.439h0l-.127-.219.127.22.139.241-.46.266.46-.266.127.22h0l-.127-.22.461-.267.127.221-.46.266h0L.4,17.165Z" transform="translate(192.828 31.787)" fill="#0054a6"/>
      <path id="Path_86709" data-name="Path 86709" d="M28.208,65.22h0l-.256-.128.1-.206.11.064.164-.095.128.222-.249.144Zm.249-.144h0l-.128-.221.1-.059L55.859,48.933l.061-.035.115.229.022-.011-27.6,15.96Zm-.585-.026h0L.266,49.086l.118-.2.086.05L27.9,64.8l.091.052-.116.2Zm.548-1.184v0h0l-.255-.146L55.059,48.165v.3Zm-.489-.013h0L1.269,48.436v-.269l26.9,15.552-.233.135ZM56.062,49.113h0l-.128-.222.035-.02.156-.09V16.44l-.141-.082.13-.225.265.154V48.624h0v.329l-.294.148-.022.011Zm-55.8-.027h0L0,48.932V16.266l.294-.148.1.209-.2.113V48.624h0v.154l.18.1-.117.2Zm1-.92h0l-.2-.117V17.172L1,17.209l-.115-.2.178-.1v.266l.2-.117v0l0-.265-.2.118v-.158h.2v.041L27.936,1.368,27.9,1.346l.129-.224.166.1.122-.071h0l-.15-.262-.137.237L28,1.108l.136-.27.087-.173.035.058.2.343-.141.081.115.2-.008,0,26.637,15.4v.3h0L28.165,1.5l.258-.149-.229-.132-.258.149.229.132L1.269,17.055V48.166Zm53.79,0V17.056l.255.146V48.018l-.253.146ZM.771,17.071h0L.61,16.748.533,16.6H.6l.091.153.158.274-.158-.274L.6,16.6H.648l.088.153.151.261-.036.021h0l-.014.008-.014.006-.049.026Zm55.212-.713h0l-.124-.072L28.431.425,28.378.394,28.507.17,56.114,16.133l-.13.224ZM.448,16.3h0l-.1-.2L.334,16.1,27.923.144l.115.2L27.9.425.469,16.286l-.02.012ZM28.363.386h0L28.314.357,28.165.27l-.126.073-.115-.2L28.172,0l.257.129.051.025-.116.232Z" transform="translate(137.958)" fill="#0054a6"/>
      <path id="Path_86710" data-name="Path 86710" d="M1.32,32.943H0V0H1.32V32.409h0v.532ZM.787,32.41h.278V.533H.788v.533H.533V.533H.255V32.409H.533v-.533H.787Z" transform="translate(165.487 32.077)" fill="#0054a6"/>
      <path id="Path_86711" data-name="Path 86711" d="M28.464,17.349h0L28,17.083l.266-.462.086.049-.086-.05.1-.17-.1.17-.461-.266.128-.221.461.267-.029.051L28.4,16.4h0l.135-.237,0,0h0L.993.221,1.119,0,.854.461.394.195l.46.267L.726.682.266.416.393.194.659-.266,1.12,0,28.663,15.939l.461.266-.266.462-.127.22h0l-.265.46ZM28,17.083h0L.461,1.144.588.923,28.13,16.862,28,17.082ZM.461,1.144h0L0,.877.266.416l.46.266L.588.923.612.879l-.15.264ZM1.188.949h0L.727.683.854.462l.461.267L1.189.949Z" transform="translate(165.357 32.043)" fill="#0054a6"/>
      <path id="Path_86712" data-name="Path 86712" d="M.66,17.629h0l-.266-.461h0l-.126-.22L0,16.485l.462-.266L28,.267h0L28.458,0l.266.462.128.22.266.462-.461.267h0L1.121,17.361h0l-.46.267ZM.854,16.9l.266.461h0l-.127-.22L28.529,1.19l.011.019-.011-.02L28.391.949l.461-.267-.461.267h0l-.46.267h0L27.8,1l.461-.267.029.051v0L28.264.729l.46-.266-.46.266-.05-.086.05.087L28.16.55,28.125.488,28,.269l.126.219L.59,16.439h0l-.127-.22.127.22.138.24-.46.267.459-.266.128.22h0l-.126-.22.46-.267.127.22-.46.266h0L.4,17.165Z" transform="translate(137.795 31.792)" fill="#0054a6"/>
      <path id="Path_86713" data-name="Path 86713" d="M28.208,65.22h0l-.256-.128.1-.2.14.081.157-.09.111.191-.249.144Zm.249-.144h0l-.11-.19.111-.064L55.885,48.959l.051-.03.1.2.012-.006L28.458,65.076Zm-.585-.025h0L.266,49.087l.113-.195.116.067L27.923,64.821l.061.036-.112.193Zm.094-1.177L1.294,48.451v-.259l26.9,15.553-.224.129Zm.444,0h0l-.22-.127,26.9-15.554v.256L28.41,63.872ZM56.062,49.113h0l-.11-.192.034-.02.165-.1V16.748h-.392l-.178.307h0l-.1-.06.143-.247h.141l.089-.153h0l.267-.461.266.153V48.624h0v.329l-.294.148-.023.012Zm-55.8-.027h0L0,48.933V16.266l.294-.148.11.221-.176.1V48.624h0v.18l.15.087-.112.194Zm1.028-.9h0l-.227-.132V17.188l-.037.021L.907,17l.159-.092v.281l.229-.132V48.191Zm53.791,0V17.056l.229.132v30.87l-.228.132ZM.771,17.071h0L.61,16.748.533,16.6H.6l.077.153.008.016-.008-.016L.6,16.6l.089.152.044.077-.044-.077L.6,16.6H.673l.088.153L.674,16.6h.392v.153h.229v.026L27.948,1.361l-.025-.014.123-.213.147.085.142-.082.121.21-.021.012L55.085,16.77v.286h0L28.19,1.5l.245-.142-.242-.14-.245.142.242.14L1.3,17.054h0v-.281l-.229.132v-.158h-.3L.907,17l-.056.033h0l-.014.008-.013.007h0l-.048.025Zm54.847-.323h-.3V16.6h.391l.178-.309L28.457.425,28.384.383,28.507.17,56.114,16.134l-.267.461h-.141ZM.454,16.31h0l-.108-.216L.33,16.1,27.923.144h0L28.173,0l.257.129L28.32.345,28.19.27l-.145.084h0l-.122.071L.5,16.286l-.04.023Z" transform="translate(0.129 143.448)" fill="#0054a6"/>
      <path id="Path_86714" data-name="Path 86714" d="M.6,32.971H.064l0-.533h0L0,.535H0V0H.533V.534H.256l.061,31.9H.595V31.9H.849v.532h.278L1.067.533H.534V0H1.32V.533l.061,31.9v.533H.6Zm.193-31.9H.536l0-.533H.788v.533Z" transform="translate(27.677 143.672)" fill="#0054a6"/>
      <path id="Path_86715" data-name="Path 86715" d="M28.4,17.579h0l-.461-.267h0L.461,1.411.588,1.19l27.476,15.9-.127.22h0l.127-.221.139-.24-.461-.267.127-.221.461.267-.127.221h0l.127-.22.46.267-.46-.267L28.4,16.5l-.072.125.122-.213.017-.028.127-.22-.127.219h0L.993.488l.126-.22L28.6,16.168l.461.266-.266.463-.127.22h0l-.372-.216.373.216-.265.461ZM.461,1.411h0L0,1.144.266.683l0,0,0,0L.393.462.659,0,1.12.267.854.728.394.462.854.729.726.949h0l-.088.156L.588,1.19.461,1.41Zm.727-.2h0L.727.95.854.729,1.315,1l-.126.22Z" transform="translate(27.604 175.258)" fill="#0054a6"/>
      <path id="Path_86716" data-name="Path 86716" d="M.656,17.568h0l-.264-.462h0l-.126-.22L0,16.422l.462-.265L28.061.266,28.523,0l.265.463.126.22-.461.266-.126-.22.461-.265-.461.265L28.219.541,28.188.487.589,16.377h0l-.126-.22.127.221.137.241-.46.266.46-.265.127.221-.46.265.46-.265.264.461-.126-.22L28.591,1.19l.016.029-.016-.029L28.453.949l.461-.266.265.463-.462.265h0L1.119,17.3h0l-.461.265Zm.2-.728h0l-.126-.22.461-.266.127.22-.461.266ZM27.991,1.215h0l-.126-.22.462-.266.126.221-.461.266Z" transform="translate(0.016 175.293)" fill="#0054a6"/>
      <path id="Path_86717" data-name="Path 86717" d="M28.208,65.22h0l-.256-.128.1-.2.14.081.156-.091.111.191-.249.144Zm.249-.144h0l-.11-.191.111-.064L55.885,48.959l.051-.03.1.2.014-.007L28.458,65.076Zm-.585-.025h0L.266,49.087l.113-.2.117.067L27.923,64.821l.061.036-.112.194Zm.094-1.177L1.294,48.451v-.259l26.9,15.553-.224.129Zm.444,0h0l-.22-.127,26.9-15.554v.256L28.41,63.872ZM56.062,49.113h0l-.11-.192.033-.019.166-.1V16.44l-.16-.093.124-.213.265.154V48.624h0v.329l-.294.148-.022.011Zm-55.8-.026h0L0,48.933V16.266l.294-.148.11.221-.176.1V48.624h0v.18l.15.087-.112.194Zm1.029-.9h0l-.227-.132V17.188l-.037.021L.907,17l.159-.092v.281l.229-.132V48.191Zm53.791,0V17.056l.229.131V48.058l-.227.131ZM.771,17.071h0L.61,16.748.533,16.6H.6l.09.153.015.025-.015-.025L.6,16.6H.673l.088.153L.674,16.6h.392v.153h.229v.026L27.948,1.361l-.025-.014.123-.213.147.085.142-.082.121.21-.021.012L55.085,16.77v.286h0L28.19,1.5l.245-.142-.242-.14-.245.142.242.14L1.3,17.054h0v-.281l-.229.132v-.158h-.3L.907,17l-.056.033h0l-.014.008-.013.007-.05.025Zm54.809-.015h0l-.1-.06.143-.247h0l.089-.153h.139l-.087.153-.178.307Zm.41-.708h0l-.1-.061L28.457.425,28.384.383,28.507.17,56.114,16.134l-.124.213ZM.454,16.31h0l-.108-.215-.022.01L27.923.144h0L28.172,0l.257.129L28.32.345,28.19.27l-.145.084h0l-.122.071L.5,16.286l-.04.023Z" transform="translate(82.771 95.632)" fill="#0054a6"/>
      <path id="Path_86718" data-name="Path 86718" d="M.6,32.971H.064l0-.533h0L0,.535V0H1.32V.533l.061,31.9v.532l-.533,0H.6ZM.534.534H.256l.061,31.9H.595V31.9H.849v.532h.278L1.067.533H.534Zm.256.533H.535V.534H.788v.532Z" transform="translate(110.294 95.857)" fill="#0054a6"/>
      <path id="Path_86719" data-name="Path 86719" d="M28.4,17.578h0l-.46-.266.266-.462.127-.221.46.266-.46-.266.139-.241.127-.221-.127.22h0L.993.488,1.117.273.993.488.872.7l.01-.02L.856.725h0l0,0h0L.728.947h0L.266.682.727.949.588,1.19l-.126.22h0L0,1.144.266.682.393.462.659,0l.462.267h0L28.6,16.167l.461.267-.266.462-.127.22h0l-.46-.266.46.266-.265.461Zm-.461-.266h0L.461,1.41l.127-.22,27.477,15.9-.126.221Zm.265-.461h0l-.459-.267.127-.221.461.267-.127.221ZM1.188,1.216h0L.727.949.854.729,1.315,1l-.126.22Z" transform="translate(110.241 127.436)" fill="#0054a6"/>
      <path id="Path_86720" data-name="Path 86720" d="M.656,17.569h0l-.264-.462h0l-.126-.221L0,16.422l.462-.266L28.061.265,28.523,0l.265.463.127.22-.462.266L28.326.728l.461-.265-.461.265L28.189.488.589,16.377h0l-.126-.22.126.221.138.241-.46.265.461-.265.127.221-.459.265.459-.265.264.46-.126-.22,27.6-15.891L28.6,1.2l-.005-.009L28.453.949l.462-.266.265.463-.462.266h0L1.119,17.3h0l-.461.266Zm.2-.729h0l-.126-.221.461-.266.127.221-.461.265ZM27.991,1.215h0l-.126-.22.462-.266.127.221-.461.265Z" transform="translate(82.651 127.47)" fill="#0054a6"/>
      <path id="Path_86721" data-name="Path 86721" d="M28.208,65.245h0l-.256-.128.1-.205.111.064.163-.095.129.221-.249.144Zm.249-.144h0l-.128-.221.1-.059L55.859,48.958l.061-.035.115.229.012-.006L28.458,65.1Zm-.585-.025h0L.266,49.112l.118-.2.086.049L27.9,64.821l.091.053-.117.2Zm.547-1.184v0h0l-.254-.145L55.06,48.19v.3Zm-.487-.012h0L1.269,48.461v-.27l26.9,15.554-.232.134ZM56.085,49.127h0l-.114-.232.156-.09V16.465l-.142-.081.13-.225.265.154V48.649h0v.329l-.293.147ZM.266,49.112h0L0,48.958V16.291l.294-.147.1.209-.2.113V48.649h0v.155l.18.1-.117.2Zm.381-.46H.533L.621,48.5h0L.8,48.19l.087.05-.15.258h.329v.153H.647Zm.622-.461h0l-.2-.117V17.2L1,17.234l-.116-.2-.037.022h0l-.014.008-.014.007h0L.772,17.1h0l-.161-.322L.533,16.62H.6l.077.153.009.017-.008-.017L.6,16.62l.091.153.045.078-.045-.078L.6,16.62h.467v.153h.2v.04L27.913,1.381,27.9,1.372l.141-.243.154.089-.28.162.252.146L1.271,17.08h0v-.267l-.2.118v-.158H.736l.151.261.178-.1V17.2l.2-.118v31.11Zm53.791,0V17.082l.254.146V48.043l-.252.146Zm0-31.109h0L28.165,1.527l.266-.154-.014-.024L55.06,16.78v.3Zm.52,0h0l-.124-.072.137-.236h0l.089-.153h.164l-.087.153-.178.307Zm.4-.7h0l-.123-.072L28.431.45,28.367.413l.14-.243L56.114,16.159l-.13.224ZM.448,16.325h0l-.1-.205-.014.007L27.923.144l.126.218L27.9.45.469,16.313l-.02.012ZM28.3,1.154h0L28.165.911l.1-.176.191.33-.152.088Zm.049-.748h0L28.3.377,28.165.3,28.05.362,27.924.145,28.172,0l.257.129.051.025-.126.251Z" transform="translate(165.412 47.791)" fill="#0054a6"/>
      <path id="Path_86722" data-name="Path 86722" d="M.6,32.971H.064l0-.533h0L0,.535H0L0,0H1.32V.533l.061,31.9v.533H.6ZM.256.535l.061,31.9H.595V31.9H.849v.532h.278L1.067.533H.256Zm.534.531H.535V.534H.788v.532Z" transform="translate(192.935 48.014)" fill="#0054a6"/>
      <path id="Path_86723" data-name="Path 86723" d="M28.4,17.578h0l-.46-.266,0-.006,0,0h0L.461,1.411.588,1.19l27.476,15.9h0l.074-.127.065-.113.461.267-.265.46Zm.265-.461h0l-.46-.267.127-.221.46.266-.46-.267.138-.24.127-.22-.127.22h0L.993.488,1.119.267.854.728.394.462.854.728.726.949.266.682.393.462.659,0,1.12.266,28.6,16.168l.461.266-.266.462-.127.221ZM28.2,16.85h0l-.46-.266.127-.221.461.267-.127.22ZM.461,1.411h0L0,1.144.266.682l.46.267-.089.157L.588,1.19.461,1.41Zm.727-.2h0L.727.949.854.729,1.315,1l-.126.22Z" transform="translate(192.861 79.612)" fill="#0054a6"/>
      <path id="Path_86724" data-name="Path 86724" d="M.656,17.565h0L.392,17.1h0l-.126-.221L0,16.419l.462-.266L28.065.265l.127.222L.589,16.375h0l.138.241-.461.265.46-.265.127.22L.394,17.1l.46-.265.044.076.022.04.061.106.011.02L28.594,1.19,28.6,1.2l-.006-.011L28.457.949l.461-.266-.461.266h0L28,1.214h0L27.868.994,28.33.728,28.372.8,28.33.728l.46-.265-.46.265L28.191.487l.019.03L28.065.266,28.526,0l.265.463.127.22.266.463-.463.266h0L1.119,17.3h0l-.461.266Zm.2-.729h0l-.126-.22.462-.266.126.221-.461.265Z" transform="translate(165.255 79.625)" fill="#0054a6"/>
      <path id="Path_86725" data-name="Path 86725" d="M28.208,65.245h0l-.256-.128.1-.205.11.064.164-.1.128.221-.249.144Zm.249-.144h0l-.128-.221.1-.059L55.859,48.959l.061-.035.115.229.011-.005L28.458,65.1Zm-.585-.025h0L.266,49.112l.118-.2.087.05L27.9,64.821l.091.053-.117.2Zm.547-1.184v0h0l-.254-.145L55.06,48.19v.3Zm-.487-.013h0L1.269,48.461v-.27l26.9,15.554-.232.134ZM56.084,49.128h0l-.114-.232.157-.09V16.466l-.153-.088.141-.245.265.154V48.65h0v.329l-.294.148ZM.266,49.112h0L0,48.958V16.292l.294-.148.1.209-.2.113V48.65h0v.154l.18.1-.117.2Zm.8-.461H.648L.736,48.5h.329v.152Zm.2-.461h0l-.2-.117V17.2L1,17.234l-.116-.2.178-.1V17.2l.2-.118v31.11Zm53.791,0V17.082l.254.146V48.043l-.252.146ZM.771,17.1h0l-.161-.322L.533,16.62H.6l.09.153L.7,16.8l-.015-.025L.6,16.62H.648l.088.153L.648,16.62h.418v.153h.2v.04L27.913,1.381,27.9,1.372l.141-.243.154.089-.28.162.252.146L1.271,17.08h0v-.267l-.2.118v-.158H.737l.151.261-.037.022h0l-.014.008-.014.007-.05.025Zm54.289-.015h0L28.165,1.527l.266-.154-.014-.025L55.092,16.773H55.06v.308Zm.52-.025h0l-.113-.065.126-.217h0l.1-.178h.149l-.1.178-.163.282Zm.392-.677h0l-.112-.066L28.431.45,28.367.413l.14-.243L56.114,16.133l-.142.244ZM.449,16.325h0l-.1-.2-.026.013L27.923.144,28.172,0l.257.129.051.025-.126.251L28.3.377,28.165.3l-.115.067L27.9.45.47,16.313l-.02.012ZM28.3,1.154h0L28.165.911l.1-.175.191.33-.152.088Z" transform="translate(55.291 47.816)" fill="#0054a6"/>
      <path id="Path_86726" data-name="Path 86726" d="M.6,32.971H.064l0-.533h0L0,.535H0L0,0H1.32V.533l.061,31.9v.533H.6ZM.256.535l.061,31.9H.595V31.9H.849v.532h.278L1.067.533H.256Zm.534.531H.535V.534H.788v.532Z" transform="translate(82.815 48.065)" fill="#0054a6"/>
      <path id="Path_86727" data-name="Path 86727" d="M28.4,17.578h0l-.46-.266.127-.221.1-.168.043-.072h0l.127-.221.46.266-.46-.267L28.4,16.5l.068-.116-.022.042.149-.262-.127.22h0L.993.488,1.121.267,28.6,16.168l.461.266-.266.462-.127.221h0l-.226-.131.227.132-.265.46Zm-.461-.266h0L.462,1.411,0,1.144.266.682.393.462.659,0l.462.266L.993.488.977.515v0L.854.728.394.462l.46.266L.727.948h0L.266.682.727.949.588,1.19l.14-.24L.589,1.19l27.476,15.9-.127.22Zm.265-.461h0l-.46-.268.127-.22.462.267-.127.221ZM1.188,1.216h0L.727.949.854.729,1.315,1l-.126.22Z" transform="translate(82.756 79.659)" fill="#0054a6"/>
      <path id="Path_86728" data-name="Path 86728" d="M.657,17.568h0l-.265-.461h0l-.126-.221L0,16.422l.462-.265L28.061.266,28.524,0l.265.462.127.221.265.463-.462.265L1.119,17.3h0l-.46.265Zm.2-.728.262.458-.124-.217L28.591,1.19h0L28.474.985l-.02-.035.462-.266-.462.266L28.326.728l.461-.266-.46.265L28.188.487.59,16.378h0l-.126-.22.143.25.121.212-.461.266.46-.265.127.221-.459.265Zm0,0h0l-.126-.22.462-.266.126.221-.461.265ZM27.992,1.215h0L27.865.994l.461-.266.127.221-.46.265Z" transform="translate(55.161 79.658)" fill="#0054a6"/>
      <path id="Path_86729" data-name="Path 86729" d="M28.208,65.245h0l-.256-.128.109-.217.13.075.145-.084.116.2-.116-.2.122-.071L55.885,48.959l.041-.024.109.217.014-.007L28.458,65.1h0l-.249.144Zm-.336-.169h0L.266,49.112h0L0,48.958V16.292l.294-.148.11.22-.175.1V48.649h0v.155l.16.093-.123.213h0L.389,48.9l.106.061L27.923,64.821l.072.042-.122.213Zm.072-1.19h0L1.294,48.476v-.284l26.9,15.553-.245.142Zm.488,0v0h0l-.242-.138,26.9-15.554v.281Zm27.63-14.746h0l-.121-.211.034-.02.176-.1V16.465l-.172-.1.135-.233.265.154V48.649h0v.329l-.294.147-.022.011Zm-55-.488H.673L.762,48.5h.3v.152Zm.229-.459h0l-.227-.132V17.212l-.038.022-.122-.21.159-.092v.281l.229-.132V48.191Zm53.791,0V17.081l.229.131V48.058l-.227.131ZM.771,17.1h0l-.161-.322L.533,16.62H.6l.077.153.009.017-.008-.017L.6,16.62l.091.153.045.078-.045-.078L.6,16.62h.467v.153h.229V16.8L27.925,1.374l.265.153L1.3,17.079h0V16.8l-.229.132v-.158h-.3l.145.25-.056.032h0l-.014.008-.014.007h0L.772,17.1Zm54.314-.016h0L28.19,1.527l.267-.155,26.635,15.4h-.007v.307Zm.495-.025h0L55.486,17l.132-.228h0l.1-.178h.124l-.1.178-.163.282Zm.4-.688h0l-.093-.055L28.457.45,28.373.4,28.507.17,56.114,16.133l-.135.233ZM.454,16.336h0l-.109-.217-.014.007L27.923.144,28.172,0l.257.129.05.025-.12.239L28.31.365,28.19.3l-.134.078L27.923.45.5,16.313l-.04.023Z" transform="translate(82.822 0.025)" fill="#0054a6"/>
      <path id="Path_86730" data-name="Path 86730" d="M28.4,17.578h0l-.46-.266.266-.462.46.266-.265.461Zm-.461-.266h0L.461,1.411.588,1.19l27.477,15.9-.126.221Zm.727-.2h0l-.46-.266.127-.22.46.266-.46-.266.139-.241.127-.22-.127.219h0L.993.488,1.119.267.854.728.394.462.854.728.726.949.266.682.393.462.659,0,1.12.266,28.6,16.168l.461.266-.266.462-.126.22ZM28.2,16.85h0l-.46-.267.127-.22.461.267-.127.22ZM.461,1.411h0L0,1.144.266.682l.46.267-.089.157L.588,1.19.461,1.41Zm.727-.2h0L.727.949.854.729,1.315,1l-.126.22Z" transform="translate(110.313 31.856)" fill="#0054a6"/>
      <path id="Path_86731" data-name="Path 86731" d="M.656,17.568h0l-.264-.462h0l-.126-.22L0,16.422l.462-.265L28.061.266,28.523,0l.265.463.126.22-.461.266L28.326.728l.461-.265-.46.264L28.188.487.589,16.377h0l-.126-.22.127.221.137.241-.46.266.46-.265.127.221h0l.264.461-.126-.22L28.591,1.19l.016.029-.016-.029L28.453.949l.461-.266.265.463-.462.265h0L1.119,17.3h0l-.461.265Zm.2-.728h0l-.126-.22.461-.266.127.221-.461.265ZM27.991,1.215h0L27.864.994l.462-.266.127.221-.461.266Z" transform="translate(82.699 31.859)" fill="#0054a6"/>
      <path id="Path_86732" data-name="Path 86732" d="M28.208,65.22h0l-.256-.128.1-.2.14.081.155-.09.111.191h0l-.11-.191.11-.064L55.885,48.959l.051-.03.1.2.022-.011-27.6,15.96h0l-.248.144Zm-.336-.17h0L.266,49.086h0L0,48.932V16.266l.294-.148.11.221-.175.1V48.624h0v.18l.149.086-.111.192.112-.192.117.068L27.923,64.821l.062.036-.112.193Zm.094-1.176h0L1.294,48.451v-.259l26.9,15.553-.223.129Zm.444,0v0h0l-.22-.125,26.9-15.554v.256ZM56.062,49.113h0l-.11-.192.033-.019.166-.1V16.748h-.393l-.178.307h0l-.1-.06.143-.247h.141l.089-.153.267-.462-.267.461h-.141l.178-.309L28.456.425,28.384.383,28.507.17,56.114,16.133l.265.154V48.624h0v.329l-.294.148-.022.011ZM1.294,48.191h0l-.227-.132V17.187l-.038.022L.906,17l.159-.092v.281l.229-.132V48.191Zm53.791,0V17.056l.229.131V48.058l-.227.131ZM.771,17.071h0L.61,16.748.533,16.6H.6l.091.153.016.027-.016-.027L.6,16.6H.673l.088.153L.673,16.6h.392v.153h.229v.026L27.947,1.361l-.025-.014.123-.213.147.085-.246.142.242.14L1.3,17.054h0v-.281l-.229.132v-.158h-.3L.906,17l-.056.032h0l-.014.008-.014.006-.049.026Zm54.314-.016h0L28.189,1.5l.246-.142L55.085,16.77v.286ZM.454,16.31h0l-.108-.217L.334,16.1,27.923.144l.122.21-.122.071L.5,16.286l-.04.023ZM28.369.375h0L28.32.345,28.19.27l-.145.084L27.924.145,28.172,0l.257.129.051.025-.111.22Z" transform="translate(27.685)" fill="#0054a6"/>
      <path id="Path_86733" data-name="Path 86733" d="M28.4,17.578h0l-.46-.266.127-.221.1-.168.043-.072h0l.127-.221.46.266-.46-.266.057-.1.081-.139h0L.993.488.977.515.854.729.394.462.659,0l.462.266L28.6,16.168l.461.266-.266.462-.127.219h0l-.446-.257.447.258-.265.461Zm-.461-.266h0L.462,1.411,0,1.144.266.682l0,0,0,0L.393.462.854.728.727.949h0L.588,1.19l.14-.24L.589,1.19l27.476,15.9-.127.22Zm.266-.462h0l-.46-.266.127-.221.462.267-.127.22ZM1.188,1.216h0L.727.949.854.729,1.315,1l-.126.22Z" transform="translate(55.144 31.822)" fill="#0054a6"/>
      <path id="Path_86734" data-name="Path 86734" d="M.656,17.564h0L.392,17.1h0l-.126-.221L0,16.42l.462-.266L28.065.266l.127.222L.59,16.374h0l-.126-.22.265.463-.461.265.461-.265.127.221h0l-.126-.22.462-.265.126.221-.461.265h0L.393,17.1l.461-.265.263.458-.125-.218L28.594,1.19l-.017-.028L28.482,1,28.456.949l.462-.266-.462.266h0L28,1.214h0L27.868.994,28.33.728l.015.027L28.33.728l.46-.265-.46.264-.1-.179L28.192.487,28.065.266,28.526,0l.265.463.127.22.265.463-.462.265L1.119,17.3h0l-.461.265Z" transform="translate(27.553 31.826)" fill="#0054a6"/>
      <path id="Path_86735" data-name="Path 86735" d="M28.208,65.245h0l-.256-.128.1-.205.111.064.163-.095.129.221-.249.144Zm.249-.144h0l-.128-.221.1-.059L55.859,48.958l.061-.035.115.229.012-.006L28.458,65.1Zm-.585-.025h0L.266,49.112l.118-.2.086.049L27.9,64.821l.091.053-.117.2Zm.547-1.184v0h0l-.254-.145L55.06,48.19v.3Zm-.487-.012h0L1.269,48.461v-.27l26.9,15.554-.232.134ZM56.085,49.127h0l-.114-.232.156-.09V16.465l-.142-.081.13-.225.265.154V48.649h0v.329l-.293.147ZM.266,49.112h0L0,48.958V16.291l.294-.147.1.209-.2.113V48.649h0v.155l.18.1-.117.2Zm.381-.46H.533L.621,48.5h0L.8,48.19l.087.05-.15.258h.329v.153H.647Zm.622-.461h0l-.2-.117V17.2L1,17.234l-.116-.2-.037.022h0l-.014.008-.014.007h0L.772,17.1h0l-.161-.322L.533,16.62H.6l.077.153.009.017-.008-.017L.6,16.62l.091.153.045.078-.045-.078L.6,16.62h.467v.153h.2v.04L27.913,1.381,27.9,1.372l.141-.243.154.089-.28.162.252.146L1.271,17.08h0v-.267l-.2.118v-.158H.736l.151.261.178-.1V17.2l.2-.118v31.11Zm53.791,0V17.082l.254.146V48.043l-.252.146Zm0-31.109h0L28.165,1.527l.266-.154-.014-.024L55.06,16.78v.3Zm.52,0h0l-.124-.072.137-.236h0l.089-.153h.164l-.087.153-.178.307Zm.4-.7h0l-.123-.072L28.431.45,28.367.413l.14-.243L56.114,16.159l-.13.224ZM.448,16.325h0l-.1-.205-.014.007L27.923.144l.127.219L27.9.45.469,16.313l-.02.012ZM28.3,1.154h0L28.165.911l.1-.175.191.33-.152.088Zm.049-.748h0L28.3.377,28.165.3,28.05.362,27.923.144,28.172,0l.257.129.051.025-.126.251Z" transform="translate(165.412 47.791)" fill="#0054a6"/>
    </g>
  </g>
</svg>
