<svg xmlns="http://www.w3.org/2000/svg" width="28.284" height="19.189" viewBox="0 0 28.284 19.189">
  <g id="Group_87179" data-name="Group 87179" transform="translate(0.5 0.5)">
    <path id="email_1_" data-name="email (1)" d="M24.485,18.189H2.8a2.8,2.8,0,0,1-2.8-2.8V2.8A2.8,2.8,0,0,1,2.8,0H24.485a2.8,2.8,0,0,1,2.8,2.8V15.391A2.8,2.8,0,0,1,24.485,18.189ZM10.389,10,2.518,16.755a.685.685,0,0,0,.28.035H24.485a.685.685,0,0,0,.28-.035L16.895,10l-1.889,1.643a2.035,2.035,0,0,1-2.728,0ZM25.815,2.379,17.979,9.095l7.835,6.716a1.733,1.733,0,0,0,.07-.419V2.8A1.75,1.75,0,0,0,25.815,2.379Zm-24.346,0A1.753,1.753,0,0,0,1.4,2.8V15.391a1.763,1.763,0,0,0,.067.411l0,.008L9.3,9.095ZM2.8,1.4a.685.685,0,0,0-.28.035l10.669,9.13a.737.737,0,0,0,.91,0l10.669-9.13a.685.685,0,0,0-.28-.035Z" fill="#ffc20e" stroke="#ffc20e" stroke-miterlimit="10" stroke-width="1"/>
  </g>
</svg>
