<svg xmlns="http://www.w3.org/2000/svg" xmlns:xlink="http://www.w3.org/1999/xlink" width="33" height="36" viewBox="0 0 33 36">
  <defs>
    <linearGradient id="linear-gradient" x1="0.5" x2="1.361" y2="1.746" gradientUnits="objectBoundingBox">
      <stop offset="0" stop-color="#0054a6"/>
      <stop offset="1" stop-color="#002a53"/>
    </linearGradient>
  </defs>
  <g id="Group_41590" data-name="Group 41590" transform="translate(0 0)">
    <g id="Rectangle_2946" data-name="Rectangle 2946" transform="translate(6)" stroke-miterlimit="10" fill="url(#linear-gradient)">
      <path d="M 23 35.25035095214844 L 4 35.25035095214844 C 2.207940101623535 35.25035095214844 0.75 33.79241180419922 0.75 32.00035095214844 L 0.75 4.000350952148438 C 0.75 2.208291053771973 2.207940101623535 0.7503509521484375 4 0.7503509521484375 L 23 0.7503509521484375 C 24.79206085205078 0.7503509521484375 26.25 2.208291053771973 26.25 4.000350952148438 L 26.25 32.00035095214844 C 26.25 33.79241180419922 24.79206085205078 35.25035095214844 23 35.25035095214844 Z" stroke="none"/>
      <path d="M 23 34.50035095214844 C 24.37849998474121 34.50035095214844 25.5 33.37885284423828 25.5 32.00035095214844 L 25.5 4.000350952148438 C 25.5 2.621850967407227 24.37849998474121 1.500350952148438 23 1.500350952148438 L 4 1.500350952148438 C 2.621500015258789 1.500350952148438 1.5 2.621850967407227 1.5 4.000350952148438 L 1.5 32.00035095214844 C 1.5 33.37885284423828 2.621500015258789 34.50035095214844 4 34.50035095214844 L 23 34.50035095214844 M 23 36.00035095214844 L 4 36.00035095214844 C 1.790860056877136 36.00035095214844 -1.77635683940025e-15 34.20949172973633 -1.77635683940025e-15 32.00035095214844 L -1.77635683940025e-15 4.000350952148438 C -1.77635683940025e-15 1.791211009025574 1.790860056877136 0.0003509521484375 4 0.0003509521484375 L 23 0.0003509521484375 C 25.20914077758789 0.0003509521484375 27 1.791211009025574 27 4.000350952148438 L 27 32.00035095214844 C 27 34.20949172973633 25.20914077758789 36.00035095214844 23 36.00035095214844 Z" stroke="none" fill="#0054a6"/>
    </g>
    <path id="Rectangle_2947" data-name="Rectangle 2947" d="M1,6A1,1,0,0,1,0,5V1A1,1,0,0,1,1,0H17a1,1,0,0,1,1,1V5a1,1,0,0,1-1,1Z" transform="translate(11 5)" fill="#fff" stroke="#ffc20e" stroke-linecap="round" stroke-miterlimit="10" stroke-width="1.5"/>
    <path id="Rectangle_2949" data-name="Rectangle 2949" d="M1,4A1,1,0,0,1,0,3V1A1,1,0,0,1,1,0H3A1,1,0,0,1,4,1V3A1,1,0,0,1,3,4Z" transform="translate(25 14)" fill="#ffc20e"/>
    <path id="Rectangle_2953" data-name="Rectangle 2953" d="M1,11a1,1,0,0,1-1-1V1A1,1,0,0,1,1,0H3A1,1,0,0,1,4,1v9a1,1,0,0,1-1,1Z" transform="translate(25 21)" fill="#ffc20e"/>
    <path id="Rectangle_2950" data-name="Rectangle 2950" d="M1,4A1,1,0,0,1,0,3V1A1,1,0,0,1,1,0H3A1,1,0,0,1,4,1V3A1,1,0,0,1,3,4Z" transform="translate(18 14)" fill="#ffc20e"/>
    <path id="Rectangle_2951" data-name="Rectangle 2951" d="M1,4A1,1,0,0,1,0,3V1A1,1,0,0,1,1,0H3A1,1,0,0,1,4,1V3A1,1,0,0,1,3,4Z" transform="translate(18 21)" fill="#ffc20e"/>
    <path id="Rectangle_2954" data-name="Rectangle 2954" d="M1,4A1,1,0,0,1,0,3V1A1,1,0,0,1,1,0H3A1,1,0,0,1,4,1V3A1,1,0,0,1,3,4Z" transform="translate(18 28)" fill="#ffc20e"/>
    <g id="Ellipse_2499" data-name="Ellipse 2499" transform="translate(0 14)" fill="#ffc20e" stroke-miterlimit="10">
      <path d="M 8 15.25035095214844 C 4.002339839935303 15.25035095214844 0.75 11.99801063537598 0.75 8.000350952148438 C 0.75 4.00269079208374 4.002339839935303 0.7503509521484375 8 0.7503509521484375 C 11.99765968322754 0.7503509521484375 15.25 4.00269079208374 15.25 8.000350952148438 C 15.25 11.99801063537598 11.99765968322754 15.25035095214844 8 15.25035095214844 Z" stroke="none"/>
      <path d="M 8 1.500350952148438 C 4.415889739990234 1.500350952148438 1.5 4.416240692138672 1.5 8.000350952148438 C 1.5 11.5844612121582 4.415889739990234 14.50035095214844 8 14.50035095214844 C 11.58411026000977 14.50035095214844 14.5 11.5844612121582 14.5 8.000350952148438 C 14.5 4.416240692138672 11.58411026000977 1.500350952148438 8 1.500350952148438 M 8 0.0003509521484375 C 12.41827964782715 0.0003509521484375 16 3.582071304321289 16 8.000350952148438 C 16 12.41863059997559 12.41827964782715 16.00035095214844 8 16.00035095214844 C 3.581720352172852 16.00035095214844 0 12.41863059997559 0 8.000350952148438 C 0 3.582071304321289 3.581720352172852 0.0003509521484375 8 0.0003509521484375 Z" stroke="none" fill="#ffc20e"/>
    </g>
    <path id="Path_86652" data-name="Path 86652" d="M3.5,0,0,5.673" transform="translate(6.35 19.043)" fill="#ffc20e" stroke="#fff" stroke-linecap="round" stroke-miterlimit="10" stroke-width="1"/>
    <g id="Ellipse_2500" data-name="Ellipse 2500" transform="translate(9 22.5)" fill="#ffc20e" stroke-miterlimit="10">
      <path d="M 1.5 2.500349998474121 C 0.9485999941825867 2.500349998474121 0.5 2.05174994468689 0.5 1.500349998474121 C 0.5 0.9489499926567078 0.9485999941825867 0.5003499984741211 1.5 0.5003499984741211 C 2.051399946212769 0.5003499984741211 2.5 0.9489499926567078 2.5 1.500349998474121 C 2.5 2.05174994468689 2.051399946212769 2.500349998474121 1.5 2.500349998474121 Z" stroke="none"/>
      <path d="M 1.5 1.000349998474121 C 1.224300026893616 1.000349998474121 1 1.224650025367737 1 1.500349998474121 C 1 1.776049971580505 1.224300026893616 2.000349998474121 1.5 2.000349998474121 C 1.775699973106384 2.000349998474121 2 1.776049971580505 2 1.500349998474121 C 2 1.224650025367737 1.775699973106384 1.000349998474121 1.5 1.000349998474121 M 1.5 0.0003499984741210938 C 2.328429937362671 0.0003499984741210938 3 0.6719200611114502 3 1.500349998474121 C 3 2.328779935836792 2.328429937362671 3.000349998474121 1.5 3.000349998474121 C 0.6715700626373291 3.000349998474121 0 2.328779935836792 0 1.500349998474121 C 0 0.6719200611114502 0.6715700626373291 0.0003499984741210938 1.5 0.0003499984741210938 Z" stroke="none" fill="#fff"/>
    </g>
    <g id="Ellipse_2501" data-name="Ellipse 2501" transform="translate(4 18.5)" fill="#ffc20e" stroke-miterlimit="10">
      <path d="M 1.5 2.500349998474121 C 0.9485999941825867 2.500349998474121 0.5 2.05174994468689 0.5 1.500349998474121 C 0.5 0.9489499926567078 0.9485999941825867 0.5003499984741211 1.5 0.5003499984741211 C 2.051399946212769 0.5003499984741211 2.5 0.9489499926567078 2.5 1.500349998474121 C 2.5 2.05174994468689 2.051399946212769 2.500349998474121 1.5 2.500349998474121 Z" stroke="none"/>
      <path d="M 1.5 1.000349998474121 C 1.224300026893616 1.000349998474121 1 1.224650025367737 1 1.500349998474121 C 1 1.776049971580505 1.224300026893616 2.000349998474121 1.5 2.000349998474121 C 1.775699973106384 2.000349998474121 2 1.776049971580505 2 1.500349998474121 C 2 1.224650025367737 1.775699973106384 1.000349998474121 1.5 1.000349998474121 M 1.5 0.0003499984741210938 C 2.328429937362671 0.0003499984741210938 3 0.6719200611114502 3 1.500349998474121 C 3 2.328779935836792 2.328429937362671 3.000349998474121 1.5 3.000349998474121 C 0.6715700626373291 3.000349998474121 0 2.328779935836792 0 1.500349998474121 C 0 0.6719200611114502 0.6715700626373291 0.0003499984741210938 1.5 0.0003499984741210938 Z" stroke="none" fill="#fff"/>
    </g>
  </g>
</svg>
