<svg xmlns="http://www.w3.org/2000/svg" width="17.109" height="17.112" viewBox="0 0 17.109 17.112">
  <path id="Icon_awesome-search" data-name="Icon awesome-search" d="M15.363,17.112a.8.8,0,0,1-.568-.236l-3.332-3.332a.8.8,0,0,1-.234-.568v-.545A6.882,6.882,0,0,1,6.952,13.9,6.952,6.952,0,1,1,13.9,6.952a6.881,6.881,0,0,1-1.471,4.278h.544a.8.8,0,0,1,.568.234L16.878,14.8a.809.809,0,0,1,0,1.137l-.946.945A.789.789,0,0,1,15.363,17.112ZM6.952,2.674a4.278,4.278,0,1,0,4.278,4.278A4.283,4.283,0,0,0,6.952,2.674Z" transform="translate(0 0)" fill="#24343f" opacity="0.48"/>
</svg>
