<svg xmlns="http://www.w3.org/2000/svg" id="Component_15_3" data-name="Component 15 – 3" width="66.507" height="52.538" viewBox="0 0 66.507 52.538">
  <path id="Path_86684" data-name="Path 86684" d="M486.393,396.593s-4.863-.613-5.613-.613a6.38,6.38,0,0,1-3.741-1.231,90.862,90.862,0,0,0-7.607-5.529c-1-.491-5.115-3.441-6.24-3.563a18.393,18.393,0,0,0-2.619,0c-1.372,0-.748.861-3.243.983s-3.867,1.721-3.118,1.966,3.118,2.332,2.37,2.7-.872,1.477-1.872,1.477-2,.124-2,.861a2.6,2.6,0,0,1-2.494,1.843,12.9,12.9,0,0,1-3.14-1.374l-.328.892-.121.842c.219.652-.11,3.334.53,3.544.7.231,1.073,1.472,2.568,3.083s4.529,5.934,4.577,6.991.559,2.21,2.428,3.45,1.868,2.761,2.849,3.5.749,1.608.795,3.45.888,4.23,2.571,5.245a7.917,7.917,0,0,1,3.642,4.094,14.322,14.322,0,0,0,2.895,4.739c1.073,1.057.468,1.608,1.073,2.391a8.371,8.371,0,0,1,1.04,1.806,7.567,7.567,0,0,0,1.46-.783c.178-.358-.361-1.337-.09-1.692a3.379,3.379,0,0,1,1.353-1.155c.541-.179,1.172.532,2.346.355a9.524,9.524,0,0,1,3.883.356c.269.266,3.611.088,4.422.713s1.625.443,2.167-.8,4.331-3.911,4.874-4.18,4.6,0,6.231-.356,12.276-3.733,12.727-4.088,2.167-5.867,2.167-6.493-.812-2.311-1.625-2.221a54.743,54.743,0,0,1-7.946-.888,5.434,5.434,0,0,1-2.381-3.343,4.031,4.031,0,0,1-1.309-1.99,2.393,2.393,0,0,1-2.642-1.789c-.621-.418-2.26-2.715-1.688-3.356.7-.78-.374-2.436-1.4-3.357s-3.129-2.622-3.223-3.68a5.818,5.818,0,0,0-.4-1.32l-2.513-.127Z" transform="translate(-446.631 -385.603)" fill="#ffc20e" style="&#10;    fill: #0054a6;&#10;"/>
</svg>