<svg xmlns="http://www.w3.org/2000/svg" width="15.067" height="11.954" viewBox="0 0 15.067 11.954">
  <path id="Path_86688" data-name="Path 86688" d="M2.382,11.076a56.165,56.165,0,0,0,7.316.88l1.066-2.62,2-2.49V4.491h1.2l1.1-.618C14.6,1.958,14.527.033,14.193,0,13.633-.042,11.337,2.4,10.4,4.189A6.077,6.077,0,0,1,4.41,6.949a3.982,3.982,0,0,0-3.746.966c-.154.107-.4.02-.668-.181a5.434,5.434,0,0,0,2.386,3.342Z" transform="translate(0.004 -0.003)" fill="rgba(255,194,14,0.64)" style="&#10;    fill: #0054a6;&#10;"/>
</svg>