<svg xmlns="http://www.w3.org/2000/svg" width="72.113" height="79.544" viewBox="0 0 72.113 79.544">
  <path id="Path_86798" data-name="Path 86798" d="M36.066,79.544h-.019a3.078,3.078,0,0,1-.578-.058l-.029,0c-.028,0-.054-.008-.08-.013l-.031-.008-.057-.015a4.429,4.429,0,0,1-.424-.136l-.037-.013a.459.459,0,0,1-.051-.019c-.022-.009-.042-.02-.063-.031l-.042-.022a.09.09,0,0,0-.018-.007.054.054,0,0,1-.02-.009L24.507,74.273a3.288,3.288,0,0,1,1.445-6.241,3.257,3.257,0,0,1,1.441.335l5.376,2.627V33.276L6.575,21.519V33.876a3.287,3.287,0,0,1-6.574,0V16.441l0-.034v-.031a1.134,1.134,0,0,1,.01-.135c0-.027.006-.054.008-.081s0-.052.007-.079c0-.055.009-.111.018-.166s.024-.115.039-.176L.1,15.68l.01-.05a1.493,1.493,0,0,1,.1-.319c.012-.028.023-.056.033-.083s.026-.064.039-.1C.3,15.084.315,15.04.336,15s.054-.1.082-.143L.451,14.8c.015-.025.028-.051.042-.076.027-.049.052-.1.082-.139s.058-.076.087-.112L.717,14.4l.035-.046a1.644,1.644,0,0,1,.122-.148c.04-.043.084-.083.126-.121l.044-.04L1.1,14a1.537,1.537,0,0,1,.123-.113c.044-.035.09-.065.139-.1l.075-.05.061-.044a1.279,1.279,0,0,1,.12-.082,3.22,3.22,0,0,1,.444-.219L34.831.236a3.309,3.309,0,0,1,2.452,0L70.049,13.39a3.081,3.081,0,0,1,.443.219,1.051,1.051,0,0,1,.1.065l.054.038.078.052c.059.039.114.076.167.118.037.031.071.064.1.1l.059.056.035.031a1.7,1.7,0,0,1,.151.147,1.378,1.378,0,0,1,.11.134l.038.05.028.033a1.754,1.754,0,0,1,.123.157,1.233,1.233,0,0,1,.085.141l.038.069.031.05c.031.05.061.1.086.15s.043.1.063.153l.029.075.009.02a2.06,2.06,0,0,1,.078.2,1.884,1.884,0,0,1,.05.2l.008.038c.006.025.012.049.018.073.014.056.028.108.036.161.011.068.016.137.02.2l0,.042c0,.018,0,.037.006.055.007.056.013.107.015.161a.048.048,0,0,1,0,.017.081.081,0,0,0,0,.014l0,.034V60.249A3.312,3.312,0,0,1,70.268,63.2L37.5,79.21a.084.084,0,0,1-.021.008.093.093,0,0,0-.019.007l-.046.023-.059.029c-.018.008-.036.014-.053.02l-.037.013c-.159.059-.293.1-.422.136-.024,0-.046.011-.069.018l-.019.006-.074.012-.035.005A3.086,3.086,0,0,1,36.066,79.544ZM65.538,21.519,39.345,33.276V70.994l26.193-12.8ZM36.058,6.829,11.693,16.61,36.058,27.545,60.42,16.61,36.058,6.829Z" transform="translate(0 0)" fill="#aaa" opacity="0.14"/>
</svg>
