<svg xmlns="http://www.w3.org/2000/svg" xmlns:xlink="http://www.w3.org/1999/xlink" width="230" height="428" viewBox="0 0 230 428">
  <defs>
    <clipPath id="clip-path">
      <path id="Rectangle_3033" data-name="Rectangle 3033" d="M0,428V0H230V428Z" transform="translate(148.171)" fill="#fff"/>
    </clipPath>
  </defs>
  <g id="Mask_Group_189" data-name="Mask Group 189" transform="translate(-148.171 0)" opacity="0.18">
    <path id="Rectangle_3033-2" data-name="Rectangle 3033" d="M0,428V0H230V428Z" transform="translate(148.171)" fill="#fff"/>
    <g id="Mask_Group_189-2" data-name="Mask Group 189" clip-path="url(#clip-path)">
      <g id="Frame" transform="translate(-48.95 399.738) rotate(-60)">
        <path id="Path_86698" data-name="Path 86698" d="M49.44,114.31h0l-.45-.226.163-.325.211.122.307-.178.2.353h0l-.2-.353.16-.092L97.9,85.809l.124-.072.184.367.015-.008L49.875,114.057l-.435.253Zm-.589-.3L.466,86.033,0,85.763V28.509l.516-.259.184.367-.343.2V85.224h0v.314l.3.171-.186.322.186-.322.171.1,48.073,27.8.141.081-.185.32Zm.405-1.025v0l-.314-.544.16-.093.262.453-.106.184Zm.516-1.027v0h0l-.409-.235L96.5,84.463v.473Zm-.78-.022L2.224,84.891v-.427l47.139,27.26-.37.214ZM98.3,86.059h0l-.184-.372.257-.148V28.815l-.249-.144.228-.394-.228.394h0l-.217-.126L49.83.744,49.737.69,49.964.3,98.349,28.277l.466.269V85.8l-.516.258Zm-.273-.322h0l-.232-.465.26.45-.027.016Zm-.461-.513h-.617V85H96.5v-.065l.446-.258V85h.488l.128.222Zm-95.7,0H1.161L1.291,85h.577v.222ZM2.224,85H1.867v-.316l.356.206V85ZM1.29,85H1.063l.339-.586.171.1L1.291,85ZM96.5,84.463V29.892h0L49.363,2.631l.453-.262,46.686,27v.525h0l.446.258V84.205l-.444.257Zm-94.279,0h0l-.354-.2V30.1l-.11.064-.2-.351.312-.181V30.1l.355-.205v-.469l-.356.206v-.276H1.291l.264.457-.065.037h0l-.024.014-.024.012-.089.045h0l-.283-.564-.135-.269h.111l.135.269.261.519-.26-.519-.135-.269.159.269.079.137L1.2,29.354l-.156-.269h.086l.155.269-.155-.269h.732v.269h.356v.07L48.961,2.4,48.9,2.361l.227-.393.291.168-.453.262.4.233L2.224,29.892ZM97.415,29.893h0l-.218-.126.239-.413.156-.269h.289l-.154.269-.311.538Zm.02-.539h-.487v-.269h.643l-.156.269ZM.785,28.567h0L.6,28.206l-.014.007L48.941.252,49.376,0l.45.226-.2.4L49.363.473,49.143.6l-.2-.348.2.349L48.9.744.824,28.545l-.037.022Zm49.031-26.2-.4-.233.215-.124-.266-.459-.24.415-.045-.026.237-.473.152-.3.06.1.347.6-.247.143.2.349-.014.008Zm-.78-.45L48.99,1.9l.265-.53.153-.305.057.1-.165.285-.271.469.008,0Z" transform="translate(96.907 251.418)" fill="#ffc20e"/>
        <path id="Path_86699" data-name="Path 86699" d="M49.89,30.875h0l-.808-.467.467-.809.149.086-.149-.086.222-.386-.223.386-.808-.467.223-.388.808.467.807.467-.807-.467.243-.422.222-.387-.222.386h0L1.74.854l.219-.38L1.74.854l-.185.321-.059.1L.689.81l.807.467-.223.387h0l-.243.422L49.3,30.021l-.223.386h0L.807,2.472h0L0,2.005.466,1.2l.018.011L.466,1.2.689.809,1.155,0l.808.468h0L50.236,28.4l.808.467-.466.809-.223.387h0l-.464.807ZM2.082,2.131h0l-.807-.467L1.5,1.277l.807.467-.222.386Z" transform="translate(96.666 279.166)" fill="#ffc20e"/>
        <path id="Path_86700" data-name="Path 86700" d="M1.156,30.9h0L.689,30.09h0L.466,29.7l.808-.468.223.387h0l-.222-.386.808-.468.223.387-.807.468h0l-.8.461.8-.461.212.366.032.056L50,2.086l-.243-.422.807-.468-.808.468h0l-.807.468h0l-.223-.386.808-.468.082.142-.081-.142L50.343.81l.224.387L51.034,2l-.807.469h0L1.964,30.431l-.807.467ZM.466,29.7h0L0,28.894l.807-.468L49.071.469l.223.387L1.031,28.813v0h0l-.224-.385.224.388.243.422L.467,29.7ZM49.536,1.277h0l-.01-.018-.231-.4L49.071.47,49.878,0l.466.809-.807.468Z" transform="translate(144.927 279.201)" fill="#ffc20e"/>
        <path id="Path_86701" data-name="Path 86701" d="M2.315,57.738H0V0H2.315V57.737ZM1.381,56.8h.487V.933H1.381v.934H.933V.933H.447V56.8H.933V55.87h.447Z" transform="translate(145.158 307.64)" fill="#ffc20e"/>
        <path id="Path_86702" data-name="Path 86702" d="M49.439,114.309h0l-.448-.225.172-.345.244.141.274-.158.193.334h0l-.193-.334.193-.112,48.073-27.8.09-.052.173.345.029-.014L49.875,114.057l-.436.252Zm-.588-.3L.467,86.033h0L0,85.763V28.508l.516-.257.193.385L.4,28.814V85.223h0v.316l.262.152-.195.338.2-.338.2.118,48.074,27.8.106.062-.2.339h0Zm.428-.987h0l-.337-.583.194-.112.273.473-.129.221Zm-.263-1.074h0L2.269,84.918v-.455l47.139,27.26-.392.227Zm.78,0v0h0l-.386-.222L96.548,84.461v.449ZM98.3,86.059h0l-.174-.351.29-.168V29.353h-.689l.155-.268h0l.468-.808.467.269V85.8l-.516.258Zm-.263-.3h0l-.242-.486.272.47-.028.016ZM1.2,85.225H.935L1.064,85h0l.338-.584.2.118L1.335,85h0l-.129.223h0Zm96.4,0h-.66V85h.531l.128.222Zm-95.742,0H1.206L1.335,85h.532v-.314l.4.232V85h-.4v.222Zm.4-.762h0l-.4-.231V30.124l-.065.037-.214-.369.278-.161v.493l.4-.232Zm94.279,0V29.893h0L49.408,2.631l.431-.249,46.708,27.01v.5h0l.4.232v54.1l-.4.231ZM1.352,29.92h0l-.284-.566-.134-.268h.112l.134.268.261.521-.261-.521-.134-.268.158.268.077.134L1.2,29.353l-.155-.268H1.18l.155.268-.154-.268h.687v.268h.4V29.4L48.983,2.385l-.041-.024.216-.373.257.148-.431.249.426.246L2.27,29.891h0V29.4l-.4.232v-.278H1.335l.254.439-.1.057h0l-.023.013-.024.013-.089.045Zm96.062-.028h0l-.183-.106.25-.433h.246l-.312.538Zm.066-.539h-.531v-.268h.686l-.155.268Zm.4-.268h-.246l.313-.541L49.875.743,49.749.671,49.965.3,98.349,28.277ZM.8,28.586h0L.6,28.206l-.035.017L48.941.252,49.377,0l.45.226-.191.379L49.407.473,49.154.62,48.942.253l.212.367-.212.123L.868,28.544.8,28.586Zm49.044-26.2-.426-.246.249-.144-.254-.44.142-.246.325.562-.213.123.213.369-.036.021Zm-.809-.467-.041-.021.286-.57.048.081-.294.508Z" transform="translate(0.227 139.677)" fill="#ffc20e"/>
        <path id="Path_86703" data-name="Path 86703" d="M49.891,30.875h0l-.808-.467.223-.388h0l.043-.076.009-.015.047-.081.145-.25.808.468-.465.808Zm-.809-.468L.808,2.472l0,0v0h0L0,2,.467,1.2.689.808,1.156,0l.808.468h0L50.237,28.4l.808.468-.466.81-.223.385h0l-.807-.467.223-.387.807.468-.807-.468.191-.331.052-.091.223-.388-.223.387h0L1.741.854,1.96.475l-.219.38-.185.321-.059.1L.69.809l.807.468-.223.387h0l-.243.422L49.3,30.02Zm.466-.809h0l-.807-.467.223-.387.807.468-.222.386ZM2.083,2.131h0l-.808-.467L1.5,1.277l.807.468-.221.386Z" transform="translate(0 167.443)" fill="#ffc20e"/>
        <path id="Path_86704" data-name="Path 86704" d="M1.156,30.9h0L.69,30.09h0L.467,29.7,0,28.894l.807-.468L49.071.468,49.878,0l.466.808h0l.224.387L51.035,2l-.808.468L1.965,30.431l-.808.467ZM1.5,29.622l.467.808h0l-.223-.387L50,2.086l-.009-.015-.009-.015-.071-.124-.154-.269.807-.467-.807.467h0l-.807.467h0l-.223-.385.808-.469.074.129-.074-.128.8-.465-.8.464L49.343.941l-.05-.086L1.031,28.812h0l.243.422L.468,29.7l.806-.467.221.383-.221-.383.807-.468.223.386-.807.468h0l-.8.463Z" transform="translate(48.285 167.455)" fill="#ffc20e"/>
        <path id="Path_86705" data-name="Path 86705" d="M2.315,57.738H0V0H2.315V57.737ZM1.381,56.8h.487V.933H1.381v.934H.933V.933H.447V56.8H.933V55.87h.447Z" transform="translate(48.478 195.898)" fill="#ffc20e"/>
        <path id="Path_86706" data-name="Path 86706" d="M49.439,114.309h0l-.45-.225.2-.4.263.152.22-.127.247-.143,48.073-27.8.037-.022.181.361.024-.012-48.36,27.966-.435.252Zm-.588-.3L.466,86.033h0L0,85.763V28.508l.516-.258.2.407-.274.158V85.223h0v.271l.249.143-.22.381.22-.381.218.126,48.072,27.8.094.054-.226.391h0Zm.436-.97v0l-.346-.6.246-.142.266.459-.164.283Zm-.288-1.1-46.686-27v-.525l47.139,27.261-.453.262Zm.856-.029v0h0l-.4-.231L96.591,84.417v.468ZM98.3,86.059h0l-.182-.367.342-.2V28.419H97.73l.218.126-.312.54h-.111v-.666h.205L49.874.743,49.748.671,49.964.3,98.348,28.277l-.082.142h0l.082-.142.467.269V85.8l-.516.258Zm-.27-.317h0l-.236-.473.264.458-.027.016ZM1.223,85.225H.934l.154-.267h.291l-.154.267h0Zm96.457,0h-.732v-.268h.576l.154.267Zm-95.812,0H1.225l.155-.268h.488v.267Zm.446-.268H1.867v-.27l.446.258v.011Zm-1.225,0,.312-.54.218.126-.239.414Zm95.5-.539v-54.5h0L49.407,2.631l.431-.25L96.591,29.417v.5h0l.357.207V84.21l-.356.206Zm-94.278,0h0l-.443-.257V30.15l-.021.012-.225-.389.246-.142v.519l.446-.258Zm95.212-54.13h-.3l-.217-.125.216-.374.185.106.066-.114.045-.078v.584ZM1.352,29.92h0l-.283-.565-.134-.268h.111l.134.268.261.521-.261-.521-.134-.268.159.268.057.1-.056-.1-.155-.268h.175l.155.268-.155-.268h.643v.268h.446v.019L48.982,2.385l-.041-.024.216-.374.257.148-.431.249.426.246L2.314,29.891h0v-.519l-.446.258v-.277H1.379l.242.419-.131.076-.024.014-.025.013-.088.044ZM97.525,29.7v-.425l.111-.191h.246l-.155.268-.2.345Zm-.045-.348h-.532v-.268h.532v.267ZM.805,28.607h0l-.2-.4-.026.013L48.94.252,49.376,0l.45.226-.19.379L49.407.473l-.254.147-.214.124L.912,28.545l-.106.061ZM49.838,2.381l-.425-.246.249-.144-.255-.439.142-.246.325.562-.213.123.213.368-.037.021Zm-.8-.463L48.989,1.9l.286-.571.048.082-.293.507.007,0Zm.456-.8h0l.232-.458-.225.45.039-.071Z" transform="translate(338.207)" fill="#ffc20e"/>
        <path id="Path_86707" data-name="Path 86707" d="M49.89,30.875h0l-.807-.467.223-.387-.223.386h0L.809,2.473l.223-.387L49.3,30.021l.22-.382.024-.041.808.467-.466.808Zm.466-.809h0l-.807-.467.223-.387.807.467-.806-.467.11-.191.133-.231.222-.387-.222.386h0L1.741.855,1.5,1.277l.461-.8-.462.8-.223.387h0l-.151.263-.314.545h0L0,2.005.466,1.2.688.81l.808.467L.689.81,1.155,0l.808.468h0L50.236,28.4l.808.467-.466.809-.222.386Zm-.809-.467h0l-.807-.468.223-.387.808.468-.223.387ZM2.083,2.131h0l-.807-.467L1.5,1.277l.808.467-.222.386Z" transform="translate(386.271 55.689)" fill="#ffc20e"/>
        <path id="Path_86708" data-name="Path 86708" d="M1.156,30.9h0L.689,30.09h0L.466,29.7,0,28.894l.807-.468L49.07.468,49.878,0l.466.809-.807.467L49.294.855,1.031,28.813h0l.244.422L.467,29.7l.807-.467.808-.468.223.387-.808.468-.8.461.8-.461.189.327.054.094L50,2.085l.223.386L50,2.085l-.088-.153L50,2.085l-.213-.368-.03-.053.807-.468-.807.468h0l-.807.468h0l-.223-.386.808-.468.025.043-.025-.043L50.343.81l.224.387L51.034,2l-.807.468L1.964,30.431l-.807.467Z" transform="translate(337.964 55.712)" fill="#ffc20e"/>
        <path id="Path_86709" data-name="Path 86709" d="M49.44,114.309h0l-.45-.225.18-.36.193.112.288-.166.224.387h0l-.224-.387.179-.1L97.9,85.764l.107-.062.2.4.024-.012L49.875,114.057l-.435.252Zm-.589-.3L.466,86.033,0,85.763V28.508l.516-.258.183.367-.343.2V85.223h0v.271l.315.182-.205.355.205-.355.151.087,48.073,27.8.159.092-.2.354h0Zm.392-1.047h0l-.3-.523.18-.1h0l-.223-.387.059-.034L2.224,84.892v-.473l47.139,27.26-.408.236h0l.447.258-.281.163h0l.243.421-.119.206Zm.567-1.028v0h0l-.446-.256L96.5,84.417v.519ZM98.3,86.059h0l-.2-.407.273-.158V28.814l-.248-.143.228-.394-.228.393h0l-.217-.125L49.83.743,49.737.69,49.964.3,98.349,28.277l.466.269V85.8l-.516.258Zm-.667-.763-.042-.072h-.642v-.268h.488l.094.163-.093-.162h.175l.154.267h-.175l.043.071Zm-96.5-.071h-.2l.154-.267h.2l-.155.267h0Zm.734,0H1.136l.155-.267h-.2l.312-.54.151.087-.262.453h.578v.267Zm.356-.268H1.867v-.27l.356.206v.063ZM96.5,84.417V29.892h0L49.363,2.631l.453-.262,46.685,27v.525h0l.446.258v54.01l-.445.257Zm-94.278,0h0l-.354-.2V30.1l-.111.064-.2-.35.313-.181V30.1l.356-.206Zm-.872-54.5h0l-.283-.565-.134-.268h.111l.134.268.261.521-.261-.521-.134-.268.159.268.283.488L1.2,29.353l-.155-.268h.086l.155.268.265.458-.063.037h0l-.024.014-.025.013-.088.044Zm96.063-.026h0l-.218-.126.239-.414.155-.268h.29l-.153.268-.312.539Zm-95.191,0v-.467l-.356.206v-.276H1.291l-.155-.268h.732v.268h.356v.071L48.96,2.4,48.9,2.361l.227-.393.29.168L48.96,2.4l.4.233L2.225,29.891Zm95.211-.538h-.487v-.268h.642l-.155.268ZM.785,28.567h0L.6,28.206l-.026.013L48.94.252,49.376,0l.45.226-.2.4L49.363.473,49.142.6l-.2-.348.2.348L48.9.743.823,28.545l-.037.021Zm49.032-26.2-.4-.233.215-.124-.265-.459.164-.285.348.6-.247.143.2.35-.014.008Zm-.783-.451L48.99,1.9l.266-.53.046.079-.272.469.005,0Z" transform="translate(241.795)" fill="#ffc20e"/>
        <path id="Path_86710" data-name="Path 86710" d="M2.314,57.739H0V0H2.314V57.738ZM1.38,56.8h.488V.933H1.38v.934H.933V.933H.446V56.8H.933v-.933H1.38Z" transform="translate(290.044 56.221)" fill="#ffc20e"/>
        <path id="Path_86711" data-name="Path 86711" d="M49.89,30.875h0l-.808-.467.467-.809.368.213-.368-.214.223-.386-.223.386-.808-.468.222-.387.808.468.807.467-.807-.467.243-.422L1.741.855,1.5,1.277l.462-.8-.463.8L.69.81l.806.467-.223.386h0l-.166.29-.076.13-.223.387h0L0,2.005.466,1.2l.007,0-.007,0L.689.809,1.155,0l.808.468h0L50.237,28.4l.807.468-.466.808-.223.387h0l-.465.807Zm-.809-.467L.807,2.473l.224-.388L49.3,30.021l-.223.386h0Zm-47-28.277h0l-.807-.467L1.5,1.277l.808.467-.223.386Z" transform="translate(289.817 55.694)" fill="#ffc20e"/>
        <path id="Path_86712" data-name="Path 86712" d="M1.156,30.9h0L.69,30.09.467,29.7,0,28.894l.808-.468L49.071.468h0L49.878,0l.467.809.223.387L51.035,2l-.808.468L1.965,30.431l-.808.467Zm.119-1.664.223.387.244.422L50,2.085l.223.386-.465-.807.808-.468-.808.467h0l-.807.468h0l-.223-.386.808-.468.12.207-.119-.207L49.294.855,49.073.471l.221.384L1.031,28.813h0l.243.422.807-.468.223.387-.806.467Z" transform="translate(241.51 55.721)" fill="#ffc20e"/>
        <path id="Path_86713" data-name="Path 86713" d="M49.439,114.31h0l-.45-.226.173-.345.245.142.274-.158.193.334h0l-.193-.334.194-.112,48.073-27.8.089-.051h0l-.243-.488.273.472-.029.016h0l.174.347.021-.01L49.875,114.057l-.436.253Zm-.588-.3L.467,86.033l.2-.342.2.118,48.074,27.8.107.062-.2.34Zm.428-.988h0l-.337-.582.194-.112.273.473-.129.221Zm-.263-1.074L2.269,84.917v-.453l47.139,27.26-.392.227Zm.78,0v0h0l-.386-.222L96.548,84.462v.448ZM98.3,86.059h0l-.174-.352.291-.168V29.354h-.689l.156-.269h0l.468-.808.467.269V85.8l-.516.258ZM.467,86.033h0L0,85.763V28.509l.516-.259.193.387L.4,28.815V85.224h0v.314l.263.152-.2.341Zm.737-.807H.934L1.063,85h0l.338-.586.2.118L1.335,85h0l-.129.223h0Zm96.406,0h-.661V85h.532l.128.222Zm-95.742,0H1.206L1.335,85h.533v-.316l.4.232V85h-.4v.222Zm.4-.762h0l-.4-.231V30.124l-.065.037-.214-.37.279-.161v.494l.4-.232Zm94.279,0V29.893h0L49.408,2.631l.431-.249L96.548,29.392v.5h0l.4.232V84.23l-.4.231ZM1.352,29.92h0l-.283-.564-.135-.269h.112l.135.269.261.52-.261-.52-.135-.269.159.269.079.137L1.2,29.354l-.156-.269h.13l.155.269-.155-.269h.688v.269h.4V29.4L48.983,2.385l-.042-.024.216-.373.257.149-.431.249.425.246L2.27,29.891h0V29.4l-.4.232v-.276H1.336l.253.437-.1.057h0l-.024.014-.024.013-.089.044Zm96.062-.026h0l-.184-.106.25-.432h.246l-.311.538Zm.066-.539h-.531v-.269h.687l-.156.269Zm.4-.269h-.246l.312-.54L49.875.744,49.749.671,49.965.3,98.349,28.277ZM.8,28.587h0l-.19-.38-.02.01L48.941.252,49.377,0l.45.226-.191.38L49.407.473l-.253.147L48.942.253l.212.368-.213.123L.868,28.545.8,28.586ZM49.839,2.382l-.425-.246.248-.144-.254-.44.142-.246.325.563-.213.123.213.368-.036.021Zm-.8-.462L48.989,1.9l.286-.57.048.081-.294.507.01,0Z" transform="translate(0.227 251.418)" fill="#ffc20e"/>
        <path id="Path_86714" data-name="Path 86714" d="M.112,57.787h0l0-.932L0,.939,0,0,.933,0h.447l.934,0V.933l.107,55.916,0,.934H1.045l0-.932,0,.933ZM.448.938.555,56.853H.11l.933,0h0l0-.934h.446l0,.934h.488L1.869.935H1.382l0-.932V.935H.936l-.4,0Zm.936.932H.938l0-.933h.446l0,.934Z" transform="translate(48.509 251.81)" fill="#ffc20e"/>
        <path id="Path_86715" data-name="Path 86715" d="M49.774,30.81h0l-.807-.468L.807,2.473l.223-.387L49.188,29.955l.243-.422.8.464-.8-.464.223-.386.808.467-.807-.468.211-.368.032-.055L1.741.855,1.5,1.277.69.81,1.155,0l.808.468L50.121,28.337l.807.467-.465.81L50.24,30h0l-.466.809Zm-.342-1.277h0l-.807-.468.223-.387.808.468-.222.387ZM.807,2.473h0L0,2.005.466,1.2.689.809l.807.468-.223.387h0l-.242.422L1.078,2l-.27.472Zm1.274-.342h0l-.807-.467L1.5,1.277l.808.468-.223.385Z" transform="translate(48.382 307.17)" fill="#ffc20e"/>
        <path id="Path_86716" data-name="Path 86716" d="M1.15,30.791h0l-.464-.809h0l-.222-.387L0,28.784l.808-.466L49.182.466,49.991,0l.464.81h0l.222.387.465.809-.81.466h0L1.96,30.325l-.809.466ZM1.5,29.515l.243.423.183.32-.183-.32L50.111,2.086l0,.006,0-.006-.242-.422.808-.466-.809.465h0l-.808.465h0l-.222-.386.81-.466.191.333h0l-.191-.333.8-.464-.8.463-.171-.3L49.4.853,1.031,28.7h0l.242.422-.808.465.808-.465.222.386-.222-.386.809-.466.222.387-.808.466h0l-.807.465.808-.465.243.423Z" transform="translate(0.028 307.231)" fill="#ffc20e"/>
        <path id="Path_86717" data-name="Path 86717" d="M49.44,114.31h0l-.45-.226.173-.345.245.142.274-.158.193.334h0l-.193-.334.194-.112,48.073-27.8.089-.051h0l-.24-.482.269.466-.028.016h0l.174.347.027-.014L49.875,114.057h0l-.435.252Zm-.589-.3L.466,86.033,0,85.763V28.509l.516-.259.193.387L.4,28.815V85.224h0v.314l.263.152-.2.341.2-.341.2.118,48.074,27.8.107.062-.2.34Zm.428-.988h0l-.337-.582.194-.112.273.473-.129.221Zm-.263-1.074L2.269,84.917v-.453l47.139,27.26-.392.227Zm.78,0v0h0l-.386-.222L96.547,84.462v.448ZM98.3,86.059h0l-.174-.352.292-.169V28.815l-.283-.163.217-.375-.217.375h0l-.183-.107L49.875.744,49.748.671,49.964.3,98.349,28.277l.466.27V85.8l-.516.258ZM1.2,85.226H.933L1.063,85h0l.339-.586.2.118L1.335,85h0l-.129.223h0Zm96.406,0h-.662V85h.533l.128.222Zm-95.742,0H1.206L1.335,85h.533v.222Zm.4-.223h-.4v-.316l.4.232V85Zm0-.539h0l-.4-.231V30.124l-.065.037-.214-.37.279-.161v.494l.4-.232Zm94.279,0V29.893h0L49.408,2.631l.43-.249,46.709,27.01v.5h0l.4.232V84.231l-.4.231ZM1.352,29.92h0l-.283-.564-.135-.269h.111l.159.269.03.051-.03-.051-.156-.269h.131l.155.269-.155-.269h.688v.269h.4V29.4L48.983,2.385l-.042-.024.215-.373.257.149-.43.249.425.246L2.27,29.891h0V29.4l-.4.232v-.276H1.336l.253.437-.1.057h0l-.024.014-.024.013-.089.044Zm96.062-.026h0l-.184-.106.25-.432.156-.269h.244l-.154.269-.311.538Zm.066-.539h-.532v-.269h.688l-.156.269ZM.8,28.587h0L.6,28.207l-.027.013L48.941.252,49.376,0l.45.226-.19.38L49.407.473l-.253.147L48.942.253l.212.368-.213.123L.868,28.545.8,28.587Zm49.043-26.2-.425-.246.249-.144-.254-.44.142-.246.325.563-.213.123.213.368-.037.021Zm-.81-.467L48.99,1.9l.285-.57.048.081-.294.508Z" transform="translate(145.07 167.612)" fill="#ffc20e"/>
        <path id="Path_86718" data-name="Path 86718" d="M1.045,57.786H.112l0-.933L0,.938,0,0,.933,0l0,.934H.448L.555,56.852h.488l0,.933Zm0,0h0l0-.932h.934L1.869.935h.445l-.933,0v0h0l0,.934H.938l0-.933h0L.933,0h.447l.934,0V.933l.107,55.916,0,.933-.933,0Zm0-.934h0v-.933h.446l0,.933Z" transform="translate(193.308 168.005)" fill="#ffc20e"/>
        <path id="Path_86719" data-name="Path 86719" d="M49.774,30.809h0l-.806-.467L.807,2.472h0L0,2,.466,1.2l.008,0-.008,0L.689.809l.807.467L.69.809,1.155,0l.809.468L1.741.854,1.715.9l-.151.262L1.5,1.276l-.223.388h0l-.2.356-.013.021-.025.044h0L49.188,29.954l-.221.386h0l.465-.808.806.465-.805-.465.223-.387.808.467-.807-.467.243-.422-.243.422.243-.422.223-.387-.223.386h0L1.741.854,1.963.469,50.121,28.336l.807.467-.465.81L50.24,30h0l-.466.809Zm-.343-1.276h0l-.806-.467.223-.388.808.468-.223.387ZM2.082,2.131h0l-.807-.467L1.5,1.276l.807.468-.223.386Z" transform="translate(193.217 223.353)" fill="#ffc20e"/>
        <path id="Path_86720" data-name="Path 86720" d="M1.15,30.792h0l-.463-.809.809-.466.168.292.074.13L50.111,2.087l.221.386-.221-.386-.036-.063.036.063-.117-.2-.125-.22.809-.466-.81.466-.222-.387L50.455.81l-.808.465L49.183.467,49.4.854,1.031,28.705l.242.423-.808.465.808-.465.222.387-.809.466h0l-.221-.387L0,28.784l.809-.466L49.182.466,49.991,0l.464.81.222.388.464.81-.81.466L1.96,30.325l-.809.466ZM1.5,29.515h0l-.222-.386.808-.465.222.387-.808.465ZM49.059,2.129h0l-.222-.386.81-.466.222.388-.808.465Z" transform="translate(144.86 223.413)" fill="#ffc20e"/>
        <path id="Path_86721" data-name="Path 86721" d="M49.44,114.354h0l-.45-.226.18-.36.193.112.287-.166.225.387h0l-.224-.387.18-.1L97.9,85.809l.107-.062.2.4.035-.017L49.875,114.1l-.435.252Zm-.589-.3L.466,86.077,0,85.808V28.553L.516,28.3l.183.366-.342.2V85.268h0v.271l.315.182.151.087L48.9,113.61l.16.093-.2.354h0Zm.392-1.047h0l-.3-.523.18-.1.243.42-.119.207Zm-.122-.628h0l-.224-.387.058-.033.448.259-.28.162Zm.69-.4v0h0l-.447-.257L96.5,84.462v.518Zm-.857-.022L2.224,84.937v-.474l47.139,27.26-.409.236ZM98.3,86.1h0l-.2-.406.273-.157V28.859l-.248-.143.228-.394-.228.394h0l-.217-.127L49.83.788,49.718.724,49.965.3,98.349,28.322l.466.269V85.845L98.3,86.1ZM1.134,85.27h-.2L1.088,85h.2l-.155.268h0Zm96.633,0h-.818V85h.663l.154.267Zm-95.9,0H1.135L1.291,85h.577v.267ZM2.224,85H1.867v-.27l.356.206V85Zm0-.539h0l-.354-.2V30.143l-.11.063-.2-.35.312-.181v.468l.356-.206Zm94.279,0V29.936h0L49.363,2.675l.467-.27-.023-.041L96.5,29.41v.525h0l.446.258V84.2l-.444.257ZM1.352,29.965h0L1.068,29.4l-.134-.268h.111l.135.268.016.031L1.179,29.4l-.134-.268L1.2,29.4l.288.5-.025.014-.025.013h0l-.086.045Zm96.062-.027h0l-.217-.126.239-.414.155-.268h.289l-.153.268-.312.539Zm-95.19,0v-.468l-.356.206V29.4H1.291l-.155-.268h.732V29.4h.356v.072L48.923,2.42,48.9,2.4l.246-.426.271.157-.49.284.441.255L2.225,29.936Zm-.733-.044h0L1.2,29.4l-.155-.268h.086l.155.268.265.459-.063.037Zm95.945-.5h-.488v-.268h.643l-.155.268ZM.785,28.611h0L.6,28.25l-.024.012L48.94.252l.221.383L48.9.788.823,28.589l-.037.021ZM49.809,2.368l0,0-.392-.229.2-.114L49.363,1.6l-.221.383-.1-.058.037.018.224-.447.164-.327.073.125.335.579-.266.154.2.342Zm-.781-.453L48.99,1.9l.254-.506.165-.329.057.1-.178.306-.259.447Zm.58-1.253h0L49.363.518l-.2.116L48.941.253,49.376,0l.45.226L49.608.66Z" transform="translate(289.913 83.762)" fill="#ffc20e"/>
        <path id="Path_86722" data-name="Path 86722" d="M.112,57.787h0l0-.932L0,.938,0,0,.933,0H1.38l.934,0,0,.933.107,55.916,0,.933-.933,0H1.045l0-.932,0,.933ZM.936.936H.448L.555,56.853H.11l.933,0h0l0-.934h.446l0,.934h.488L1.869.934H.936L.933,0l0,.933h0Zm.448.934H.939l0-.934h.446l0,.934Z" transform="translate(338.151 84.154)" fill="#ffc20e"/>
        <path id="Path_86754" data-name="Path 86754" d="M.112,57.787h0l0-.932L0,.938,0,0,.933,0H1.38l.934,0,0,.933.107,55.916,0,.933-.933,0H1.045l0-.932,0,.933ZM.448.937h0L.555,56.853H.11l.933,0h0l0-.934h.446l0,.934h.487L1.869.934H.936L.933,0l0,.932Zm.935.933H.939l0-.934h.446l0,.934Z" transform="translate(386.241 0.074)" fill="#ffc20e"/>
        <path id="Path_86723" data-name="Path 86723" d="M49.774,30.809h0l-.807-.467.223-.386.233-.4.011-.019L50.24,30l-.466.808Zm-.808-.468L.807,2.473,0,2.005.466,1.2l.019.011L.466,1.2.689.809,1.155,0l.808.468h0L50.12,28.337l.808.467-.466.809L50.24,30h0l-.807-.467.223-.387.806.467-.806-.467.077-.135.166-.286L1.74.855,1.955.482,1.74.855l-.158.275L1.5,1.276.69.81l.806.467-.223.386h0l-.243.421.243-.421-.243.421L49.188,29.954l-.222.386h0Zm.466-.808h0l-.807-.468.223-.388.808.468-.223.387ZM2.082,2.131h0l-.807-.467L1.5,1.277l.808.467-.223.386Z" transform="translate(338.022 139.533)" fill="#ffc20e"/>
        <path id="Path_86724" data-name="Path 86724" d="M1.15,30.785h0l-.464-.809h0l-.221-.387L0,28.778l.809-.466L49.189.466,50,0l.464.81.221.388-.809.465-.222-.387.808-.465-.808.465L49.446.916l.017.026L49.411.855v0L1.031,28.7v0h0l-.222-.386.464.811-.808.465.808-.465.221.385-.221-.385.809-.466.222.387-.809.466h0l-.807.464.807-.464.242.423L1.5,29.509l.242.423.17.3-.17-.3L50.117,2.087l.012.021-.012-.021-.242-.423.808-.466.464.81-.809.466h0L1.96,30.32h0l-.808.464ZM49.066,2.129h0l-.222-.387.808-.465.222.388-.807.465Z" transform="translate(289.638 139.557)" fill="#ffc20e"/>
        <path id="Path_86725" data-name="Path 86725" d="M49.44,114.354h0l-.45-.226.18-.36.193.112.287-.167.224.387h0l-.224-.387.179-.1L97.9,85.809l.106-.062.2.4.015-.008L49.875,114.1l-.435.252Zm-.589-.3L.466,86.077h0L0,85.808V28.553L.516,28.3l.183.366-.342.2V85.268h0v.27l.315.182-.2.348.2-.348.151.088L48.9,113.61l.16.093-.2.354h0Zm.392-1.048v0l-.3-.523.179-.1.243.421-.119.206Zm-.123-.628h0l-.223-.386.059-.034.447.258-.281.162Zm.689-.4h0l-.446-.258L96.5,84.462v.519l-46.693,27Zm-.855-.022L2.224,84.936v-.473l47.139,27.261-.408.236ZM98.3,86.1h0l-.2-.407.274-.158V28.859L98.1,28.7l.247-.428L98.1,28.7h0l-.2-.115L49.83.788,49.718.723,49.964.3,98.349,28.277l.466.269v57.3L98.3,86.1ZM1.134,85.27h-.2L1.088,85h.2l-.155.267h0Zm96.456,0h-.642V85h.488l.153.266Zm-95.723,0H1.136L1.291,85h.577v.266ZM2.224,85H1.867V84.73l.356.206V85Zm0-.539h0l-.354-.2V30.143l-.11.063-.2-.35.312-.181v.468l.356-.206Zm94.279,0V29.937h0L49.363,2.675l.467-.27-.024-.042L96.559,29.4H96.5v.537h0l.446.258V84.2l-.444.257ZM1.352,29.965h0L1.068,29.4.934,29.13h.112L1.2,29.4l.055.1L1.2,29.4l-.155-.268h.086l.155.268-.155-.268h.732V29.4h.356v.071L48.923,2.42,48.9,2.4l.246-.426.271.157-.491.284.441.255L2.225,29.936h0v-.468l-.356.206V29.4H1.291l.264.458-.064.037h0l-.023.013-.025.013-.089.045Zm96.063-.071h0l-.2-.115.219-.38.181-.313h.264L97.7,29.4l-.286.494Zm.02-.495h-.488v-.313h.668l-.181.313ZM.786,28.611h0L.6,28.251l-.037.018L48.94.253,49.376,0l.45.226L49.608.66,49.363.518l-.2.117L48.941.254l.221.381L48.9.788.824,28.589l-.037.021ZM49.808,2.366l0,0-.391-.228.2-.113L49.363,1.6l-.221.382-.094-.054.03.015.224-.447.164-.327.073.125.335.578-.266.154.2.34Zm-.776-.449L48.99,1.9l.254-.506.164-.328.057.1-.177.306-.259.447Z" transform="translate(96.907 83.806)" fill="#ffc20e"/>
        <path id="Path_86726" data-name="Path 86726" d="M.112,57.787h0l0-.932L0,.938,0,0,.933,0H1.38l0,.932-.446,0h0l-.487,0h0L.555,56.853H.11l.933,0h.446v0h.487L1.869.934H1.382V0l.934,0V.933l.107,55.916,0,.933-.933,0h0l-.444,0h0l0-.932,0,.933Zm.931-.935h0v-.933h.446l0,.933ZM1.383,1.87H.939l0-.934h.446v.934Z" transform="translate(145.147 84.243)" fill="#ffc20e"/>
        <path id="Path_86727" data-name="Path 86727" d="M49.774,30.809h0l-.806-.467L.808,2.473l.223-.387L49.189,29.954l-.222.386h0l.223-.387.168-.293.075-.128L50.24,30l-.466.808ZM50.24,30h0l-.807-.467.223-.387.243-.421L1.741.855,1.963.469,50.121,28.337l.807.467-.465.809L50.24,30Zm-.808-.467h0l-.807-.467.223-.388.807.468-.222.387ZM.808,2.472h0L0,2.005.466,1.2l.007,0-.007,0L.689.809,1.155,0l.809.468L1.5,1.276.69.81l.807.467-.223.387h0l-.118.207-.124.214-.222.386Zm1.273-.341h0l-.806-.467L1.5,1.277l.807.467-.223.386Z" transform="translate(145.045 139.617)" fill="#ffc20e"/>
        <path id="Path_86728" data-name="Path 86728" d="M1.151,30.791h0l-.465-.808h0l-.221-.388L0,28.784l.809-.466L49.182.466,49.992,0l.463.81.222.388-.809.465-.222-.387.808-.466-.807.465L49.183.467,49.4.853,1.031,28.7v0h0l-.222-.385.464.809-.808.465.808-.465.221.386-.221-.386.809-.465.222.387-.808.465h0l-.807.465.807-.464.086.151.156.272.221.385h0l-.221-.385L50.112,2.086l-.242-.423.808-.466.464.81-.808.465h0L1.96,30.325l-.808.466ZM49.061,2.129h0l-.222-.387.808-.466.222.387-.808.466Z" transform="translate(96.68 139.614)" fill="#ffc20e"/>
        <path id="Path_86729" data-name="Path 86729" d="M49.44,114.354h0l-.45-.226.19-.38.228.132.255-.147.213.368h0l-.213-.368.213-.123,48.073-27.8.072-.041.191.381.027-.014L49.875,114.1l-.435.252Zm-.589-.3L.466,86.077,0,85.808V28.553L.516,28.3l.193.386L.4,28.859V85.268h0v.271l.281.162.185.107,48.073,27.8.127.074-.216.373h0Zm.414-1.01h0l-.324-.56.213-.123.254.439-.142.244Zm-.289-1.075L2.269,84.963v-.5l47.139,27.259-.431.249Zm.857,0v0h0l-.425-.244L96.547,84.462v.494ZM98.3,86.1h0l-.193-.386.308-.178V28.859l-.3-.174.236-.408-.236.407h0l-.164-.1L49.875.788,49.729.7,49.964.3,98.349,28.277l.466.269v57.3L98.3,86.1Zm-.281-.336h0l-.225-.45.252.436-.026.015Zm-96.84-.5H.933L1.088,85h0l.312-.54.185.107L1.335,85h.533v.268H1.179Zm96.456,0h-.687V85h.532l.154.267ZM2.269,85h-.4v-.27l.4.232V85Zm0-.538h0l-.4-.231V30.169l-.066.038-.214-.37.279-.162v.494l.4-.232Zm94.278,0V29.936h0L49.408,2.675l.468-.27L96.557,29.4h-.01v.537h0l.4.232V84.23l-.4.231ZM1.352,29.965h0L1.068,29.4l-.134-.268h.111l.135.268.016.031L1.179,29.4l-.134-.268L1.2,29.4l.287.5-.024.014-.025.013h0l-.086.045Zm.917-.028v-.494l-.4.232V29.4H1.335l-.155-.268h.688V29.4h.4v.045L48.945,2.407l0,0L49.176,2l.238.138-.469.272.463.268L2.27,29.936Zm95.145-.043h0l-.165-.1.232-.4.181-.312h.219L97.7,29.4l-.286.5Zm-95.924,0h0L1.2,29.4l-.155-.268H1.18l.155.268.254.439-.1.056Zm95.99-.5h-.532v-.312h.713l-.181.312ZM.8,28.631h0L.6,28.25l-.024.012L48.94.252l0,0v0L49.376,0l.45.226L49.618.64,49.407.518l-.235.136h0L48.94.788.868,28.589.8,28.631ZM49.873,2.4l0,0-.456-.264L49.643,2,49.408,1.6l.155-.268.312.54L49.643,2l.229.4Zm-.84-.484L48.989,1.9l.274-.546.047.079-.281.485.005,0Z" transform="translate(145.159 0.045)" fill="#ffc20e"/>
        <path id="Path_86730" data-name="Path 86730" d="M49.774,30.809h0l-.807-.467L.807,2.473l.224-.388L49.188,29.954l-.222.386h0l.223-.387.058-.1,0,.012.122-.217.068-.116L50.24,30l-.466.808ZM50.24,30h0l-.807-.467.223-.387.807.467-.807-.467.243-.422.222-.388-.223.386h0L1.741.855,1.5,1.277l.462-.8-.463.8L.69.81l.806.467-.223.386h0l-.166.29-.076.13-.223.387h0L0,2.005.466,1.2l.007,0-.007,0L.689.809,1.155,0l.808.468h0L50.12,28.336l.808.468-.465.809L50.24,30Zm-.808-.468h0l-.807-.467.223-.387.807.467-.222.387ZM2.082,2.131h0l-.807-.467L1.5,1.277l.808.467-.223.386Z" transform="translate(193.343 55.834)" fill="#ffc20e"/>
        <path id="Path_86731" data-name="Path 86731" d="M1.15,30.791h0l-.463-.809h0l-.222-.387L0,28.783l.808-.465L49.182.466,49.991,0l.464.81.221.388.465.81-.81.465L1.96,30.325l-.809.466ZM1.5,29.515l.136.235.107.187L50.11,2.086l-.242-.423.464.809-.463-.809.808-.465-.809.465-.222-.387L50.455.81l-.808.465L49.4.853l.242.422L49.4.853,49.183.467,49.4.853,1.031,28.7h0l.243.423-.808.465.807-.464.223.387h0l-.222-.386.808-.466.222.388-.808.465h0ZM49.059,2.129h0l-.222-.387.809-.466.222.388-.808.465Z" transform="translate(144.944 55.839)" fill="#ffc20e"/>
        <path id="Path_86732" data-name="Path 86732" d="M49.44,114.309h0l-.45-.225.173-.345.245.141.274-.158.193-.112,48.074-27.8.09-.052h0l-.241-.482.27.466-.027.016h0l.174.346.019-.009L49.874,114.057l-.434.252Zm-.589-.3L.466,86.033,0,85.763V28.508l.516-.258.193.387L.4,28.814V85.223h0v.316l.262.151-.2.341.2-.341.2.118,48.073,27.8.106.062-.2.339h0Zm.427-.987v0l-.337-.583.194-.112.273.473-.128.222Zm-.263-1.075L2.269,84.918v-.454l47.138,27.26-.391.226Zm.779,0v0h0l-.386-.222L96.547,84.462v.448ZM98.3,86.059h0l-.174-.352.29-.168V29.353h-.687l.155-.268.467-.808-.468.808h-.246l.312-.54L49.874.743,49.748.671,49.964.3,98.349,28.277l.466.269V85.8l-.516.258ZM1.2,85.225H.934L1.063,85h0l.338-.585.2.118L1.335,85h0l-.129.223h0Zm96.4,0h-.661V85h.533l.127.222Zm-95.742,0H1.206L1.336,85h.532v.222Zm.4-.223h-.4v-.315l.4.232V85Zm0-.538h0l-.4-.231V30.124l-.066.038-.214-.37.279-.162v.493l.4-.231v0l0-.492-.4.232v-.276H1.336l-.155-.268h.687v.268h.4V29.4L48.982,2.384,48.94,2.36l.216-.373.257.149-.431.249.425.246L2.269,29.892Zm94.278,0V29.892h0L49.407,2.63l.431-.249,46.709,27.01v.5h0l.4.232V84.23l-.4.231ZM1.352,29.92h0l-.283-.565-.134-.268h.111l.134.268.261.521-.261-.521-.134-.268.159.268.283.488L1.2,29.353l-.155-.268H1.18l.155.268.253.438-.1.056h0l-.024.014-.025.013-.088.044Zm96.063-.026h0l-.184-.106.25-.433h.246l-.312.539Zm.066-.54h-.533v-.268h.688l-.155.268ZM.8,28.587h0L.6,28.206l-.026.013L48.94.252,49.376,0l.45.226-.19.379L49.407.473,49.153.62,48.94.743.868,28.545.8,28.587ZM49.838,2.381l-.425-.246.249-.144-.254-.44-.251.435-.079-.045.258-.514.131-.262.083.141.325.563-.213.123.213.368-.037.021Zm-.8-.463L48.99,1.9l.286-.571.132-.263.057.1-.142.246-.294.508.005,0Z" transform="translate(48.523)" fill="#ffc20e"/>
        <path id="Path_86733" data-name="Path 86733" d="M49.774,30.809h0l-.806-.467.223-.387.2-.347.043-.074L50.24,30l-.466.808Zm-.807-.468L.808,2.473,0,2.005.466,1.2l.008,0-.008,0L.689.809,1.155,0l.809.468L1.5,1.277.69.81l.807.467-.223.387h0l-.243.422.244-.421-.243.422L49.189,29.954l-.222.386h0ZM50.24,30h0l-.807-.467.223-.387.807.467-.806-.466.241-.421L1.741.855,1.963.469,50.121,28.337l.807.467-.465.809L50.24,30Zm-.808-.467h0l-.807-.468.223-.387.808.468-.223.387ZM2.082,2.131h0l-.806-.467L1.5,1.277l.807.467-.223.386Z" transform="translate(96.65 55.774)" fill="#ffc20e"/>
        <path id="Path_86734" data-name="Path 86734" d="M1.15,30.785h0l-.463-.809-.222-.388L0,28.778l.81-.466L49.189.466,50,0l.464.81.222.388.464.81-.809.466L1.96,30.319l-.809.466Zm.932-2.129.221.388-.808.465.242.423.221.385h0l-.221-.385L50.117,2.086l-.242-.422.464.809-.463-.81.81-.466-.81.465-.222-.387L50.461.81l-.808.465-.048-.082L49.411.853,49.189.467l.221.387L1.032,28.7h0l.1.183.137.24-.808.465.808-.465.19.329-.189-.33Zm-.62.8.033.058-.809.466.809-.466Zm47.6-27.322h0l-.221-.387.809-.465.222.388-.808.465Z" transform="translate(48.291 55.78)" fill="#ffc20e"/>
        <path id="Path_86735" data-name="Path 86735" d="M49.44,114.354h0l-.45-.226.18-.36.193.112.287-.166.225.387h0l-.224-.387.18-.1L97.9,85.809l.107-.062.2.4.035-.017L49.875,114.1l-.435.252Zm-.589-.3L.466,86.077,0,85.808V28.553L.516,28.3l.183.366-.342.2V85.268h0v.271l.315.182.151.087L48.9,113.61l.16.093-.2.354h0Zm.392-1.047h0l-.3-.523.18-.1.243.42-.119.207Zm-.122-.628h0l-.224-.387.058-.033.448.259-.28.162Zm.69-.4v0h0l-.447-.257L96.5,84.462v.518Zm-.857-.022L2.224,84.937v-.474l47.139,27.26-.409.236ZM98.3,86.1h0l-.2-.406.273-.157V28.859l-.248-.143.228-.394-.228.394h0l-.217-.127L49.83.788,49.718.724,49.965.3,98.349,28.322l.466.269V85.845L98.3,86.1ZM1.134,85.27h-.2L1.088,85h.2l-.155.268h0Zm96.633,0h-.818V85h.663l.154.267Zm-95.9,0H1.135L1.291,85h.577v.267ZM2.224,85H1.867v-.27l.356.206V85Zm0-.539h0l-.354-.2V30.142l-.11.063-.2-.349.312-.181v.467l.356-.206Zm94.279,0V29.936h0L49.363,2.675l.467-.27-.023-.041L96.5,29.41v.525h0l.446.258V84.2l-.444.257ZM1.352,29.965h0L1.068,29.4l-.134-.268h.111l.135.268.016.031L1.179,29.4l-.134-.268L1.2,29.4l.288.5-.025.014-.025.013h0l-.086.045Zm96.062-.027h0l-.217-.126.239-.414.155-.268h.291l-.155.268-.312.539Zm-95.19,0v-.467l-.356.206V29.4H1.291l-.155-.268h.732V29.4h.356v.072L48.923,2.42,48.9,2.4l.246-.426.271.157-.49.284.441.255L2.225,29.935Zm-.733-.043h0L1.2,29.4l-.155-.268h.087l.155.268.265.459-.063.037Zm95.945-.5h-.488v-.268h.643l-.155.268ZM.785,28.611h0L.6,28.25l-.024.012L48.94.252l.221.383L48.9.788.823,28.589l-.037.021ZM49.809,2.368l0,0-.392-.229.2-.114L49.363,1.6l-.221.383-.1-.058.037.018.224-.447.164-.327.073.125.335.579-.266.154.2.342Zm-.781-.453L48.99,1.9l.254-.506.165-.329.057.1-.178.306-.259.447Zm.58-1.253h0L49.363.518l-.2.116L48.941.253,49.376,0l.45.226L49.608.66Z" transform="translate(289.912 83.762)" fill="#ffc20e"/>
      </g>
    </g>
  </g>
</svg>
