<svg xmlns="http://www.w3.org/2000/svg" width="502.636" height="722.594" viewBox="0 0 502.636 722.594">
  <g id="Frame" transform="translate(252.308 -0.327) rotate(60)" opacity="0.259">
    <path id="Path_86698" data-name="Path 86698" d="M63.623,1.366,63.085.291,63.664,0l.56.325Zm-.116.058-.6-1.041.031-.018.031-.016ZM1.2,37.454H0V36.76l.6-.346Zm0,72.292-.539,1.075L0,110.488v-.742Zm.114.058.539-1.075.033.016.031.018Zm62.307,36.03.539,1.075-.58.291-.561-.325Zm.114-.058.6,1.041-.031.018-.033.016Zm62.307-36.03h1.2v.694l-.6.347Zm0-72.292.539-1.075.664.333v.742Zm-.115-.058-.539,1.075-.031-.016-.031-.018ZM1.776,37.8H.573v-.694l.6-.347ZM63.681,2l-.6-1.041.6-.349.6.349Zm61.9,35.8.6-1.041.6.347V37.8Zm0,71.658h1.2v.692l-.6.348Zm-61.9,35.8.6,1.04-.6.349-.6-.349Zm-61.905-35.8-.6,1.04-.6-.348v-.692ZM64.162,2.441l-.115.058L62.969.349l.115-.058Zm-.052.023L1.8,38.495.6,36.414,62.907.382ZM2.4,37.454v72.292H0V37.454Zm-.664,71.217.114.058-1.077,2.15-.114-.058Zm.178.091,62.306,36.031-1.2,2.081L.715,110.843Zm61.166,36,.114-.058,1.077,2.15-.114.058Zm.052-.023L125.442,108.7l1.2,2.082L64.34,146.817Zm61.706-34.99V37.454h2.4v72.292Zm.664-71.217-.115-.058,1.078-2.15.114.058Zm-.178-.091L63.021,2.407l1.2-2.083,62.307,36.031ZM1.175,36.759l61.9-35.8,1.2,2.081-61.9,35.8ZM64.282.958l61.9,35.8-1.2,2.081-61.9-35.8ZM126.787,37.8v71.658h-2.4V37.8Zm-.6,72.7-61.9,35.8-1.2-2.081,61.9-35.8ZM63.079,146.3l-61.9-35.8,1.2-2.081,61.9,35.8ZM.573,109.458V37.8h2.4v71.658Z" transform="translate(311.106 323.758)" fill="#fff"/>
    <path id="Path_86699" data-name="Path 86699" d="M1.641,37.617l-1.041.6L0,37.177l1.041-.6Zm.286.5.6,1.041-1.041.6-.6-1.042ZM64.091,2.142l1.04-.6.6,1.042-1.04.6Zm-.287-.5L63.2.6l1.04-.6.6,1.042ZM2.681,37.015l.287.5-2.081,1.2-.287-.5Zm-1.354.059L63.491,1.1l1.2,2.084L2.528,39.157ZM63.05,2.745l-.286-.5,2.081-1.2.286.5ZM64.4,2.686,2.241,38.659l-1.2-2.084L63.2.6Z" transform="translate(372.932 359.489)" fill="#fff"/>
    <path id="Path_86700" data-name="Path 86700" d="M1.641,2.142l-.6,1.042L0,2.581.6,1.54Zm62.148,36,1.041.6-.6,1.043-1.04-.6Zm.287-.5.6-1.041,1.04.6-.6,1.042Zm-62.148-36-1.04-.6L1.488,0l1.04.6ZM2.241,1.1l62.149,36-1.2,2.082L1.04,3.185ZM62.749,37.542l.287-.5,2.081,1.206-.287.5Zm.727,1.146-62.149-36L2.528.6l62.149,36ZM2.968,2.247l-.287.5L.6,1.54l.287-.5Z" transform="translate(310.798 359.534)" fill="#fff"/>
    <path id="Path_86701" data-name="Path 86701" d="M1.2,73.148v1.2H0v-1.2Zm.576,0h1.2v1.2h-1.2Zm0-71.946V0h1.2V1.2ZM1.2,1.2H0V0H1.2Zm0,70.743h.576v2.4H1.2Zm-.626,1.2V1.2h2.4V73.148ZM1.778,2.4H1.2V0h.576ZM2.4,1.2V73.148H0V1.2Z" transform="translate(373.238 396.155)" fill="#fff"/>
    <path id="Path_86702" data-name="Path 86702" d="M63.625,1.365,63.085.291,63.664,0l.561.325Zm-.115.058-.6-1.041.031-.018L62.97.348ZM1.2,37.454H0V36.76l.6-.347Zm0,72.291L.664,110.82,0,110.488v-.743Zm.115.058.539-1.075.032.017.031.017Zm62.307,36.031.537,1.075-.578.29-.562-.325Zm.114-.058.6,1.04-.031.019-.032.016Zm62.307-36.031h1.2v.694l-.6.347Zm0-72.291.539-1.075.664.332v.743Zm-.115-.058-.539,1.075-.031-.016-.031-.018ZM63.625,2l-.6-1.041.6-.348.6.348Zm61.9,35.8.6-1.041.6.347V37.8Zm0,71.658h1.2v.694l-.6.347Zm-61.9,35.8.6,1.041-.6.347-.6-.347Zm-61.905-35.8-.6,1.041-.6-.347v-.694ZM64.163,2.44l-.115.058L62.97.348l.114-.058Zm-.052.024L1.8,38.494.6,36.413,62.907.382ZM2.4,37.454v72.291H0V37.454ZM1.741,108.67l.115.058-1.077,2.15-.115-.058Zm.179.091,62.306,36.031-1.2,2.081L.715,110.844Zm61.166,36,.114-.058,1.077,2.15-.116.058Zm.052-.024,62.306-36.03,1.2,2.081-62.306,36.03Zm61.706-34.99V37.454h2.4v72.291Zm.664-71.216-.116-.058,1.077-2.15.115.058Zm-.178-.091L63.022,2.406l1.2-2.082,62.307,36.03ZM1.118,36.758l61.9-35.8,1.2,2.082-61.9,35.8ZM64.226.958l61.905,35.8-1.2,2.082-61.9-35.8ZM126.731,37.8v71.658h-2.4V37.8Zm-.6,72.7L64.226,146.3l-1.2-2.082,61.9-35.8ZM63.022,146.3l-61.9-35.8,1.2-2.082,61.9,35.8ZM.517,109.458V37.8h2.4v71.658Z" transform="translate(435.602 179.865)" fill="#fff"/>
    <path id="Path_86703" data-name="Path 86703" d="M1.641,37.617l-1.041.6L0,37.177l1.041-.6Zm.287.5.6,1.042-1.041.6-.6-1.042ZM64.091,2.143l1.04-.6.6,1.041-1.041.6Zm-.287-.5L63.2.6l1.04-.6.6,1.041ZM2.681,37.015l.287.5-2.081,1.2-.287-.5Zm-1.353.059L63.491,1.1l1.2,2.084L2.528,39.157ZM63.05,2.745l-.286-.5,2.081-1.2.286.5ZM64.4,2.686,2.241,38.658l-1.2-2.084L63.2.6Z" transform="translate(497.409 215.621)" fill="#fff"/>
    <path id="Path_86704" data-name="Path 86704" d="M1.641,2.143l-.6,1.041L0,2.581.6,1.54Zm62.148,36,1.04.6-.6,1.041-1.041-.6Zm.287-.5.6-1.041,1.04.6-.6,1.041Zm-62.148-36-1.04-.6L1.489,0l1.04.6ZM2.241,1.1l62.149,36-1.2,2.084L1.04,3.184Zm60.508,36.44.287-.5,2.08,1.2-.287.5Zm.726,1.146-62.148-36L2.529.6l62.149,36ZM2.969,2.247l-.287.5L.6,1.54l.287-.5Z" transform="translate(435.246 215.636)" fill="#fff"/>
    <path id="Path_86705" data-name="Path 86705" d="M1.2,73.148v1.2H0v-1.2Zm.576,0h1.2v1.2h-1.2Zm0-71.946V0h1.2V1.2ZM1.2,1.2H0V0H1.2Zm0,70.743h.576v2.4H1.2Zm-.626,1.2V1.2h2.4V73.148ZM1.778,2.4H1.2V0h.576ZM2.4,1.2V73.148H0V1.2Z" transform="translate(497.735 252.263)" fill="#fff"/>
    <path id="Path_86706" data-name="Path 86706" d="M63.624,1.365,63.085.291,63.664,0l.561.325Zm-.115.058-.6-1.041.031-.018L62.97.348ZM1.2,37.454H0V36.76l.6-.347Zm0,72.292L.663,110.82,0,110.487v-.742Zm.115.058.539-1.075.032.016.031.018Zm62.306,36.031.539,1.075-.579.29-.561-.324Zm.115-.058.6,1.041-.031.018-.032.016Zm62.306-36.031h1.2v.694l-.6.347Zm0-72.292.539-1.075.664.333v.742Zm-.114-.057-.539,1.075-.032-.016-.031-.018ZM1.719,37.8l.6,1.041L2.042,39H1.719ZM63.624,2l-.6-1.041.6-.348.6.349Zm61.847,35.8.6-1.041.6.347V37.8Zm0,71.6h1.2v.694l-.6.347Zm-61.9,35.8.6,1.041-.6.348-.6-.348Zm-61.9-35.8-.6,1.041-.6-.347V109.4Zm0-71.6H.459V36.6h1.2ZM64.162,2.44l-.115.058L62.97.348l.115-.058Zm-.052.024L1.8,38.494.6,36.413,62.907.382ZM2.4,37.454v72.292H0V37.454ZM1.741,108.67l.115.058-1.078,2.15-.115-.058Zm.178.092,62.306,36.031-1.2,2.082L.715,110.844Zm61.166,36,.115-.057,1.077,2.15-.115.058Zm.052-.023L125.443,108.7l1.2,2.082L64.34,146.817Zm61.705-34.99V37.454h2.4v72.292Zm.664-71.217-.114-.057,1.077-2.15.114.058Zm-.178-.092L63.022,2.406l1.2-2.082,62.306,36.031ZM1.117,36.758l61.9-35.8,1.2,2.082-61.9,35.8ZM64.226.958l61.847,35.8-1.2,2.081L63.021,3.039ZM126.673,37.8v71.6h-2.4V37.8Zm-.6,72.642-61.9,35.8-1.2-2.082,61.9-35.8Zm-63.108,35.8-61.9-35.8,1.2-2.082,61.9,35.8ZM.459,109.4V37.8h2.4v71.6Zm1.2-72.8h.057V39H1.662Z" transform="translate(0.377)" fill="#fff"/>
    <path id="Path_86707" data-name="Path 86707" d="M1.641,37.617l-1.041.6L0,37.177l1.041-.6Zm.287.5.6,1.042-1.041.6-.6-1.042ZM64.091,2.142l1.041-.6.6,1.042-1.041.6Zm-.287-.5L63.2.6,64.244,0l.6,1.042ZM2.681,37.015l.287.5-2.081,1.2-.287-.5Zm-1.354.059L63.491,1.1l1.2,2.084L2.528,39.157ZM63.05,2.745l-.287-.5,2.081-1.2.287.5ZM64.4,2.686,2.241,38.659l-1.2-2.084L63.2.6Z" transform="translate(0 71.712)" fill="#fff"/>
    <path id="Path_86708" data-name="Path 86708" d="M1.641,2.143l-.6,1.042L0,2.581.6,1.54Zm62.148,36,1.041.6-.6,1.042-1.04-.6Zm.287-.5.6-1.042,1.04.6-.6,1.042Zm-62.148-36-1.04-.6L1.488,0l1.04.6ZM2.241,1.1l62.149,36-1.2,2.083L1.04,3.184ZM62.749,37.542l.287-.5,2.081,1.205-.287.5Zm.727,1.146-62.149-36L2.529.6l62.149,36ZM2.969,2.247l-.287.5L.6,1.54l.287-.5Z" transform="translate(62.22 71.742)" fill="#fff"/>
    <path id="Path_86709" data-name="Path 86709" d="M63.623,1.365,63.085.291,63.664,0l.561.325Zm-.114.058-.6-1.041.031-.018.031-.016ZM1.2,37.454H0V36.76l.6-.347Zm0,72.292L.664,110.82,0,110.487v-.742Zm.114.058.54-1.075.031.016.031.018Zm62.307,36.031.539,1.075-.58.29-.561-.324Zm.115-.058.6,1.041-.031.018-.031.016Zm62.306-36.031h1.2v.694l-.6.347Zm0-72.292.539-1.075.664.333v.742Zm-.114-.057-.539,1.075-.032-.016-.031-.018ZM1.777,37.8H.575v-.694l.6-.347ZM63.681,2l-.6-1.041.6-.348.6.348Zm61.9,35.8.6-1.041.6.347V37.8Zm0,71.6h1.2v.694l-.6.347Zm-61.9,35.8.6,1.041-.6.348-.6-.348Zm-61.9-35.8-.6,1.041-.6-.347V109.4ZM64.162,2.44l-.114.058L62.969.348l.115-.058Zm-.052.024L1.8,38.494.6,36.413,62.907.382ZM2.4,37.454v72.292H0V37.454ZM1.741,108.67l.115.058-1.078,2.15-.114-.057Zm.178.092,62.307,36.031-1.2,2.082L.715,110.844Zm61.166,36,.115-.057,1.077,2.15-.115.058Zm.052-.023L125.443,108.7l1.2,2.082L64.34,146.817Zm61.706-34.99V37.454h2.4v72.292Zm.664-71.217-.114-.057,1.077-2.15.114.058Zm-.178-.092L63.021,2.406l1.2-2.082,62.306,36.031ZM1.175,36.758l61.9-35.8,1.2,2.082-61.9,35.8ZM64.282.958l61.905,35.8-1.2,2.082L63.079,3.039ZM126.788,37.8v71.6h-2.4V37.8Zm-.6,72.642-61.905,35.8-1.2-2.082,61.905-35.8Zm-63.109,35.8-61.9-35.8,1.2-2.082,61.9,35.8ZM.575,109.4V37.8h2.4v71.6Z" transform="translate(124.529)" fill="#fff"/>
    <path id="Path_86710" data-name="Path 86710" d="M1.2,73.149v1.2H0v-1.2Zm.575,0h1.2v1.2h-1.2Zm0-71.946V0h1.2V1.2ZM1.2,1.2H0V0H1.2Zm0,70.744h.575v2.4H1.2Zm-.628,1.2V1.2h2.4V73.149ZM1.777,2.4H1.2V0h.575ZM2.4,1.2V73.149H0V1.2Z" transform="translate(186.665 72.397)" fill="#fff"/>
    <path id="Path_86711" data-name="Path 86711" d="M1.641,37.617l-1.041.6L0,37.178l1.04-.6Zm.286.5.6,1.042-1.041.6-.6-1.042ZM64.091,2.142l1.04-.6.6,1.042-1.04.6Zm-.287-.5L63.2.6l1.04-.6.6,1.042ZM2.681,37.015l.287.5-2.081,1.2-.287-.5Zm-1.354.059L63.49,1.1l1.2,2.084L2.529,39.157ZM63.05,2.745l-.287-.5,2.081-1.2.287.5ZM64.4,2.686,2.241,38.659l-1.2-2.084L63.2.6Z" transform="translate(124.206 71.718)" fill="#fff"/>
    <path id="Path_86712" data-name="Path 86712" d="M1.641,2.143l-.6,1.042L0,2.581.6,1.54Zm62.148,36,1.04.6-.6,1.042-1.041-.6Zm.287-.5.6-1.042,1.041.6-.6,1.042Zm-62.148-36-1.041-.6L1.488,0l1.04.6ZM2.241,1.1l62.148,36-1.2,2.083L1.04,3.184ZM62.749,37.542l.287-.5,2.08,1.205-.287.5Zm.726,1.146-62.148-36L2.528.6l62.148,36ZM2.969,2.247l-.287.5L.6,1.54l.287-.5Z" transform="translate(186.426 71.753)" fill="#fff"/>
    <path id="Path_86713" data-name="Path 86713" d="M63.625,1.366,63.085.291,63.664,0l.561.325Zm-.115.058-.6-1.041.031-.018L62.97.349ZM1.2,37.454H0V36.76l.6-.346Zm0,72.292-.539,1.075L0,110.488v-.742Zm.115.058.539-1.075.032.016.031.018Zm62.307,36.03.539,1.075-.579.291-.562-.325Zm.114-.058.6,1.041-.031.018-.032.016Zm62.307-36.03h1.2v.694l-.6.347Zm0-72.292.539-1.075.664.333v.742Zm-.115-.058-.539,1.076-.031-.017-.031-.018ZM63.625,2l-.6-1.041.6-.349.6.349Zm61.9,35.8.6-1.041.6.347V37.8Zm0,71.658h1.2v.692l-.6.348Zm-61.9,35.8.6,1.04-.6.349-.6-.349Zm-61.905-35.8-.6,1.04-.6-.348v-.692ZM64.163,2.441l-.115.058L62.97.349l.114-.058Zm-.052.023L1.8,38.495.6,36.414,62.907.382ZM2.4,37.454v72.292H0V37.454Zm-.664,71.217.115.058-1.077,2.15-.115-.058Zm.179.091,62.306,36.031-1.2,2.081L.715,110.843Zm61.166,36,.114-.058,1.077,2.15-.114.058Zm.052-.023L125.443,108.7l1.2,2.082-62.306,36.03Zm61.706-34.99V37.454h2.4v72.292Zm.664-71.217-.116-.057,1.077-2.151.115.058Zm-.178-.091L63.022,2.407l1.2-2.083,62.307,36.031ZM1.118,36.759l61.9-35.8,1.2,2.081-61.9,35.8ZM64.226.958l61.905,35.8-1.2,2.081-61.9-35.8ZM126.731,37.8v71.658h-2.4V37.8Zm-.6,72.7L64.226,146.3l-1.2-2.081,61.9-35.8ZM63.022,146.3l-61.9-35.8,1.2-2.081,61.9,35.8ZM.517,109.458V37.8h2.4v71.658Z" transform="translate(435.602 323.758)" fill="#fff"/>
    <path id="Path_86714" data-name="Path 86714" d="M1.2,73.208l0,1.2H0l0-1.2Zm.575,0,1.2,0,0,1.2-1.2,0Zm.138-72,0-1.2,1.2,0,0,1.2Zm-.575,0-1.2,0V0l1.2,0Zm-.136,70.8h.575l0,2.4H1.2Zm-.63,1.2.138-72,2.4,0-.138,72Zm1.338-70.8H1.341l0-2.4H1.92Zm.63-1.2-.138,72-2.4,0,.138-72Z" transform="translate(497.552 324.263)" fill="#fff"/>
    <path id="Path_86715" data-name="Path 86715" d="M1.641,37.532l-1.041.6L0,37.092l1.04-.6Zm.286.5.6,1.042-1.041.6-.6-1.042ZM63.942,2.142l1.04-.6.6,1.041-1.04.6Zm-.287-.5L63.055.6l1.04-.6.6,1.042ZM2.681,36.929l.287.5-2.081,1.2-.287-.5Zm-1.354.059L63.341,1.1l1.2,2.084L2.528,39.072ZM62.9,2.745l-.287-.5,2.081-1.2.287.5Zm1.354-.059L2.241,38.573l-1.2-2.084L63.055.6Z" transform="translate(435.258 395.551)" fill="#fff"/>
    <path id="Path_86716" data-name="Path 86716" d="M1.64,2.143l-.6,1.042L0,2.585.6,1.543ZM63.931,38.007l1.042.6-.6,1.044-1.042-.6Zm.286-.5.6-1.042,1.041.6-.6,1.042ZM1.926,1.644l-1.042-.6L1.483,0,2.524.6ZM2.237,1.1,64.53,36.964l-1.2,2.086L1.042,3.185ZM62.89,37.407l.286-.5,2.084,1.2-.286.5Zm.73,1.145L1.329,2.686,2.524.6,64.816,36.465ZM2.969,2.244l-.286.5L.6,1.543l.285-.5Z" transform="translate(497.248 395.629)" fill="#fff"/>
    <path id="Path_86717" data-name="Path 86717" d="M63.623,1.366,63.085.291,63.664,0l.56.325Zm-.115.058-.6-1.041.03-.018.032-.016ZM1.2,37.454H0v-.693l.6-.348Zm0,72.292-.539,1.075L0,110.488v-.742Zm.114.058.539-1.075.033.016.031.018Zm62.307,36.03.539,1.075-.58.291-.561-.325Zm.114-.058.6,1.041-.031.018-.032.017Zm62.307-36.03h1.2v.694l-.6.347Zm0-72.292.539-1.075.664.333v.742Zm-.115-.056-.539,1.075-.031-.017-.031-.018ZM1.718,37.8H.516v-.694l.6-.347ZM63.623,2l-.6-1.041.6-.349.6.349Zm61.9,35.8.6-1.041.6.347V37.8Zm0,71.658h1.2v.693l-.6.347Zm-61.9,35.8.6,1.04-.6.349-.6-.349Zm-61.905-35.8-.6,1.04-.6-.347v-.693ZM64.162,2.441l-.115.058L62.969.349l.115-.058Zm-.052.024L1.8,38.495.6,36.414,62.907.382ZM2.4,37.454v72.292H0V37.454Zm-.664,71.217.114.058-1.077,2.15-.114-.058Zm.178.091,62.306,36.031-1.2,2.081L.715,110.845Zm61.166,36,.114-.058,1.077,2.151-.114.056Zm.052-.023L125.442,108.7l1.2,2.082L64.34,146.817Zm61.706-34.99V37.454h2.4v72.292Zm.664-71.217-.115-.057,1.077-2.15.115.056Zm-.178-.091L63.021,2.407l1.2-2.082,62.307,36.031ZM1.117,36.759l61.9-35.8,1.2,2.081L2.32,38.84ZM64.225.958l61.905,35.8-1.2,2.081-61.9-35.8ZM126.73,37.8v71.658h-2.4V37.8Zm-.6,72.7L64.225,146.3l-1.2-2.081,61.9-35.8ZM63.021,146.3l-61.9-35.8,1.2-2.081,61.9,35.8ZM.516,109.458V37.8h2.4v71.658Z" transform="translate(249.085 215.838)" fill="#fff"/>
    <path id="Path_86718" data-name="Path 86718" d="M1.2,73.208l0,1.2-1.2,0,0-1.2Zm.575,0h1.2l0,1.2h-1.2Zm.138-72,0-1.2,1.2,0,0,1.2Zm-.575,0-1.2,0V0l1.2,0Zm-.136,70.8h.575l0,2.4H1.2Zm-.63,1.2.138-72,2.4,0-.138,72Zm1.338-70.8H1.341l0-2.4H1.92Zm.63-1.2-.138,72-2.4,0,.138-72Z" transform="translate(311.091 216.344)" fill="#fff"/>
    <path id="Path_86719" data-name="Path 86719" d="M1.641,37.531l-1.041.6L0,37.091l1.04-.6Zm.286.5.6,1.041-1.04.6-.6-1.042ZM63.941,2.143l1.041-.6.6,1.041-1.04.6Zm-.286-.5L63.053.6,64.095,0l.6,1.041ZM2.681,36.928l.287.5-2.081,1.2-.287-.5Zm-1.354.059L63.341,1.1l1.2,2.084L2.527,39.071ZM62.9,2.745l-.287-.5,2.081-1.2.287.5Zm1.354-.059L2.241,38.572l-1.2-2.084L63.053.6Z" transform="translate(248.75 287.617)" fill="#fff"/>
    <path id="Path_86720" data-name="Path 86720" d="M1.64,2.143l-.6,1.044L0,2.586.6,1.543ZM63.931,38.008l1.042.6-.6,1.044-1.042-.6Zm.286-.5.6-1.044,1.042.6-.6,1.044ZM1.926,1.644l-1.042-.6L1.483,0,2.524.6ZM2.238,1.1,64.53,36.964l-1.2,2.087L1.043,3.186ZM62.89,37.408l.286-.5,2.084,1.2-.286.5Zm.73,1.143L1.329,2.687,2.524.6,64.815,36.465ZM2.969,2.244l-.286.5L.6,1.543l.286-.5Z" transform="translate(310.745 287.695)" fill="#fff"/>
    <path id="Path_86721" data-name="Path 86721" d="M63.624,1.365,63.085.29l.58-.29.561.325Zm-.115.057-.6-1.04.031-.018L62.97.348ZM1.2,37.511H0v-.693l.6-.347Zm0,72.291-.539,1.075L0,110.545V109.8Zm.115.058.539-1.075.032.016.031.018Zm62.306,36.03.539,1.075-.58.291-.561-.325Zm.114-.058.6,1.041-.031.018-.032.017Zm62.307-36.03h1.2v.694l-.6.347Zm0-72.291.539-1.075.664.333v.742Zm-.114-.058-.539,1.075-.032-.016-.032-.018Zm-124.154.4H.574v-.694l.6-.347Zm61.9-35.8-.6-1.041.6-.348.6.348Zm61.9,35.8.6-1.041.6.347v.694Zm0,71.6h1.2v.694l-.6.346Zm-61.9,35.8.6,1.04-.6.349-.6-.349Zm-61.9-35.8-.6,1.04-.6-.346v-.694ZM64.162,2.44l-.115.058L62.97.348,63.085.29Zm-.051.023L1.8,38.552.6,36.471,62.906.383ZM2.4,37.511V109.8H0V37.511Zm-.663,71.217.115.058-1.078,2.15-.115-.058Zm.178.091L64.226,144.85l-1.2,2.081L.715,110.9Zm61.166,36,.114-.058,1.077,2.151-.114.057Zm.052-.023,62.307-36.031,1.2,2.082L64.34,146.874Zm61.706-34.99V37.511h2.4V109.8Zm.664-71.216-.114-.058,1.077-2.15.114.057Zm-.179-.092L63.021,2.406l1.2-2.081,62.307,36.088ZM1.175,36.816l61.9-35.8,1.2,2.082L2.379,38.9Zm63.108-35.8,61.905,35.8-1.2,2.082L63.079,3.1Zm62.505,36.841v71.6h-2.4v-71.6Zm-.6,72.641L64.283,146.3l-1.2-2.081,61.9-35.8ZM63.079,146.3l-61.9-35.8,1.2-2.081,61.9,35.8Zm-62.5-36.84v-71.6h2.4v71.6Z" transform="translate(62.567 107.862)" fill="#fff"/>
    <path id="Path_86722" data-name="Path 86722" d="M1.2,73.208l0,1.2-1.2,0,0-1.2Zm.575,0,1.2,0,0,1.2-1.2,0Zm.138-72,0-1.2,1.2,0,0,1.2Zm-.575,0-1.2,0,0-1.2,1.2,0Zm-.136,70.8h.575l0,2.4H1.2Zm-.63,1.2.138-72,2.4,0-.138,72Zm1.338-70.8H1.341l0-2.4H1.92Zm.63-1.2-.138,72-2.4,0L.14,1.2Z" transform="translate(124.574 108.367)" fill="#fff"/>
    <path id="Path_86723" data-name="Path 86723" d="M1.641,37.531l-1.041.6L0,37.092l1.041-.6Zm.287.5.6,1.041-1.041.6-.6-1.041ZM63.942,2.143l1.04-.6.6,1.042-1.04.6Zm-.287-.5L63.055.6l1.04-.6.6,1.042ZM2.681,36.928l.287.5-2.081,1.2-.287-.5Zm-1.354.059L63.342,1.1l1.2,2.084L2.528,39.071ZM62.9,2.745l-.287-.5,2.081-1.2.287.5Zm1.354-.059L2.241,38.573l-1.2-2.084L63.055.6Z" transform="translate(62.281 179.681)" fill="#fff"/>
    <path id="Path_86724" data-name="Path 86724" d="M1.64,2.142l-.6,1.043L0,2.586.6,1.542ZM63.939,38l1.042.6-.6,1.044-1.042-.6Zm.286-.5.6-1.044,1.042.6-.6,1.044ZM1.926,1.643l-1.042-.6L1.482,0,2.524.6ZM2.238,1.1l62.3,35.857-1.2,2.087L1.043,3.185ZM62.9,37.4l.286-.5,2.085,1.2-.286.5Zm.731,1.145L1.328,2.686,2.524.6l62.3,35.857ZM2.968,2.243l-.286.5L.6,1.542l.286-.5Z" transform="translate(124.303 179.71)" fill="#fff"/>
    <path id="Path_86725" data-name="Path 86725" d="M63.623,1.366,63.085.291,63.664,0l.562.325Zm-.116.058-.6-1.041.03-.018.033-.016ZM1.2,37.454H0V36.76l.6-.347Zm0,72.349-.539,1.075L0,110.545V109.8Zm.114.058.539-1.075.033.016.031.018Zm62.307,36.03.539,1.075-.58.291-.561-.325Zm.114-.058.6,1.041-.031.018-.031.016Zm62.307-36.03h1.2v.694l-.6.346Zm0-72.292.539-1.075.664.333v.742Zm-.115-.058-.539,1.075-.032-.016-.031-.018Zm-124.153.4H.573v-.694l.6-.347Zm61.905-35.8-.6-1.041.6-.348.6.348Zm61.9,35.8.6-1.041.6.347v.694Zm0,71.6h1.2v.693l-.6.348Zm-61.9,35.8.6,1.04-.6.349-.6-.349Zm-61.905-35.8-.6,1.04-.6-.348v-.693ZM64.162,2.44l-.115.058L62.969.348l.115-.058Zm-.052.024L1.8,38.495.6,36.413,62.907.382ZM2.4,37.454V109.8H0V37.454Zm-.664,71.274.114.058-1.077,2.15-.114-.058Zm.178.091,62.306,36.03-1.2,2.082L.715,110.9Zm61.166,36,.114-.058,1.078,2.15-.115.058Zm.052-.023,62.306-36.031,1.2,2.081L64.34,146.874Zm61.706-34.99V37.511h2.4V109.8Zm.664-71.217-.115-.058,1.077-2.15.115.057Zm-.179-.092L63.021,2.406l1.2-2.081,62.307,36.088ZM1.175,36.816l61.9-35.8,1.2,2.082L2.378,38.9Zm63.108-35.8,61.9,35.8-1.2,2.082L63.079,3.1Zm62.505,36.841v71.6h-2.4v-71.6Zm-.6,72.641-61.9,35.8-1.2-2.081,61.9-35.8ZM63.079,146.3l-61.9-35.8,1.2-2.081,61.9,35.8ZM.573,109.458v-71.6h2.4v71.6Z" transform="translate(311.106 107.919)" fill="#fff"/>
    <path id="Path_86726" data-name="Path 86726" d="M1.2,73.208l0,1.2-1.2,0,0-1.2Zm.575,0,1.2,0,0,1.2-1.2,0Zm.138-72,0-1.2,1.2,0,0,1.2Zm-.575,0-1.2,0V0l1.2,0Zm-.136,70.8h.575l0,2.4H1.2Zm-.63,1.2.138-72,2.4,0-.138,72Zm1.338-70.8H1.341l0-2.4H1.92Zm.63-1.2-.138,72-2.4,0,.138-72Z" transform="translate(373.11 108.482)" fill="#fff"/>
    <path id="Path_86727" data-name="Path 86727" d="M1.64,37.53l-1.04.6L0,37.091l1.04-.6Zm.287.5.6,1.041-1.04.6-.6-1.041ZM63.941,2.142l1.041-.6.6,1.042-1.041.6Zm-.287-.5L63.053.6,64.095,0l.6,1.042ZM2.681,36.928l.287.5-2.081,1.2-.287-.5Zm-1.354.059L63.341,1.1l1.2,2.084L2.527,39.07ZM62.9,2.745l-.287-.5,2.081-1.2.287.5Zm1.354-.059L2.24,38.573l-1.2-2.084L63.053.6Z" transform="translate(310.782 179.788)" fill="#fff"/>
    <path id="Path_86728" data-name="Path 86728" d="M1.64,2.142l-.6,1.043L0,2.585.6,1.542ZM63.931,38.008l1.042.6-.6,1.042-1.041-.6Zm.286-.5.6-1.042,1.042.6-.6,1.042ZM1.925,1.643l-1.041-.6L1.481,0,2.524.6ZM2.238,1.1,64.529,36.964l-1.2,2.086L1.041,3.185ZM62.889,37.408l.286-.5,2.085,1.2-.286.5Zm.731,1.143L1.327,2.686,2.524.6,64.815,36.465ZM2.967,2.243l-.286.5L.6,1.542l.286-.5Z" transform="translate(372.787 179.784)" fill="#fff"/>
    <path id="Path_86729" data-name="Path 86729" d="M63.623,1.365,63.085.29,63.664,0l.561.325Zm-.114.057-.6-1.041.031-.018L62.97.348ZM1.2,37.454H0V36.76l.6-.347Zm0,72.349-.539,1.075L0,110.545V109.8Zm.114.058.54-1.075.031.016.031.018Zm62.307,36.031.539,1.075-.58.29-.561-.324Zm.115-.057.6,1.041-.031.018-.031.016ZM126.044,109.8h1.2v.694l-.6.347Zm0-72.292.539-1.075.664.333v.742Zm-.114-.058-.539,1.075-.032-.016-.031-.018Zm-124.211.4H.517v-.693l.6-.347Zm61.9-35.8-.6-1.041.6-.348.6.348Zm61.9,35.8.6-1.041.6.347v.693Zm0,71.6h1.2v.694l-.6.347Zm-61.9,35.8.6,1.041-.6.348-.6-.348Zm-61.9-35.8-.6,1.041-.6-.347v-.694ZM64.162,2.44l-.115.058L62.97.348,63.085.29Zm-.052.023L1.8,38.494.6,36.413,62.907.382ZM2.4,37.454V109.8H0V37.454Zm-.664,71.274.115.057-1.078,2.15-.114-.058Zm.178.091L64.226,144.85l-1.2,2.082L.715,110.9Zm61.166,36,.115-.057,1.077,2.15-.115.058Zm.052-.023,62.307-36.031,1.2,2.082L64.34,146.874Zm61.706-34.99V37.511h2.4V109.8Zm.664-71.217-.114-.058,1.077-2.15.114.058Zm-.178-.092L63.021,2.406l1.2-2.081,62.307,36.088ZM1.117,36.816l61.9-35.8,1.2,2.082L2.32,38.9Zm63.109-35.8,61.9,35.8-1.2,2.082L63.021,3.1Zm62.5,36.841v71.6h-2.4v-71.6Zm-.6,72.642-61.9,35.8-1.2-2.082,61.905-35.8ZM63.021,146.3l-61.9-35.8,1.2-2.082,61.905,35.8ZM.517,109.457v-71.6h2.4v71.6Z" transform="translate(248.97 0.058)" fill="#fff"/>
    <path id="Path_86730" data-name="Path 86730" d="M1.641,37.531l-1.041.6L0,37.091l1.041-.6Zm.287.5.6,1.042-1.041.6-.6-1.042ZM63.942,2.142l1.04-.6.6,1.042-1.04.6Zm-.287-.5L63.055.6l1.04-.6.6,1.042ZM2.681,36.929l.287.5-2.081,1.2-.287-.5Zm-1.354.059L63.341,1.1l1.2,2.084L2.528,39.071ZM62.9,2.745l-.287-.5,2.081-1.2.287.5Zm1.354-.059L2.241,38.573l-1.2-2.084L63.055.6Z" transform="translate(248.587 71.899)" fill="#fff"/>
    <path id="Path_86731" data-name="Path 86731" d="M1.64,2.142l-.6,1.043L0,2.585.6,1.542ZM63.932,38.007l1.041.6-.6,1.043-1.042-.6Zm.285-.5.6-1.043,1.041.6-.6,1.043ZM1.926,1.643l-1.042-.6L1.482,0,2.524.6ZM2.238,1.1,64.53,36.964l-1.2,2.086L1.042,3.185ZM62.89,37.407l.286-.5,2.084,1.2-.286.5Zm.73,1.144L1.329,2.686,2.524.6,64.816,36.465ZM2.969,2.243l-.286.5L.6,1.542l.285-.5Z" transform="translate(310.637 71.906)" fill="#fff"/>
    <path id="Path_86732" data-name="Path 86732" d="M63.623,1.365,63.085.291,63.664,0l.562.325Zm-.114.058-.6-1.041.031-.018.031-.016ZM1.2,37.454H0V36.76l.6-.347Zm0,72.292L.664,110.82,0,110.487v-.742Zm.114.058.54-1.075.031.016.031.018Zm62.307,36.031.539,1.075-.58.29-.56-.325Zm.115-.058.6,1.041-.031.018-.031.016Zm62.306-36.031h1.2v.694l-.6.347Zm0-72.292.539-1.075.664.333v.742Zm-.114-.057-.539,1.075-.032-.016-.031-.018ZM63.623,2l-.6-1.041.6-.348.6.348Zm61.9,35.8.6-1.041.6.347V37.8Zm0,71.658h1.2v.694l-.6.347Zm-61.9,35.8.6,1.041-.6.348-.6-.348Zm-61.9-35.8-.6,1.041-.6-.347v-.694ZM64.162,2.44l-.114.058L62.969.348l.115-.058Zm-.052.024L1.8,38.494.6,36.413,62.907.382ZM2.4,37.454v72.292H0V37.454ZM1.741,108.67l.115.058-1.079,2.15-.114-.057Zm.178.092,62.307,36.031-1.2,2.082L.715,110.844Zm61.166,36,.115-.058,1.077,2.15-.115.057Zm.052-.023L125.443,108.7l1.2,2.082L64.34,146.817Zm61.706-34.99V37.454h2.4v72.292Zm.664-71.217-.114-.058,1.077-2.15.114.057Zm-.178-.092L63.022,2.406l1.2-2.082,62.306,36.031ZM1.117,36.758,63.022.958l1.2,2.082L2.32,38.84ZM64.226.958l61.9,35.8-1.2,2.082-61.9-35.8ZM126.73,37.8v71.658h-2.4V37.8Zm-.6,72.7-61.9,35.8-1.2-2.082,61.9-35.8ZM63.022,146.3,1.117,110.5l1.2-2.082,61.905,35.8ZM.517,109.457V37.8h2.4v71.658Z" transform="translate(373.41 0)" fill="#fff"/>
    <path id="Path_86733" data-name="Path 86733" d="M1.64,37.531l-1.04.6L0,37.091l1.04-.6Zm.287.5.6,1.042-1.04.6-.6-1.042ZM63.941,2.142l1.041-.6.6,1.042-1.041.6Zm-.287-.5L63.054.6,64.095,0l.6,1.042ZM2.681,36.929l.287.5-2.081,1.2-.287-.5Zm-1.354.059L63.341,1.1l1.2,2.084L2.527,39.071ZM62.9,2.745l-.287-.5,2.081-1.2.287.5Zm1.354-.059L2.24,38.573l-1.2-2.084L63.054.6Z" transform="translate(373.101 71.822)" fill="#fff"/>
    <path id="Path_86734" data-name="Path 86734" d="M1.64,2.142l-.6,1.043L0,2.586.6,1.542ZM63.938,38l1.043.6-.6,1.043-1.042-.6Zm.286-.5.6-1.043,1.042.6-.6,1.043ZM1.926,1.643l-1.042-.6L1.481,0,2.524.6ZM2.237,1.1l62.3,35.858-1.2,2.087L1.042,3.185ZM62.9,37.4l.285-.5,2.085,1.2-.286.5Zm.73,1.144L1.329,2.686,2.524.6l62.3,35.858ZM2.967,2.243l-.285.5L.6,1.542l.286-.5Z" transform="translate(435.092 71.829)" fill="#fff"/>
    <path id="Path_86735" data-name="Path 86735" d="M63.624,1.365,63.085.29l.58-.29.561.325Zm-.115.057-.6-1.04.031-.018L62.97.348ZM1.2,37.511H0v-.693l.6-.347Zm0,72.291-.539,1.075L0,110.545V109.8Zm.115.058.539-1.075.032.016.031.018Zm62.306,36.03.539,1.075-.58.291-.561-.325Zm.114-.058.6,1.041-.031.018-.032.017Zm62.307-36.03h1.2v.694l-.6.347Zm0-72.291.539-1.075.664.333v.742Zm-.114-.058-.539,1.075-.032-.016-.032-.018Zm-124.154.4H.574v-.694l.6-.347Zm61.9-35.8-.6-1.041.6-.348.6.348Zm61.9,35.8.6-1.041.6.347v.694Zm0,71.6h1.2v.694l-.6.346Zm-61.9,35.8.6,1.04-.6.349-.6-.349Zm-61.9-35.8-.6,1.04-.6-.346v-.694ZM64.162,2.44l-.115.058L62.97.348,63.085.29Zm-.051.023L1.8,38.552.6,36.471,62.906.383ZM2.4,37.511V109.8H0V37.511Zm-.663,71.217.115.058-1.078,2.15-.115-.058Zm.178.091L64.226,144.85l-1.2,2.081L.715,110.9Zm61.166,36,.114-.058,1.077,2.151-.114.057Zm.052-.023,62.307-36.031,1.2,2.082L64.34,146.874Zm61.706-34.99V37.511h2.4V109.8Zm.664-71.216-.114-.058,1.077-2.15.114.057Zm-.179-.092L63.021,2.406l1.2-2.081,62.307,36.088ZM1.175,36.816l61.9-35.8,1.2,2.082L2.379,38.9Zm63.108-35.8,61.905,35.8-1.2,2.082L63.079,3.1Zm62.505,36.841v71.6h-2.4v-71.6Zm-.6,72.641L64.283,146.3l-1.2-2.081,61.9-35.8ZM63.079,146.3l-61.9-35.8,1.2-2.081,61.9,35.8Zm-62.5-36.84v-71.6h2.4v71.6Z" transform="translate(62.568 107.862)" fill="#fff"/>
  </g>
</svg>
