<svg id="chat" xmlns="http://www.w3.org/2000/svg" width="18.59" height="18.59" viewBox="0 0 18.59 18.59">
  <g id="Group_41416" data-name="Group 41416" transform="translate(3.486 3.486)">
    <g id="Group_41415" data-name="Group 41415">
      <path id="Path_86545" data-name="Path 86545" d="M7.557,0H.581a.582.582,0,0,0,0,1.164H7.557A.582.582,0,0,0,7.557,0Z" fill="#24343f"/>
    </g>
  </g>
  <g id="Group_41418" data-name="Group 41418" transform="translate(3.486 5.81)">
    <g id="Group_41417" data-name="Group 41417">
      <path id="Path_86546" data-name="Path 86546" d="M5.229,0H.581a.577.577,0,1,0,0,1.154H5.229A.577.577,0,1,0,5.229,0Z" fill="#24343f"/>
    </g>
  </g>
  <g id="Group_41420" data-name="Group 41420">
    <g id="Group_41419" data-name="Group 41419">
      <path id="Path_86547" data-name="Path 86547" d="M.581,14.526a.589.589,0,0,1-.247-.055A.583.583,0,0,1,0,13.945V2.324A2.326,2.326,0,0,1,2.324,0H12.783a2.326,2.326,0,0,1,2.324,2.324V9.3a2.327,2.327,0,0,1-2.324,2.325H4.278L.953,14.391A.583.583,0,0,1,.581,14.526ZM2.324,1.162A1.163,1.163,0,0,0,1.162,2.324V12.7L3.7,10.593a.58.58,0,0,1,.372-.135h8.716A1.163,1.163,0,0,0,13.945,9.3V2.324a1.163,1.163,0,0,0-1.162-1.162Z" fill="#24343f"/>
    </g>
  </g>
  <g id="Group_41422" data-name="Group 41422" transform="translate(4.648 4.648)">
    <g id="Group_41421" data-name="Group 41421">
      <path id="Path_86548" data-name="Path 86548" d="M11.618,0a.581.581,0,1,0,0,1.162A1.163,1.163,0,0,1,12.78,2.325v9.826l-1.961-1.568a.585.585,0,0,0-.362-.127H2.325A1.163,1.163,0,0,1,1.164,9.3V8.714A.581.581,0,1,0,0,8.714V9.3a2.326,2.326,0,0,0,2.323,2.323h7.927L13,13.815a.581.581,0,0,0,.944-.454V2.325A2.326,2.326,0,0,0,11.618,0Z" fill="#24343f"/>
    </g>
  </g>
</svg>
