<svg xmlns="http://www.w3.org/2000/svg" width="25.862" height="21.644" viewBox="0 0 25.862 21.644">
  <g id="DOWNLOAD" transform="translate(0.003 0.003)">
    <g id="Download-2" data-name="Download">
      <path id="Path_6" data-name="Path 6" d="M25.05,0a.768.768,0,0,0-.808.72V5.758H1.613V.72A.768.768,0,0,0,.805,0,.768.768,0,0,0,0,.72V6.478a.768.768,0,0,0,.808.72H25.05a.768.768,0,0,0,.808-.72V.72A.768.768,0,0,0,25.05,0Z" transform="translate(0 14.443)" fill="#fff"/>
      <path id="Path_7" data-name="Path 7" d="M5.4,13.353a.792.792,0,0,0,1.059,0l5.188-4.828a.668.668,0,0,0,0-.989.785.785,0,0,0-1.058,0l-3.91,3.639V.7a.75.75,0,0,0-1.5,0V11.174L1.276,7.535a.785.785,0,0,0-1.058,0,.667.667,0,0,0,0,.989Z" transform="translate(6.981)" fill="#fff"/>
    </g>
  </g>
</svg>
