<svg xmlns="http://www.w3.org/2000/svg" width="23.389" height="22.239" viewBox="0 0 23.389 22.239">
  <g id="Path_86866" data-name="Path 86866" transform="translate(0.003 -0.001)" fill="#ffc20e" stroke-miterlimit="10">
    <path d="M 18.25484848022461 21.3254337310791 L 11.92395973205566 17.99797058105469 L 11.69132995605469 17.87569999694824 L 11.45870971679688 17.99797058105469 L 5.12817907333374 21.32542991638184 L 6.337029933929443 14.27785968780518 L 6.381479740142822 14.01873970031738 L 6.193199634552002 13.83524990081787 L 1.071722507476807 8.844053268432617 L 8.149629592895508 7.815539836883545 L 8.409729957580566 7.777750015258789 L 8.526080131530762 7.542069911956787 L 11.69137573242188 1.13001561164856 L 14.85700988769531 7.542079925537109 L 14.97336006164551 7.777750015258789 L 15.23344993591309 7.815539836883545 L 22.31131362915039 8.844047546386719 L 17.18948936462402 13.83523941040039 L 17.00119018554688 14.01873970031738 L 17.04565048217773 14.27787971496582 L 18.25484848022461 21.3254337310791 Z" stroke="none"/>
    <path d="M 11.69139194488525 2.259521484375 L 8.741740226745605 8.234749794006348 L 2.146331787109375 9.193157196044922 L 6.918720245361328 13.84414958953857 L 5.792245864868164 20.41152763366699 L 11.69132995605469 17.31084060668945 L 17.59073066711426 20.41152763366699 L 16.46392059326172 13.84414958953857 L 21.23666572570801 9.193144798278809 L 14.64136981964111 8.234759330749512 L 11.69139194488525 2.259521484375 M 11.69134998321533 0.000499725341796875 L 15.30534934997559 7.32073974609375 L 23.38595962524414 8.494959831237793 L 17.5384407043457 14.19332981109619 L 18.91896057128906 22.23933982849121 L 11.69133949279785 18.44055938720703 L 4.464118957519531 22.23933982849121 L 5.844219207763672 14.19332981109619 L -0.002880096435546875 8.494959831237793 L 8.077730178833008 7.32073974609375 L 11.69134998321533 0.000499725341796875 Z" stroke="none" fill="#24343f"/>
  </g>
</svg>
