<svg xmlns="http://www.w3.org/2000/svg" width="16.299" height="16.299" viewBox="0 0 16.299 16.299"><path d="M15.134,16.3H1.161A1.17,1.17,0,0,1,0,15.124V1.175A1.17,1.17,0,0,1,1.161,0H15.134A1.171,1.171,0,0,1,16.3,1.175V15.124A1.171,1.171,0,0,1,15.134,16.3ZM10.31,8.124c1.255,0,1.255,1.192,1.255,2.063v3.784h2.416V9.707c0-1.925-.351-3.707-2.9-3.707A2.557,2.557,0,0,0,8.793,7.255H8.761V6.192H6.443v7.779H8.859V10.121C8.859,9.134,9.031,8.124,10.31,8.124ZM2.51,6.192v7.779H4.926l0-7.779ZM3.718,2.328a1.4,1.4,0,1,0,1.4,1.4A1.4,1.4,0,0,0,3.718,2.328Z" transform="translate(0 0)" fill="#ab9969" style="&#10;    fill: #0054A6;&#10;"/></svg>