<svg xmlns="http://www.w3.org/2000/svg" width="87" height="87" viewBox="0 0 87 87">
  <g id="Logo" transform="translate(-193.028 -167.72)">
    <g id="Group_41645" data-name="Group 41645">
      <path id="Path_60115" data-name="Path 60115" d="M205.189,216.037H194.537a1.508,1.508,0,1,0,0,3.016H202.1l-8.823,15.71a.8.8,0,0,0-.055.115,2.022,2.022,0,0,0-.193.759v.152a1.178,1.178,0,0,0,1.249,1.187h10.545a1.554,1.554,0,0,0,0-3.108h-7.5l8.831-15.661a1.848,1.848,0,0,0,.227-.834v-.151a1.186,1.186,0,0,0-1.185-1.187" transform="translate(0 12.943)" fill="#fff"/>
      <path id="Path_60116" data-name="Path 60116" d="M214.206,227.966v5.3h-3.157a4.444,4.444,0,0,1-2.386-.5c-.364-.241-.558-.833-.558-1.712v-.612c0-.894.2-1.5.568-1.738a7.226,7.226,0,0,1,3.289-.655c.725-.041,1.478-.07,2.244-.082m1.458-8.142a7.137,7.137,0,0,0-4.308-1.184,17.265,17.265,0,0,0-2.7.2,1.5,1.5,0,0,0-.7,2.679,1.489,1.489,0,0,0,1.141.292,14.9,14.9,0,0,1,2.2-.157,3.8,3.8,0,0,1,2.308.557,2.619,2.619,0,0,1,.606,2.048V225l-2.387.067a11.346,11.346,0,0,0-5.032,1.16c-1.248.747-1.88,2.144-1.88,4.155v.673a6.358,6.358,0,0,0,.484,2.622,3.677,3.677,0,0,0,1.6,1.748,6.3,6.3,0,0,0,1.9.686,12.081,12.081,0,0,0,2.166.169h5.457l.055-.022a1.3,1.3,0,0,0,.846-1.235V224.262c0-2.089-.587-3.583-1.742-4.438" transform="translate(3.182 13.64)" fill="#fff"/>
      <path id="Path_60117" data-name="Path 60117" d="M219.8,221.061a1.618,1.618,0,0,0-1.617,1.615v12.529c0,2.149-.8,2.135-1.286,2.147a1.567,1.567,0,0,0-1.173.421,1.5,1.5,0,0,0-.479,1.105,1.529,1.529,0,0,0,1.3,1.513,2.807,2.807,0,0,0,.5.041c1.632,0,4.369-.683,4.369-5.257v-12.5a1.618,1.618,0,0,0-1.614-1.615" transform="translate(5.952 14.289)" fill="#fff"/>
      <path id="Path_60118" data-name="Path 60118" d="M224.768,221.061a1.62,1.62,0,0,0-1.618,1.615v11.339a1.616,1.616,0,0,0,3.232,0V222.676a1.618,1.618,0,0,0-1.614-1.615" transform="translate(8.069 14.289)" fill="#fff"/>
      <path id="Path_60119" data-name="Path 60119" d="M233.136,234.237l-.094.014a2.882,2.882,0,0,1-.618.025,2.453,2.453,0,0,1-.351-.043,1.034,1.034,0,0,1-.37-.181.721.721,0,0,1-.181-.356,4.8,4.8,0,0,1-.142-1.31V217.652a1.615,1.615,0,0,0-3.231,0v14.825a7.328,7.328,0,0,0,.344,2.413,3.218,3.218,0,0,0,1.221,1.7,4.282,4.282,0,0,0,1.367.626,4.435,4.435,0,0,0,.544.1,4.849,4.849,0,0,0,.631.039,6.956,6.956,0,0,0,.819-.053l.461-.058a1.516,1.516,0,0,0,.805-2.643,1.5,1.5,0,0,0-1.206-.36" transform="translate(9.408 12.943)" fill="#fff"/>
      <path id="Path_60120" data-name="Path 60120" d="M233.245,195.962a1.618,1.618,0,0,0-1.615,1.615v11.166a4.811,4.811,0,0,1-.142,1.311.763.763,0,0,1-.181.359,1.061,1.061,0,0,1-.369.179,2.505,2.505,0,0,1-.352.043,3.055,3.055,0,0,1-.619-.025l-.091-.013a1.514,1.514,0,1,0-.4,3l.46.058a6.718,6.718,0,0,0,.819.054,4.867,4.867,0,0,0,.633-.039,4.673,4.673,0,0,0,.543-.1,4.315,4.315,0,0,0,1.368-.626,3.244,3.244,0,0,0,1.221-1.7,7.363,7.363,0,0,0,.342-2.413V197.577a1.618,1.618,0,0,0-1.615-1.615" transform="translate(9.408 7.565)" fill="#fff"/>
      <path id="Path_60121" data-name="Path 60121" d="M226.1,189.687a1.619,1.619,0,0,0-1.615,1.615v15.384a1.615,1.615,0,0,0,3.231,0V191.3a1.619,1.619,0,0,0-1.615-1.615" transform="translate(8.427 5.884)" fill="#fff"/>
      <path id="Path_60122" data-name="Path 60122" d="M223.316,196.259H214.1a1.615,1.615,0,1,0,0,3.231h9.125a2.787,2.787,0,0,1,2.078.584,4.648,4.648,0,0,1,0,4.416,2.8,2.8,0,0,1-2.078.581H205.07V191.3a1.616,1.616,0,1,0-3.232,0v18.375a2.8,2.8,0,0,1-.582,2.081,4.662,4.662,0,0,1-4.416,0,2.8,2.8,0,0,1-.582-2.079v-6.507a1.615,1.615,0,1,0-3.23,0v6.6c0,2.06.558,3.541,1.657,4.406a6.672,6.672,0,0,0,4.212,1.217h.306a6.671,6.671,0,0,0,4.211-1.217c1.1-.865,1.657-2.346,1.657-4.406V208.3h18.246c2.06,0,3.542-.558,4.406-1.658a6.664,6.664,0,0,0,1.217-4.209v-.3a6.672,6.672,0,0,0-1.217-4.212c-.865-1.1-2.347-1.658-4.406-1.658" transform="translate(0 5.884)" fill="#fff"/>
      <path id="Path_60123" data-name="Path 60123" d="M218.557,208.574a1.944,1.944,0,1,0-1.945,1.945,1.947,1.947,0,0,0,1.945-1.945" transform="translate(5.797 10.423)" fill="#fff"/>
      <path id="Path_60124" data-name="Path 60124" d="M224.837,216.037a1.946,1.946,0,1,0,1.945,1.946,1.948,1.948,0,0,0-1.945-1.946" transform="translate(7.999 12.943)" fill="#fff"/>
      <path id="Path_60125" data-name="Path 60125" d="M219.259,216.037a1.946,1.946,0,1,0,1.945,1.946,1.948,1.948,0,0,0-1.945-1.946" transform="translate(6.506 12.943)" fill="#fff"/>
      <path id="Path_60126" data-name="Path 60126" d="M232.634,194.675a1.946,1.946,0,1,0-1.945-1.946,1.949,1.949,0,0,0,1.945,1.946" transform="translate(10.088 6.178)" fill="#fff"/>
    </g>
    <path id="Path_60127" data-name="Path 60127" d="M250.057,214.655V189.719l17.317-7.772v24.247ZM263.989,178.7l-16.106,7.229L231.775,178.7l16.108-6.466Zm7.728-.134a.112.112,0,0,0,0-.02c0-.049-.009-.1-.014-.143s-.006-.108-.015-.162-.023-.1-.035-.155-.022-.105-.038-.156a1.407,1.407,0,0,0-.057-.145c-.02-.051-.038-.1-.061-.151s-.052-.09-.077-.133a1.547,1.547,0,0,0-.081-.138,1.4,1.4,0,0,0-.1-.126,1.49,1.49,0,0,0-.1-.122,1.561,1.561,0,0,0-.123-.118c-.035-.032-.068-.068-.108-.1s-.107-.075-.162-.113c-.034-.023-.065-.048-.1-.068a2.1,2.1,0,0,0-.293-.145l-21.662-8.7a2.186,2.186,0,0,0-1.622,0l-21.663,8.7a2.163,2.163,0,0,0-.293.145c-.042.024-.08.056-.12.084s-.1.062-.142.1-.079.074-.118.11-.077.068-.113.107-.07.085-.1.128-.065.077-.094.119-.054.094-.082.142-.053.085-.076.131-.041.1-.062.152-.041.094-.056.143a1.321,1.321,0,0,0-.038.156c-.013.053-.028.1-.035.155s-.011.11-.016.162-.013.094-.013.143v11.569a2.173,2.173,0,1,0,4.346,0v-8.169l17.318,7.772v24.936l-3.554-1.737a2.173,2.173,0,0,0-1.908,3.905l6.683,3.263c.006.005.016.005.025.01.024.011.046.024.07.034s.039.014.058.022c.091.034.185.065.28.09.019,0,.038.01.058.015s.048.008.072.011a2.02,2.02,0,0,0,.382.038h.013a2.023,2.023,0,0,0,.383-.038c.023,0,.048-.006.072-.011s.038-.011.058-.015c.1-.025.188-.056.279-.09.02-.008.039-.013.06-.022s.046-.023.07-.034c.009-.005.018-.005.027-.01L270.5,209.5a2.175,2.175,0,0,0,1.22-1.952V178.59l0-.023" transform="translate(8.309 0)" fill="#ffc20e"/>
  </g>
</svg>
