<?xml version="1.0" encoding="utf-8"?>
<!-- Generator: Adobe Illustrator 26.0.1, SVG Export Plug-In . SVG Version: 6.00 Build 0)  -->
<svg version="1.1" id="Layer_1" xmlns="http://www.w3.org/2000/svg" xmlns:xlink="http://www.w3.org/1999/xlink" x="0px" y="0px"
	 viewBox="0 0 22.5 25.8" style="enable-background:new 0 0 22.5 25.8;" xml:space="preserve">
<style type="text/css">
	.st0{fill:#FFFFFF;}
	.st1{fill:none;stroke:#FFC20E;stroke-width:2;}
</style>
<g id="Group_41647" transform="translate(21.469 24.631) rotate(180)">
	<g id="XMLID_00000174593662243317190840000015128081245945712527_">
		<g>
			<polygon class="st0" points="10.2,0.3 10.1,0.1 10.2,0 20.5,5.9 20.5,17.6 20.4,17.7 20.3,17.5 10.2,11.8 10.2,11.7 10.2,11.7 
							"/>
			<polygon class="st0" points="10.2,11.8 0.1,17.5 0,17.5 0,5.9 10.1,0.1 10.2,0.3 10.2,11.7 10.2,11.7 			"/>
			<polygon class="st0" points="10.2,23.5 0,17.6 0,17.5 0.1,17.5 10.2,11.8 20.3,17.5 20.4,17.7 			"/>
		</g>
		<g>
			<polygon class="st1" points="10.1,0.1 10.2,0 20.5,5.9 20.5,17.6 20.4,17.7 10.2,23.5 0,17.6 0,17.5 0,5.9 			"/>
			<line class="st1" x1="10.2" y1="11.7" x2="10.2" y2="0.3"/>
			<polyline class="st1" points="0.1,17.5 10.2,11.8 10.2,11.7 			"/>
			<polyline class="st1" points="20.3,17.5 10.2,11.8 10.2,11.7 			"/>
		</g>
	</g>
</g>
</svg>
