<svg xmlns="http://www.w3.org/2000/svg" xmlns:xlink="http://www.w3.org/1999/xlink" width="359" height="337" viewBox="0 0 359 337">
  <defs>
    <clipPath id="clip-path">
      <rect id="Rectangle_3037" data-name="Rectangle 3037" width="359" height="337" transform="translate(802.494 4162.962)" fill="#0054a6"/>
    </clipPath>
  </defs>
  <g id="Mask_Group_190" data-name="Mask Group 190" transform="translate(-802.494 -4162.962)" opacity="0.051" clip-path="url(#clip-path)">
    <g id="Frame" transform="translate(1066.485 3913.649) rotate(60)">
      <path id="Path_86756" data-name="Path 86756" d="M46.941,107.6l.4.793-.427.215-.414-.239Zm.085-.043.444.768-.023.013-.023.012ZM93,80.97h.887v.512l-.443.255Zm0-53.337.4-.793.49.246v.547Zm-.084-.043-.4.793-.024-.012-.023-.013ZM46.941,1.008l-.4-.793L46.971,0l.414.24Zm-.084.043L46.412.282l.023-.013.024-.011ZM.887,27.633H0v-.512l.443-.256Zm0,53.337-.4.793L0,81.517V80.97Zm.085.043.4-.793.023.012.023.013Zm91.6-.3h.887v.512l-.444.256ZM46.9,107.128l.444.768-.444.257-.444-.257ZM1.226,80.714l-.444.768-.444-.256v-.512Zm0-52.869H.339v-.511l.444-.256ZM46.9,1.432,46.455.664,46.9.407l.444.257ZM92.572,27.845l.443-.767.444.256v.511ZM46.544,106.8l.085-.043.795,1.586-.085.043Zm.038-.017L92.551,80.2l.888,1.536L47.47,108.321ZM92.108,80.97V27.633h1.774V80.97Zm.49-52.544-.084-.043.795-1.586.084.043Zm-.131-.067L46.5,1.775,47.385.24,93.354,26.823ZM47.338,1.8l-.084.043L46.459.257l.084-.043Zm-.038.017L1.332,28.4.443,26.865,46.412.282ZM1.774,27.633V80.97H0V27.633Zm-.49,52.544.085.043-.8,1.586L.49,81.763Zm.131.067,45.97,26.583-.888,1.537L.528,81.78Zm91.6,1.238L47.343,107.9l-.888-1.536L92.127,79.947ZM46.455,107.9.782,81.483l.888-1.536L47.343,106.36ZM.339,80.714V27.845H2.113V80.714ZM.782,27.078,46.455.664,47.343,2.2,1.67,28.613ZM47.343.664,93.015,27.078l-.888,1.536L46.455,2.2ZM93.459,27.845V80.714H91.685V27.845Z" transform="translate(92.069 0)" fill="#0054a6"/>
      <path id="Path_86757" data-name="Path 86757" d="M47.285,1.581l.768-.444.443.769-.768.444Zm-.211-.368L46.631.444,47.4,0l.443.769ZM1.21,27.754.443,28.2,0,27.429l.767-.444Zm.212.368.443.768-.767.444-.444-.769Zm45.1-26.1-.212-.368L47.841.769l.212.367Zm1-.043L1.653,28.523.767,26.986,46.631.444ZM1.978,27.309l.211.368-1.535.888L.443,28.2Zm-1,.044L46.843.812l.885,1.537L1.865,28.89Z" transform="translate(91.84 52.906)" fill="#0054a6"/>
      <path id="Path_86758" data-name="Path 86758" d="M47.275,27.776l.444-.769.767.445-.444.768ZM1.423,1.213.655.769,1.1,0l.767.445Zm-.212.368L.767,2.35,0,1.905l.443-.769ZM47.063,28.143l.767.444-.443.769-.767-.445Zm-.231.4L.979,1.982,1.865.445,47.719,27.007ZM2.19,1.658l-.212.368L.443,1.136.655.769ZM1.653.813,47.507,27.375l-.886,1.536L.767,2.35ZM46.3,27.7l.212-.368,1.535.89-.212.367Z" transform="translate(137.692 52.851)" fill="#0054a6"/>
      <path id="Path_86759" data-name="Path 86759" d="M1.312.887V0H2.2V.887Zm-.425,0H0V0H.887Zm0,53.081v.887H0v-.887Zm.425,0H2.2v.887H1.312Zm0-52.194H.887V0h.425ZM1.774.887V53.968H0V.887ZM.887,53.081h.425v1.774H.887Zm-.462.887V.887H2.2V53.968Z" transform="translate(137.911 0.333)" fill="#0054a6"/>
      <path id="Path_86760" data-name="Path 86760" d="M46.941,107.595l.4.793-.428.214-.414-.239Zm.085-.042.444.768-.023.013-.024.012ZM93,80.969h.887v.512l-.443.256Zm0-53.336.4-.793.49.245v.548Zm-.085-.043-.4.793-.024-.012-.023-.012ZM46.941,1.007l-.4-.793L46.971,0l.414.24Zm-.084.043L46.412.282l.023-.014.024-.011ZM.887,27.633H0v-.512l.444-.256Zm0,53.336-.4.793L0,81.517v-.548Zm.085.043.4-.793.023.012.023.013Zm45.969,26.116.444.768-.444.257L46.5,107.9ZM1.268,80.714l-.444.768-.443-.256v-.512Zm0-52.869H.381v-.512l.443-.256ZM46.941,1.432,46.5.664l.444-.256.444.256ZM92.614,27.845l.444-.768.444.256v.512ZM46.543,106.8l.085-.042.795,1.586-.084.042Zm.038-.017L92.551,80.2l.888,1.536L47.47,108.32ZM92.109,80.969V27.633h1.774V80.969Zm.49-52.543-.085-.043.795-1.586.085.043Zm-.132-.067L46.5,1.775,47.385.24l45.97,26.583ZM47.338,1.8l-.084.043L46.459.256l.085-.043Zm-.038.018L1.331,28.4.444,26.865,46.412.282ZM1.774,27.633V80.969H0V27.633Zm-.49,52.543.085.043L.575,81.8.49,81.762Zm.131.067,45.97,26.584-.888,1.536L.528,81.78Zm91.642,1.239L47.385,107.9,46.5,106.36,92.17,79.946ZM46.5,107.9.824,81.483l.889-1.536L47.385,106.36ZM.381,80.714V27.845H2.155V80.714ZM.824,27.077,46.5.664,47.385,2.2,1.713,28.613ZM47.385.664,93.058,27.077l-.888,1.536L46.5,2.2ZM93.5,27.845V80.714H91.727V27.845Z" transform="translate(0.216 106.163)" fill="#0054a6"/>
      <path id="Path_86761" data-name="Path 86761" d="M47.286,1.581l.768-.444.443.769-.768.444Zm-.212-.367L46.632.444,47.4,0l.443.769ZM1.211,27.754.444,28.2,0,27.43l.768-.444Zm.212.368.443.768-.767.444-.444-.768Zm45.1-26.1-.212-.367L47.842.769l.212.367Zm1-.043L1.653,28.523.768,26.985,46.632.444ZM1.979,27.309l.211.368-1.535.889L.444,28.2Zm-1,.043L46.844.813l.885,1.537L1.866,28.89Z" transform="translate(0 159.051)" fill="#0054a6"/>
      <path id="Path_86762" data-name="Path 86762" d="M47.276,27.775l.443-.768.767.444-.444.768ZM1.423,1.213.656.768,1.1,0l.768.444Zm-.212.368-.444.768L0,1.9l.444-.768ZM47.064,28.142l.767.445-.443.768-.767-.444Zm-.231.4L.979,1.982,1.866.444,47.719,27.007ZM2.19,1.658l-.212.367L.444,1.136.656.768ZM1.654.813,47.507,27.374l-.886,1.537L.767,2.349ZM46.3,27.7l.212-.367,1.535.889-.212.368Z" transform="translate(45.875 159.019)" fill="#0054a6"/>
      <path id="Path_86763" data-name="Path 86763" d="M1.312.887V0H2.2V.887Zm-.425,0H0V0H.887Zm0,53.081v.887H0v-.887Zm.425,0H2.2v.887H1.312Zm0-52.194H.887V0h.425ZM1.774.887V53.968H0V.887ZM.887,53.081h.425v1.774H.887Zm-.462.887V.887H2.2V53.968Z" transform="translate(46.058 106.496)" fill="#0054a6"/>
      <path id="Path_86764" data-name="Path 86764" d="M46.941,107.6l.4.793-.428.214-.414-.24Zm.085-.043.444.768-.023.013-.024.012ZM92.995,80.969h.887v.512l-.443.256Zm0-53.336.4-.793.49.245v.548Zm-.085-.042-.4.793-.024-.012-.023-.013ZM46.941,1.007l-.4-.793L46.971,0l.414.239Zm-.085.042L46.412.282l.023-.013.024-.012ZM.887,27.633H0v-.512l.443-.256Zm0,53.336-.4.793L0,81.517v-.548Zm.084.042.4-.793.024.012.023.013Zm91.642-.3-.444-.768.206-.119h.238ZM46.941,107.128l.444.768-.444.257L46.5,107.9ZM1.31,80.715l-.444.768-.443-.256v-.511Zm0-52.827H.423v-.512l.444-.256ZM46.983,1.474,46.539.706,46.983.45l.444.257ZM92.656,27.888l.444-.768.443.256v.512Zm0,52.827h.887V81.6h-.887ZM46.543,106.8l.085-.042.8,1.586-.085.042Zm.038-.017L92.551,80.2l.888,1.536L47.47,108.321ZM92.108,80.969V27.633h1.774V80.969Zm.49-52.543-.085-.042.8-1.586.085.042Zm-.131-.068L46.5,1.775,47.385.239,93.354,26.823ZM47.338,1.8l-.085.042L46.459.257l.085-.042Zm-.038.017L1.331,28.4.443,26.865,46.412.282ZM1.774,27.633V80.969H0V27.633Zm-.49,52.543.084.042L.574,81.8.49,81.762Zm.131.068,45.969,26.583-.888,1.536L.528,81.78Zm91.642,1.239L47.385,107.9,46.5,106.36,92.169,79.947ZM46.5,107.9.866,81.482l.889-1.535L47.385,106.36ZM.423,80.715V27.888H2.2V80.715ZM.867,27.12,46.539.706l.888,1.536L1.755,28.656ZM47.427.706,93.1,27.12l-.888,1.536L46.539,2.242ZM93.543,27.888V80.715H91.769V27.888ZM92.656,81.6h-.042V79.827h.042Z" transform="translate(321.323 238.867)" fill="#0054a6"/>
      <path id="Path_86765" data-name="Path 86765" d="M47.286,1.581l.768-.444L48.5,1.9l-.768.444Zm-.212-.368L46.631.444,47.4,0l.443.769ZM1.21,27.754.443,28.2,0,27.429l.768-.444Zm.212.368.443.769-.768.444-.443-.769Zm45.1-26.1-.212-.368L47.842.769l.212.368Zm1-.043L1.653,28.522.768,26.985,46.631.444ZM1.978,27.309l.212.368-1.536.889L.443,28.2Zm-1,.043L46.843.812l.886,1.537L1.865,28.89Z" transform="translate(366.987 265.227)" fill="#0054a6"/>
      <path id="Path_86766" data-name="Path 86766" d="M47.276,27.775l.443-.768.768.445-.443.768ZM1.423,1.213.655.768,1.1,0l.767.445Zm-.212.368-.444.768L0,1.9l.443-.768ZM47.064,28.143l.768.445-.443.768-.768-.445Zm-.231.4L.979,1.982,1.865.445,47.719,27.007ZM2.19,1.658l-.212.368L.443,1.136.655.768ZM1.653.812,47.507,27.374l-.886,1.537L.767,2.349ZM46.3,27.7l.212-.368,1.535.889-.212.368Z" transform="translate(321.092 265.183)" fill="#0054a6"/>
      <path id="Path_86767" data-name="Path 86767" d="M46.941,107.6l.4.793-.428.214-.414-.24Zm.084-.043.444.768-.023.013-.023.012ZM93,80.969h.887v.512l-.443.256Zm0-53.336.4-.793.49.245v.548Zm-.084-.042-.4.793-.023-.012-.023-.013ZM46.941,1.007l-.4-.793L46.971,0l.414.239Zm-.085.042L46.412.282l.023-.013.023-.012ZM.887,27.633H0v-.512l.443-.256Zm0,53.336-.4.793L0,81.517v-.548Zm.084.042.4-.793.024.012.023.013Zm91.6-.3h.887v.512l-.443.256ZM46.9,107.128l.444.768-.444.257-.444-.257ZM1.226,80.715l-.444.768-.443-.256v-.512Zm0-52.827H.339v-.512l.443-.256ZM46.9,1.474,46.455.706,46.9.45l.444.257ZM92.571,27.888l.444-.768.443.256v.512ZM46.544,106.8l.084-.042.8,1.586-.085.042Zm.038-.017L92.551,80.2l.888,1.536L47.47,108.321ZM92.108,80.969V27.633h1.774V80.969Zm.49-52.543-.085-.042.8-1.586.084.042Zm-.131-.068L46.5,1.775,47.385.239,93.354,26.823ZM47.338,1.8l-.085.042L46.459.257l.085-.042Zm-.038.017L1.331,28.4.443,26.865,46.412.282ZM1.774,27.633V80.969H0V27.633Zm-.49,52.543.084.042L.574,81.8.49,81.762Zm.131.068,45.97,26.583-.889,1.536L.528,81.78Zm91.6,1.239L47.343,107.9l-.888-1.536L92.127,79.947ZM46.455,107.9.782,81.482l.888-1.536L47.343,106.36ZM.339,80.715V27.888H2.113V80.715ZM.782,27.12,46.455.706l.888,1.536L1.669,28.656ZM47.343.706,93.015,27.12l-.888,1.536L46.455,2.242ZM93.458,27.888V80.715H91.684V27.888Z" transform="translate(229.724 238.867)" fill="#0054a6"/>
      <path id="Path_86768" data-name="Path 86768" d="M1.311.887V0H2.2V.887Zm-.424,0H0V0H.887Zm0,53.082v.887H0v-.887Zm.424,0H2.2v.887H1.311Zm0-52.195H.887V0h.424ZM1.774.887V53.969H0V.887ZM.887,53.082h.424v1.774H.887Zm-.463.887V.887H2.2V53.969Z" transform="translate(275.438 291.997)" fill="#0054a6"/>
      <path id="Path_86796" data-name="Path 86796" d="M1.311.887V0H2.2V.887Zm-.424,0H0V0H.887Zm0,53.082v.887H0v-.887Zm.424,0H2.2v.887H1.311Zm0-52.195H.887V0h.424ZM1.774.887V53.969H0V.887ZM.887,53.082h.424v1.774H.887Zm-.463.887V.887H2.2V53.969Z" transform="translate(183.793 292.182)" fill="#0054a6"/>
      <path id="Path_86769" data-name="Path 86769" d="M47.285,1.581l.768-.444L48.5,1.9l-.767.444Zm-.211-.368L46.631.444,47.4,0l.443.769ZM1.21,27.754.443,28.2,0,27.429l.767-.444Zm.212.368.443.769-.767.444-.443-.769Zm45.1-26.1-.212-.368L47.841.769l.212.368Zm1-.043L1.654,28.522.767,26.985,46.631.444ZM1.978,27.309l.212.368-1.536.889L.443,28.2Zm-1,.043L46.843.812l.886,1.537L1.865,28.89Z" transform="translate(275.349 265.222)" fill="#0054a6"/>
      <path id="Path_86770" data-name="Path 86770" d="M47.276,27.775l.444-.768.767.445-.443.768ZM1.423,1.213.656.768,1.1,0l.768.445Zm-.212.368-.443.768L0,1.9l.444-.768ZM47.063,28.143l.768.445-.444.768-.767-.445Zm-.231.4L.98,1.982,1.866.445,47.719,27.007ZM2.19,1.658l-.212.368L.444,1.136.656.768ZM1.654.812,47.507,27.374l-.886,1.537L.768,2.349ZM46.3,27.7l.212-.368,1.536.889-.212.368Z" transform="translate(229.453 265.175)" fill="#0054a6"/>
      <path id="Path_86771" data-name="Path 86771" d="M46.941,107.6l.4.793-.428.215-.414-.239Zm.085-.043.444.768-.023.013-.024.012ZM93,80.97h.887v.512l-.443.255Zm0-53.337.4-.793.49.246v.547Zm-.085-.043-.4.793-.024-.012-.023-.013ZM46.941,1.008l-.4-.793L46.971,0l.414.24Zm-.084.043L46.412.282l.023-.013.024-.011ZM.887,27.633H0v-.512l.444-.256Zm0,53.337-.4.793L0,81.517V80.97Zm.085.043.4-.794.023.012.023.013Zm45.969,26.115.444.768-.444.257L46.5,107.9ZM1.268,80.714l-.444.768-.443-.256v-.512Zm0-52.869H.381v-.511l.443-.256ZM46.941,1.432,46.5.664l.444-.257.444.257ZM92.614,27.845l.444-.767.444.256v.511ZM46.543,106.8l.085-.043.795,1.586-.084.043Zm.038-.017L92.551,80.2l.888,1.536L47.47,108.321ZM92.109,80.97V27.633h1.774V80.97Zm.49-52.544-.085-.043.795-1.586.085.043Zm-.132-.067L46.5,1.775,47.385.24l45.97,26.584ZM47.338,1.8l-.084.043L46.459.257l.084-.043Zm-.038.017L1.331,28.4.444,26.865,46.412.282ZM1.774,27.633V80.97H0V27.633Zm-.49,52.544.085.042L.575,81.805.49,81.763Zm.131.067,45.97,26.583-.888,1.537L.528,81.78Zm91.642,1.238L47.385,107.9,46.5,106.36,92.17,79.947ZM46.5,107.9.824,81.483l.889-1.536L47.385,106.36ZM.381,80.714V27.845H2.155V80.714ZM.824,27.078,46.5.664,47.385,2.2,1.713,28.613ZM47.385.664,93.058,27.078l-.888,1.536L46.5,2.2ZM93.5,27.845V80.714H91.727V27.845Z" transform="translate(0.216 0)" fill="#0054a6"/>
      <path id="Path_86772" data-name="Path 86772" d="M1.415.89l0-.887H2.3l0,.887Zm-.424,0L.1.887.106,0,.993,0Zm-.1,53.124,0,.887L0,54.9l0-.887Zm.424,0,.887,0V54.9l-.887,0Zm.1-52.237H.989L.993,0h.424ZM1.878.891l-.1,53.124L0,54.011.1.887ZM.891,53.126h.424l0,1.774H.887Zm-.465.886L.528.888,2.3.891,2.2,54.015Z" transform="translate(46.088 53.328)" fill="#0054a6"/>
      <path id="Path_86773" data-name="Path 86773" d="M47.175,1.581l.768-.444.443.769-.767.444Zm-.211-.367L46.521.444,47.289,0l.443.769ZM1.21,27.691l-.767.443L0,27.366l.767-.444Zm.212.367.443.769-.767.444L.655,28.5ZM46.408,2.025,46.2,1.658,47.731.769l.212.367Zm1-.044L1.653,28.459.767,26.922,46.521.444ZM1.978,27.246l.212.367L.655,28.5l-.212-.368Zm-1,.043L46.733.813l.886,1.537L1.865,28.827Z" transform="translate(45.966 26.363)" fill="#0054a6"/>
      <path id="Path_86774" data-name="Path 86774" d="M47.379,27.673l.441-.769.769.443-.442.769ZM1.421,1.213.652.77,1.093,0l.769.443Zm-.211.368L.768,2.35,0,1.907l.441-.769Zm45.958,26.46.769.443-.442.77-.768-.443Zm-.23.4L.979,1.982,1.862.443,47.82,26.9ZM2.189,1.655l-.211.368L.441,1.138.652.77ZM1.651.811,47.609,27.272l-.882,1.539L.768,2.35ZM46.4,27.6l.211-.368,1.537.885-.21.368Z" transform="translate(0.027 26.323)" fill="#0054a6"/>
      <path id="Path_86775" data-name="Path 86775" d="M46.941,107.6l.4.793-.428.215-.413-.24Zm.085-.043.444.768-.022.013-.024.012ZM92.995,80.97h.887v.511l-.443.256Zm0-53.337.4-.793.49.246v.547Zm-.084-.043-.4.793-.024-.012-.023-.013ZM46.941,1.008l-.4-.793L46.971,0l.414.239Zm-.084.043L46.412.282l.023-.013.024-.012ZM.887,27.633H0v-.512l.443-.256Zm0,53.337-.4.793L0,81.517V80.97Zm.085.042.4-.793.023.012.023.013Zm91.642-.3H93.5v.512l-.444.256ZM46.941,107.128l.444.768-.444.257L46.5,107.9ZM1.269,80.714l-.444.768-.443-.256v-.512Zm0-52.869H.381v-.511l.443-.256ZM46.941,1.432,46.5.664l.444-.257.444.257ZM92.614,27.845l.444-.767.444.256v.511ZM46.544,106.8l.085-.043.795,1.586-.085.043Zm.038-.018L92.551,80.2l.888,1.536L47.47,108.321ZM92.108,80.97V27.633h1.774V80.97Zm.49-52.544-.084-.043.795-1.586.084.043Zm-.131-.067L46.5,1.775,47.385.239,93.354,26.822ZM47.338,1.8l-.084.043L46.459.256l.084-.042Zm-.038.017L1.331,28.4.443,26.865,46.412.282ZM1.774,27.633V80.97H0V27.633Zm-.49,52.544.085.042L.575,81.8.49,81.763Zm.131.067,45.97,26.583-.888,1.536L.528,81.78Zm91.642,1.238L47.385,107.9,46.5,106.36,92.17,79.947ZM46.5,107.9.824,81.483l.889-1.536L47.385,106.36ZM.381,80.714V27.845H2.156V80.714ZM.824,27.078,46.5.664,47.385,2.2,1.713,28.613ZM47.385.664,93.058,27.078l-.888,1.536L46.5,2.2ZM93.5,27.845V80.714H91.727V27.845Z" transform="translate(137.828 79.622)" fill="#0054a6"/>
      <path id="Path_86776" data-name="Path 86776" d="M1.415.889l0-.887L2.3,0l0,.887Zm-.424,0H.1L.106,0H.993Zm-.1,53.125,0,.887L0,54.9l0-.887Zm.424,0,.887,0V54.9l-.887,0Zm.1-52.237H.989L.993,0h.424ZM1.878.89l-.1,53.124L0,54.011.1.887ZM.891,53.126h.424l0,1.774H.887Zm-.465.886L.528.887,2.3.891,2.2,54.014Z" transform="translate(183.658 132.95)" fill="#0054a6"/>
      <path id="Path_86777" data-name="Path 86777" d="M47.175,1.581l.768-.444.443.769-.767.444Zm-.211-.368L46.521.444,47.289,0l.443.769ZM1.211,27.69l-.768.444L0,27.366l.767-.444Zm.211.368.444.768-.768.444L.655,28.5ZM46.408,2.025,46.2,1.657,47.731.769l.212.367Zm1-.043L1.653,28.459.767,26.922,46.521.444ZM1.978,27.245l.212.368L.655,28.5l-.212-.368Zm-1,.044L46.733.813l.886,1.537L1.866,28.826Z" transform="translate(183.571 105.997)" fill="#0054a6"/>
      <path id="Path_86778" data-name="Path 86778" d="M47.379,27.674l.441-.77.769.443-.441.77ZM1.421,1.213.652.77,1.093,0l.769.443Zm-.211.368-.441.77L0,1.908l.441-.77ZM47.168,28.042l.769.443-.442.77-.768-.443Zm-.23.4L.979,1.983,1.862.443,47.82,26.9ZM2.189,1.655l-.211.368L.441,1.138.652.77ZM1.651.812l45.958,26.46-.882,1.54L.769,2.351ZM46.4,27.6l.211-.368,1.538.885-.211.368Z" transform="translate(137.628 105.955)" fill="#0054a6"/>
      <path id="Path_86779" data-name="Path 86779" d="M46.941,107.638l.4.793-.428.214-.414-.24Zm.085-.042.444.768-.023.013-.024.012ZM93,80.969h.887v.511l-.442.256Zm0-53.336.4-.793.49.246v.547Zm-.085-.043-.4.793-.024-.012-.023-.013ZM46.941,1.008l-.4-.793L46.971,0l.414.239Zm-.084.043L46.412.282l.023-.013.024-.012ZM.887,27.633H0v-.512l.443-.256Zm0,53.336-.4.793L0,81.517v-.548Zm.084.043.4-.793.024.012.024.013Zm91.6-.3h.887v.512l-.443.256ZM46.9,107.128l.444.768-.444.257-.444-.257ZM1.226,80.715l-.444.768-.443-.256v-.512Zm0-52.827H.339v-.512l.443-.255ZM46.9,1.474,46.455.707,46.9.45l.444.257ZM92.571,27.888l.444-.767.443.255v.512ZM46.544,106.844l.085-.042.795,1.586-.085.042Zm.037-.017L92.551,80.2l.889,1.535L47.471,108.363ZM92.108,80.969V27.633h1.774V80.969Zm.49-52.543-.085-.043.8-1.586.085.043Zm-.131-.067L46.5,1.775,47.385.239,93.355,26.822ZM47.338,1.8l-.084.043L46.459.256l.084-.042Zm-.038.017L1.331,28.4.443,26.865,46.412.282ZM1.774,27.633V80.969H0V27.633Zm-.49,52.543.084.042L.574,81.8.49,81.763Zm.132.068L47.385,106.87l-.889,1.535L.527,81.779Zm91.6,1.238L47.343,107.9l-.888-1.536L92.127,79.947ZM46.455,107.9.782,81.482l.889-1.536L47.343,106.36ZM.339,80.715V27.888H2.113V80.715ZM.782,27.12,46.455.707l.888,1.536L1.67,28.656ZM47.343.707,93.016,27.12l-.888,1.536L46.455,2.242ZM93.459,27.888V80.715H91.684V27.888Z" transform="translate(275.44 159.245)" fill="#0054a6"/>
      <path id="Path_86780" data-name="Path 86780" d="M1.415.89l0-.887L2.3,0l0,.887Zm-.424,0L.1.887.106,0,.993,0Zm-.1,53.124,0,.887L0,54.9l0-.887Zm.424,0,.887,0,0,.887-.887,0Zm.1-52.237H.989L.993,0h.424ZM1.878.89l-.1,53.124L0,54.011.1.887ZM.891,53.126h.424l0,1.774H.887Zm-.465.886L.528.888,2.3.891,2.2,54.015Z" transform="translate(321.27 212.615)" fill="#0054a6"/>
      <path id="Path_86781" data-name="Path 86781" d="M47.176,1.581l.768-.444.443.768-.768.444Zm-.212-.368L46.521.444,47.289,0l.443.768ZM1.21,27.69l-.767.444L0,27.366l.767-.444Zm.212.368.443.769-.767.444L.655,28.5ZM46.408,2.025,46.2,1.657,47.731.768l.212.368Zm1-.043L1.653,28.459.767,26.921,46.521.444ZM1.978,27.246l.212.368L.655,28.5l-.212-.368Zm-1,.043L46.733.812l.886,1.537L1.865,28.826Z" transform="translate(321.147 185.631)" fill="#0054a6"/>
      <path id="Path_86782" data-name="Path 86782" d="M47.385,27.668l.441-.77.769.442-.441.77ZM1.421,1.213.652.77,1.093,0l.769.443Zm-.211.368-.441.77L0,1.908l.441-.77ZM47.173,28.036l.769.443-.441.77-.769-.443Zm-.23.4L.98,1.983,1.862.443,47.825,26.9ZM2.19,1.655l-.211.368L.441,1.138.652.77ZM1.651.811,47.615,27.267l-.883,1.539L.769,2.351ZM46.405,27.594l.211-.368,1.537.885-.211.368Z" transform="translate(275.179 185.631)" fill="#0054a6"/>
      <path id="Path_86783" data-name="Path 86783" d="M46.941,107.638l.4.793-.427.215-.414-.24Zm.085-.042.444.768-.022.013-.024.012ZM93,81.012h.887v.512l-.443.256Zm0-53.379.4-.793.49.246v.547Zm-.084-.043-.4.793-.024-.012-.023-.013ZM46.941,1.008l-.4-.793L46.971,0l.414.239Zm-.084.043L46.412.282l.023-.013.023-.012ZM.887,27.633H0v-.512l.443-.255Zm0,53.337-.4.793L0,81.517V80.97Zm.085.042.4-.793.024.012.023.013Zm91.6-.3h.887v.512l-.444.256ZM46.9,107.128l.444.768-.444.257-.444-.257ZM1.226,80.715l-.444.768-.444-.256v-.512Zm0-52.827H.339v-.511l.444-.256ZM46.9,1.474,46.455.707,46.9.45l.444.257ZM92.572,27.888l.443-.767.444.256v.511ZM46.544,106.845l.085-.043.795,1.586-.085.042Zm.038-.017,45.97-26.583.888,1.536L47.47,108.363ZM92.108,81.012V27.633h1.774V81.012Zm.49-52.586-.084-.043.795-1.586.084.043Zm-.131-.067L46.5,1.776,47.385.239,93.354,26.823ZM47.338,1.8l-.084.043-.8-1.586.085-.043Zm-.038.017L1.332,28.4.443,26.866,46.412.282ZM1.774,27.633V80.97H0V27.633Zm-.49,52.543.085.042L.575,81.805.49,81.763Zm.132.068L47.385,106.87l-.889,1.535L.527,81.78Zm91.6,1.238L47.343,107.9l-.888-1.536L92.127,79.947ZM46.455,107.9.782,81.483l.888-1.536L47.343,106.36ZM.339,80.715V27.888H2.113V80.715ZM.782,27.12,46.455.707l.888,1.536L1.67,28.656ZM47.343.707,93.015,27.12l-.888,1.536L46.455,2.243ZM93.459,27.888V80.715H91.685V27.888Z" transform="translate(92.069 159.202)" fill="#0054a6"/>
      <path id="Path_86784" data-name="Path 86784" d="M1.415.89l0-.887L2.3,0l0,.887Zm-.424,0L.1.887.106,0,.993,0Zm-.1,53.124,0,.887L0,54.9l0-.887Zm.424,0,.887,0V54.9l-.887,0Zm.1-52.237H.989L.993,0h.424ZM1.878.89l-.1,53.124L0,54.011.1.887ZM.891,53.126h.424l0,1.774H.887Zm-.465.886L.528.888,2.3.891,2.2,54.015Z" transform="translate(137.901 212.53)" fill="#0054a6"/>
      <path id="Path_86785" data-name="Path 86785" d="M47.176,1.581l.767-.444.443.768-.767.444Zm-.212-.368L46.521.444,47.289,0l.443.768ZM1.211,27.69l-.768.444L0,27.365l.768-.444Zm.212.368.443.769L1.1,29.27.655,28.5ZM46.408,2.025,46.2,1.657,47.731.768l.212.368Zm1-.043L1.653,28.458.768,26.921,46.521.444ZM1.978,27.245l.212.368L.655,28.5l-.212-.368Zm-1,.043L46.734.812l.885,1.537L1.866,28.826Z" transform="translate(137.804 185.553)" fill="#0054a6"/>
      <path id="Path_86786" data-name="Path 86786" d="M47.379,27.673l.442-.77.768.443-.441.77ZM1.421,1.212.652.769,1.094,0l.768.443Zm-.211.369L.769,2.35,0,1.907l.441-.769ZM47.169,28.042l.768.443-.441.77-.769-.443Zm-.231.4L.98,1.982,1.862.443,47.821,26.9ZM2.19,1.654l-.211.368L.441,1.138.652.769ZM1.651.811,47.61,27.272l-.883,1.539L.769,2.35ZM46.4,27.6l.211-.368,1.537.885-.211.368Z" transform="translate(91.853 185.572)" fill="#0054a6"/>
      <path id="Path_86787" data-name="Path 86787" d="M46.941,107.637l.4.793-.428.214-.414-.24Zm.084-.042.444.768-.023.013-.024.012Zm45.97-26.583h.887v.512l-.443.256Zm0-53.379.4-.793.49.245v.548Zm-.084-.042-.4.793-.023-.012-.023-.013ZM46.941,1.007l-.4-.793L46.971,0l.414.239Zm-.085.042L46.412.282l.023-.013.023-.012ZM.887,27.633H0v-.512l.443-.256Zm0,53.336-.4.793L0,81.517v-.548Zm.084.042.4-.793.024.012.023.013Zm91.642-.3H93.5v.512l-.443.256ZM46.941,107.128l.444.768-.444.257L46.5,107.9ZM1.268,80.715l-.444.768-.443-.256v-.512Zm0-52.827H.381v-.512l.443-.256ZM46.941,1.474,46.5.706,46.941.45l.444.257ZM92.614,27.888l.444-.768.443.256v.512Zm-46.07,78.957.085-.042.794,1.586-.084.042Zm.038-.017,45.97-26.583.888,1.536L47.47,108.363ZM92.108,81.012V27.633h1.774V81.012Zm.49-52.586-.085-.042.8-1.586.084.042Zm-.131-.068L46.5,1.775,47.385.239,93.354,26.823ZM47.338,1.8l-.085.042L46.458.257l.085-.042Zm-.038.017L1.331,28.4.443,26.865,46.412.282ZM1.774,27.633V80.969H0V27.633Zm-.49,52.543.084.042L.574,81.8.49,81.762Zm.131.068,45.97,26.626-.889,1.535L.527,81.779Zm91.642,1.238L47.385,107.9,46.5,106.36,92.17,79.947ZM46.5,107.9.824,81.482l.888-1.536L47.385,106.36ZM.381,80.715V27.888H2.156V80.715ZM.824,27.12,46.5.706l.889,1.536L1.712,28.656ZM47.385.706,93.058,27.12l-.888,1.536L46.5,2.242ZM93.5,27.888V80.715H91.726V27.888Z" transform="translate(137.913 238.782)" fill="#0054a6"/>
      <path id="Path_86788" data-name="Path 86788" d="M47.175,1.581l.768-.444.443.769-.768.444Zm-.212-.368L46.521.444,47.289,0l.443.769ZM1.21,27.69l-.767.444L0,27.366l.767-.444Zm.212.368.443.769-.767.444L.655,28.5ZM46.408,2.025,46.2,1.657,47.731.769l.212.368Zm1-.043L1.654,28.459.767,26.921,46.521.444ZM1.978,27.246l.212.368L.655,28.5l-.212-.368Zm-1,.043L46.733.812l.885,1.537L1.865,28.826Z" transform="translate(183.691 265.152)" fill="#0054a6"/>
      <path id="Path_86789" data-name="Path 86789" d="M47.379,27.673l.441-.77.769.443-.442.77ZM1.42,1.212.652.77,1.093,0l.769.443Zm-.21.368-.442.77L0,1.907l.441-.77ZM47.168,28.041l.769.443-.442.77-.768-.443Zm-.23.4L.979,1.982,1.862.443,47.82,26.9ZM2.189,1.655l-.211.368L.441,1.138.652.77ZM1.651.811,47.609,27.272l-.882,1.539L.768,2.35ZM46.4,27.6l.211-.368,1.537.885-.21.368Z" transform="translate(137.708 265.164)" fill="#0054a6"/>
      <path id="Path_86790" data-name="Path 86790" d="M46.941,107.6l.4.793-.428.214-.414-.24Zm.084-.042.444.768-.023.013-.023.012Zm45.97-26.583h.887v.512l-.443.256Zm0-53.336.4-.793.49.245v.548Zm-.084-.042-.4.793-.023-.012-.023-.013ZM46.941,1.007l-.4-.793L46.971,0l.413.239Zm-.085.042L46.412.282l.023-.013.023-.012ZM.887,27.633H0v-.512l.443-.256Zm0,53.336-.4.793L0,81.517v-.548Zm.084.042.4-.793.024.012.023.013Zm45.97,26.116.444.768-.444.257L46.5,107.9ZM1.268,80.715l-.444.768-.443-.256v-.512Zm0-52.869H.381v-.512l.443-.256ZM46.941,1.432,46.5.664l.444-.257.444.257ZM92.614,27.845l.444-.768.443.256v.512ZM46.544,106.8l.084-.042.8,1.586-.085.042Zm.038-.017L92.551,80.2l.888,1.536L47.47,108.321ZM92.108,80.969V27.633h1.774V80.969Zm.49-52.543-.085-.042.8-1.586.084.042Zm-.131-.068L46.5,1.775,47.385.239l45.97,26.583ZM47.338,1.8l-.085.042L46.458.257l.085-.042Zm-.038.017L1.331,28.4.443,26.865,46.412.282ZM1.774,27.633V80.969H0V27.633Zm-.49,52.543.084.042L.574,81.8.49,81.763Zm.131.068,45.969,26.583-.888,1.536L.528,81.78Zm91.642,1.239L47.385,107.9,46.5,106.36,92.17,79.947ZM46.5,107.9.824,81.483l.888-1.536L47.385,106.36ZM.381,80.715V27.845H2.156V80.715ZM.824,27.078,46.5.664,47.385,2.2,1.712,28.613ZM47.385.664,93.058,27.078l-.888,1.536L46.5,2.2ZM93.5,27.845V80.715H91.727V27.845Z" transform="translate(46.101 238.867)" fill="#0054a6"/>
      <path id="Path_86791" data-name="Path 86791" d="M47.176,1.581l.767-.444.443.769-.767.444Zm-.212-.368L46.521.444,47.289,0l.443.769ZM1.211,27.69l-.768.444L0,27.366l.768-.444Zm.212.368.443.769-.768.444L.655,28.5ZM46.408,2.025,46.2,1.657,47.731.769l.212.368Zm1-.043L1.653,28.459.768,26.921,46.521.444ZM1.978,27.246l.212.368L.655,28.5l-.212-.368Zm-1,.043L46.733.812l.885,1.537L1.865,28.827Z" transform="translate(91.825 265.209)" fill="#0054a6"/>
      <path id="Path_86792" data-name="Path 86792" d="M47.385,27.668l.441-.77.769.443-.441.77ZM1.421,1.212.652.77,1.093,0l.769.442ZM1.21,1.58l-.441.77L0,1.908l.441-.77ZM47.174,28.036l.769.443-.441.77-.769-.443Zm-.23.4L.98,1.982,1.862.442,47.826,26.9ZM2.189,1.655l-.21.368L.441,1.138.652.77ZM1.651.811,47.614,27.267l-.882,1.539L.769,2.35ZM46.405,27.594l.21-.368,1.538.885-.211.368Z" transform="translate(45.88 265.226)" fill="#0054a6"/>
      <path id="Path_86793" data-name="Path 86793" d="M46.941,107.638l.4.793-.428.214-.414-.24Zm.085-.042.444.768-.023.013-.024.012ZM93,80.969h.887v.511l-.442.256Zm0-53.336.4-.793.49.246v.547Zm-.085-.043-.4.793-.024-.012-.023-.013ZM46.941,1.008l-.4-.793L46.971,0l.414.239Zm-.084.043L46.412.282l.023-.013.024-.012ZM.887,27.633H0v-.512l.443-.256Zm0,53.336-.4.793L0,81.517v-.548Zm.084.043.4-.793.024.012.024.013Zm91.6-.3h.887v.512l-.443.256ZM46.9,107.128l.444.768-.444.257-.444-.257ZM1.226,80.715l-.444.768-.443-.256v-.512Zm0-52.827H.339v-.512l.443-.255ZM46.9,1.474,46.455.707,46.9.45l.444.257ZM92.571,27.888l.444-.767.443.255v.512ZM46.544,106.844l.085-.042.795,1.586-.085.042Zm.037-.017L92.551,80.2l.889,1.535L47.471,108.363ZM92.108,80.969V27.633h1.774V80.969Zm.49-52.543-.085-.043.8-1.586.085.043Zm-.131-.067L46.5,1.775,47.385.239,93.355,26.822ZM47.338,1.8l-.084.043L46.459.256l.084-.042Zm-.038.017L1.331,28.4.443,26.865,46.412.282ZM1.774,27.633V80.969H0V27.633Zm-.49,52.543.084.042L.574,81.8.49,81.763Zm.132.068L47.385,106.87l-.889,1.535L.527,81.779Zm91.6,1.238L47.343,107.9l-.888-1.536L92.127,79.947ZM46.455,107.9.782,81.482l.889-1.536L47.343,106.36ZM.339,80.715V27.888H2.113V80.715ZM.782,27.12,46.455.707l.888,1.536L1.67,28.656ZM47.343.707,93.016,27.12l-.888,1.536L46.455,2.242ZM93.459,27.888V80.715H91.684V27.888Z" transform="translate(275.439 159.245)" fill="#0054a6"/>
      <path id="Path_86794" data-name="Path 86794" d="M1.415.89l0-.887L2.3,0l0,.887Zm-.424,0L.1.887.106,0,.993,0Zm-.1,53.124,0,.887L0,54.9l0-.887Zm.424,0,.887,0,0,.887-.887,0Zm.1-52.237H.989L.993,0h.424ZM1.878.89l-.1,53.124L0,54.011.1.887ZM.891,53.126h.424l0,1.774H.887Zm-.465.886L.528.888,2.3.891,2.2,54.015Z" transform="translate(321.27 212.615)" fill="#0054a6"/>
      <path id="Path_86795" data-name="Path 86795" d="M1.415.89l0-.887L2.3,0l0,.887Zm-.424,0L.1.887.106,0,.993,0Zm-.1,53.124,0,.887L0,54.9l0-.887Zm.424,0,.887,0,0,.887-.887,0Zm.1-52.237H.989L.993,0h.424ZM1.878.89l-.1,53.124L0,54.011.1.887ZM.891,53.126h.424l0,1.774H.887Zm-.465.886L.528.888,2.3.891,2.2,54.015Z" transform="translate(366.938 292.532)" fill="#0054a6"/>
    </g>
  </g>
</svg>
