<svg xmlns="http://www.w3.org/2000/svg" xmlns:xlink="http://www.w3.org/1999/xlink" width="399" height="547" viewBox="0 0 399 547">
  <defs>
    <clipPath id="clip-path">
      <rect id="Rectangle_3145" data-name="Rectangle 3145" width="399" height="547" transform="translate(23 2044)" fill="#fff" stroke="#707070" stroke-width="1"/>
    </clipPath>
  </defs>
  <g id="Mask_Group_212" data-name="Mask Group 212" transform="translate(-23 -2044)" clip-path="url(#clip-path)">
    <g id="Frame" transform="translate(-17.436 2561.389) rotate(-120)" opacity="0.236">
      <path id="Path_86698" data-name="Path 86698" d="M324.92,208.355l.593-1.183-.638-.32-.617.357Zm.127.064.662-1.146-.034-.02-.034-.017Zm68.577,39.657h1.323v-.764l-.66-.381Zm0,79.568.593,1.183.731-.367v-.817Zm-.126.063-.593-1.183-.036.017-.034.02ZM324.92,367.364l-.593,1.183.638.32.618-.357Zm-.126-.064-.663,1.146.034.02.036.017Zm-68.578-39.656h-1.323v.764l.66.382Zm0-79.568-.593-1.183-.731.367v.817Zm.127-.064.593,1.183.034-.017.034-.02Zm136.65.445h1.323v-.764l-.662-.382Zm-68.136-39.4.663-1.146-.663-.384-.662.384Zm-68.135,39.4-.662-1.146-.662.382v.764Zm0,78.871H255.4v.762l.662.383Zm68.135,39.4-.662,1.145.662.384.663-.384Zm68.136-39.4.661,1.145.662-.383v-.762ZM324.327,209.538l.127.064,1.186-2.366-.127-.064Zm.057.025,68.578,39.658,1.325-2.291-68.578-39.658ZM392.3,248.075v79.568h2.647V248.075Zm.73,78.385-.126.063,1.186,2.366.126-.063Zm-.2.1-68.577,39.658,1.325,2.291,68.577-39.658Zm-67.322,39.62-.126-.064-1.186,2.366.126.064Zm-.057-.025L256.879,326.5l-1.326,2.292,68.578,39.657ZM257.54,327.644V248.075h-2.647v79.568Zm-.73-78.385.127-.064-1.187-2.366-.126.064Zm.2-.1L325.583,209.5l-1.325-2.292L255.68,246.867Zm136.649-1.847-68.135-39.4L324.2,210.2l68.135,39.4Zm-69.46-39.4-68.135,39.4,1.325,2.291,68.135-39.4Zm-68.8,40.55v78.871h2.647V248.456Zm.662,80.016,68.135,39.4,1.325-2.291-68.135-39.4Zm69.459,39.4,68.135-39.4-1.325-2.291-68.135,39.4Zm68.8-40.549V248.456H391.67v78.871Z" transform="translate(-117.543 150.139)" fill="#dedede"/>
      <path id="Path_86699" data-name="Path 86699" d="M376.856,277.974l1.146.663.66-1.147-1.146-.662Zm-.315.549-.662,1.146,1.146.663.66-1.147ZM308.12,238.929l-1.145-.663-.66,1.147,1.145.662Zm.316-.549.66-1.146-1.145-.663-.662,1.147Zm67.275,38.931-.316.549,2.291,1.325.316-.548Zm1.49.065L308.78,237.782l-1.321,2.293,68.42,39.594Zm-67.935-37.784.315-.549-2.291-1.325-.315.548Zm-1.49-.065,68.42,39.594,1.321-2.293L309.1,237.234Z" transform="translate(-169.307 159.748)" fill="#dedede"/>
      <path id="Path_86700" data-name="Path 86700" d="M325.163,238.966l.662,1.147,1.145-.664-.662-1.146Zm-68.4,39.626-1.146.663.662,1.147,1.145-.664Zm-.316-.549-.662-1.146-1.145.663.66,1.147Zm68.4-39.625,1.145-.663-.66-1.147-1.145.664Zm-.344-.6-68.4,39.626,1.322,2.292,68.4-39.625Zm-66.6,40.109-.316-.549-2.291,1.327.316.548Zm-.8,1.261,68.4-39.626-1.322-2.292-68.4,39.625Zm66.6-40.109.316.549,2.289-1.327-.316-.548Z" transform="translate(-49.227 159.76)" fill="#dedede"/>
      <path id="Path_86701" data-name="Path 86701" d="M308.527,347.578V348.9h1.323v-1.323Zm-.634,0H306.57V348.9h1.323Zm0-79.187v-1.323H306.57v1.323Zm.634,0h1.323v-1.323h-1.323Zm0,77.864h-.634V348.9h.634Zm.689,1.323V268.39H306.57v79.187Zm-1.323-77.864h.634v-2.647h-.634Zm-.689-1.323v79.187h2.647V268.39Z" transform="translate(-100.833 169.609)" fill="#dedede"/>
      <path id="Path_86702" data-name="Path 86702" d="M428.466,88.676l.594-1.183-.638-.32-.618.357Zm.127.063.663-1.146-.034-.02-.036-.018ZM497.171,128.4h1.323v-.764l-.662-.382Zm0,79.567.593,1.183.73-.365v-.818Zm-.127.064-.593-1.183-.036.019-.034.018Zm-68.578,39.658-.592,1.183.636.319.618-.357Zm-.126-.064-.663,1.145.034.021.036.017Zm-68.578-39.658h-1.323v.764l.662.382Zm0-79.567-.593-1.183-.73.365v.818Zm.127-.064.593,1.183.034-.017.034-.02Zm68.577-38.961.663-1.146-.663-.383-.662.383Zm-68.135,39.4-.663-1.146-.66.382v.764Zm0,78.871h-1.323v.764l.66.382Zm68.135,39.4L427.8,248.2l.662.382.663-.382Zm68.136-39.4.662,1.146.662-.382v-.764ZM427.873,89.859l.127.063,1.186-2.366-.126-.063Zm.057.026,68.578,39.657,1.325-2.291L429.256,87.594ZM495.848,128.4v79.567h2.647V128.4Zm.731,78.384-.127.064,1.186,2.366.127-.064Zm-.2.1L427.8,246.54l1.325,2.291,68.578-39.657ZM429.059,246.5l-.126-.064-1.186,2.366.127.064Zm-.057-.026L360.425,206.82l-1.325,2.291,68.577,39.657Zm-67.916-38.512V128.4h-2.647v79.567Zm-.731-78.384.127-.064-1.186-2.366-.127.064Zm.2-.1,68.578-39.658L427.8,87.531l-68.578,39.657Zm136.713-1.849-68.135-39.4L427.8,90.519l68.135,39.4ZM427.8,88.228l-68.136,39.4,1.326,2.292,68.135-39.4Zm-68.8,40.55v78.871h2.647V128.777Zm.66,80.017L427.8,248.2l1.325-2.292-68.135-39.4Zm69.461,39.4,68.135-39.4-1.325-2.292-68.135,39.4Zm68.8-40.55V128.777h-2.647v78.871Z" transform="translate(-358.117 111.442)" fill="#dedede"/>
      <path id="Path_86703" data-name="Path 86703" d="M480.388,158.315l1.146.663.66-1.147-1.146-.663Zm-.316.548-.66,1.147,1.146.663.66-1.147ZM411.652,119.27l-1.145-.663-.662,1.146,1.146.663Zm.316-.549.66-1.146-1.145-.663-.662,1.146Zm67.275,38.931-.316.548,2.291,1.326.316-.548Zm1.489.065-68.419-39.594-1.321,2.293,68.42,39.594ZM412.8,119.933l.315-.549-2.29-1.326-.315.549Zm-1.49-.065,68.42,39.593,1.321-2.293-68.419-39.593Z" transform="translate(-409.846 121.057)" fill="#dedede"/>
      <path id="Path_86704" data-name="Path 86704" d="M428.669,119.283l.662,1.146,1.145-.663-.662-1.146Zm-68.4,39.626-1.145.663.66,1.146,1.146-.663Zm-.316-.549-.662-1.146-1.145.663.662,1.146Zm68.4-39.625,1.145-.664-.66-1.146-1.145.663Zm-.344-.6-68.4,39.625,1.323,2.293,68.4-39.626Zm-66.6,40.108-.316-.548-2.289,1.326.316.549Zm-.8,1.261,68.4-39.625-1.322-2.293-68.4,39.626Zm66.6-40.108.316.548,2.29-1.326-.316-.549Z" transform="translate(-289.706 121.062)" fill="#dedede"/>
      <path id="Path_86705" data-name="Path 86705" d="M412.074,227.9v1.323H413.4V227.9Zm-.634,0h-1.323v1.323h1.323Zm0-79.187v-1.323h-1.323v1.323Zm.634,0H413.4v-1.323h-1.323Zm0,77.864h-.634v2.647h.634Zm.689,1.323V148.711h-2.647V227.9Zm-1.323-77.864h.634v-2.647h-.634Zm-.69-1.323V227.9H413.4V148.711Z" transform="translate(-341.408 130.912)" fill="#dedede"/>
      <path id="Path_86706" data-name="Path 86706" d="M66.48-60.922l.593-1.183-.638-.32-.618.357Zm.127.063L67.269-62l-.034-.02-.035-.018ZM135.184-21.2h1.323v-.763l-.661-.382Zm0,79.568.593,1.183.73-.366v-.817Zm-.126.063-.593-1.183-.035.018-.034.02ZM66.48,98.087l-.593,1.183.638.319.617-.357Zm-.126-.063-.662,1.146.034.02.035.018ZM-2.224,58.367H-3.547v.763l.66.382Zm0-79.568-.593-1.183-.73.366v.817Zm.126-.063.593,1.183.036-.018.034-.02Zm136.713.443-.663,1.145.307.178h.355ZM66.48-60.225l.663-1.145-.663-.383-.663.384Zm-68.072,39.4-.663-1.145-.66.382v.763Zm0,78.808H-2.916v.763l.662.382Zm68.136,39.4-.662,1.146.662.383.662-.383Zm68.135-39.4.662,1.145L136,58.75v-.763Zm0-78.808H136v-1.323h-1.323ZM65.887-59.739l.127.063L67.2-62.041l-.127-.063Zm.057.026,68.578,39.657,1.325-2.291L67.269-62ZM133.861-21.2V58.367h2.647V-21.2Zm.73,78.385-.126.063,1.186,2.366.126-.063Zm-.2.1L65.818,96.942l1.325,2.291L135.72,59.576ZM67.073,96.9l-.127-.063-1.185,2.366.126.063Zm-.057-.026L-1.562,57.221l-1.325,2.291L65.691,99.17ZM-.9,58.367V-21.2H-3.547V58.367Zm-.73-78.385.126-.063-1.186-2.366-.126.063Zm.2-.1L67.142-59.776l-1.325-2.291L-2.759-22.41Zm136.713-1.848L67.143-61.37l-1.325,2.291,68.135,39.4ZM65.817-61.37l-68.072,39.4,1.326,2.291,68.072-39.4ZM-2.916-20.821V57.987H-.269V-20.821Zm.662,79.953,68.135,39.4,1.325-2.291L-.929,56.841Zm69.46,39.4,68.135-39.4-1.325-2.291-68.135,39.4ZM136,57.987V-20.821h-2.647V57.987Zm-1.323-80.131h-.063V-19.5h.063Z" transform="translate(482.901 63.071)" fill="#dedede"/>
      <path id="Path_86707" data-name="Path 86707" d="M66.681,38.623l1.145.663.661-1.147-1.145-.663Zm-.316.549L65.7,40.318l1.145.663.661-1.147ZM-2.055-.422-3.2-1.085-3.861.062l1.145.663Zm.316-.549.661-1.147L-2.224-2.78l-.661,1.147ZM65.536,37.96l-.316.549,2.291,1.326.316-.549Zm1.49.065L-1.394-1.569-2.715.724,65.7,40.318ZM-.91.241l.316-.549L-2.884-1.634l-.316.549ZM-2.4.176,66.02,39.77l1.321-2.293L-1.078-2.118Z" transform="translate(551.337 82.356)" fill="#dedede"/>
      <path id="Path_86708" data-name="Path 86708" d="M118.415-.4l.661,1.146,1.145-.663-.661-1.146Zm-68.4,39.626-1.146.663.662,1.146,1.145-.663ZM49.7,38.68l-.662-1.146-1.145.663.66,1.146ZM118.1-.946l1.145-.663-.661-1.146-1.145.663Zm-.345-.6L49.35,38.082l1.322,2.293L119.076.749Zm-66.6,40.109-.316-.549-2.291,1.327.316.548Zm-.8,1.261L118.76.2l-1.322-2.293-68.4,39.626Zm66.6-40.109.316.548,2.29-1.327-.316-.548Z" transform="translate(431.12 82.364)" fill="#dedede"/>
      <path id="Path_86709" data-name="Path 86709" d="M169.74-60.922l.593-1.183-.638-.32-.618.357Zm.126.063L170.529-62l-.034-.02-.034-.018ZM238.444-21.2h1.323v-.763l-.66-.382Zm0,79.568.593,1.183.731-.366v-.817Zm-.126.063-.594-1.183-.034.018-.034.02ZM169.74,98.087l-.593,1.183.638.319.618-.357Zm-.127-.063-.662,1.146.034.02.034.018ZM101.036,58.367H99.713v.763l.66.382Zm0-79.568-.593-1.183-.73.366v.817Zm.126-.063.593,1.183.036-.018.034-.02Zm136.65.443h1.323v-.763l-.66-.382Zm-68.135-39.4.663-1.145-.663-.383-.662.383Zm-68.135,39.4-.663-1.146-.66.382v.763Zm0,78.808h-1.323v.763l.66.382Zm68.135,39.4-.662,1.146.662.383.663-.383Zm68.135-39.4.663,1.145.66-.382v-.763ZM169.147-59.739l.126.063,1.187-2.366-.127-.063Zm.057.026,68.578,39.657,1.325-2.291L170.529-62ZM237.121-21.2V58.367h2.647V-21.2Zm.73,78.385-.127.063,1.187,2.366.126-.063Zm-.2.1L169.077,96.942l1.326,2.291L238.98,59.576ZM170.333,96.9l-.127-.063-1.186,2.366.127.063Zm-.057-.026L101.7,57.221l-1.325,2.291L168.952,99.17ZM102.36,58.367V-21.2H99.713V58.367Zm-.731-78.385.126-.063-1.186-2.366-.126.063Zm.2-.1L170.4-59.776l-1.326-2.291L100.5-22.41Zm136.65-1.848L170.34-61.37l-1.325,2.291,68.135,39.4Zm-69.46-39.4-68.136,39.4,1.325,2.291,68.136-39.4Zm-68.8,40.549V57.987h2.647V-20.821Zm.66,79.953,68.136,39.4,1.325-2.291L102.2,56.841Zm69.461,39.4,68.135-39.4-1.325-2.291-68.135,39.4Zm68.8-40.549V-20.821h-2.647V57.987Z" transform="translate(242.993 63.071)" fill="#dedede"/>
      <path id="Path_86710" data-name="Path 86710" d="M153.349,78.3v1.323h1.323V78.3Zm-.633,0h-1.323v1.323h1.323Zm0-79.188V-2.21h-1.323V-.887Zm.633,0h1.323V-2.21h-1.323Zm0,77.864h-.633v2.647h.633Zm.691,1.323V-.887h-2.647V78.3ZM152.716.436h.633V-2.21h-.633Zm-.691-1.323V78.3h2.647V-.887Z" transform="translate(259.698 82.54)" fill="#dedede"/>
      <path id="Path_86711" data-name="Path 86711" d="M169.985,38.629l1.146.663.661-1.147-1.145-.663Zm-.315.549-.662,1.147,1.146.663.66-1.147ZM101.249-.417,100.1-1.08,99.444.067l1.145.663Zm.316-.549.66-1.147-1.145-.663-.66,1.147ZM168.84,37.966l-.316.549,2.291,1.326.316-.549Zm1.49.065L101.911-1.563,100.589.73l68.419,39.594ZM102.395.246l.316-.549-2.291-1.326-.316.549ZM100.9.181l68.419,39.594,1.322-2.293L102.226-2.112Z" transform="translate(311.325 82.358)" fill="#dedede"/>
      <path id="Path_86712" data-name="Path 86712" d="M221.72-.388l.662,1.146L223.527.1l-.66-1.146Zm-68.4,39.626-1.145.663.66,1.146,1.146-.663ZM153,38.689l-.66-1.146-1.146.663.662,1.146ZM221.4-.936,222.55-1.6l-.662-1.146-1.145.663Zm-.344-.6-68.4,39.626,1.322,2.293L222.382.758Zm-66.6,40.109-.316-.549-2.289,1.327.316.549Zm-.8,1.261L222.066.21l-1.322-2.293-68.4,39.626Zm66.6-40.109.316.548,2.291-1.327L222.55-1.6Z" transform="translate(191.107 82.367)" fill="#dedede"/>
      <path id="Path_86713" data-name="Path 86713" d="M428.466,208.355l.594-1.183-.638-.32-.618.357Zm.127.064.663-1.146-.034-.02-.036-.017Zm68.578,39.657h1.323v-.764l-.662-.381Zm0,79.568.593,1.183.73-.367v-.817Zm-.127.063-.593-1.183-.036.017-.034.02Zm-68.578,39.657-.593,1.183.638.32.618-.357Zm-.126-.064-.663,1.146.034.02.036.017Zm-68.578-39.656h-1.323v.764l.662.382Zm0-79.568-.593-1.183-.73.367v.817Zm.127-.064.593,1.184.034-.019.034-.02Zm68.577-38.959.663-1.146-.663-.384-.662.384Zm-68.135,39.4-.663-1.146-.66.382v.764Zm0,78.871h-1.323v.762l.66.383Zm68.135,39.4-.662,1.145.662.384.663-.384Zm68.136-39.4.662,1.145.662-.383v-.762ZM427.873,209.538l.127.064,1.186-2.366-.126-.064Zm.057.025,68.578,39.658,1.325-2.291-68.577-39.658Zm67.918,38.512v79.568h2.647V248.075Zm.731,78.385-.127.063,1.186,2.366.127-.063Zm-.2.1L427.8,366.219l1.325,2.291,68.578-39.658Zm-67.323,39.62-.126-.064-1.186,2.366.126.064Zm-.057-.025L360.425,326.5,359.1,328.79l68.577,39.657Zm-67.916-38.512V248.075h-2.647v79.568Zm-.731-78.385.127-.062-1.186-2.367-.127.064Zm.2-.1L429.129,209.5l-1.325-2.292-68.578,39.658Zm136.713-1.847-68.135-39.4L427.8,210.2l68.135,39.4Zm-69.459-39.4-68.136,39.4,1.326,2.291,68.135-39.4Zm-68.8,40.55v78.871h2.647V248.456Zm.66,80.016,68.136,39.4,1.325-2.291-68.135-39.4Zm69.461,39.4,68.135-39.4-1.325-2.291-68.135,39.4Zm68.8-40.549V248.456h-2.647v78.871Z" transform="translate(-358.117 150.139)" fill="#dedede"/>
      <path id="Path_86714" data-name="Path 86714" d="M412.076,287.849l0,1.323H413.4l0-1.323Zm-.633,0-1.323,0,0,1.323,1.323,0Zm-.152-79.251,0-1.323-1.323,0,0,1.323Zm.633,0,1.323,0v-1.323l-1.323,0Zm.15,77.928h-.632l.005,2.647h.633Zm.693,1.322-.152-79.251-2.647.005.152,79.251Zm-1.473-77.925h.633l0-2.647h-.634ZM410.6,208.6l.152,79.251,2.647,0-.152-79.252Z" transform="translate(-341.211 150.275)" fill="#dedede"/>
      <path id="Path_86715" data-name="Path 86715" d="M428.53,307.873l1.146.663.66-1.147-1.145-.663Zm-.315.548-.662,1.147,1.146.663.66-1.147Zm-68.257-39.5-1.145-.662-.66,1.146,1.145.663Zm.316-.548.66-1.147-1.145-.663-.66,1.147Zm67.111,38.836-.316.548,2.291,1.326.316-.548Zm1.49.065-68.255-39.5L359.3,270.07l68.255,39.5ZM361.1,269.585l.316-.548-2.291-1.326-.316.549Zm-1.49-.065,68.255,39.5,1.322-2.293-68.257-39.5Z" transform="translate(-289.58 169.446)" fill="#dedede"/>
      <path id="Path_86716" data-name="Path 86716" d="M480.393,268.987l.658,1.147,1.147-.66-.659-1.147Zm-68.561,39.474-1.147.66.658,1.149,1.147-.66Zm-.315-.549-.659-1.147-1.146.66.658,1.147Zm68.561-39.474,1.147-.66-.659-1.149-1.146.66Zm-.343-.6-68.562,39.475,1.317,2.3,68.561-39.475ZM412.978,307.8l-.315-.549-2.293,1.321.315.549Zm-.8,1.26,68.561-39.475-1.315-2.3-68.562,39.475ZM478.931,269.1l.315.549,2.293-1.321-.314-.549Z" transform="translate(-409.672 169.467)" fill="#dedede"/>
      <path id="Path_86717" data-name="Path 86717" d="M273.336,118.6l.593-1.183-.638-.32-.617.357Zm.127.063.662-1.146-.033-.02-.036-.017Zm68.577,39.657h1.323v-.762l-.66-.383Zm0,79.569.593,1.183.731-.367v-.817Zm-.126.064-.593-1.183-.036.017-.034.02ZM273.336,277.6l-.593,1.183.638.32.618-.357Zm-.126-.064-.663,1.146.034.02.036.019Zm-68.578-39.657h-1.323v.764l.66.382Zm0-79.569-.593-1.183-.73.367v.817Zm.127-.062.593,1.183.035-.018.034-.02Zm136.713.443H342.8v-.764l-.662-.382Zm-68.136-39.4.663-1.146-.663-.384-.662.384ZM205.2,158.7l-.663-1.146-.66.382v.764Zm0,78.871h-1.323v.762l.66.382Zm68.135,39.4-.662,1.145.662.384.663-.384Zm68.136-39.4.662,1.145.662-.382v-.762ZM272.743,119.779l.127.064,1.186-2.366-.127-.064Zm.057.026,68.578,39.657,1.325-2.291-68.578-39.658Zm67.917,38.511v79.569h2.647V158.316Zm.731,78.385-.126.064,1.186,2.366.126-.064Zm-.2.1L272.675,276.46,274,278.751l68.577-39.657Zm-67.322,39.619-.126-.064-1.186,2.367.126.062Zm-.057-.025L205.3,236.739l-1.326,2.292,68.578,39.657Zm-67.917-38.512V158.316h-2.647v79.569Zm-.731-78.385.127-.062-1.186-2.366-.127.062Zm.2-.1L274,119.742l-1.325-2.292L204.1,157.108Zm136.713-1.847L274,118.148l-1.325,2.291,68.135,39.4Zm-69.46-39.4-68.136,39.4,1.326,2.291L274,120.438Zm-68.8,40.55v78.871h2.647V158.7Zm.66,80.016,68.136,39.4L274,275.826l-68.135-39.4ZM274,278.117l68.135-39.4-1.325-2.291-68.135,39.4Zm68.8-40.548V158.7h-2.647v78.871Z" transform="translate(2.304 121.116)" fill="#dedede"/>
      <path id="Path_86718" data-name="Path 86718" d="M256.992,198.091l0,1.323,1.323,0,0-1.323Zm-.633,0h-1.323l0,1.323h1.323Zm-.152-79.252,0-1.323-1.323,0,0,1.323Zm.633,0,1.323,0v-1.323l-1.323,0Zm.15,77.928h-.633l.005,2.647h.633Zm.693,1.322-.152-79.251-2.647,0,.152,79.251Zm-1.473-77.926h.633l0-2.647H256.2Zm-.693-1.322.152,79.252,2.647-.005-.152-79.251Z" transform="translate(19.102 121.252)" fill="#dedede"/>
      <path id="Path_86719" data-name="Path 86719" d="M273.407,218.1l1.146.663.66-1.147-1.145-.663Zm-.315.549-.66,1.146,1.145.663.66-1.147Zm-68.255-39.5-1.146-.663-.66,1.146,1.145.663Zm.315-.549.662-1.146-1.146-.663-.66,1.146Zm67.111,38.836-.316.549,2.291,1.325.316-.548Zm1.49.065L205.5,178l-1.322,2.293,68.257,39.5Zm-67.771-37.689.316-.549-2.291-1.326-.316.549Zm-1.49-.065,68.255,39.5,1.322-2.293-68.255-39.5Z" transform="translate(70.824 140.419)" fill="#dedede"/>
      <path id="Path_86720" data-name="Path 86720" d="M325.274,179.216l.658,1.149,1.147-.66-.658-1.149Zm-68.561,39.475-1.147.66.658,1.149,1.147-.66Zm-.315-.549-.658-1.149-1.147.66.658,1.149Zm68.561-39.475,1.147-.66-.659-1.149-1.146.66Zm-.343-.6-68.562,39.474,1.317,2.3,68.561-39.475Zm-66.757,39.962-.315-.549-2.293,1.321.315.549Zm-.8,1.259,68.561-39.474-1.315-2.3L255.74,216.994Zm66.756-39.962.315.549,2.295-1.321-.315-.549Z" transform="translate(-49.278 140.44)" fill="#dedede"/>
      <path id="Path_86721" data-name="Path 86721" d="M118.2,28.79l.593-1.183-.638-.32-.618.358Zm.127.063.663-1.145-.034-.02-.036-.018Zm68.577,39.721h1.323v-.763l-.66-.382Zm0,79.568.593,1.183.73-.367v-.817Zm-.127.064-.593-1.183-.035.017-.034.02ZM118.2,187.861l-.593,1.183.638.32.618-.357Zm-.126-.064-.663,1.146.034.02.036.019ZM49.5,148.141H48.178v.764l.66.382Zm0-79.568-.593-1.183-.73.366v.817Zm.126-.063.593,1.183.036-.018.036-.02Zm136.65.443H187.6V68.19l-.661-.382Zm-68.136-39.4L118.8,28.4l-.663-.383-.662.383Zm-68.135,39.4-.663-1.145-.66.382v.763Zm0,78.808H48.683v.764l.66.381Zm68.135,39.4-.662,1.145.662.384.663-.384Zm68.136-39.4.663,1.145.661-.381v-.764ZM117.612,29.973l.127.063,1.186-2.366-.127-.063Zm.056.025,68.578,39.72,1.326-2.29L118.995,27.708Zm67.918,38.575v79.568h2.647V68.573Zm.73,78.385-.126.063,1.186,2.366.126-.064Zm-.2.1-68.578,39.658,1.326,2.291,68.577-39.657ZM118.8,186.678l-.126-.064-1.186,2.367.126.062Zm-.057-.025L50.163,147l-1.325,2.292,68.578,39.657ZM50.824,148.141V68.573H48.178v79.568Zm-.731-78.385.126-.063-1.186-2.366-.126.063Zm.2-.1,68.577-39.721-1.326-2.29L48.964,67.365ZM186.94,67.808,118.8,28.4,117.48,30.7l68.135,39.4ZM117.48,28.4l-68.136,39.4L50.67,70.1,118.8,30.7Zm-68.8,40.549v78.808H51.33V68.953Zm.66,79.953,68.136,39.4,1.325-2.291-68.135-39.4Zm69.461,39.4,68.135-39.4-1.325-2.291-68.135,39.4Zm68.8-40.549V68.953h-2.647v78.808Z" transform="translate(362.727 92.078)" fill="#dedede"/>
      <path id="Path_86722" data-name="Path 86722" d="M101.861,108.283l0,1.323,1.323,0,0-1.323Zm-.633,0-1.323,0,0,1.323,1.323,0Zm-.152-79.251,0-1.323-1.323,0,0,1.323Zm.633,0,1.324,0,0-1.323-1.324,0Zm.15,77.928h-.633l.005,2.647h.633Zm.693,1.322L102.4,29.031l-2.647.005.152,79.251Zm-1.473-77.925h.633l-.005-2.647h-.633Zm-.693-1.322.152,79.251,2.647-.005-.152-79.251Z" transform="translate(379.525 92.214)" fill="#dedede"/>
      <path id="Path_86723" data-name="Path 86723" d="M118.317,128.328l1.145.663.661-1.146-1.145-.663Zm-.316.549-.661,1.146,1.145.663.66-1.146Zm-68.256-39.5L48.6,88.715l-.66,1.147,1.145.663Zm.316-.549.66-1.147-1.145-.663-.66,1.147Zm67.11,38.836-.316.549,2.291,1.326.316-.549Zm1.49.065-68.256-39.5-1.321,2.293,68.256,39.5ZM50.891,90.041l.316-.549-2.291-1.326-.316.549Zm-1.49-.065,68.256,39.5,1.321-2.293-68.256-39.5Z" transform="translate(431.151 111.392)" fill="#dedede"/>
      <path id="Path_86724" data-name="Path 86724" d="M170.214,89.4l.658,1.148,1.148-.66-.658-1.148Zm-68.569,39.467-1.147.66.658,1.149,1.147-.66Zm-.315-.549-.658-1.149-1.147.66.658,1.149ZM169.9,88.853l1.147-.66-.658-1.148-1.147.66Zm-.343-.6-68.569,39.466,1.315,2.3,68.569-39.467Zm-66.764,39.955-.315-.549-2.295,1.321.315.549Zm-.8,1.26L170.558,90l-1.317-2.3-68.569,39.467Zm66.765-39.956.315.549,2.293-1.32-.315-.549Z" transform="translate(310.99 111.4)" fill="#dedede"/>
      <path id="Path_86725" data-name="Path 86725" d="M324.92,28.837l.593-1.183-.638-.32-.618.358Zm.127.063.662-1.146-.033-.02-.036-.018Zm68.577,39.657h1.323v-.763l-.66-.382Zm0,79.632.593,1.183.731-.367v-.816Zm-.126.064-.593-1.183-.036.017-.034.02ZM324.92,187.909l-.593,1.183.638.32.618-.357Zm-.126-.063-.663,1.146.034.02.034.017Zm-68.578-39.657h-1.323v.764l.66.381Zm0-79.568-.593-1.183-.731.366v.817Zm.127-.063.593,1.183.036-.018.034-.02ZM392.993,69h1.323v-.763l-.662-.382ZM324.857,29.6l.663-1.146-.663-.383-.662.383ZM256.722,69l-.662-1.146-.662.382V69Zm0,78.808H255.4v.762l.662.382Zm68.135,39.4-.662,1.145.662.384.663-.384Zm68.136-39.4.661,1.145.662-.382v-.762ZM324.327,30.02l.127.063,1.186-2.366-.127-.063Zm.057.026L392.963,69.7l1.325-2.291L325.709,27.755ZM392.3,68.558v79.632h2.647V68.558Zm.73,78.448-.126.064,1.186,2.366.126-.064Zm-.2.1-68.577,39.657,1.325,2.292L394.16,149.4Zm-67.322,39.619-.126-.064-1.187,2.366.127.064Zm-.057-.025-68.577-39.658-1.326,2.291,68.578,39.658ZM257.54,148.189V68.621h-2.647v79.568Zm-.73-78.385.127-.063-1.186-2.366-.127.063Zm.2-.1,68.577-39.721-1.326-2.29L255.679,67.413Zm136.648-1.847-68.135-39.4L324.2,30.743l68.135,39.4Zm-69.46-39.4-68.135,39.4,1.325,2.291,68.135-39.4ZM255.4,69V147.81h2.647V69Zm.662,79.953,68.135,39.4,1.325-2.291-68.135-39.4Zm69.459,39.4,68.135-39.4-1.325-2.291-68.135,39.4Zm68.8-40.549V69H391.67V147.81Z" transform="translate(-117.543 92.093)" fill="#dedede"/>
      <path id="Path_86726" data-name="Path 86726" d="M308.574,108.379l0,1.323,1.323,0,0-1.323Zm-.633,0-1.323,0,0,1.323,1.323,0Zm-.152-79.251,0-1.323-1.323,0,0,1.323Zm.633,0,1.323,0V27.8l-1.323,0Zm.149,77.928h-.632l.005,2.647h.633Zm.693,1.322-.152-79.251-2.647.005.152,79.251Zm-1.473-77.925h.633l0-2.647h-.634ZM307.1,29.13l.152,79.251,2.647-.005-.152-79.251Z" transform="translate(-100.74 92.245)" fill="#dedede"/>
      <path id="Path_86799" data-name="Path 86799" d="M308.574,108.379l0,1.323,1.323,0,0-1.323Zm-.633,0-1.323,0,0,1.323,1.323,0Zm-.152-79.251,0-1.323-1.323,0,0,1.323Zm.633,0,1.323,0V27.8l-1.323,0Zm.149,77.928h-.632l.005,2.647h.633Zm.693,1.322-.152-79.251-2.647.005.152,79.251Zm-1.473-77.925h.633l0-2.647h-.634ZM307.1,29.13l.152,79.251,2.647-.005-.152-79.251Z" transform="translate(-169.454 -27.138)" fill="#dedede"/>
      <path id="Path_86800" data-name="Path 86800" d="M308.574,108.379l0,1.323,1.323,0,0-1.323Zm-.633,0-1.323,0,0,1.323,1.323,0Zm-.152-79.251,0-1.323-1.323,0,0,1.323Zm.633,0,1.323,0V27.8l-1.323,0Zm.149,77.928h-.632l.005,2.647h.633Zm.693,1.322-.152-79.251-2.647.005.152,79.251Zm-1.473-77.925h.633l0-2.647h-.634ZM307.1,29.13l.152,79.251,2.647-.005-.152-79.251Z" transform="translate(-31.232 -28.237)" fill="#dedede"/>
      <path id="Path_86727" data-name="Path 86727" d="M325,128.417l1.145.663.66-1.146-1.145-.663Zm-.316.549-.66,1.146,1.145.663.66-1.146Zm-68.255-39.5-1.146-.663-.66,1.147,1.146.663Zm.316-.549.66-1.147-1.146-.663-.66,1.147Zm67.109,38.835-.316.549,2.291,1.326.316-.549Zm1.49.065-68.255-39.5-1.321,2.293,68.255,39.5ZM257.575,90.13l.316-.549L255.6,88.256l-.316.549Zm-1.49-.065,68.257,39.5,1.321-2.293-68.255-39.5Z" transform="translate(-49.047 111.421)" fill="#dedede"/>
      <path id="Path_86801" data-name="Path 86801" d="M325,128.417l1.145.663.66-1.146-1.145-.663Zm-.316.549-.66,1.146,1.145.663.66-1.146Zm-68.255-39.5-1.146-.663-.66,1.147,1.146.663Zm.316-.549.66-1.147-1.146-.663-.66,1.147Zm67.109,38.835-.316.549,2.291,1.326.316-.549Zm1.49.065-68.255-39.5-1.321,2.293,68.255,39.5ZM257.575,90.13l.316-.549L255.6,88.256l-.316.549Zm-1.49-.065,68.257,39.5,1.321-2.293-68.255-39.5Z" transform="translate(-117.387 229.973)" fill="#dedede"/>
      <path id="Path_86728" data-name="Path 86728" d="M376.876,89.464l.659,1.148,1.146-.66-.658-1.148Zm-68.561,39.476-1.147.66.659,1.147,1.146-.66Zm-.315-.551-.658-1.147-1.147.66.658,1.147Zm68.562-39.474,1.146-.66-.658-1.148-1.147.66Zm-.344-.6-68.561,39.475,1.315,2.3,68.563-39.475Zm-66.756,39.963-.315-.549-2.295,1.319.315.551Zm-.8,1.259L377.22,90.063l-1.317-2.3-68.561,39.475Zm66.757-39.963.315.549,2.293-1.321-.315-.549Z" transform="translate(-169.167 111.42)" fill="#dedede"/>
      <path id="Path_86729" data-name="Path 86729" d="M273.24-60.874l.593-1.183-.638-.32-.618.358Zm.126.063.663-1.146-.034-.02-.036-.018Zm68.578,39.657h1.323v-.763l-.66-.382Zm0,79.631.593,1.183.73-.366v-.817Zm-.126.063-.594-1.183-.034.018-.034.02ZM273.24,98.2l-.593,1.183.638.319.618-.357Zm-.127-.063-.662,1.145.034.02.034.018ZM204.536,58.478h-1.323v.763l.66.382Zm0-79.568-.593-1.183-.73.366v.817Zm.126-.063.593,1.183.036-.018.034-.02Zm136.713.443H342.7v-.763l-.66-.382Zm-68.135-39.4.663-1.146-.663-.383-.663.383Zm-68.135,39.4-.663-1.145-.66.382v.763Zm0,78.808h-1.323v.763l.66.382ZM273.24,97.5l-.663,1.146.663.383.663-.383Zm68.135-39.4.663,1.146.66-.382V58.1ZM272.647-59.691l.127.063,1.184-2.366-.126-.063Zm.057.026,68.578,39.657,1.325-2.291L274.029-61.956Zm67.917,38.512V58.478h2.647V-21.153Zm.73,78.448-.127.063,1.187,2.366.126-.063Zm-.2.1L272.577,97.053l1.326,2.291L342.48,59.687Zm-67.322,39.62-.127-.063-1.186,2.366.127.063Zm-.057-.026L205.2,57.332l-1.325,2.291,68.578,39.657ZM205.86,58.478V-21.09h-2.647V58.478Zm-.731-78.385.126-.063-1.186-2.366-.126.063Zm.2-.1L273.9-59.729l-1.326-2.29L204-22.3Zm136.713-1.847L273.9-61.259l-1.326,2.291,68.136,39.4Zm-69.461-39.4-68.135,39.4,1.325,2.291,68.136-39.4Zm-68.8,40.549V58.1h2.647V-20.71Zm.66,79.953,68.135,39.4,1.326-2.291-68.136-39.4Zm69.461,39.4,68.135-39.4-1.325-2.291-68.136,39.4ZM342.7,58.1V-20.71h-2.647V58.1Z" transform="translate(2.527 63.086)" fill="#dedede"/>
      <path id="Path_86730" data-name="Path 86730" d="M273.272,38.683l1.146.663.66-1.147-1.146-.663Zm-.316.549-.66,1.147,1.146.663.66-1.147ZM204.7-.267,203.555-.93l-.66,1.147L204.04.88Zm.316-.549.66-1.147-1.145-.663-.66,1.147Zm67.111,38.836-.316.549,2.291,1.326.316-.549Zm1.49.065-68.255-39.5L204.04.88l68.255,39.5ZM205.846.4l.316-.549-2.291-1.326-.316.549Zm-1.49-.065,68.255,39.5,1.321-2.293-68.255-39.5Z" transform="translate(71.137 82.406)" fill="#dedede"/>
      <path id="Path_86731" data-name="Path 86731" d="M325.184-.261l.658,1.148,1.147-.66L326.33-.922ZM256.622,39.214l-1.146.66.658,1.148,1.147-.66Zm-.314-.549-.659-1.148-1.146.66.658,1.148ZM324.869-.811l1.147-.66-.659-1.148-1.146.66Zm-.343-.6L255.964,38.066l1.317,2.3L325.842.887ZM257.769,38.553,257.454,38l-2.293,1.321.315.549Zm-.8,1.259L325.527.337l-1.315-2.3L255.649,37.516ZM323.722-.15l.315.549L326.33-.922l-.313-.549Z" transform="translate(-49.069 82.408)" fill="#dedede"/>
      <path id="Path_86732" data-name="Path 86732" d="M376.74-60.922l.593-1.183-.638-.32-.618.357Zm.126.063L377.529-62l-.034-.02-.034-.018ZM445.444-21.2h1.323v-.763l-.66-.382Zm0,79.568.593,1.183.73-.366v-.817Zm-.126.063-.594-1.183-.034.018-.034.02ZM376.74,98.087l-.593,1.183.638.32.617-.357Zm-.127-.063-.662,1.146.034.02.034.018ZM308.036,58.367h-1.323v.763l.66.382Zm0-79.568-.593-1.183-.73.366v.817Zm.126-.063.593,1.183.036-.018.034-.02Zm68.578-38.96.662-1.145-.662-.383-.663.383Zm-68.135,39.4-.663-1.146-.66.382v.763Zm0,78.871h-1.323v.763l.66.382Zm68.135,39.4-.663,1.146.663.383.662-.383Zm68.135-39.4.663,1.146.66-.382V58.05ZM376.147-59.739l.126.063,1.187-2.366-.127-.063Zm.057.026,68.578,39.657,1.325-2.291L377.529-62ZM444.121-21.2V58.367h2.647V-21.2Zm.731,78.385-.127.063,1.187,2.366.126-.063Zm-.2.1L376.077,96.942l1.325,2.291L445.98,59.576ZM377.333,96.9l-.127-.063-1.186,2.366.127.063Zm-.057-.026L308.7,57.221l-1.325,2.291L375.952,99.17ZM309.36,58.367V-21.2h-2.647V58.367Zm-.73-78.385.126-.063-1.186-2.366-.126.063Zm.2-.1L377.4-59.776l-1.325-2.291L307.5-22.41Zm136.713-1.848L377.4-61.37l-1.325,2.291,68.136,39.4Zm-69.461-39.4-68.135,39.4,1.325,2.291,68.135-39.4Zm-68.8,40.549V58.05h2.647V-20.821Zm.66,80.017,68.135,39.4,1.325-2.291L309.267,56.9ZM377.4,98.6l68.136-39.4L444.214,56.9l-68.136,39.4Zm68.8-40.55V-20.821h-2.647V58.05Z" transform="translate(-237.939 63.071)" fill="#dedede"/>
      <path id="Path_86733" data-name="Path 86733" d="M376.834,38.62l1.145.663.66-1.147-1.145-.663Zm-.316.549-.66,1.147,1.145.663.66-1.147ZM308.262-.331l-1.146-.663-.66,1.147L307.6.816Zm.316-.549.66-1.147-1.146-.663-.66,1.147Zm67.109,38.836-.316.549,2.291,1.326.316-.549Zm1.49.065-68.255-39.5L307.6.816l68.255,39.5ZM309.407.332l.316-.549-2.291-1.326-.316.549Zm-1.49-.065,68.257,39.5,1.321-2.293-68.255-39.5Z" transform="translate(-169.47 82.386)" fill="#dedede"/>
      <path id="Path_86734" data-name="Path 86734" d="M428.7-.325l.658,1.148,1.147-.66-.658-1.148ZM360.135,39.142l-1.147.66.658,1.148,1.147-.66Zm-.315-.549-.658-1.148-1.147.66.658,1.148ZM428.389-.874l1.147-.66-.658-1.148-1.147.66Zm-.343-.6L359.477,37.994l1.316,2.3L429.362.823ZM361.281,38.482l-.314-.549-2.295,1.32.315.549Zm-.8,1.259L429.047.274l-1.315-2.3L359.162,37.445ZM427.243-.214l.314.549,2.295-1.32-.315-.549Z" transform="translate(-289.57 82.388)" fill="#dedede"/>
      <path id="Path_86735" data-name="Path 86735" d="M118.2,28.79l.593-1.183-.638-.32-.618.358Zm.127.063.663-1.145-.034-.02-.036-.018Zm68.577,39.721h1.323v-.763l-.66-.382Zm0,79.568.593,1.183.73-.367v-.817Zm-.127.064-.593-1.183-.035.017-.034.02ZM118.2,187.861l-.593,1.183.638.32.618-.357Zm-.126-.064-.663,1.146.034.02.036.019ZM49.5,148.141H48.178v.764l.66.382Zm0-79.568-.593-1.183-.73.366v.817Zm.126-.063.593,1.183.036-.018.036-.02Zm136.65.443H187.6V68.19l-.661-.382Zm-68.136-39.4L118.8,28.4l-.663-.383-.662.383Zm-68.135,39.4-.663-1.145-.66.382v.763Zm0,78.808H48.683v.764l.66.381Zm68.135,39.4-.662,1.145.662.384.663-.384Zm68.136-39.4.663,1.145.661-.381v-.764ZM117.612,29.973l.127.063,1.186-2.366-.127-.063Zm.056.025,68.578,39.72,1.326-2.29L118.995,27.708Zm67.918,38.575v79.568h2.647V68.573Zm.73,78.385-.126.063,1.186,2.366.126-.064Zm-.2.1-68.578,39.658,1.326,2.291,68.577-39.657ZM118.8,186.678l-.126-.064-1.186,2.367.126.062Zm-.057-.025L50.163,147l-1.325,2.292,68.578,39.657ZM50.824,148.141V68.573H48.178v79.568Zm-.731-78.385.126-.063-1.186-2.366-.126.063Zm.2-.1,68.577-39.721-1.326-2.29L48.964,67.365ZM186.94,67.808,118.8,28.4,117.48,30.7l68.135,39.4ZM117.48,28.4l-68.136,39.4L50.67,70.1,118.8,30.7Zm-68.8,40.549v78.808H51.33V68.953Zm.66,79.953,68.136,39.4,1.325-2.291-68.135-39.4Zm69.461,39.4,68.135-39.4-1.325-2.291-68.135,39.4Zm68.8-40.549V68.953h-2.647v78.808Z" transform="translate(362.726 92.078)" fill="#dedede"/>
    </g>
  </g>
</svg>
