<svg id="Component_18_2" data-name="Component 18 – 2" xmlns="http://www.w3.org/2000/svg" width="316.001" height="193.686" viewBox="0 0 316.001 193.686">
  <path id="Path_86686" data-name="Path 86686" d="M156.345,354.814c.461-1.2.553-1.933-2.944-3.314s-3.128-2.3-5.521-6.535-6.717-6.072-6.717-7.635-4.232-1.381-4.232-.187-1.84,1.568-2.853,2.21-1.473-.367-2.393-1.565-3.128-2.391-3.128-3.128-.553-2.3-2.116-1.563-2.393,0-2.852.551-1.656-.337-1.656-.337v-47.7a5.917,5.917,0,0,1-1.427-.294c-2-.758-4.968-2.139-6.555-1.794s-4.761.758-5.866.206a7.791,7.791,0,0,0-4.9-.69c-2.277.347-3.727-1.243-6.626-1.932a17.728,17.728,0,0,0-7.935.553c-.966.344-.758-1.036-2-.9s-.275-.551-.966-1.587-4.14-.07-5.383.068-1.586-.621-1.518-1.241-1.1-.415-1.586.413a1.714,1.714,0,0,1-2.414.415c-.553-.552,1.172-.76,1.241-1.381s-1.794-.966-2.484-1.173-1.794.69-3.244,2-3.588,1.173-4.9,1.034-2.967.139-2.9.9,1.656.689.69,1.654-1.311-1.309-2.277-.275-3.865.966-4.555.828-2.967,2.345-3.659,3.037.553,1.311-1.309,3.312-6.832,1.588-7.867,1.588-.275,1.173-.828,1.933.621,1.447,3.45,2.206,4.762,4.485,5.106,5.383,3.866-.068,5.245.139-.138,2.139,1.035,2.691,2.969-.277,3.312.69-2.346,0-3.727,1.034-2.069,1.52-2.622.76-2.829-.277-4-.138-.068-1.452,0-2.141-1.586-1.173-3.865.139-1.449.828-1.726,1.862-1.241-.621-2.69.277-3.8,1.518-4.21,2.415,3.1,1.518,4.485,1.794-1.656,1.173-.553,1.518.622,1.381,2.348,2.278,5.589,0,6.624,0,2,1.241,2.828.344,3.934-3.379,5.522-1.932-1.726,1.241-.9,2.139,1.863,3.037.345,4.142-2.967.344-3.8.274-.344,1.52-1.656,2.554-2.277-1.1-3.933-1.1-1.311,2.139-1.243,3.173-2.483-.207-3.1,2.278-3.243.345-1.518,2.76,1.449.9,2.829,1.864-1.517,2.692-.138,2.967,2.9,2.761,3.865,3.657,2.207-.483,3.657-.551.758-2.071,1.586-1.311,2,2.965,1.243,3.518-.138,2.277-.275,3.1,3.174.554,3.38-.413,2.831-1.243,4.28.344,1.933,1.864,1.933.624,1.241-2.625,1.309-1.59,1.243,1.311,3.382.345,1.173.071.07,1.449c-1.525,1.908,0,4.694-1.105,4.968s-2,3.108-3.8,3.315-4.831,3.589-5.244,4.142-4.28-1.105-4.831.481-2.89,2.769-2.278,3.383c.413.413,3.589-1.173,3.727-2s.551-.689,1.1-.068,1.932-.276,2.554-.828,1.656-.345,2.277-.277.9-.758,2.761-1.105,1.449-.9,1.862-1.862,4.832-3.037,5.66-3.244.345-1.586,1.241-1.658,2.278-1.173,3.45-2.139,1.45-.551,2.346-.9.207-2.139,1.105-2.277a1.759,1.759,0,0,0,1.586-1.588c0-.758-2.277-.758-2.484-1.241s1.794-2.277,2.554-2.209a2.179,2.179,0,0,0,2.069-1.862c.07-1.1,1.175-1.311,2.071-2.277s.69-1.794,1.586-1.864,1.726-1.312,2.692-1.864,0,.689,1.863.76,1.45,1.792.07,1.173-2-.554-3.244.619-.276,1.52-1.241,2.831-1.035,2.137.206,2.277.07,1.034-1.1,1.379-.345,1.035,1.241,1.035,3.934-2.277,6.143-3.382,3.865,0,4.485-.207-.69-1.241.07-1.585-.9-.554-1.381-1.863.758-.484,1.035-1.518,1.035-.622,1.726-.139,1.655-.483,2.277.828,1.311-.344,2.414.553-.207.76-1.381,1.035-.551,1.863.345,1.105,1.656-1.243,2.486-.483,1.173.413,1.862-.279.69.07.69.622,1.449.758,3.52,1.105a33.833,33.833,0,0,0,6.762-.207c.967-.068.622,1.447,2.761,1.862s2.692-2.137,3.8-1.241,0,1.241-.621,1.932.69.758,1.518,1.105,2.76.9,3.657,1.792a10.878,10.878,0,0,0,3.657,2.967c2.209,1.105.07-2.76,1.794-1.517s1.105.07,2.484,1.311.9-.553.277-2.622.621-.69,1.241.276a5.468,5.468,0,0,1,.207,4.072c-.415,1.243-2.484.207-2.277-.483s-2.071-.413-2.139.553a4.042,4.042,0,0,0,2.554,3.038c1.1.206.274,1.933.966,2.137.946.285.9,2.071,1.449,1.8s.345-2.415-.277-3.38-.345-2.35.483-2.073,0,1.726.415,2.209.9-.483,1.863-1.034-.413-2.142-.068-2.97,1.449.69,1.862,2.139-1.035,1.382-1.035,2.142-1.311.413-1.724.828-.207,3.174.345,3.243.9-2.277,1.241-1.1,1.656-1.518,2-.415,2,2.348,2.623,2.071-.277-1.45-1.243-1.518-.828-1.656.068-1.726,2.484,2.278,2.416,3.106-.828.758-1.588,1.588-1.794-1.381-2.691-1.311,0,1.447.415,2.413-1.1,2.278.068,3.038.83-.483,1.035-1.035,1.105.138,1.726.622c.58.449.69-1.105.69-1.727s1.035-.275,1.588.554.621-.9,1.449-.76.277,1.449.277,2.207,1.449-.621,1.309.207a1.27,1.27,0,0,0-.006.35c.765-.548,1.559-1.113,2.123-1.5C158.462,356.652,155.885,356.007,156.345,354.814Zm-116.44,9.8c1.656-.689,2.346-1.517,1.656-2.345S38.631,365.142,39.9,364.611Zm11.732-6.21c-1.518-.552-5.515,1.873-4.14,2.071.966.136,1.381-.83,2.484-.83S53.155,358.952,51.636,358.4Zm34.987-16.22c.07-.758-1.034-.689-2.414.9s-2.552,2.416-2.761,3.176-1.794-.139-2.277.827.342,3.109,1.311,2.419,1.035,0,1.658,0a10.645,10.645,0,0,0,4.071-2.9c.621-.966-1.105-1.241-1.173-1.862s1.449-.622,2.209-1.035S86.555,342.939,86.623,342.181ZM42.666,334.04c-.138-1.1-3.106-.07-2.761.966s3.147,1.712,4.349,1.311a1.25,1.25,0,0,0,.619-2.141C44.114,333.487,42.8,335.143,42.666,334.04Zm308.651,55.92c-.091-.919-2.851-.184-4.14-1.195s-3.5,3.589-3.956,5.521-3.865,4.046-3.865,4.046-9.845.094-10.673.094c-.576,0-2.837,1.952-4.165,3.144a1.33,1.33,0,0,1,.116.169c1,1.8-2.622,2.9-6.073,3.035a22.773,22.773,0,0,0-2.475.238,3.519,3.519,0,0,1,.176,1.234c-.025.22-.4.492-.922.772-.528,1.069-4.761,3.136-7.13,4.383-2.622,1.379-6.21.689-6.21-1.382s1.932-1.655,2.345-.689c.156.361.622.1,1.254-.356a2.709,2.709,0,0,1-.5-2.439c-.791-.345.441-3.436-1.162-3.967-1.656-.554-3.588,2.345-3.312.549s2.76-3.311,1.241-5.657-4.278-2.346-4.831-.553-2.484.966-3.173,2.345a11.32,11.32,0,0,0-.828,6.626c.551,2.209-.139,3.312-2.209,4.555s-3.154-1.9-2.346-5.934c.551-2.761,2.069-5.383.689-5.383s1.8-3.312,4.694-4,6.487-.413,6.487-1.243c0-.167.132-.28.351-.356a20.094,20.094,0,0,0-1.774-1.232.908.908,0,0,1-.373.484c-1.136.792-.828-1.243-2.9-1.243s-4.142,1.931-5.8,1.105-.83-1.933-2.348-1.933,1.105-2.9-1.1-1.656-5.521,4.28-7.038,2.9-2.9.415-4-.69,3.865-4.142,6.211-4a2.357,2.357,0,0,0,1.6-.616c-1.235-.454-3.78-1.449-4.451-.625-.828,1.011-2.023.365-2.668-.461s-1.472.274-2.575-1.012-2.209-.368-2.853-.093-1.472-.46-2.668-.919-.277-1.656-1.288-2.394-1.071,1.395-1.071,1.395l-85.771.461a2.92,2.92,0,0,0,.3.4c1.034,1.105.207,1.932.551,3.244s.07,3.174-.966,3.174a.833.833,0,0,1-.413-1.588c.76-.413.345-1.933-.413-1.933-.443,0-.622-.52-.6-1.127a13.182,13.182,0,0,1-4.916-.014.844.844,0,0,1,.067.245,8.724,8.724,0,0,0,1.588,4.14c1.1,1.45.344,2.348,1.379,2.9s.966,1.173,0,1.034-.276.76-.621,2.831-.276,6.349-.483,7.66-1.726,3.451-.828,4.831a6.472,6.472,0,0,1,1.035,5.036,4.6,4.6,0,0,0,.344,4.072c.76,1.313.139,3.589.967,4.071a7.787,7.787,0,0,1,2.346,2.692c.758,1.244,1.449.484,1.586,1.727s.138,1.449,1.243,1.932.413,1.724.413,2.414,1.45,1.933,3.244,3.521.276,2.9,1.586,2.9a7.715,7.715,0,0,1,3.865,1.587c1.311.829,1.726.345,2.623.551s2.552,2.141,2.9,3.451a11.629,11.629,0,0,0,.7,1.964l7.155-.939a14.835,14.835,0,0,0,3.465,1.845c1.254.293,8.036,2.8,8.036,2.8l8.847-.074L225.857,447h4.868a40.57,40.57,0,0,0,3.538,3.171c.441.144,1.99,1.546,1.99,2.431a2.1,2.1,0,0,0,1.105,1.99c.738.368,3.246,1.99,3.612,1.843s1.107-2.95,2.433-2.874,4.939,1.1,5.53,3.168a9.252,9.252,0,0,0,2.947,4.2c.59.441.3,1.695.738,2.359s.368,1.918.884,1.918,3.171,1.622,4.351,1.548a2.561,2.561,0,0,1,1.3.484c.142-2.466-2.394-2.879-.9-4.013,1.724-1.312-.07-2.416.758-2.969s2.278-1.1,2.278-1.932.758-.828,1.862-.689,3.176-1.8,3.038-2.555.206-.9,1.517-.621,1.1-1.518,1.933-1.241,1.518.76,1.586.136.9-.481,1.518.347,2.416,1.036,2.552.07,1.175,0,2.071.966,1.311.689,2.623.758,1.311-.277,1.379-1.1,1.45,1.792,2.761,1.932.275-.828-.69-1.586.206-1.105-.621-1.724,1.034-1.452,2.691-1.381,1.586.481,2.207-.484,1.243,0,1.243.828,2.692-.483,4.14-.483a3.173,3.173,0,0,1,2.9,2.071c.139.828,1.105,1.241,2.141.345s1.932-1.933,2.9-.967,1.932,2.277,3.1,3.45-.553,2.623.07,3.518-.07,2.142,1.309,3.108.139,2.967,1.243,3.244,2,2,2.139,2.688,2.209,1.59,2.346.416,1.243-2.554,1.381-3.657a14.855,14.855,0,0,0-1.726-6.281c-.9-1.241.207-1.517-.9-2.965a10.463,10.463,0,0,1-1.726-6.075c.07-2.071,2.484-5.45,3.657-6.487s2.484-.483,2.761-1.588,1.726-2.483,2.552-2.483,1.726.207,1.863-.689,1.518-2,3.312-2.278.76-1.244.277-2.071.413-1.656.758-1.105a1.637,1.637,0,0,0,2.139.139c.69-.481,2.278-1.794.76-1.864s-1.863-.689-.966-1.035.136-2-1.105-2.139-.828-.758-.068-1.518-1.105-2-2-2.623.551-.966,1.241-1.1.138-3.312.483-4.071,1.518-.758,1.035,0-1.173,2-.275,3.037a3.883,3.883,0,0,1,.826,3.727c-.344,1.586.347,1.172,1.381-.9s1.173-3.865.484-4.072-.622-2.277.138-1.311,1.035,1.105,2.209-.139,2.414-3.379,1.655-3.863.347-.967,1.726-.9,4.348-.83,4.555-1.244c.673-1.347-4.762.622-4.762-.136s3.451-1.52,5.038-1.588.828-2.209,1.518-1.312a1.849,1.849,0,0,0,2.622.207c.9-.551.207-2.139-.828-2.413s.76-.967.415-1.588.69-3.108,2-3.382.69-1.105,1.794-1.105,1.311-1.311,2.277-2.277,2.346,1.518,3.865.138a17.857,17.857,0,0,1,2.325-1.743C350.4,393.937,351.4,390.809,351.317,389.96Z" transform="translate(-37.939 -276.25)" fill="#ffc20e"/>
</svg>
