<svg id="Group_87406" data-name="Group 87406" xmlns="http://www.w3.org/2000/svg" width="24" height="23" viewBox="0 0 24 23">
  <g id="Ellipse_2585" data-name="Ellipse 2585" transform="translate(0 8)" fill="#ffc20e" stroke-miterlimit="10">
    <path d="M 4 7.5 C 2.070090055465698 7.5 0.5 5.929910182952881 0.5 4 C 0.5 2.070090055465698 2.070090055465698 0.5 4 0.5 C 5.929910182952881 0.5 7.5 2.070090055465698 7.5 4 C 7.5 5.929910182952881 5.929910182952881 7.5 4 7.5 Z" stroke="none"/>
    <path d="M 4 1 C 2.345789909362793 1 1 2.345789909362793 1 4 C 1 5.654210090637207 2.345789909362793 7 4 7 C 5.654210090637207 7 7 5.654210090637207 7 4 C 7 2.345789909362793 5.654210090637207 1 4 1 M 4 0 C 6.209139823913574 0 8 1.790860176086426 8 4 C 8 6.209139823913574 6.209139823913574 8 4 8 C 1.790860176086426 8 0 6.209139823913574 0 4 C 0 1.790860176086426 1.790860176086426 0 4 0 Z" stroke="none" fill="#ffc20e"/>
  </g>
  <g id="Ellipse_2586" data-name="Ellipse 2586" transform="translate(16)" fill="#ffc20e" stroke-miterlimit="10">
    <path d="M 4 7.5 C 2.070090055465698 7.5 0.5 5.929910182952881 0.5 4 C 0.5 2.070090055465698 2.070090055465698 0.5 4 0.5 C 5.929910182952881 0.5 7.5 2.070090055465698 7.5 4 C 7.5 5.929910182952881 5.929910182952881 7.5 4 7.5 Z" stroke="none"/>
    <path d="M 4 1 C 2.345789909362793 1 1 2.345789909362793 1 4 C 1 5.654210090637207 2.345789909362793 7 4 7 C 5.654210090637207 7 7 5.654210090637207 7 4 C 7 2.345789909362793 5.654210090637207 1 4 1 M 4 0 C 6.209139823913574 0 8 1.790860176086426 8 4 C 8 6.209139823913574 6.209139823913574 8 4 8 C 1.790860176086426 8 0 6.209139823913574 0 4 C 0 1.790860176086426 1.790860176086426 0 4 0 Z" stroke="none" fill="#ffc20e"/>
  </g>
  <g id="Ellipse_2587" data-name="Ellipse 2587" transform="translate(16 15)" fill="#ffc20e" stroke-miterlimit="10">
    <path d="M 4 7.5 C 2.070090055465698 7.5 0.5 5.929910182952881 0.5 4 C 0.5 2.070090055465698 2.070090055465698 0.5 4 0.5 C 5.929910182952881 0.5 7.5 2.070090055465698 7.5 4 C 7.5 5.929910182952881 5.929910182952881 7.5 4 7.5 Z" stroke="none"/>
    <path d="M 4 1 C 2.345789909362793 1 1 2.345789909362793 1 4 C 1 5.654210090637207 2.345789909362793 7 4 7 C 5.654210090637207 7 7 5.654210090637207 7 4 C 7 2.345789909362793 5.654210090637207 1 4 1 M 4 0 C 6.209139823913574 0 8 1.790860176086426 8 4 C 8 6.209139823913574 6.209139823913574 8 4 8 C 1.790860176086426 8 0 6.209139823913574 0 4 C 0 1.790860176086426 1.790860176086426 0 4 0 Z" stroke="none" fill="#ffc20e"/>
  </g>
  <path id="Path_86937" data-name="Path 86937" d="M17,0,0,8.09l17,7.576" transform="translate(4.001 4)" fill="none" stroke="#ffc20e" stroke-linejoin="round" stroke-miterlimit="10" stroke-width="2"/>
</svg>
