<svg id="Component_13_2" data-name="Component 13 – 2" xmlns="http://www.w3.org/2000/svg" width="186.372" height="128.005" viewBox="0 0 186.372 128.005">
  <path id="Path_86685" data-name="Path 86685" d="M712.3,356.074c.093-1.658-1.843-1.1-2.486-.644s-2.483,0-3.035,1.1-1.474.46-2.761.644-3.128-.368-3.037-1.2-.736-1.655-.644-2.667-1.288-.553-2.209-1.473-2.76-1.563-3.128-1.379-1.472-1.012-3.038-1.105-1.377-1.1-1.193-1.749-1.289-2.668-1.566-3.773-1.379-1.286-1.839-3.68-1.749-1.746-1.473-2.849-1.562-1.658-2.023-2.3-2.393-.368-3.775-1.1-2.207-.184-3.495-.552-4.233.368-4.6.368-2.672-.461-3.958,1.286-.277,1.658.276,1.658.828,1.656.921,2.209-.921,1.381-1.38,1.563a7.811,7.811,0,0,0-1.932,2.947c-.184.735-1.656,2.574-1.473,3.219s-.735,1.286-1.381,1.379-2.391,1.38-2.942,1.565-2.76-.184-3.037-.828a1.24,1.24,0,0,0-.693-.518l-2.49,4.977-.2,1.6s-1.6.4-.4,1.6,1.4.2,3.208.2,2.6,1.4,3.006.4a1.775,1.775,0,0,1,3.006-.4c1,1.2,4.21,3.21,4.01,4.208s-2,.8-3.207.4-2.806.8-4.009.8a5.318,5.318,0,0,0-3.81,1.605c-1.2,1.2-1,2.405-2.806,2.606s-2.607,0-4.611,1.4a5.1,5.1,0,0,1-5.01.4,2.164,2.164,0,0,0-3.009.8c-.8,1.4,1,2,.8,3.608s-2.2,1.206-3.809,3.007a7.282,7.282,0,0,1-5.612,2.407c-1.4-.2-4.41-1-7.015.2s-4.411,3.009-5.414,2.808-1-1.407-2.405-1.206a4.323,4.323,0,0,1-3.205-.8c-1-.6-1.8.4-3.408-.8s-4.411-1-5.612-1.2-5.815,0-7.418-.2-3.809.4-4.01-.4-1.4-1.405-1.8-3.207a2.968,2.968,0,0,0-2.4-2.608c-1-.2-1.122-1.257-2-1.4-.426-.07-.935-1.408-2.336-1.408s-6.3-.571-7.007-1.716.7-1.4.7-2.549.763-2.674.189-3.12a4.582,4.582,0,0,1-1.656-2.356,3.49,3.49,0,0,0-2.675-2.165,4.966,4.966,0,0,1-2.8-1.529c-.955-.828-1.846-.768-2.229-2.866-.026-.138-.067-.248-.1-.373-.384-.04-.873-.189-1.187-.189a1.331,1.331,0,0,1-.817-.486c-.251.876-1.079,1.312-1.079,2,0,.763-.317,1.716-1.337,1.716s-1.973.766-2.038,2.359.893,1.783.446,2.484a3.374,3.374,0,0,1-2.93,1.082c-.636-.319-1.845-.128-2.867-.254s-1.783-1.4-2.1,0-2.422,5.539-1.91,5.987.89,1.464,0,1.464a3.315,3.315,0,0,1-2.23-.574c-.446-.443-1.9.624-2.928.574-.477-.025-2.478.873-1.789,1.218s.692,2,.692,2.69,1.518,2.761,1.241,3.451-1.654,1.449-1.654,2.345.275,1.727-.207,1.935a16.853,16.853,0,0,0-2.761,1.38c-.758.551-2,.551-2.416,1.381a2.2,2.2,0,0,1-2.483,1.379c-1.244-.139-1.863-.347-2.831.827s-1.173.69-1.863,1.243-1.381-.413-1.932-.619-1.311.619-1.862.619-1.035.9-1.726,1.105-1.381,0-1.381.828a2.382,2.382,0,0,1-.509,1.542h0l.49,2.7s2.95.984,3.073,1.969.616,4.177.616,4.177l-.091.009c1.2.938,2.835,1.938,2.835,2.3a2.593,2.593,0,0,0,1.588,2.346,20.906,20.906,0,0,1,2.43,1.289,1.991,1.991,0,0,0,.094-.286l1.249-.132a4.025,4.025,0,0,1,.7.6c.529.488.305,1.671,1.783,2.579.413.44.889.385.955,1.12a11.818,11.818,0,0,1-.246,2.215c0,.616,1.1,1.6,1.72,2.7s-.984,1.843-1.843,1.107-1.227.737-.737,1.35.246,2.337,1.107,2.459,1.6,1.842,2.58,1.842,1.843,1.6,1.843,1.6,1.35.86,1.35,1.353a.383.383,0,0,1-.06.187c1.073-.108,1.783-.147,1.908-.59.138-.483,1.518-.483,2.484.483s4.9,3.45,6.349,4.623,4.83,2.483,6,2.415,2.278.83,4.072.76a6.941,6.941,0,0,1,.713.015c.255-.269.687-.275,1.015-.769.491-.737,1.231.616.983,1.6a2.115,2.115,0,0,0,.177,1.367,6.914,6.914,0,0,0,.7-1.314c.621-1.518,1.586-1.449,2.21-1.931s1.24-.276,2.552.413c1.237.651,1.74-.721,3.591.981a4.1,4.1,0,0,1,1.09-.375c.368,0,.86-.738,1.475-1.353s.49-1.353,1.227-1.229,1.107-.857,2.7-1.718,2.95.492,3.687-.124,1.6-.861,1.6-.246.983,1.353,1.229,2.088c.22.661,1.512.926,1.786.972a5.419,5.419,0,0,0,.525-.307,1.373,1.373,0,0,1,2.069.9c0,.828.068,1.724.692,1.724s1.241,0,1.241,1.518.551,3.244-.76,4.557-2.831,3.656-2.552,4.345-.416,2,.551,1.52,3.174,0,2.829.551.068,2.486.966,2.554,1.45.553,1.172,1.381-.758,2.069,0,2.069,1.865,0,1.727.83.551,1.588,1.932,1.034c.811-.323,1.216-.618,1.4-.291.55-.018.588,1.231,1.535,1.467.983.245.492-2.089.122-2.459s.122-1.964.492-1.6,1.472,0,2.086-.738,1.845.616,2.337-.245,1.594.614,2.7,0,1.6.49,2.09-.368,2.088-1.966,2.458-1.6a3.121,3.121,0,0,0,2.578,1.353c1.967.245.859,1.227.859,1.842s2.213,2.212,3.072,2.334a1.432,1.432,0,0,1,.639.511c.6-.294,1.664.2,1.9-.508.276-.83,1.286-.6,1.7.088s.873.83,1.794,0,1.381.83.828,1.292-.183,1.882.692,2.712,1.011-.506.828-1.333,1.472-1.658,4.371-2.622,6.026-3.085,6.072-3.543,2.071.827,3.037.091,4.462-.828,5.381-.874.875-.83,1.842-1.608.734-1.153,1.839-1.473a2.477,2.477,0,0,0,1.792-1.888c0-.552,2.071-.735,2.119-1.333s1.565-.782,1.565-1.518.919-.6,1.335-1.151-.323-2.162.413-2.391-.277-1.105-.413-1.517,1.379-.509,2.158-1.014a3.155,3.155,0,0,0,1.428-2.162c.139-.875,1.426-1.656,2.023-1.887s.83-1.47.645-2.529,1.059-.785.508-1.2.227-1.563,1.331-1.884-.689-.829-1.286-.368-1.244-1.336-1.8-.645-2.114-.415-1.1-.642a31.458,31.458,0,0,0,3.267-1.611c.69-.232-1.014-1.749-1.887-1.7s-1.84-2.025-2.761-2.025.69-.644,1.749-.091,2.3,1.012,2.761.549-1.8-2.3-2.623-2.942-.046-1.518-.551-1.888a13.6,13.6,0,0,1-1.981-3.77c-.365-1.06-2.3-1.243-2.76-1.932s.048-2.3,1.473-2.9.828-1.8,1.472-1.658,1.195-.139,1.7-1.195,1.38-.415,1.887-.967,2.76-.5,3.541-1.057-.737-2.255-1.794-1.98a2.823,2.823,0,0,1-3.037-1.241c-.737-1.105-2.668,2.024-4.142,2.715s-2.436-1.243-1.932-2.484-1.148-1.2-3.219-1.105-1.288-3.681-.045-3.863,3.082,1.148,3.865-1.152,1.884-.506,3.633-2.529,3.772-3.267,5.29-2.071-1.61,3.083-2.116,4.231.46,1.52-.46,2.391.367,1.105,2.162-.045A38.28,38.28,0,0,1,678.4,387.4a3.338,3.338,0,0,1,1.5-.19,2.521,2.521,0,0,1,.879-1.368c1.2-.6,5.211-2.405,5.813-3.208s1.2-2.2,2-2.2.8.8,2,.8,2.606.4,2-.6-.2-1,1.2-1.206,1.2-1.6,2.206-1.6.8-2.407,1.8-2.407,1.405,1.405,2.608,1a1.247,1.247,0,0,1,.854.124c.257-.2.508-.392.76-.571a16.579,16.579,0,0,0-.221-2.975c-.46-1.105,0-1.932-.187-2.575s-.274-2.209.463-2.209,1.656-1.842,2.574-1.2,2.759.828,2.759,0,1.291-.921,1.475-2.026,1.562-1.379,1.84-2.391.737-3.405,1.655-3.956S712.207,357.731,712.3,356.074Zm-45.086,87.135c-1.011,3.681,1.345,5.552,1.654,5.337.921-.644,4.693-8.557,3.865-9.661S668.226,439.527,667.216,443.209Zm-32.849,12.514c-1.195,0-4.233,1.747-3.037,4.23s5.154.83,5.245-.275,1.9-2.84,1.656-3.679C638.047,455.354,635.566,455.722,634.367,455.722Z" transform="translate(-526.388 -333.243)" fill="#ffc20e"/>
</svg>
